<?xml version="1.0" encoding="UTF-8"?>
<svg id="Livello_2" xmlns="http://www.w3.org/2000/svg" viewBox="0 0 605.53 25.78">
  <defs>
    <style>
      .cls-1 {
        fill: #fff;
      }
    </style>
  </defs>
  <g id="MICROGRAPH">
    <g>
      <g>
        <path class="cls-1" d="M341.03,22.95h-17.52V0h-17.52v25.46h49.56c1.17,0,2.68-.93,2.95-2.14h.04v-5.19h-17.52v4.82Z"/>
        <path class="cls-1" d="M476.27,0h-49.56v25.46h17.52v-11.29h17.52v11.29h17.52v-8.79c-2.4-.91-4.81-1.82-7.21-2.73,2.4-.76,4.81-1.52,7.21-2.28V2.5c0-1.38-1.7-2.5-2.99-2.5ZM461.75,11.66h-17.52V2.5h17.52v9.16Z"/>
        <path class="cls-1" d="M414.46,0h-46.56c-1.29,0-2.99,1.12-2.99,2.5v22.96h17.52v-8.98h17.52v8.98h17.52V2.5c0-1.38-1.7-2.5-2.99-2.5ZM399.94,13.98h-17.52V2.5h17.52v11.48Z"/>
        <path class="cls-1" d="M294.34,0h-46.56c-1.22,0-2.81,1.01-2.98,2.29h-.02v20.66c0,1.38,1.7,2.5,2.99,2.5h46.56c1.17,0,2.68-.93,2.95-2.14h.04v-5.19h-17.52v4.82h-17.52V2.5h17.52v5.19h17.52V2.5h0C297.33,1.12,295.63,0,294.34,0Z"/>
        <polygon class="cls-1" points="183.56 0 183.56 25.46 201.08 25.46 236.11 25.46 236.11 22.96 201.08 22.96 201.08 13.98 236.11 13.98 236.11 11.48 201.08 11.48 201.08 2.5 236.11 2.5 236.11 0 201.08 0 183.56 0"/>
        <polygon class="cls-1" points="489.5 0 489.5 25.46 507.01 25.46 542.04 25.46 542.04 22.96 507.01 22.96 507.01 13.98 542.04 13.98 542.04 11.48 507.01 11.48 507.01 2.5 542.04 2.5 542.04 0 507.01 0 489.5 0"/>
        <path class="cls-1" d="M35.03,22.96h-17.52V0H0v22.95c0,1.38,1.7,2.5,2.99,2.5h46.56c1.29,0,2.99-1.12,2.99-2.5V0h-17.52v22.95Z"/>
        <path class="cls-1" d="M172.38,0h-49.56v25.46h49.56c1.29,0,2.99-1.12,2.99-2.5V2.5C175.37,1.12,173.67,0,172.38,0ZM157.85,22.96h-17.52V2.5h17.52v20.45Z"/>
        <path class="cls-1" d="M602.53,0h-49.56v25.46h49.56c1.29,0,2.99-1.12,2.99-2.5V2.5C605.53,1.12,603.83,0,602.53,0ZM588.01,22.96h-17.52V2.5h17.52v20.45Z"/>
      </g>
      <path class="cls-1" d="M96.95,0v21.75C91.32,14.5,85.69,7.25,80.06,0h-.61S61.92,0,61.92,0v25.78h17.52V4.27c5.62,7.17,11.25,14.34,16.87,21.51h18.15V0h-17.52Z"/>
    </g>
  </g>
</svg>