<?xml version="1.0" encoding="UTF-8"?>
<svg id="Livello_2" xmlns="http://www.w3.org/2000/svg" viewBox="0 0 9.44 9.33">
  <defs>
    <style>
      .cls-1 {
        fill: #fff;
      }
    </style>
  </defs>
  <g id="Livello_8">
    <g>
      <polygon class="cls-1" points="3.23 .28 3.48 .28 3.72 .28 3.97 .28 4.22 .28 4.47 .28 4.72 .28 4.97 .28 5.21 .28 5.21 0 4.97 0 4.72 0 4.47 0 4.22 0 3.97 0 3.72 0 3.48 0 3.23 0 2.98 0 2.73 0 2.73 .28 2.98 .28 3.23 .28"/>
      <polygon class="cls-1" points="5.96 .28 6.21 .28 6.46 .28 6.7 .28 6.7 0 6.46 0 6.21 0 5.96 0 5.71 0 5.46 0 5.46 .28 5.71 .28 5.96 .28"/>
      <polygon class="cls-1" points="2.48 .82 2.73 .82 2.98 .82 3.23 .82 3.48 .82 3.72 .82 3.97 .82 4.22 .82 4.47 .82 4.72 .82 4.97 .82 5.21 .82 5.46 .82 5.71 .82 5.96 .82 6.21 .82 6.46 .82 6.7 .82 6.95 .82 7.2 .82 7.45 .82 7.45 .53 7.2 .53 6.95 .53 6.7 .53 6.46 .53 6.21 .53 5.96 .53 5.71 .53 5.46 .53 5.21 .53 4.97 .53 4.72 .53 4.47 .53 4.22 .53 3.97 .53 3.72 .53 3.48 .53 3.23 .53 2.98 .53 2.73 .53 2.48 .53 2.23 .53 1.99 .53 1.99 .82 2.23 .82 2.48 .82"/>
      <polygon class="cls-1" points="1.74 1.35 1.99 1.35 2.23 1.35 2.48 1.35 2.73 1.35 2.98 1.35 3.23 1.35 3.48 1.35 3.72 1.35 3.97 1.35 4.22 1.35 4.22 1.06 3.97 1.06 3.72 1.06 3.48 1.06 3.23 1.06 2.98 1.06 2.73 1.06 2.48 1.06 2.23 1.06 1.99 1.06 1.74 1.06 1.49 1.06 1.24 1.06 1.24 1.35 1.49 1.35 1.74 1.35"/>
      <polygon class="cls-1" points="5.21 1.06 4.97 1.06 4.97 1.35 5.21 1.35 5.46 1.35 5.71 1.35 5.71 1.06 5.46 1.06 5.21 1.06"/>
      <polygon class="cls-1" points="5.96 1.06 5.96 1.35 6.21 1.35 6.46 1.35 6.46 1.06 6.21 1.06 5.96 1.06"/>
      <polygon class="cls-1" points="7.45 1.06 7.2 1.06 6.95 1.06 6.7 1.06 6.7 1.35 6.95 1.35 7.2 1.35 7.45 1.35 7.45 1.06"/>
      <polygon class="cls-1" points="8.19 1.35 8.19 1.06 7.95 1.06 7.7 1.06 7.7 1.35 7.95 1.35 8.19 1.35"/>
      <polygon class="cls-1" points="1.24 1.88 1.49 1.88 1.49 1.6 1.24 1.6 .99 1.6 .74 1.6 .74 1.88 .99 1.88 1.24 1.88"/>
      <polygon class="cls-1" points="1.74 1.6 1.74 1.88 1.99 1.88 2.23 1.88 2.23 1.6 1.99 1.6 1.74 1.6"/>
      <rect class="cls-1" x="2.48" y="1.6" width=".25" height=".28"/>
      <rect class="cls-1" x="3.23" y="1.6" width=".25" height=".28"/>
      <polygon class="cls-1" points="4.22 1.6 4.22 1.88 4.47 1.88 4.72 1.88 4.72 1.6 4.47 1.6 4.22 1.6"/>
      <polygon class="cls-1" points="5.71 1.6 5.46 1.6 5.46 1.88 5.71 1.88 5.96 1.88 6.21 1.88 6.46 1.88 6.46 1.6 6.21 1.6 5.96 1.6 5.71 1.6"/>
      <polygon class="cls-1" points="8.19 1.88 8.44 1.88 8.44 1.6 8.19 1.6 7.95 1.6 7.7 1.6 7.7 1.88 7.95 1.88 8.19 1.88"/>
      <polygon class="cls-1" points=".99 2.41 .99 2.13 .74 2.13 .5 2.13 .5 2.41 .74 2.41 .99 2.41"/>
      <polygon class="cls-1" points="1.24 2.13 1.24 2.41 1.49 2.41 1.74 2.41 1.74 2.13 1.49 2.13 1.24 2.13"/>
      <rect class="cls-1" x="2.23" y="2.13" width=".25" height=".28"/>
      <polygon class="cls-1" points="3.23 2.41 3.48 2.41 3.72 2.41 3.72 2.13 3.48 2.13 3.23 2.13 3.23 2.41"/>
      <polygon class="cls-1" points="4.72 2.13 4.72 2.41 4.97 2.41 5.21 2.41 5.46 2.41 5.46 2.13 5.21 2.13 4.97 2.13 4.72 2.13"/>
      <polygon class="cls-1" points="6.46 2.13 6.46 2.41 6.7 2.41 6.95 2.41 6.95 2.13 6.7 2.13 6.46 2.13"/>
      <polygon class="cls-1" points="7.45 2.41 7.7 2.41 7.95 2.41 7.95 2.13 7.7 2.13 7.45 2.13 7.45 2.41"/>
      <polygon class="cls-1" points="8.19 2.13 8.19 2.41 8.44 2.41 8.69 2.41 8.94 2.41 8.94 2.13 8.69 2.13 8.44 2.13 8.19 2.13"/>
      <polygon class="cls-1" points=".74 2.94 .74 2.66 .5 2.66 .25 2.66 .25 2.94 .5 2.94 .74 2.94"/>
      <polygon class="cls-1" points=".99 2.66 .99 2.94 1.24 2.94 1.49 2.94 1.49 2.66 1.24 2.66 .99 2.66"/>
      <polygon class="cls-1" points="1.74 2.94 1.99 2.94 2.23 2.94 2.48 2.94 2.48 2.66 2.23 2.66 1.99 2.66 1.74 2.66 1.74 2.94"/>
      <polygon class="cls-1" points="2.98 2.66 2.98 2.94 3.23 2.94 3.48 2.94 3.72 2.94 3.97 2.94 4.22 2.94 4.22 2.66 3.97 2.66 3.72 2.66 3.48 2.66 3.23 2.66 2.98 2.66"/>
      <polygon class="cls-1" points="4.97 2.66 4.97 2.94 5.21 2.94 5.46 2.94 5.46 2.66 5.21 2.66 4.97 2.66"/>
      <polygon class="cls-1" points="7.2 2.66 6.95 2.66 6.95 2.94 7.2 2.94 7.45 2.94 7.7 2.94 7.7 2.66 7.45 2.66 7.2 2.66"/>
      <polygon class="cls-1" points="9.19 2.66 8.94 2.66 8.69 2.66 8.69 2.94 8.94 2.94 9.19 2.94 9.19 2.66"/>
      <polygon class="cls-1" points=".5 3.48 .5 3.19 .25 3.19 0 3.19 0 3.48 .25 3.48 .5 3.48"/>
      <rect class="cls-1" x=".74" y="3.19" width=".25" height=".28"/>
      <polygon class="cls-1" points="2.23 3.48 2.23 3.19 1.99 3.19 1.74 3.19 1.74 3.48 1.99 3.48 2.23 3.48"/>
      <polygon class="cls-1" points="3.72 3.19 3.48 3.19 3.23 3.19 3.23 3.48 3.48 3.48 3.72 3.48 3.72 3.19"/>
      <polygon class="cls-1" points="5.21 3.19 5.21 3.48 5.46 3.48 5.71 3.48 5.71 3.19 5.46 3.19 5.21 3.19"/>
      <polygon class="cls-1" points="6.95 3.48 7.2 3.48 7.2 3.19 6.95 3.19 6.7 3.19 6.46 3.19 6.46 3.48 6.7 3.48 6.95 3.48"/>
      <polygon class="cls-1" points="7.45 3.19 7.45 3.48 7.7 3.48 7.95 3.48 7.95 3.19 7.7 3.19 7.45 3.19"/>
      <polygon class="cls-1" points="9.19 3.19 8.94 3.19 8.69 3.19 8.69 3.48 8.94 3.48 9.19 3.48 9.19 3.19"/>
      <polygon class="cls-1" points=".5 4.01 .74 4.01 .99 4.01 .99 3.72 .74 3.72 .5 3.72 .25 3.72 0 3.72 0 4.01 .25 4.01 .5 4.01"/>
      <polygon class="cls-1" points="1.74 4.01 1.99 4.01 2.23 4.01 2.23 3.72 1.99 3.72 1.74 3.72 1.74 4.01"/>
      <rect class="cls-1" x="3.48" y="3.72" width=".25" height=".28"/>
      <polygon class="cls-1" points="5.96 3.72 5.71 3.72 5.46 3.72 5.46 4.01 5.71 4.01 5.96 4.01 6.21 4.01 6.46 4.01 6.46 3.72 6.21 3.72 5.96 3.72"/>
      <polygon class="cls-1" points="8.19 4.01 8.19 3.72 7.95 3.72 7.7 3.72 7.7 4.01 7.95 4.01 8.19 4.01"/>
      <polygon class="cls-1" points="8.94 4.01 9.19 4.01 9.19 3.72 8.94 3.72 8.69 3.72 8.44 3.72 8.44 4.01 8.69 4.01 8.94 4.01"/>
      <rect class="cls-1" x="0" y="4.26" width=".25" height=".28"/>
      <polygon class="cls-1" points=".99 4.54 .99 4.26 .74 4.26 .5 4.26 .5 4.54 .74 4.54 .99 4.54"/>
      <polygon class="cls-1" points="1.74 4.54 1.99 4.54 2.23 4.54 2.23 4.26 1.99 4.26 1.74 4.26 1.74 4.54"/>
      <polygon class="cls-1" points="3.97 4.54 3.97 4.26 3.72 4.26 3.48 4.26 3.48 4.54 3.72 4.54 3.97 4.54"/>
      <polygon class="cls-1" points="4.72 4.26 4.47 4.26 4.47 4.54 4.72 4.54 4.97 4.54 5.21 4.54 5.46 4.54 5.46 4.26 5.21 4.26 4.97 4.26 4.72 4.26"/>
      <rect class="cls-1" x="5.96" y="4.26" width=".25" height=".28"/>
      <polygon class="cls-1" points="8.69 4.26 8.44 4.26 8.19 4.26 8.19 4.54 8.44 4.54 8.69 4.54 8.69 4.26"/>
      <rect class="cls-1" x="9.19" y="4.26" width=".25" height=".28"/>
      <rect class="cls-1" x="0" y="4.79" width=".25" height=".28"/>
      <rect class="cls-1" x=".5" y="4.79" width=".25" height=".28"/>
      <polygon class="cls-1" points="2.23 4.79 1.99 4.79 1.74 4.79 1.49 4.79 1.24 4.79 1.24 5.07 1.49 5.07 1.74 5.07 1.99 5.07 2.23 5.07 2.48 5.07 2.73 5.07 2.98 5.07 3.23 5.07 3.48 5.07 3.72 5.07 3.97 5.07 3.97 4.79 3.72 4.79 3.48 4.79 3.23 4.79 2.98 4.79 2.73 4.79 2.48 4.79 2.23 4.79"/>
      <polygon class="cls-1" points="5.96 5.07 6.21 5.07 6.46 5.07 6.46 4.79 6.21 4.79 5.96 4.79 5.96 5.07"/>
      <polygon class="cls-1" points="7.95 5.07 7.95 4.79 7.7 4.79 7.45 4.79 7.45 5.07 7.7 5.07 7.95 5.07"/>
      <rect class="cls-1" x="8.44" y="4.79" width=".25" height=".28"/>
      <polygon class="cls-1" points="8.94 4.79 8.94 5.07 9.19 5.07 9.44 5.07 9.44 4.79 9.19 4.79 8.94 4.79"/>
      <polygon class="cls-1" points=".5 5.6 .74 5.6 .74 5.32 .5 5.32 .25 5.32 0 5.32 0 5.6 .25 5.6 .5 5.6"/>
      <rect class="cls-1" x="1.74" y="5.32" width=".25" height=".28"/>
      <polygon class="cls-1" points="4.22 5.32 3.97 5.32 3.72 5.32 3.72 5.6 3.97 5.6 4.22 5.6 4.22 5.32"/>
      <polygon class="cls-1" points="6.21 5.32 6.21 5.6 6.46 5.6 6.7 5.6 6.95 5.6 7.2 5.6 7.45 5.6 7.45 5.32 7.2 5.32 6.95 5.32 6.7 5.32 6.46 5.32 6.21 5.32"/>
      <polygon class="cls-1" points="8.94 5.32 8.69 5.32 8.44 5.32 8.44 5.6 8.69 5.6 8.94 5.6 9.19 5.6 9.44 5.6 9.44 5.32 9.19 5.32 8.94 5.32"/>
      <polygon class="cls-1" points=".74 6.14 .74 5.85 .5 5.85 .25 5.85 .25 6.14 .5 6.14 .74 6.14"/>
      <rect class="cls-1" x="1.99" y="5.85" width=".25" height=".28"/>
      <rect class="cls-1" x="3.97" y="5.85" width=".25" height=".28"/>
      <polygon class="cls-1" points="6.7 5.85 6.46 5.85 6.21 5.85 5.96 5.85 5.71 5.85 5.46 5.85 5.21 5.85 5.21 6.14 5.46 6.14 5.71 6.14 5.96 6.14 6.21 6.14 6.46 6.14 6.7 6.14 6.7 5.85"/>
      <polygon class="cls-1" points="8.69 5.85 8.44 5.85 8.44 6.14 8.69 6.14 8.94 6.14 9.19 6.14 9.19 5.85 8.94 5.85 8.69 5.85"/>
      <polygon class="cls-1" points=".99 6.67 1.24 6.67 1.49 6.67 1.74 6.67 1.99 6.67 2.23 6.67 2.48 6.67 2.73 6.67 2.98 6.67 3.23 6.67 3.48 6.67 3.72 6.67 3.97 6.67 4.22 6.67 4.47 6.67 4.72 6.67 4.97 6.67 4.97 6.39 4.72 6.39 4.47 6.39 4.22 6.39 3.97 6.39 3.72 6.39 3.48 6.39 3.23 6.39 2.98 6.39 2.73 6.39 2.48 6.39 2.23 6.39 1.99 6.39 1.74 6.39 1.49 6.39 1.24 6.39 .99 6.39 .74 6.39 .5 6.39 .5 6.67 .74 6.67 .99 6.67"/>
      <rect class="cls-1" x="6.7" y="6.39" width=".25" height=".28"/>
      <polygon class="cls-1" points="8.19 6.39 7.95 6.39 7.7 6.39 7.7 6.67 7.95 6.67 8.19 6.67 8.19 6.39"/>
      <polygon class="cls-1" points="8.94 6.67 8.94 6.39 8.69 6.39 8.44 6.39 8.44 6.67 8.69 6.67 8.94 6.67"/>
      <polygon class="cls-1" points="1.24 7.2 1.24 6.92 .99 6.92 .74 6.92 .74 7.2 .99 7.2 1.24 7.2"/>
      <polygon class="cls-1" points="1.99 6.92 1.99 7.2 2.23 7.2 2.48 7.2 2.48 6.92 2.23 6.92 1.99 6.92"/>
      <rect class="cls-1" x="4.47" y="6.92" width=".25" height=".28"/>
      <polygon class="cls-1" points="7.7 6.92 7.45 6.92 7.2 6.92 6.95 6.92 6.7 6.92 6.7 7.2 6.95 7.2 7.2 7.2 7.45 7.2 7.7 7.2 7.7 6.92"/>
      <polygon class="cls-1" points="8.69 7.2 8.69 6.92 8.44 6.92 8.19 6.92 8.19 7.2 8.44 7.2 8.69 7.2"/>
      <polygon class="cls-1" points="1.74 7.73 1.74 7.45 1.49 7.45 1.24 7.45 .99 7.45 .99 7.73 1.24 7.73 1.49 7.73 1.74 7.73"/>
      <polygon class="cls-1" points="2.23 7.45 2.23 7.73 2.48 7.73 2.73 7.73 2.73 7.45 2.48 7.45 2.23 7.45"/>
      <polygon class="cls-1" points="4.47 7.73 4.72 7.73 4.97 7.73 4.97 7.45 4.72 7.45 4.47 7.45 4.47 7.73"/>
      <polygon class="cls-1" points="6.21 7.45 5.96 7.45 5.71 7.45 5.71 7.73 5.96 7.73 6.21 7.73 6.46 7.73 6.7 7.73 6.7 7.45 6.46 7.45 6.21 7.45"/>
      <rect class="cls-1" x="6.95" y="7.45" width=".25" height=".28"/>
      <polygon class="cls-1" points="8.19 7.45 7.95 7.45 7.7 7.45 7.7 7.73 7.95 7.73 8.19 7.73 8.19 7.45"/>
      <polygon class="cls-1" points="2.23 8.27 2.48 8.27 2.73 8.27 2.98 8.27 3.23 8.27 3.48 8.27 3.72 8.27 3.97 8.27 4.22 8.27 4.47 8.27 4.72 8.27 4.97 8.27 5.21 8.27 5.21 7.98 4.97 7.98 4.72 7.98 4.47 7.98 4.22 7.98 3.97 7.98 3.72 7.98 3.48 7.98 3.23 7.98 2.98 7.98 2.73 7.98 2.48 7.98 2.23 7.98 1.99 7.98 1.74 7.98 1.74 8.27 1.99 8.27 2.23 8.27"/>
      <polygon class="cls-1" points="7.2 8.27 7.45 8.27 7.7 8.27 7.7 7.98 7.45 7.98 7.2 7.98 6.95 7.98 6.7 7.98 6.7 8.27 6.95 8.27 7.2 8.27"/>
      <polygon class="cls-1" points="3.23 8.8 3.48 8.8 3.72 8.8 3.72 8.51 3.48 8.51 3.23 8.51 2.98 8.51 2.73 8.51 2.48 8.51 2.48 8.8 2.73 8.8 2.98 8.8 3.23 8.8"/>
      <polygon class="cls-1" points="6.95 8.51 6.7 8.51 6.46 8.51 6.21 8.51 5.96 8.51 5.71 8.51 5.46 8.51 5.21 8.51 4.97 8.51 4.72 8.51 4.72 8.8 4.97 8.8 5.21 8.8 5.46 8.8 5.71 8.8 5.96 8.8 6.21 8.8 6.46 8.8 6.7 8.8 6.95 8.8 6.95 8.51"/>
      <polygon class="cls-1" points="5.21 9.33 5.46 9.33 5.46 9.05 5.21 9.05 4.97 9.05 4.72 9.05 4.47 9.05 4.22 9.05 3.97 9.05 3.97 9.33 4.22 9.33 4.47 9.33 4.72 9.33 4.97 9.33 5.21 9.33"/>
    </g>
  </g>
</svg>