<?xml version="1.0" encoding="UTF-8"?>
<svg id="Livello_2" data-name="Livello 2" xmlns="http://www.w3.org/2000/svg" viewBox="0 0 1567.11 1521.33">
  <defs>
    <style>
      .cls-1, .cls-2 {
        fill: none;
        stroke: #fff;
        stroke-miterlimit: 10;
        stroke-width: 2.5px;
      }

      .cls-2 {
        stroke-dasharray: 9.52;
      }
    </style>
  </defs>
  <g id="Livello_1-2" data-name="Livello 1">
    <g>
      <circle class="cls-1" cx="783.56" cy="760.66" r="729.41"/>
      <circle class="cls-1" cx="783.56" cy="760.66" r="698.24"/>
      <circle class="cls-1" cx="783.56" cy="760.66" r="388.27"/>
      <circle class="cls-2" cx="783.56" cy="760.66" r="584.69"/>
      <circle class="cls-1" cx="783.56" cy="760.66" r="215.77"/>
      <g>
        <line class="cls-1" x1="783.56" y1="733.16" x2="783.56" y2="788.16"/>
        <line class="cls-1" x1="783.56" y1="344.9" x2="783.56" y2="399.9"/>
        <line class="cls-1" x1="783.56" y1="1121.43" x2="783.56" y2="1176.43"/>
        <line class="cls-1" x1="811.06" y1="760.66" x2="756.06" y2="760.66"/>
        <line class="cls-1" x1="422.79" y1="760.66" x2="367.79" y2="760.66"/>
        <line class="cls-1" x1="1199.32" y1="760.66" x2="1144.32" y2="760.66"/>
      </g>
      <g>
        <line class="cls-1" x1="877.37" y1="1519.35" x2="875.12" y2="1501.14"/>
        <line class="cls-1" x1="706.19" y1="1521.2" x2="708.05" y2="1502.94"/>
        <line class="cls-1" x1="538.9" y1="1484.92" x2="544.77" y2="1467.53"/>
        <line class="cls-1" x1="383.87" y1="1412.32" x2="393.46" y2="1396.68"/>
        <line class="cls-1" x1="248.89" y1="1307.04" x2="261.72" y2="1293.93"/>
        <line class="cls-1" x1="140.71" y1="1174.37" x2="156.14" y2="1164.44"/>
        <line class="cls-1" x1="64.77" y1="1020.95" x2="82.02" y2="1014.7"/>
        <line class="cls-1" x1="24.87" y1="854.48" x2="43.08" y2="852.22"/>
        <line class="cls-1" x1="23.02" y1="683.3" x2="41.28" y2="685.16"/>
        <line class="cls-1" x1="59.3" y1="516.01" x2="76.69" y2="521.88"/>
        <line class="cls-1" x1="131.9" y1="360.98" x2="147.54" y2="370.57"/>
        <line class="cls-1" x1="237.18" y1="225.99" x2="250.3" y2="238.83"/>
        <line class="cls-1" x1="369.85" y1="117.82" x2="379.78" y2="133.25"/>
        <line class="cls-1" x1="523.27" y1="41.88" x2="529.52" y2="59.13"/>
        <line class="cls-1" x1="689.74" y1="1.98" x2="692" y2="20.19"/>
        <line class="cls-1" x1="860.92" y1=".13" x2="859.06" y2="18.38"/>
        <line class="cls-1" x1="1028.22" y1="36.41" x2="1022.34" y2="53.79"/>
        <line class="cls-1" x1="1183.24" y1="109.01" x2="1173.65" y2="124.65"/>
        <line class="cls-1" x1="1318.23" y1="214.29" x2="1305.39" y2="227.4"/>
        <line class="cls-1" x1="1426.4" y1="346.96" x2="1410.97" y2="356.89"/>
        <line class="cls-1" x1="1502.34" y1="500.38" x2="1485.09" y2="506.63"/>
        <line class="cls-1" x1="1542.24" y1="666.85" x2="1524.03" y2="669.1"/>
        <line class="cls-1" x1="1544.09" y1="838.03" x2="1525.84" y2="836.17"/>
        <line class="cls-1" x1="1507.81" y1="1005.32" x2="1490.43" y2="999.45"/>
        <line class="cls-1" x1="1435.21" y1="1160.35" x2="1419.57" y2="1150.76"/>
        <line class="cls-1" x1="1329.93" y1="1295.34" x2="1316.82" y2="1282.5"/>
        <line class="cls-1" x1="1197.26" y1="1403.51" x2="1187.33" y2="1388.08"/>
        <line class="cls-1" x1="1043.84" y1="1479.45" x2="1037.59" y2="1462.2"/>
      </g>
      <g>
        <line class="cls-1" x1="1.25" y1="716.56" x2="1.25" y2="805.59"/>
        <line class="cls-1" x1="12.89" y1="733.03" x2="12.89" y2="789.12"/>
        <line class="cls-1" x1="22.93" y1="761.08" x2="1.25" y2="761.08"/>
      </g>
      <g>
        <line class="cls-1" x1="1565.86" y1="805.59" x2="1565.86" y2="716.56"/>
        <line class="cls-1" x1="1554.22" y1="789.12" x2="1554.22" y2="733.03"/>
        <line class="cls-1" x1="1544.19" y1="761.08" x2="1565.86" y2="761.08"/>
      </g>
    </g>
  </g>
</svg>