<?xml version="1.0" encoding="UTF-8"?>
<svg id="Livello_2" data-name="Livello 2" xmlns="http://www.w3.org/2000/svg" viewBox="0 0 1567.28 1585.96">
  <defs>
    <style>
      .cls-1, .cls-2 {
        fill: none;
        stroke: #fff;
        stroke-miterlimit: 10;
        stroke-width: 2.5px;
      }

      .cls-2 {
        stroke-dasharray: 9.52;
      }
    </style>
  </defs>
  <g id="Livello_1-2" data-name="Livello 1">
    <g>
      <g>
        <ellipse class="cls-1" cx="783.14" cy="796.22" rx="724.36" ry="729.41"/>
        <ellipse class="cls-1" cx="783.14" cy="796.22" rx="693.41" ry="698.24"/>
        <ellipse class="cls-1" cx="783.14" cy="796.22" rx="385.58" ry="388.27"/>
        <ellipse class="cls-2" cx="783.14" cy="796.22" rx="580.64" ry="584.69"/>
        <ellipse class="cls-1" cx="783.14" cy="796.22" rx="214.27" ry="215.77"/>
        <g>
          <line class="cls-1" x1="783.14" y1="768.72" x2="783.14" y2="823.72"/>
          <line class="cls-1" x1="783.14" y1="380.45" x2="783.14" y2="435.45"/>
          <line class="cls-1" x1="783.14" y1="1156.98" x2="783.14" y2="1211.99"/>
          <line class="cls-1" x1="810.45" y1="796.22" x2="755.83" y2="796.22"/>
          <line class="cls-1" x1="424.87" y1="796.22" x2="370.25" y2="796.22"/>
          <line class="cls-1" x1="1196.03" y1="796.22" x2="1141.4" y2="796.22"/>
        </g>
        <g>
          <line class="cls-1" x1="869.39" y1="1554.29" x2="867.32" y2="1536.06"/>
          <line class="cls-1" x1="698.54" y1="1554.48" x2="700.57" y2="1536.24"/>
          <line class="cls-1" x1="531.93" y1="1516.64" x2="537.97" y2="1499.32"/>
          <line class="cls-1" x1="377.92" y1="1442.68" x2="387.67" y2="1427.14"/>
          <line class="cls-1" x1="244.23" y1="1336.31" x2="257.19" y2="1323.32"/>
          <line class="cls-1" x1="137.56" y1="1202.84" x2="153.08" y2="1193.07"/>
          <line class="cls-1" x1="63.26" y1="1049" x2="80.57" y2="1042.92"/>
          <line class="cls-1" x1="25.06" y1="882.47" x2="43.29" y2="880.4"/>
          <line class="cls-1" x1="24.88" y1="711.62" x2="43.11" y2="713.65"/>
          <line class="cls-1" x1="62.71" y1="545.01" x2="80.04" y2="551.05"/>
          <line class="cls-1" x1="136.67" y1="391" x2="152.22" y2="400.75"/>
          <line class="cls-1" x1="243.05" y1="257.31" x2="256.04" y2="270.27"/>
          <line class="cls-1" x1="376.51" y1="150.64" x2="386.29" y2="166.16"/>
          <line class="cls-1" x1="530.36" y1="76.34" x2="536.44" y2="93.65"/>
          <line class="cls-1" x1="696.89" y1="38.14" x2="698.96" y2="56.37"/>
          <line class="cls-1" x1="867.74" y1="37.96" x2="865.7" y2="56.19"/>
          <line class="cls-1" x1="1034.34" y1="75.79" x2="1028.3" y2="93.12"/>
          <line class="cls-1" x1="1188.36" y1="149.75" x2="1178.61" y2="165.3"/>
          <line class="cls-1" x1="1322.05" y1="256.13" x2="1309.09" y2="269.12"/>
          <line class="cls-1" x1="1428.72" y1="389.59" x2="1413.19" y2="399.37"/>
          <line class="cls-1" x1="1503.01" y1="543.44" x2="1485.7" y2="549.52"/>
          <line class="cls-1" x1="1541.21" y1="709.97" x2="1522.98" y2="712.04"/>
          <line class="cls-1" x1="1541.4" y1="880.82" x2="1523.16" y2="878.78"/>
          <line class="cls-1" x1="1503.56" y1="1047.42" x2="1486.24" y2="1041.38"/>
          <line class="cls-1" x1="1429.6" y1="1201.44" x2="1414.06" y2="1191.69"/>
          <line class="cls-1" x1="1323.23" y1="1335.13" x2="1310.24" y2="1322.17"/>
          <line class="cls-1" x1="1189.77" y1="1441.8" x2="1179.99" y2="1426.27"/>
          <line class="cls-1" x1="1035.92" y1="1516.09" x2="1029.84" y2="1498.78"/>
        </g>
      </g>
      <g>
        <line class="cls-1" x1="828.65" y1="1.25" x2="739.62" y2="1.25"/>
        <line class="cls-1" x1="812.18" y1="12.81" x2="756.09" y2="12.81"/>
        <line class="cls-1" x1="784.14" y1="22.78" x2="784.14" y2="1.25"/>
      </g>
      <g>
        <line class="cls-1" x1="739.62" y1="1584.71" x2="828.65" y2="1584.71"/>
        <line class="cls-1" x1="756.09" y1="1573.15" x2="812.18" y2="1573.15"/>
        <line class="cls-1" x1="784.14" y1="1563.19" x2="784.14" y2="1584.71"/>
      </g>
      <g>
        <line class="cls-1" x1="1.25" y1="751.11" x2="1.25" y2="840.15"/>
        <line class="cls-1" x1="12.81" y1="767.59" x2="12.81" y2="823.68"/>
        <line class="cls-1" x1="22.78" y1="795.63" x2="1.25" y2="795.63"/>
      </g>
      <g>
        <line class="cls-1" x1="1566.03" y1="840.15" x2="1566.03" y2="751.11"/>
        <line class="cls-1" x1="1554.46" y1="823.68" x2="1554.46" y2="767.59"/>
        <line class="cls-1" x1="1544.5" y1="795.63" x2="1566.03" y2="795.63"/>
      </g>
    </g>
  </g>
</svg>