<?xml version="1.0" encoding="UTF-8"?>
<svg id="Livello_2" data-name="Livello 2" xmlns="http://www.w3.org/2000/svg" viewBox="115.525 0 2541.05 1947.12">
  <defs>
    <style>
      .cls-1, .cls-2 {
        fill: none;
        stroke: #fff;
        stroke-miterlimit: 10;
      }

      .cls-3 {
        opacity: .7;
      }

      .cls-4 {
        opacity: .59;
      }

      .cls-2 {
        opacity: .68;
        stroke-width: .75px;
      }
    </style>
  </defs>
  <g id="Livello_1-2" data-name="Livello 1">
    <g id="LINEE" class="cls-4">
      <rect class="cls-2" x="2309.75" y="243.67" width="230.93" height="243.3"/>
      <rect class="cls-2" x="2309.75" y=".38" width="230.93" height="243.3"/>
      <rect class="cls-2" x="2309.75" y="486.97" width="230.93" height="243.3"/>
      <rect class="cls-2" x="2309.75" y="730.26" width="230.93" height="243.3"/>
      <rect class="cls-2" x="2309.75" y="973.56" width="230.93" height="243.3"/>
      <rect class="cls-2" x="2309.75" y="1216.86" width="230.93" height="243.3"/>
      <rect class="cls-2" x="2309.75" y="1460.15" width="230.93" height="243.3"/>
      <rect class="cls-2" x="2309.75" y="1703.45" width="230.93" height="243.3"/>
      <rect class="cls-2" x="2078.83" y=".38" width="230.93" height="243.3"/>
      <rect class="cls-2" x="2078.83" y="243.67" width="230.93" height="243.3"/>
      <rect class="cls-2" x="2078.83" y="486.97" width="230.93" height="243.3"/>
      <rect class="cls-2" x="2078.83" y="730.26" width="230.93" height="243.3"/>
      <rect class="cls-2" x="2078.83" y="973.56" width="230.93" height="243.3"/>
      <rect class="cls-2" x="2078.83" y="1216.86" width="230.93" height="243.3"/>
      <rect class="cls-2" x="2078.83" y="1460.15" width="230.93" height="243.3"/>
      <rect class="cls-2" x="2078.83" y="1703.45" width="230.93" height="243.3"/>
      <rect class="cls-2" x="1847.9" y=".38" width="230.93" height="243.3"/>
      <rect class="cls-2" x="1847.9" y="243.67" width="230.93" height="243.3"/>
      <rect class="cls-2" x="1847.9" y="486.97" width="230.93" height="243.3"/>
      <rect class="cls-2" x="1847.9" y="730.26" width="230.93" height="243.3"/>
      <rect class="cls-2" x="1847.9" y="973.56" width="230.93" height="243.3"/>
      <rect class="cls-2" x="1847.9" y="1216.86" width="230.93" height="243.3"/>
      <rect class="cls-2" x="1847.9" y="1460.15" width="230.93" height="243.3"/>
      <rect class="cls-2" x="1847.9" y="1703.45" width="230.93" height="243.3"/>
      <rect class="cls-2" x="1616.98" y=".38" width="230.93" height="243.3"/>
      <rect class="cls-2" x="1616.98" y="243.67" width="230.93" height="243.3"/>
      <rect class="cls-2" x="1616.98" y="486.97" width="230.93" height="243.3"/>
      <rect class="cls-2" x="1616.98" y="730.26" width="230.93" height="243.3"/>
      <rect class="cls-2" x="1616.98" y="973.56" width="230.93" height="243.3"/>
      <rect class="cls-2" x="1616.98" y="1216.86" width="230.93" height="243.3"/>
      <rect class="cls-2" x="1616.98" y="1460.15" width="230.93" height="243.3"/>
      <rect class="cls-2" x="1616.98" y="1703.45" width="230.93" height="243.3"/>
      <rect class="cls-2" x="1386.05" y=".38" width="230.93" height="243.3"/>
      <rect class="cls-2" x="1386.05" y="243.67" width="230.93" height="243.3"/>
      <rect class="cls-2" x="1386.05" y="486.97" width="230.93" height="243.3"/>
      <rect class="cls-2" x="1386.05" y="730.26" width="230.93" height="243.3"/>
      <rect class="cls-2" x="1386.05" y="973.56" width="230.93" height="243.3"/>
      <rect class="cls-2" x="1386.05" y="1216.86" width="230.93" height="243.3"/>
      <rect class="cls-2" x="1386.05" y="1460.15" width="230.93" height="243.3"/>
      <rect class="cls-2" x="1386.05" y="1703.45" width="230.93" height="243.3"/>
      <rect class="cls-2" x="1155.13" y=".38" width="230.93" height="243.3"/>
      <rect class="cls-2" x="1155.13" y="243.67" width="230.93" height="243.3"/>
      <rect class="cls-2" x="1155.13" y="486.97" width="230.93" height="243.3"/>
      <rect class="cls-2" x="1155.13" y="730.26" width="230.93" height="243.3"/>
      <rect class="cls-2" x="1155.13" y="973.56" width="230.93" height="243.3"/>
      <rect class="cls-2" x="1155.13" y="1216.86" width="230.93" height="243.3"/>
      <rect class="cls-2" x="1155.13" y="1460.15" width="230.93" height="243.3"/>
      <rect class="cls-2" x="1155.13" y="1703.45" width="230.93" height="243.3"/>
      <rect class="cls-2" x="924.2" y=".38" width="230.93" height="243.3"/>
      <rect class="cls-2" x="924.2" y="243.67" width="230.93" height="243.3"/>
      <rect class="cls-2" x="924.2" y="486.97" width="230.93" height="243.3"/>
      <rect class="cls-2" x="924.2" y="730.26" width="230.93" height="243.3"/>
      <rect class="cls-2" x="924.2" y="973.56" width="230.93" height="243.3"/>
      <rect class="cls-2" x="924.2" y="1216.86" width="230.93" height="243.3"/>
      <rect class="cls-2" x="924.2" y="1460.15" width="230.93" height="243.3"/>
      <rect class="cls-2" x="924.2" y="1703.45" width="230.93" height="243.3"/>
      <rect class="cls-2" x="693.28" y=".38" width="230.93" height="243.3"/>
      <rect class="cls-2" x="693.28" y="243.67" width="230.93" height="243.3"/>
      <rect class="cls-2" x="693.28" y="486.97" width="230.93" height="243.3"/>
      <rect class="cls-2" x="693.28" y="730.26" width="230.93" height="243.3"/>
      <rect class="cls-2" x="693.28" y="973.56" width="230.93" height="243.3"/>
      <rect class="cls-2" x="693.28" y="1216.86" width="230.93" height="243.3"/>
      <rect class="cls-2" x="693.28" y="1460.15" width="230.93" height="243.3"/>
      <rect class="cls-2" x="693.28" y="1703.45" width="230.93" height="243.3"/>
      <rect class="cls-2" x="462.35" y=".38" width="230.93" height="243.3"/>
      <rect class="cls-2" x="462.35" y="243.67" width="230.93" height="243.3"/>
      <rect class="cls-2" x="462.35" y="486.97" width="230.93" height="243.3"/>
      <rect class="cls-2" x="462.35" y="730.26" width="230.93" height="243.3"/>
      <rect class="cls-2" x="462.35" y="973.56" width="230.93" height="243.3"/>
      <rect class="cls-2" x="462.35" y="1216.86" width="230.93" height="243.3"/>
      <rect class="cls-2" x="462.35" y="1460.15" width="230.93" height="243.3"/>
      <rect class="cls-2" x="462.35" y="1703.45" width="230.93" height="243.3"/>
      <rect class="cls-2" x="231.43" y=".38" width="230.93" height="243.3"/>
      <rect class="cls-2" x="231.43" y="243.67" width="230.93" height="243.3"/>
      <rect class="cls-2" x="231.43" y="486.97" width="230.93" height="243.3"/>
      <rect class="cls-2" x="231.43" y="730.26" width="230.93" height="243.3"/>
      <rect class="cls-2" x="231.43" y="973.56" width="230.93" height="243.3"/>
      <rect class="cls-2" x="231.43" y="1216.86" width="230.93" height="243.3"/>
      <rect class="cls-2" x="231.43" y="1460.15" width="230.93" height="243.3"/>
      <rect class="cls-2" x="231.43" y="1703.45" width="230.93" height="243.3"/>
      <rect class="cls-2" x=".5" y=".38" width="230.93" height="243.3"/>
      <rect class="cls-2" x=".5" y="243.67" width="230.93" height="243.3"/>
      <rect class="cls-2" x=".5" y="486.97" width="230.93" height="243.3"/>
      <rect class="cls-2" x=".5" y="730.26" width="230.93" height="243.3"/>
      <rect class="cls-2" x=".5" y="973.56" width="230.93" height="243.3"/>
      <rect class="cls-2" x=".5" y="1216.86" width="230.93" height="243.3"/>
      <rect class="cls-2" x=".5" y="1460.15" width="230.93" height="243.3"/>
      <rect class="cls-2" x=".5" y="1703.45" width="230.93" height="243.3"/>
    </g>
    <g class="cls-3">
      <line class="cls-1" x1="2320.76" y1="1703.45" x2="2298.75" y2="1703.45"/>
      <line class="cls-1" x1="2309.75" y1="1714.45" x2="2309.75" y2="1692.45"/>
      <line class="cls-1" x1="2089.83" y1="1703.45" x2="2067.82" y2="1703.45"/>
      <line class="cls-1" x1="2078.83" y1="1714.45" x2="2078.83" y2="1692.45"/>
      <line class="cls-1" x1="1858.91" y1="1703.45" x2="1836.9" y2="1703.45"/>
      <line class="cls-1" x1="1847.9" y1="1714.45" x2="1847.9" y2="1692.45"/>
      <line class="cls-1" x1="1627.98" y1="1703.45" x2="1605.97" y2="1703.45"/>
      <line class="cls-1" x1="1616.98" y1="1714.45" x2="1616.98" y2="1692.45"/>
      <line class="cls-1" x1="1397.06" y1="1703.45" x2="1375.05" y2="1703.45"/>
      <line class="cls-1" x1="1386.05" y1="1714.45" x2="1386.05" y2="1692.45"/>
      <line class="cls-1" x1="1166.13" y1="1703.45" x2="1144.12" y2="1703.45"/>
      <line class="cls-1" x1="1155.13" y1="1714.45" x2="1155.13" y2="1692.45"/>
      <line class="cls-1" x1="935.2" y1="1703.45" x2="913.2" y2="1703.45"/>
      <line class="cls-1" x1="924.2" y1="1714.45" x2="924.2" y2="1692.45"/>
      <line class="cls-1" x1="704.28" y1="1703.45" x2="682.27" y2="1703.45"/>
      <line class="cls-1" x1="693.28" y1="1714.45" x2="693.28" y2="1692.45"/>
      <line class="cls-1" x1="473.35" y1="1703.45" x2="451.35" y2="1703.45"/>
      <line class="cls-1" x1="462.35" y1="1714.45" x2="462.35" y2="1692.45"/>
      <line class="cls-1" x1="242.43" y1="1703.45" x2="220.42" y2="1703.45"/>
      <line class="cls-1" x1="231.43" y1="1714.45" x2="231.43" y2="1692.45"/>
      <line class="cls-1" x1=".5" y1="1714.45" x2=".5" y2="1692.45"/>
      <line class="cls-1" x1="2320.76" y1="1460.15" x2="2298.75" y2="1460.15"/>
      <line class="cls-1" x1="2309.75" y1="1471.16" x2="2309.75" y2="1449.15"/>
      <line class="cls-1" x1="2089.83" y1="1460.15" x2="2067.82" y2="1460.15"/>
      <line class="cls-1" x1="2078.83" y1="1471.16" x2="2078.83" y2="1449.15"/>
      <line class="cls-1" x1="1858.91" y1="1460.15" x2="1836.9" y2="1460.15"/>
      <line class="cls-1" x1="1847.9" y1="1471.16" x2="1847.9" y2="1449.15"/>
      <line class="cls-1" x1="1627.98" y1="1460.15" x2="1605.97" y2="1460.15"/>
      <line class="cls-1" x1="1616.98" y1="1471.16" x2="1616.98" y2="1449.15"/>
      <line class="cls-1" x1="1397.06" y1="1460.15" x2="1375.05" y2="1460.15"/>
      <line class="cls-1" x1="1386.05" y1="1471.16" x2="1386.05" y2="1449.15"/>
      <line class="cls-1" x1="1166.13" y1="1460.15" x2="1144.12" y2="1460.15"/>
      <line class="cls-1" x1="1155.13" y1="1471.16" x2="1155.13" y2="1449.15"/>
      <line class="cls-1" x1="935.2" y1="1460.15" x2="913.2" y2="1460.15"/>
      <line class="cls-1" x1="924.2" y1="1471.16" x2="924.2" y2="1449.15"/>
      <line class="cls-1" x1="704.28" y1="1460.15" x2="682.27" y2="1460.15"/>
      <line class="cls-1" x1="693.28" y1="1471.16" x2="693.28" y2="1449.15"/>
      <line class="cls-1" x1="473.35" y1="1460.15" x2="451.35" y2="1460.15"/>
      <line class="cls-1" x1="462.35" y1="1471.16" x2="462.35" y2="1449.15"/>
      <line class="cls-1" x1="242.43" y1="1460.15" x2="220.42" y2="1460.15"/>
      <line class="cls-1" x1="231.43" y1="1471.16" x2="231.43" y2="1449.15"/>
      <line class="cls-1" x1=".5" y1="1471.16" x2=".5" y2="1449.15"/>
      <line class="cls-1" x1="2320.76" y1="1216.86" x2="2298.75" y2="1216.86"/>
      <line class="cls-1" x1="2309.75" y1="1227.86" x2="2309.75" y2="1205.85"/>
      <line class="cls-1" x1="2089.83" y1="1216.86" x2="2067.82" y2="1216.86"/>
      <line class="cls-1" x1="2078.83" y1="1227.86" x2="2078.83" y2="1205.85"/>
      <line class="cls-1" x1="1858.91" y1="1216.86" x2="1836.9" y2="1216.86"/>
      <line class="cls-1" x1="1847.9" y1="1227.86" x2="1847.9" y2="1205.85"/>
      <line class="cls-1" x1="1627.98" y1="1216.86" x2="1605.97" y2="1216.86"/>
      <line class="cls-1" x1="1616.98" y1="1227.86" x2="1616.98" y2="1205.85"/>
      <line class="cls-1" x1="1397.06" y1="1216.86" x2="1375.05" y2="1216.86"/>
      <line class="cls-1" x1="1386.05" y1="1227.86" x2="1386.05" y2="1205.85"/>
      <line class="cls-1" x1="1166.13" y1="1216.86" x2="1144.12" y2="1216.86"/>
      <line class="cls-1" x1="1155.13" y1="1227.86" x2="1155.13" y2="1205.85"/>
      <line class="cls-1" x1="935.2" y1="1216.86" x2="913.2" y2="1216.86"/>
      <line class="cls-1" x1="924.2" y1="1227.86" x2="924.2" y2="1205.85"/>
      <line class="cls-1" x1="704.28" y1="1216.86" x2="682.27" y2="1216.86"/>
      <line class="cls-1" x1="693.28" y1="1227.86" x2="693.28" y2="1205.85"/>
      <line class="cls-1" x1="473.35" y1="1216.86" x2="451.35" y2="1216.86"/>
      <line class="cls-1" x1="462.35" y1="1227.86" x2="462.35" y2="1205.85"/>
      <line class="cls-1" x1="242.43" y1="1216.86" x2="220.42" y2="1216.86"/>
      <line class="cls-1" x1="231.43" y1="1227.86" x2="231.43" y2="1205.85"/>
      <line class="cls-1" x1=".5" y1="1227.86" x2=".5" y2="1205.85"/>
      <line class="cls-1" x1="2320.76" y1="973.56" x2="2298.75" y2="973.56"/>
      <line class="cls-1" x1="2309.75" y1="984.56" x2="2309.75" y2="962.56"/>
      <line class="cls-1" x1="2089.83" y1="973.56" x2="2067.82" y2="973.56"/>
      <line class="cls-1" x1="2078.83" y1="984.56" x2="2078.83" y2="962.56"/>
      <line class="cls-1" x1="1858.91" y1="973.56" x2="1836.9" y2="973.56"/>
      <line class="cls-1" x1="1847.9" y1="984.56" x2="1847.9" y2="962.56"/>
      <line class="cls-1" x1="1627.98" y1="973.56" x2="1605.97" y2="973.56"/>
      <line class="cls-1" x1="1616.98" y1="984.56" x2="1616.98" y2="962.56"/>
      <line class="cls-1" x1="1397.06" y1="973.56" x2="1375.05" y2="973.56"/>
      <line class="cls-1" x1="1386.05" y1="984.56" x2="1386.05" y2="962.56"/>
      <line class="cls-1" x1="1166.13" y1="973.56" x2="1144.12" y2="973.56"/>
      <line class="cls-1" x1="1155.13" y1="984.56" x2="1155.13" y2="962.56"/>
      <line class="cls-1" x1="935.2" y1="973.56" x2="913.2" y2="973.56"/>
      <line class="cls-1" x1="924.2" y1="984.56" x2="924.2" y2="962.56"/>
      <line class="cls-1" x1="704.28" y1="973.56" x2="682.27" y2="973.56"/>
      <line class="cls-1" x1="693.28" y1="984.56" x2="693.28" y2="962.56"/>
      <line class="cls-1" x1="473.35" y1="973.56" x2="451.35" y2="973.56"/>
      <line class="cls-1" x1="462.35" y1="984.56" x2="462.35" y2="962.56"/>
      <line class="cls-1" x1="242.43" y1="973.56" x2="220.42" y2="973.56"/>
      <line class="cls-1" x1="231.43" y1="984.56" x2="231.43" y2="962.56"/>
      <line class="cls-1" x1=".5" y1="984.56" x2=".5" y2="962.56"/>
      <line class="cls-1" x1="2320.76" y1="730.26" x2="2298.75" y2="730.26"/>
      <line class="cls-1" x1="2309.75" y1="741.27" x2="2309.75" y2="719.26"/>
      <line class="cls-1" x1="2089.83" y1="730.26" x2="2067.82" y2="730.26"/>
      <line class="cls-1" x1="2078.83" y1="741.27" x2="2078.83" y2="719.26"/>
      <line class="cls-1" x1="1858.91" y1="730.26" x2="1836.9" y2="730.26"/>
      <line class="cls-1" x1="1847.9" y1="741.27" x2="1847.9" y2="719.26"/>
      <line class="cls-1" x1="1627.98" y1="730.26" x2="1605.97" y2="730.26"/>
      <line class="cls-1" x1="1616.98" y1="741.27" x2="1616.98" y2="719.26"/>
      <line class="cls-1" x1="1397.06" y1="730.26" x2="1375.05" y2="730.26"/>
      <line class="cls-1" x1="1386.05" y1="741.27" x2="1386.05" y2="719.26"/>
      <line class="cls-1" x1="1166.13" y1="730.26" x2="1144.12" y2="730.26"/>
      <line class="cls-1" x1="1155.13" y1="741.27" x2="1155.13" y2="719.26"/>
      <line class="cls-1" x1="935.2" y1="730.26" x2="913.2" y2="730.26"/>
      <line class="cls-1" x1="924.2" y1="741.27" x2="924.2" y2="719.26"/>
      <line class="cls-1" x1="704.28" y1="730.26" x2="682.27" y2="730.26"/>
      <line class="cls-1" x1="693.28" y1="741.27" x2="693.28" y2="719.26"/>
      <line class="cls-1" x1="473.35" y1="730.26" x2="451.35" y2="730.26"/>
      <line class="cls-1" x1="462.35" y1="741.27" x2="462.35" y2="719.26"/>
      <line class="cls-1" x1="242.43" y1="730.26" x2="220.42" y2="730.26"/>
      <line class="cls-1" x1="231.43" y1="741.27" x2="231.43" y2="719.26"/>
      <line class="cls-1" x1=".5" y1="741.27" x2=".5" y2="719.26"/>
      <line class="cls-1" x1="2320.76" y1="486.97" x2="2298.75" y2="486.97"/>
      <line class="cls-1" x1="2309.75" y1="497.97" x2="2309.75" y2="475.96"/>
      <line class="cls-1" x1="2089.83" y1="486.97" x2="2067.82" y2="486.97"/>
      <line class="cls-1" x1="2078.83" y1="497.97" x2="2078.83" y2="475.96"/>
      <line class="cls-1" x1="1858.91" y1="486.97" x2="1836.9" y2="486.97"/>
      <line class="cls-1" x1="1847.9" y1="497.97" x2="1847.9" y2="475.96"/>
      <line class="cls-1" x1="1627.98" y1="486.97" x2="1605.97" y2="486.97"/>
      <line class="cls-1" x1="1616.98" y1="497.97" x2="1616.98" y2="475.96"/>
      <line class="cls-1" x1="1397.06" y1="486.97" x2="1375.05" y2="486.97"/>
      <line class="cls-1" x1="1386.05" y1="497.97" x2="1386.05" y2="475.96"/>
      <line class="cls-1" x1="1166.13" y1="486.97" x2="1144.12" y2="486.97"/>
      <line class="cls-1" x1="1155.13" y1="497.97" x2="1155.13" y2="475.96"/>
      <line class="cls-1" x1="935.2" y1="486.97" x2="913.2" y2="486.97"/>
      <line class="cls-1" x1="924.2" y1="497.97" x2="924.2" y2="475.96"/>
      <line class="cls-1" x1="704.28" y1="486.97" x2="682.27" y2="486.97"/>
      <line class="cls-1" x1="693.28" y1="497.97" x2="693.28" y2="475.96"/>
      <line class="cls-1" x1="473.35" y1="486.97" x2="451.35" y2="486.97"/>
      <line class="cls-1" x1="462.35" y1="497.97" x2="462.35" y2="475.96"/>
      <line class="cls-1" x1="242.43" y1="486.97" x2="220.42" y2="486.97"/>
      <line class="cls-1" x1="231.43" y1="497.97" x2="231.43" y2="475.96"/>
      <line class="cls-1" x1=".5" y1="497.97" x2=".5" y2="475.96"/>
      <line class="cls-1" x1="2320.76" y1="243.67" x2="2298.75" y2="243.67"/>
      <line class="cls-1" x1="2309.75" y1="254.67" x2="2309.75" y2="232.67"/>
      <line class="cls-1" x1="2089.83" y1="243.67" x2="2067.82" y2="243.67"/>
      <line class="cls-1" x1="2078.83" y1="254.67" x2="2078.83" y2="232.67"/>
      <line class="cls-1" x1="1858.91" y1="243.67" x2="1836.9" y2="243.67"/>
      <line class="cls-1" x1="1847.9" y1="254.67" x2="1847.9" y2="232.67"/>
      <line class="cls-1" x1="1627.98" y1="243.67" x2="1605.97" y2="243.67"/>
      <line class="cls-1" x1="1616.98" y1="254.67" x2="1616.98" y2="232.67"/>
      <line class="cls-1" x1="1397.06" y1="243.67" x2="1375.05" y2="243.67"/>
      <line class="cls-1" x1="1386.05" y1="254.67" x2="1386.05" y2="232.67"/>
      <line class="cls-1" x1="1166.13" y1="243.67" x2="1144.12" y2="243.67"/>
      <line class="cls-1" x1="1155.13" y1="254.67" x2="1155.13" y2="232.67"/>
      <line class="cls-1" x1="935.2" y1="243.67" x2="913.2" y2="243.67"/>
      <line class="cls-1" x1="924.2" y1="254.67" x2="924.2" y2="232.67"/>
      <line class="cls-1" x1="704.28" y1="243.67" x2="682.27" y2="243.67"/>
      <line class="cls-1" x1="693.28" y1="254.67" x2="693.28" y2="232.67"/>
      <line class="cls-1" x1="473.35" y1="243.67" x2="451.35" y2="243.67"/>
      <line class="cls-1" x1="462.35" y1="254.67" x2="462.35" y2="232.67"/>
      <line class="cls-1" x1="242.43" y1="243.67" x2="220.42" y2="243.67"/>
      <line class="cls-1" x1="231.43" y1="254.67" x2="231.43" y2="232.67"/>
      <line class="cls-1" x1=".5" y1="254.67" x2=".5" y2="232.67"/>
    </g>
  </g>
</svg>