<?xml version="1.0" encoding="UTF-8"?>
<svg id="Livello_2" xmlns="http://www.w3.org/2000/svg" viewBox="0 0 123.62 8.64">
  <g id="Livello_8">
    <g>
      <path d="M36.96.04h-16.67v8.56h5.89v-3.8h5.89v3.8h5.89v-2.96c-.81-.31-1.62-.61-2.43-.92.81-.26,1.62-.51,2.43-.77V.88c0-.46-.57-.84-1.01-.84ZM32.08,3.96h-5.89V.88h5.89v3.08Z"/>
      <path d="M0,.04v8.56h5.89v-3.86h11.78v-.84H5.89V.88h11.78V.04H0Z"/>
      <path d="M57.44.04h-15.66c-.43,0-1.01.38-1.01.84v7.72h5.89v-3.02h5.89v3.02h5.89V.88c0-.46-.57-.84-1.01-.84ZM52.56,4.74h-5.89V.88h5.89v3.86Z"/>
      <path d="M122.61.04h-15.66c-.43,0-1.01.38-1.01.84v7.72h5.89v-3.02h5.89v3.02h5.89V.88c0-.46-.57-.84-1.01-.84ZM117.73,4.74h-5.89V.88h5.89v3.86Z"/>
      <path d="M70.06,4.74h2.95v1.4h0v1.62h-5.89V.88h5.89v1.74h5.89V.88h0c0-.46-.57-.84-1.01-.84h-15.66c-.41,0-.95.34-1,.77h0v6.95c0,.46.57.84,1.01.84h15.66c.39,0,.9-.31.99-.72h.01v-3.14h0v-.84h-8.84v.84Z"/>
      <path d="M96.76,0c-1.45,1.81-2.89,3.61-4.34,5.42-1.45-1.81-2.89-3.61-4.34-5.42h-6.29v8.64h6.07V1.42c1.29,1.61,2.58,3.21,3.87,4.82h1.37c1.29-1.61,2.58-3.21,3.87-4.82v7.22h6.07V0h-6.29Z"/>
    </g>
  </g>
</svg>