<?xml version="1.0" encoding="UTF-8"?>
<svg id="Livello_2" xmlns="http://www.w3.org/2000/svg" viewBox="0 0 80.37 8.64">
  <g id="Livello_8">
    <g>
      <path d="M16.82,0H1.02C.58,0,0,.38,0,.85v7.79h5.94v-3.05h5.94v3.05h5.94V.85c0-.47-.58-.85-1.02-.85ZM11.89,4.74h-5.94V.85h5.94v3.89Z"/>
      <path d="M79.35,0h-15.8c-.44,0-1.02.38-1.02.85v7.79h5.94v-3.05h5.94v3.05h5.94V.85c0-.47-.58-.85-1.02-.85ZM74.43,4.74h-5.94V.85h5.94v3.89Z"/>
      <path d="M33.15,7.79h-5.94V0h-5.94v8.64h16.82c.4,0,.91-.32,1-.73h.02v-1.76h-5.94v1.64Z"/>
      <path d="M53.81,7.79h-5.94V0h-5.94v7.79c0,.47.58.85,1.02.85h15.8c.44,0,1.02-.38,1.02-.85V0h-5.94v7.79Z"/>
    </g>
  </g>
</svg>