<?xml version="1.0" encoding="UTF-8"?>
<svg id="Livello_2" xmlns="http://www.w3.org/2000/svg" viewBox="0 0 61.67 86.86">
  <defs>
    <style>
      .cls-1 {
        stroke: #fff;
        stroke-miterlimit: 10;
        stroke-width: .25px;
      }

      .cls-1, .cls-2 {
        fill: #fff;
      }
    </style>
  </defs>
  <g id="MICROGRAPH">
    <g>
      <polygon class="cls-2" points="34.62 0 33.44 0 32.27 0 31.09 0 29.92 0 28.74 0 27.57 0 26.39 0 25.22 0 24.04 0 22.87 0 22.87 1.34 24.04 1.34 25.22 1.34 26.39 1.34 27.57 1.34 28.74 1.34 29.92 1.34 31.09 1.34 32.27 1.34 33.44 1.34 34.62 1.34 35.79 1.34 36.97 1.34 36.97 0 35.79 0 34.62 0"/>
      <polygon class="cls-2" points="39.32 2.52 38.14 2.52 36.97 2.52 35.79 2.52 34.62 2.52 33.44 2.52 32.27 2.52 31.09 2.52 29.92 2.52 28.74 2.52 27.57 2.52 26.39 2.52 25.22 2.52 24.04 2.52 22.87 2.52 21.69 2.52 20.52 2.52 19.34 2.52 19.34 3.86 20.52 3.86 21.69 3.86 22.87 3.86 24.04 3.86 25.22 3.86 26.39 3.86 27.57 3.86 28.74 3.86 29.92 3.86 31.09 3.86 32.27 3.86 33.44 3.86 34.62 3.86 35.79 3.86 36.97 3.86 38.14 3.86 39.32 3.86 40.49 3.86 41.67 3.86 41.67 2.52 40.49 2.52 39.32 2.52"/>
      <polygon class="cls-2" points="22.87 6.38 24.04 6.38 25.22 6.38 26.39 6.38 27.57 6.38 28.74 6.38 29.92 6.38 31.09 6.38 32.27 6.38 33.44 6.38 34.62 6.38 35.79 6.38 36.97 6.38 38.14 6.38 39.32 6.38 40.49 6.38 41.67 6.38 42.84 6.38 42.84 5.04 41.67 5.04 40.49 5.04 39.32 5.04 38.14 5.04 36.97 5.04 35.79 5.04 34.62 5.04 33.44 5.04 32.27 5.04 31.09 5.04 29.92 5.04 28.74 5.04 27.57 5.04 26.39 5.04 25.22 5.04 24.04 5.04 22.87 5.04 21.69 5.04 20.52 5.04 19.34 5.04 18.17 5.04 18.17 6.38 19.34 6.38 20.52 6.38 21.69 6.38 22.87 6.38"/>
      <polygon class="cls-2" points="21.69 8.9 21.69 7.55 20.52 7.55 19.34 7.55 18.17 7.55 16.99 7.55 15.82 7.55 15.82 8.9 16.99 8.9 18.17 8.9 19.34 8.9 20.52 8.9 21.69 8.9"/>
      <polygon class="cls-2" points="42.84 7.55 41.67 7.55 40.49 7.55 39.32 7.55 39.32 8.9 40.49 8.9 41.67 8.9 42.84 8.9 44.02 8.9 45.19 8.9 45.19 7.55 44.02 7.55 42.84 7.55"/>
      <polygon class="cls-2" points="20.52 10.07 19.34 10.07 18.17 10.07 16.99 10.07 15.82 10.07 14.64 10.07 14.64 11.41 15.82 11.41 16.99 11.41 18.17 11.41 19.34 11.41 20.52 11.41 20.52 10.07"/>
      <polygon class="cls-2" points="46.37 10.07 45.19 10.07 44.02 10.07 42.84 10.07 41.67 10.07 40.49 10.07 39.32 10.07 39.32 11.41 40.49 11.41 41.67 11.41 42.84 11.41 44.02 11.41 45.19 11.41 46.37 11.41 46.37 10.07"/>
      <polygon class="cls-2" points="20.52 12.59 19.34 12.59 18.17 12.59 16.99 12.59 15.82 12.59 14.64 12.59 13.47 12.59 13.47 13.93 14.64 13.93 15.82 13.93 16.99 13.93 18.17 13.93 19.34 13.93 20.52 13.93 20.52 12.59"/>
      <polygon class="cls-2" points="44.02 12.59 42.84 12.59 41.67 12.59 40.49 12.59 39.32 12.59 39.32 13.93 40.49 13.93 41.67 13.93 42.84 13.93 44.02 13.93 45.19 13.93 46.37 13.93 46.37 12.59 45.19 12.59 44.02 12.59"/>
      <polygon class="cls-2" points="20.52 15.11 19.34 15.11 18.17 15.11 16.99 15.11 15.82 15.11 14.64 15.11 13.47 15.11 13.47 16.45 14.64 16.45 15.82 16.45 16.99 16.45 18.17 16.45 19.34 16.45 20.52 16.45 20.52 15.11"/>
      <polygon class="cls-2" points="47.54 15.11 46.37 15.11 45.19 15.11 44.02 15.11 42.84 15.11 41.67 15.11 40.49 15.11 39.32 15.11 39.32 16.45 40.49 16.45 41.67 16.45 42.84 16.45 44.02 16.45 45.19 16.45 46.37 16.45 47.54 16.45 47.54 15.11"/>
      <polygon class="cls-2" points="20.52 17.62 19.34 17.62 18.17 17.62 16.99 17.62 15.82 17.62 14.64 17.62 13.47 17.62 12.29 17.62 12.29 18.97 13.47 18.97 14.64 18.97 15.82 18.97 16.99 18.97 18.17 18.97 19.34 18.97 20.52 18.97 20.52 17.62"/>
      <polygon class="cls-2" points="41.67 18.97 42.84 18.97 44.02 18.97 45.19 18.97 46.37 18.97 47.54 18.97 47.54 17.62 46.37 17.62 45.19 17.62 44.02 17.62 42.84 17.62 41.67 17.62 40.49 17.62 39.32 17.62 39.32 18.97 40.49 18.97 41.67 18.97"/>
      <polygon class="cls-2" points="20.52 20.14 19.34 20.14 18.17 20.14 16.99 20.14 15.82 20.14 14.64 20.14 13.47 20.14 12.29 20.14 12.29 21.48 13.47 21.48 14.64 21.48 15.82 21.48 16.99 21.48 18.17 21.48 19.34 21.48 20.52 21.48 20.52 20.14"/>
      <polygon class="cls-2" points="46.37 20.14 45.19 20.14 44.02 20.14 42.84 20.14 41.67 20.14 40.49 20.14 39.32 20.14 39.32 21.48 40.49 21.48 41.67 21.48 42.84 21.48 44.02 21.48 45.19 21.48 46.37 21.48 47.54 21.48 48.72 21.48 48.72 20.14 47.54 20.14 46.37 20.14"/>
      <polygon class="cls-2" points="18.17 22.66 16.99 22.66 15.82 22.66 14.64 22.66 13.47 22.66 12.29 22.66 12.29 24 13.47 24 14.64 24 15.82 24 16.99 24 18.17 24 19.34 24 20.52 24 20.52 22.66 19.34 22.66 18.17 22.66"/>
      <polygon class="cls-2" points="46.37 22.66 45.19 22.66 44.02 22.66 42.84 22.66 41.67 22.66 40.49 22.66 39.32 22.66 39.32 24 40.49 24 41.67 24 42.84 24 44.02 24 45.19 24 46.37 24 47.54 24 48.72 24 48.72 22.66 47.54 22.66 46.37 22.66"/>
      <polygon class="cls-2" points="45.19 25.18 44.02 25.18 42.84 25.18 41.67 25.18 40.49 25.18 39.32 25.18 38.14 25.18 36.97 25.18 35.79 25.18 34.62 25.18 33.44 25.18 32.27 25.18 31.09 25.18 29.92 25.18 28.74 25.18 27.57 25.18 26.39 25.18 25.22 25.18 24.04 25.18 22.87 25.18 21.69 25.18 20.52 25.18 19.34 25.18 18.17 25.18 16.99 25.18 15.82 25.18 14.64 25.18 13.47 25.18 12.29 25.18 12.29 26.52 13.47 26.52 14.64 26.52 15.82 26.52 16.99 26.52 18.17 26.52 19.34 26.52 20.52 26.52 21.69 26.52 22.87 26.52 24.04 26.52 25.22 26.52 26.39 26.52 27.57 26.52 28.74 26.52 29.92 26.52 31.09 26.52 32.27 26.52 33.44 26.52 34.62 26.52 35.79 26.52 36.97 26.52 38.14 26.52 39.32 26.52 40.49 26.52 41.67 26.52 42.84 26.52 44.02 26.52 45.19 26.52 46.37 26.52 47.54 26.52 47.54 25.18 46.37 25.18 45.19 25.18"/>
      <polygon class="cls-2" points="45.19 27.7 44.02 27.7 42.84 27.7 41.67 27.7 40.49 27.7 39.32 27.7 38.14 27.7 36.97 27.7 35.79 27.7 34.62 27.7 33.44 27.7 32.27 27.7 31.09 27.7 29.92 27.7 28.74 27.7 27.57 27.7 26.39 27.7 25.22 27.7 24.04 27.7 22.87 27.7 21.69 27.7 20.52 27.7 19.34 27.7 18.17 27.7 16.99 27.7 15.82 27.7 14.64 27.7 13.47 27.7 12.29 27.7 12.29 29.04 13.47 29.04 14.64 29.04 15.82 29.04 16.99 29.04 18.17 29.04 19.34 29.04 20.52 29.04 21.69 29.04 22.87 29.04 24.04 29.04 25.22 29.04 26.39 29.04 27.57 29.04 28.74 29.04 29.92 29.04 31.09 29.04 32.27 29.04 33.44 29.04 34.62 29.04 35.79 29.04 36.97 29.04 38.14 29.04 39.32 29.04 40.49 29.04 41.67 29.04 42.84 29.04 44.02 29.04 45.19 29.04 46.37 29.04 47.54 29.04 47.54 27.7 46.37 27.7 45.19 27.7"/>
      <polygon class="cls-2" points="15.82 31.56 16.99 31.56 18.17 31.56 19.34 31.56 20.52 31.56 20.52 30.21 19.34 30.21 18.17 30.21 16.99 30.21 15.82 30.21 14.64 30.21 13.47 30.21 13.47 31.56 14.64 31.56 15.82 31.56"/>
      <polygon class="cls-2" points="26.39 31.56 27.57 31.56 28.74 31.56 29.92 31.56 31.09 31.56 32.27 31.56 33.44 31.56 34.62 31.56 35.79 31.56 36.97 31.56 36.97 30.21 35.79 30.21 34.62 30.21 33.44 30.21 32.27 30.21 31.09 30.21 29.92 30.21 28.74 30.21 27.57 30.21 26.39 30.21 25.22 30.21 24.04 30.21 24.04 31.56 25.22 31.56 26.39 31.56"/>
      <polygon class="cls-2" points="45.19 30.21 44.02 30.21 42.84 30.21 41.67 30.21 40.49 30.21 40.49 31.56 41.67 31.56 42.84 31.56 44.02 31.56 45.19 31.56 46.37 31.56 47.54 31.56 47.54 30.21 46.37 30.21 45.19 30.21"/>
      <polygon class="cls-2" points="16.99 34.07 18.17 34.07 19.34 34.07 20.52 34.07 21.69 34.07 22.87 34.07 24.04 34.07 25.22 34.07 26.39 34.07 27.57 34.07 28.74 34.07 28.74 32.73 27.57 32.73 26.39 32.73 25.22 32.73 24.04 32.73 22.87 32.73 21.69 32.73 20.52 32.73 19.34 32.73 18.17 32.73 16.99 32.73 15.82 32.73 14.64 32.73 14.64 34.07 15.82 34.07 16.99 34.07"/>
      <polygon class="cls-2" points="44.02 32.73 42.84 32.73 41.67 32.73 40.49 32.73 39.32 32.73 38.14 32.73 36.97 32.73 35.79 32.73 34.62 32.73 33.44 32.73 32.27 32.73 31.09 32.73 31.09 34.07 32.27 34.07 33.44 34.07 34.62 34.07 35.79 34.07 36.97 34.07 38.14 34.07 39.32 34.07 40.49 34.07 41.67 34.07 42.84 34.07 44.02 34.07 45.19 34.07 46.37 34.07 46.37 32.73 45.19 32.73 44.02 32.73"/>
      <polygon class="cls-2" points="42.84 35.25 41.67 35.25 40.49 35.25 39.32 35.25 38.14 35.25 36.97 35.25 35.79 35.25 34.62 35.25 33.44 35.25 32.27 35.25 31.09 35.25 29.92 35.25 28.74 35.25 27.57 35.25 26.39 35.25 25.22 35.25 24.04 35.25 22.87 35.25 21.69 35.25 20.52 35.25 19.34 35.25 18.17 35.25 16.99 35.25 15.82 35.25 15.82 36.59 16.99 36.59 18.17 36.59 19.34 36.59 20.52 36.59 21.69 36.59 22.87 36.59 24.04 36.59 25.22 36.59 26.39 36.59 27.57 36.59 28.74 36.59 29.92 36.59 31.09 36.59 32.27 36.59 33.44 36.59 34.62 36.59 35.79 36.59 36.97 36.59 38.14 36.59 39.32 36.59 40.49 36.59 41.67 36.59 42.84 36.59 44.02 36.59 45.19 36.59 45.19 35.25 44.02 35.25 42.84 35.25"/>
      <polygon class="cls-2" points="39.32 37.77 38.14 37.77 36.97 37.77 35.79 37.77 34.62 37.77 33.44 37.77 32.27 37.77 31.09 37.77 29.92 37.77 28.74 37.77 27.57 37.77 26.39 37.77 25.22 37.77 24.04 37.77 22.87 37.77 21.69 37.77 20.52 37.77 19.34 37.77 18.17 37.77 18.17 39.11 19.34 39.11 20.52 39.11 21.69 39.11 22.87 39.11 24.04 39.11 25.22 39.11 26.39 39.11 27.57 39.11 28.74 39.11 29.92 39.11 31.09 39.11 32.27 39.11 33.44 39.11 34.62 39.11 35.79 39.11 36.97 39.11 38.14 39.11 39.32 39.11 40.49 39.11 41.67 39.11 41.67 37.77 40.49 37.77 39.32 37.77"/>
      <polygon class="cls-2" points="29.92 40.28 28.74 40.28 28.74 41.63 29.92 41.63 31.09 41.63 32.27 41.63 32.27 40.28 31.09 40.28 29.92 40.28"/>
      <g>
        <path class="cls-1" d="M1.49,68.99v1.36H.12v-1.36h1.36ZM1.49,71.72v1.37H.12v-1.37h1.36ZM1.49,74.45v1.36H.12v-1.36h1.36ZM1.49,77.18v1.36H.12v-1.36h1.36ZM1.49,79.91v1.36H.12v-1.36h1.36ZM1.49,82.64v1.36H.12v-1.36h1.36ZM11.05,85.37v1.36H1.49v-1.36h9.56ZM12.41,68.99v1.36h-1.36v-1.36h1.36ZM12.41,71.72v1.37h-1.36v-1.37h1.36ZM12.41,74.45v1.36h-1.36v-1.36h1.36ZM12.41,77.18v1.36h-1.36v-1.36h1.36ZM12.41,79.91v1.36h-1.36v-1.36h1.36ZM12.41,82.64v1.36h-1.36v-1.36h1.36Z"/>
        <path class="cls-1" d="M17.87,68.99v1.36h-1.36v-1.36h1.36ZM17.87,71.72v1.37h-1.36v-1.37h1.36ZM17.87,74.45v1.36h-1.36v-1.36h1.36ZM17.87,77.18v1.36h-1.36v-1.36h1.36ZM17.87,79.91v1.36h-1.36v-1.36h1.36ZM17.87,82.64v1.36h-1.36v-1.36h1.36ZM17.87,85.37v1.36h-1.36v-1.36h1.36ZM20.6,71.72v1.37h-1.36v-1.37h1.36ZM21.96,74.45v1.36h-1.37v-1.36h1.37ZM23.33,77.18v1.36h-1.36v-1.36h1.36ZM24.69,79.91v1.36h-1.36v-1.36h1.36ZM26.06,82.64v1.36h-1.36v-1.36h1.36ZM28.79,68.99v1.36h-1.36v-1.36h1.36ZM28.79,71.72v1.37h-1.36v-1.37h1.36ZM28.79,74.45v1.36h-1.36v-1.36h1.36ZM28.79,77.18v1.36h-1.36v-1.36h1.36ZM28.79,79.91v1.36h-1.36v-1.36h1.36ZM28.79,82.64v1.36h-1.36v-1.36h1.36ZM28.79,85.37v1.36h-1.36v-1.36h1.36Z"/>
        <path class="cls-1" d="M45.17,68.99v1.36h-12.28v-1.36h12.28ZM34.25,71.72v1.37h-1.37v-1.37h1.37ZM34.25,74.45v1.36h-1.37v-1.36h1.37ZM42.44,77.18v1.36h-9.56v-1.36h9.56ZM34.25,79.91v1.36h-1.37v-1.36h1.37ZM34.25,82.64v1.36h-1.37v-1.36h1.37ZM45.17,85.37v1.36h-12.28v-1.36h12.28Z"/>
        <path class="cls-1" d="M50.63,71.72v1.37h-1.36v-1.37h1.36ZM50.63,74.45v1.36h-1.36v-1.36h1.36ZM50.63,77.18v1.36h-1.36v-1.36h1.36ZM50.63,79.91v1.36h-1.36v-1.36h1.36ZM50.63,82.64v1.36h-1.36v-1.36h1.36ZM60.18,68.99v1.36h-9.55v-1.36h9.55ZM60.18,85.37v1.36h-9.55v-1.36h9.55ZM61.55,71.72v1.37h-1.37v-1.37h1.37ZM61.55,82.64v1.36h-1.37v-1.36h1.37Z"/>
      </g>
    </g>
  </g>
</svg>