<?xml version="1.0" encoding="UTF-8"?>
<svg id="Livello_1" xmlns="http://www.w3.org/2000/svg" version="1.1" viewBox="0 0 235.85 69.6">
  <!-- Generator: Adobe Illustrator 30.1.0, SVG Export Plug-In . SVG Version: 2.1.1 Build 136)  -->
  <defs>
    <style>
      .st0 {
        fill: #fff;
      }
    </style>
  </defs>
  <rect class="st0" y="0" width="235.85" height="69.6"/>
  <g>
    <g>
      <g>
        <path d="M66.81,48.24c-2.05,0-3.72-.37-5.03-1.11-1.31-.74-2.27-1.73-2.89-2.98-.62-1.25-.91-2.62-.89-4.12h.81c-.02,1.33.23,2.57.76,3.7.53,1.13,1.38,2.05,2.55,2.74,1.17.69,2.72,1.04,4.64,1.04,1.75,0,3.18-.28,4.27-.85,1.1-.57,1.91-1.33,2.42-2.29s.78-2.02.78-3.18c0-1.43-.33-2.57-.98-3.42-.65-.85-1.49-1.53-2.52-2.04-1.02-.5-2.13-.94-3.31-1.29-1.18-.36-2.29-.75-3.33-1.17-1.43-.57-2.6-1.29-3.5-2.18-.9-.89-1.35-2.1-1.35-3.62,0-1.08.27-2.08.8-2.98.53-.9,1.34-1.63,2.42-2.18,1.08-.56,2.43-.83,4.03-.83,1.38,0,2.63.23,3.74.7,1.11.47,2,1.2,2.66,2.2.67,1,1,2.3,1,3.9h-.81c0-1.5-.29-2.7-.87-3.59-.58-.89-1.37-1.52-2.37-1.91-1-.38-2.12-.57-3.35-.57-1.55,0-2.81.25-3.76.76-.95.51-1.63,1.15-2.05,1.94-.42.79-.63,1.64-.63,2.55,0,1.23.33,2.22.98,2.96.65.74,1.5,1.33,2.53,1.78,1.04.44,2.15.85,3.35,1.22,1.2.37,2.35.8,3.46,1.29.86.4,1.65.87,2.35,1.42.7.55,1.26,1.24,1.68,2.05.42.81.63,1.81.63,3,0,1.33-.3,2.53-.91,3.59-.6,1.06-1.51,1.91-2.72,2.54-1.21.63-2.75.94-4.62.94Z"/>
        <path d="M66.81,48.59c-2.1,0-3.85-.39-5.2-1.16-1.36-.77-2.38-1.82-3.03-3.13-.64-1.29-.95-2.73-.92-4.28v-.34h1.51v.35c-.03,1.27.21,2.47.72,3.55.5,1.06,1.31,1.93,2.42,2.59,1.11.66,2.61.99,4.47.99,1.69,0,3.07-.27,4.11-.81,1.03-.53,1.8-1.26,2.28-2.15.49-.91.74-1.92.74-3.02,0-1.35-.31-2.43-.91-3.21-.62-.8-1.42-1.46-2.39-1.94-1-.5-2.1-.92-3.26-1.27-1.19-.36-2.33-.76-3.36-1.18-1.47-.58-2.68-1.34-3.61-2.26-.96-.95-1.45-2.25-1.45-3.87,0-1.14.28-2.2.84-3.15.56-.95,1.42-1.73,2.56-2.32,1.13-.58,2.54-.87,4.19-.87,1.42,0,2.72.25,3.87.73,1.17.49,2.12,1.28,2.82,2.33.7,1.05,1.06,2.43,1.06,4.1v.35h-1.51v-.35c0-1.43-.27-2.57-.81-3.4-.54-.82-1.28-1.42-2.2-1.77-.96-.37-2.04-.55-3.22-.55-1.49,0-2.7.24-3.59.72-.88.47-1.53,1.08-1.91,1.8-.39.73-.59,1.54-.59,2.39,0,1.14.3,2.06.89,2.73.62.7,1.43,1.26,2.41,1.69,1.02.44,2.13.84,3.31,1.21,1.2.37,2.38.81,3.5,1.31.89.41,1.7.9,2.42,1.47.74.58,1.34,1.31,1.78,2.17.44.86.67,1.92.67,3.15,0,1.39-.32,2.65-.95,3.76-.63,1.11-1.6,2.01-2.86,2.67-1.25.65-2.86.98-4.79.98ZM58.35,40.38c.02,1.31.31,2.53.85,3.63.58,1.18,1.51,2.13,2.75,2.83,1.25.71,2.88,1.07,4.86,1.07,1.81,0,3.31-.3,4.47-.9,1.14-.6,2.01-1.4,2.58-2.4.57-1,.86-2.15.86-3.42,0-1.12-.2-2.08-.59-2.84-.39-.77-.93-1.42-1.59-1.94-.68-.53-1.44-1-2.28-1.38-1.09-.48-2.24-.91-3.42-1.28-1.21-.37-2.35-.79-3.38-1.23-1.08-.46-1.97-1.09-2.66-1.86-.71-.8-1.07-1.88-1.07-3.19,0-.97.23-1.88.67-2.72.45-.85,1.19-1.55,2.2-2.08,1-.53,2.31-.8,3.92-.8,1.27,0,2.44.2,3.47.6,1.06.41,1.92,1.09,2.53,2.04.57.87.88,2.02.92,3.43h.12c-.04-1.37-.36-2.5-.94-3.37-.62-.94-1.47-1.63-2.51-2.07-1.06-.45-2.27-.68-3.6-.68-1.54,0-2.84.27-3.88.79-1.02.52-1.79,1.21-2.28,2.05-.5.84-.75,1.79-.75,2.8,0,1.45.41,2.55,1.25,3.38.86.85,2,1.56,3.38,2.11,1.02.41,2.13.8,3.3,1.16,1.2.36,2.33.8,3.36,1.32,1.07.53,1.95,1.25,2.64,2.13.7.91,1.05,2.13,1.05,3.63,0,1.21-.28,2.34-.82,3.35-.55,1.02-1.41,1.84-2.57,2.44-1.14.59-2.63.89-4.43.89-1.98,0-3.6-.36-4.82-1.08-1.23-.72-2.13-1.7-2.69-2.89-.5-1.08-.77-2.25-.79-3.5h-.12Z"/>
      </g>
      <g>
        <path d="M85.68,47.8v-11.54l-8.07-14.36h.81l7.66,13.54,7.33-13.54h.93l-7.92,14.36v11.54h-.74Z"/>
        <path d="M86.76,48.15h-1.43v-11.8l-8.31-14.79h1.61l7.45,13.17,7.13-13.17h1.72l-8.16,14.79v11.8ZM86.02,47.45h.05v-11.31s-7.87-13.9-7.87-13.9l7.82,13.92v11.29ZM93.62,22.25l-6.81,12.6,6.95-12.6h-.13Z"/>
      </g>
      <g>
        <path d="M99.22,47.8v-25.9h.96l15.95,24.71v-24.71h.74v25.9h-.89l-16.02-24.9v24.9h-.74Z"/>
        <path d="M117.21,48.15h-1.42l-15.48-24.07v24.07h-1.43v-26.59h1.5l15.41,23.89v-23.89h1.43v26.59ZM116.47,47.45h.05v-25.21h-.05v25.21ZM116.17,47.45h.09l-16.31-25.21,16.22,25.21ZM99.56,47.45h.05v-25.21h-.05v25.21Z"/>
      </g>
      <g>
        <path d="M134.55,48.24c-2.39,0-4.49-.56-6.29-1.68-1.8-1.12-3.19-2.69-4.16-4.7-.97-2.01-1.46-4.35-1.46-7.01s.49-5.03,1.46-7.03c.97-2,2.36-3.56,4.16-4.68,1.8-1.12,3.9-1.68,6.29-1.68,2.74,0,4.93.62,6.59,1.85,1.65,1.23,2.76,2.96,3.33,5.18h-.81c-.49-1.9-1.47-3.42-2.94-4.57-1.47-1.15-3.52-1.72-6.16-1.72-2.17,0-4.09.5-5.77,1.5-1.68,1-2.98,2.44-3.92,4.33-.94,1.89-1.41,4.16-1.41,6.83s.47,4.9,1.41,6.79,2.24,3.34,3.92,4.35c1.68,1.01,3.6,1.52,5.77,1.52,2.59,0,4.64-.6,6.14-1.79,1.5-1.2,2.49-2.73,2.96-4.61h.81c-.57,2.27-1.68,4.03-3.33,5.27-1.65,1.25-3.85,1.87-6.59,1.87Z"/>
        <path d="M134.55,48.59c-2.45,0-4.62-.58-6.47-1.74-1.85-1.15-3.29-2.78-4.29-4.84-.99-2.05-1.5-4.46-1.5-7.16s.5-5.15,1.5-7.18c1-2.05,2.44-3.67,4.29-4.82,1.85-1.15,4.03-1.74,6.47-1.74,2.8,0,5.09.65,6.79,1.92,1.71,1.28,2.87,3.08,3.46,5.37l.11.43h-1.53l-.07-.26c-.47-1.81-1.42-3.29-2.82-4.38-1.4-1.09-3.4-1.65-5.95-1.65-2.1,0-3.98.49-5.59,1.45-1.61.96-2.89,2.37-3.79,4.19-.91,1.83-1.37,4.07-1.37,6.67s.46,4.81,1.37,6.63c.9,1.82,2.18,3.23,3.79,4.21,1.61.97,3.5,1.47,5.59,1.47,2.5,0,4.49-.58,5.93-1.72,1.44-1.14,2.39-2.63,2.84-4.42l.07-.26h1.53l-.11.43c-.58,2.34-1.75,4.17-3.46,5.46-1.71,1.29-3.99,1.94-6.79,1.94ZM134.55,21.8c-2.32,0-4.37.55-6.11,1.63-1.74,1.08-3.09,2.61-4.03,4.54-.95,1.94-1.43,4.25-1.43,6.88s.48,4.91,1.43,6.86c.94,1.94,2.3,3.48,4.03,4.56,1.74,1.08,3.79,1.63,6.11,1.63,2.65,0,4.79-.61,6.38-1.8,1.47-1.11,2.51-2.67,3.08-4.65h-.09c-.51,1.83-1.52,3.35-3.01,4.53-1.56,1.24-3.7,1.87-6.36,1.87-2.23,0-4.23-.53-5.95-1.57-1.73-1.04-3.09-2.55-4.05-4.49-.96-1.93-1.44-4.26-1.44-6.94s.49-5.05,1.44-6.98c.96-1.94,2.33-3.44,4.06-4.47,1.72-1.03,3.73-1.55,5.95-1.55,2.71,0,4.85.6,6.37,1.79,1.45,1.14,2.46,2.65,2.99,4.5h.09c-.57-1.93-1.61-3.46-3.08-4.56-1.58-1.18-3.73-1.78-6.38-1.78Z"/>
      </g>
      <g>
        <path d="M150.28,47.8v-25.9h.74v25.9h-.74ZM150.5,34.92v-.67h17.24v.67h-17.24ZM167.15,47.8v-25.9h.74v25.9h-.74Z"/>
        <path d="M168.23,48.15h-1.43v-12.88h-15.44v12.88h-1.43v-26.59h1.43v12.36h15.44v-12.36h1.43v26.59ZM167.49,47.45h.05v-12.18h-.05v12.18ZM150.62,47.45h.05v-12.18h-.05v12.18ZM167.49,33.91h.05v-11.67h-.05v11.67ZM150.62,33.91h.05v-11.67h-.05v11.67Z"/>
      </g>
      <g>
        <path d="M174.73,47.8v-25.9h6.47c2.02,0,3.64.31,4.87.93,1.22.62,2.11,1.47,2.66,2.55.55,1.09.83,2.32.83,3.7,0,1.5-.28,2.8-.83,3.88s-1.44,1.92-2.66,2.52c-1.22.59-2.84.89-4.87.89h-5.73v11.43h-.74ZM175.47,35.7h5.77c2.39,0,4.25-.52,5.57-1.57,1.32-1.05,1.98-2.73,1.98-5.05,0-2.15-.66-3.77-1.98-4.87-1.32-1.1-3.18-1.65-5.57-1.65h-5.77v13.13ZM189.01,47.8l-6.18-11.91h.81l6.18,11.91h-.81Z"/>
        <path d="M190.4,48.15h-1.59l-.1-.19-5.87-11.32c-.51.05-1.06.07-1.63.07h-5.39v11.43h-1.43v-26.59h6.82c2.07,0,3.76.32,5.02.96,1.28.65,2.23,1.56,2.82,2.7.58,1.13.87,2.43.87,3.86,0,1.55-.29,2.91-.87,4.04-.59,1.15-1.54,2.05-2.82,2.67-.55.27-1.19.48-1.91.63l6.08,11.72ZM189.22,47.45h.04l-5.66-10.9s-.02,0-.03,0l5.65,10.9ZM175.08,47.45h.05v-25.21h-.05v25.21ZM183.98,35.77h0c.74-.13,1.38-.34,1.94-.61,1.15-.55,1.99-1.35,2.51-2.36.53-1.03.79-2.29.79-3.73,0-1.32-.27-2.51-.79-3.54-.52-1.01-1.36-1.82-2.51-2.4-.66-.33-1.46-.58-2.38-.72,1.41.26,2.58.77,3.5,1.53,1.4,1.16,2.1,2.89,2.1,5.13,0,2.42-.71,4.21-2.11,5.32-.82.65-1.84,1.11-3.05,1.38ZM175.82,35.36h5.43c2.3,0,4.1-.5,5.35-1.5,1.23-.97,1.85-2.58,1.85-4.78,0-2.03-.62-3.57-1.86-4.6-1.25-1.04-3.05-1.57-5.35-1.57h-5.43v12.44Z"/>
      </g>
      <g>
        <path d="M206.92,48.24c-2.44,0-4.58-.56-6.42-1.68-1.84-1.12-3.26-2.69-4.27-4.7-1.01-2.01-1.52-4.35-1.52-7.01s.5-4.96,1.52-6.97c1.01-2.01,2.44-3.58,4.27-4.72,1.84-1.13,3.98-1.7,6.42-1.7s4.66.57,6.51,1.7c1.85,1.13,3.27,2.71,4.27,4.72,1,2.01,1.5,4.33,1.5,6.97s-.5,5-1.5,7.01c-1,2.01-2.42,3.58-4.27,4.7s-4.02,1.68-6.51,1.68ZM206.96,47.5c2.15,0,4.08-.49,5.81-1.48,1.73-.99,3.09-2.43,4.11-4.33s1.52-4.18,1.52-6.84-.51-4.98-1.52-6.86c-1.01-1.89-2.38-3.32-4.11-4.31-1.73-.99-3.66-1.48-5.81-1.48s-4.09.49-5.83,1.48c-1.74.99-3.11,2.42-4.11,4.31-1,1.89-1.5,4.17-1.5,6.86s.5,4.95,1.5,6.84,2.36,3.34,4.09,4.33c1.73.99,3.67,1.48,5.85,1.48Z"/>
        <path d="M206.92,48.59c-2.5,0-4.72-.58-6.6-1.73-1.89-1.15-3.37-2.78-4.4-4.84-1.03-2.05-1.55-4.46-1.55-7.17s.52-5.08,1.55-7.13c1.03-2.06,2.51-3.69,4.4-4.86,1.88-1.16,4.11-1.75,6.6-1.75s4.8.59,6.69,1.75c1.9,1.16,3.38,2.8,4.4,4.86,1.02,2.05,1.53,4.45,1.53,7.13s-.52,5.12-1.53,7.17c-1.02,2.06-2.5,3.69-4.4,4.84-1.9,1.15-4.15,1.73-6.69,1.73ZM206.92,21.8c-2.37,0-4.46.56-6.24,1.65-1.77,1.1-3.17,2.64-4.15,4.58-.98,1.95-1.48,4.24-1.48,6.82s.5,4.9,1.48,6.86c.98,1.94,2.37,3.48,4.15,4.56,1.77,1.08,3.87,1.63,6.24,1.63s4.55-.55,6.33-1.63c1.79-1.08,3.18-2.62,4.14-4.56.97-1.95,1.46-4.26,1.46-6.86s-.49-4.87-1.46-6.82c-.96-1.94-2.36-3.48-4.14-4.58-1.79-1.1-3.92-1.65-6.33-1.65ZM206.96,47.85c-2.22,0-4.25-.51-6.02-1.53-1.78-1.01-3.2-2.52-4.22-4.47-1.02-1.94-1.54-4.3-1.54-7.01s.52-5.1,1.54-7.02c1.03-1.94,2.45-3.43,4.24-4.45,1.78-1.01,3.8-1.53,6-1.53s4.21.51,5.98,1.53c1.77,1.01,3.2,2.51,4.24,4.45,1.03,1.93,1.56,4.29,1.56,7.03s-.52,5.07-1.56,7.01c-1.04,1.95-2.47,3.45-4.24,4.47-1.77,1.01-3.78,1.53-5.98,1.53ZM206.96,22.54c-2.08,0-3.98.48-5.66,1.43-1.67.95-3.01,2.35-3.97,4.17-.97,1.83-1.46,4.08-1.46,6.7s.49,4.84,1.46,6.68c.96,1.83,2.29,3.24,3.95,4.19,1.66.95,3.57,1.44,5.67,1.44s3.97-.48,5.64-1.44c1.66-.95,3-2.36,3.97-4.19.98-1.84,1.48-4.09,1.48-6.68s-.5-4.87-1.48-6.7c-.98-1.82-2.31-3.22-3.97-4.17-1.67-.95-3.56-1.43-5.64-1.43Z"/>
      </g>
    </g>
    <polygon points="34.69 17.16 34.69 17.14 34.18 17.14 33.26 17.14 33.26 17.18 33.26 21.06 34.69 21.06 34.69 17.16"/>
    <polygon points="30.1 17.58 30.09 17.55 29.6 17.68 28.71 17.92 28.72 17.97 29.73 21.71 31.11 21.34 30.1 17.58"/>
    <polygon points="25.77 19.16 25.76 19.14 25.32 19.4 24.52 19.86 24.54 19.9 26.48 23.26 27.72 22.54 25.77 19.16"/>
    <polygon points="22 21.82 21.99 21.8 21.63 22.16 20.98 22.81 21.01 22.84 23.75 25.59 24.76 24.58 22 21.82"/>
    <polygon points="19.05 25.36 19.03 25.34 18.77 25.78 18.31 26.58 18.35 26.6 21.71 28.54 22.43 27.31 19.05 25.36"/>
    <polygon points="17.12 29.54 17.09 29.53 16.96 30.02 16.72 30.91 16.76 30.92 20.51 31.93 20.88 30.55 17.12 29.54"/>
    <polygon points="16.33 34.08 16.3 34.08 16.3 34.59 16.3 35.51 16.35 35.51 20.23 35.51 20.23 34.08 16.33 34.08"/>
    <polygon points="16.74 38.67 16.72 38.67 16.85 39.17 17.09 40.05 17.13 40.04 20.88 39.04 20.51 37.66 16.74 38.67"/>
    <polygon points="18.33 42.99 18.31 43.01 18.56 43.45 19.02 44.24 19.06 44.22 22.42 42.28 21.71 41.04 18.33 42.99"/>
    <polygon points="20.98 46.76 20.97 46.78 21.33 47.14 21.98 47.79 22.01 47.76 24.75 45.01 23.74 44 20.98 46.76"/>
    <polygon points="24.52 49.71 24.51 49.74 24.95 49.99 25.75 50.45 25.77 50.41 27.71 47.05 26.47 46.34 24.52 49.71"/>
    <polygon points="28.7 51.65 28.7 51.67 29.19 51.81 30.08 52.04 30.09 52 31.09 48.25 29.71 47.88 28.7 51.65"/>
    <polygon points="33.24 52.44 33.24 52.46 33.75 52.46 34.67 52.46 34.67 52.42 34.67 48.54 33.24 48.54 33.24 52.44"/>
    <polygon points="37.83 52.02 37.84 52.05 38.33 51.92 39.22 51.68 39.21 51.63 38.2 47.89 36.82 48.26 37.83 52.02"/>
    <polygon points="42.16 50.44 42.17 50.46 42.61 50.2 43.41 49.74 43.39 49.7 41.45 46.34 40.21 47.06 42.16 50.44"/>
    <polygon points="45.93 47.78 45.94 47.8 46.31 47.44 46.96 46.79 46.92 46.76 44.18 44.01 43.17 45.02 45.93 47.78"/>
    <polygon points="48.88 44.24 48.9 44.26 49.16 43.82 49.62 43.02 49.58 43 46.22 41.06 45.5 42.29 48.88 44.24"/>
    <polygon points="50.82 40.06 50.84 40.07 50.97 39.58 51.21 38.69 51.17 38.68 47.42 37.67 47.05 39.05 50.82 40.06"/>
    <polygon points="51.6 35.52 51.63 35.52 51.63 35.01 51.63 34.09 51.58 34.09 47.7 34.09 47.7 35.52 51.6 35.52"/>
    <polygon points="51.19 30.93 51.21 30.93 51.08 30.43 50.84 29.55 50.8 29.56 47.05 30.56 47.42 31.94 51.19 30.93"/>
    <polygon points="49.6 26.61 49.62 26.59 49.37 26.15 48.91 25.36 48.87 25.38 45.51 27.32 46.22 28.56 49.6 26.61"/>
    <polygon points="46.95 22.84 46.97 22.82 46.61 22.46 45.96 21.81 45.92 21.84 43.18 24.59 44.19 25.6 46.95 22.84"/>
    <polygon points="43.41 19.89 43.42 19.86 42.98 19.61 42.18 19.15 42.16 19.19 40.22 22.55 41.46 23.26 43.41 19.89"/>
    <polygon points="39.23 17.95 39.23 17.93 38.74 17.79 37.85 17.56 37.84 17.6 36.84 21.35 38.22 21.72 39.23 17.95"/>
    <polygon points="36.37 21.29 36.37 21.26 35.95 21.2 35.19 21.1 35.18 21.15 34.67 24.99 35.85 25.15 36.37 21.29"/>
    <polygon points="32.79 21.12 32.78 21.1 32.36 21.15 31.6 21.25 31.61 21.3 32.11 25.15 33.29 24.99 32.79 21.12"/>
    <polygon points="29.29 21.9 29.28 21.87 28.89 22.03 28.18 22.33 28.2 22.37 29.68 25.95 30.78 25.5 29.29 21.9"/>
    <polygon points="26.11 23.55 26.09 23.53 25.76 23.78 25.15 24.25 25.17 24.29 27.53 27.37 28.48 26.64 26.11 23.55"/>
    <polygon points="23.46 25.96 23.44 25.95 23.18 26.28 22.72 26.89 22.75 26.92 25.83 29.28 26.55 28.34 23.46 25.96"/>
    <polygon points="21.53 28.98 21.51 28.97 21.35 29.36 21.05 30.07 21.1 30.09 24.68 31.58 25.13 30.48 21.53 28.98"/>
    <polygon points="20.45 32.4 20.43 32.4 20.37 32.82 20.27 33.58 20.31 33.58 24.16 34.09 24.32 32.91 20.45 32.4"/>
    <polygon points="20.29 35.98 20.26 35.98 20.32 36.4 20.42 37.16 20.46 37.16 24.31 36.65 24.16 35.47 20.29 35.98"/>
    <polygon points="21.06 39.48 21.04 39.49 21.2 39.88 21.49 40.59 21.53 40.57 25.12 39.09 24.67 37.99 21.06 39.48"/>
    <polygon points="22.71 42.66 22.69 42.67 22.95 43.01 23.41 43.62 23.45 43.59 26.53 41.23 25.81 40.29 22.71 42.66"/>
    <polygon points="25.13 45.3 25.11 45.32 25.45 45.58 26.06 46.05 26.08 46.01 28.45 42.94 27.51 42.21 25.13 45.3"/>
    <polygon points="28.15 47.23 28.14 47.26 28.53 47.42 29.24 47.71 29.26 47.67 30.74 44.09 29.64 43.63 28.15 47.23"/>
    <polygon points="31.56 48.31 31.56 48.34 31.98 48.4 32.74 48.5 32.75 48.45 33.26 44.61 32.08 44.45 31.56 48.31"/>
    <polygon points="35.14 48.48 35.15 48.5 35.57 48.45 36.33 48.35 36.32 48.3 35.82 44.45 34.64 44.61 35.14 48.48"/>
    <polygon points="38.64 47.7 38.65 47.73 39.04 47.57 39.75 47.27 39.74 47.23 38.25 43.65 37.15 44.1 38.64 47.7"/>
    <polygon points="41.82 46.05 41.84 46.07 42.18 45.82 42.78 45.35 42.76 45.31 40.4 42.23 39.45 42.96 41.82 46.05"/>
    <polygon points="44.47 43.64 44.49 43.65 44.75 43.32 45.21 42.71 45.18 42.68 42.1 40.32 41.38 41.26 44.47 43.64"/>
    <polygon points="46.4 40.62 46.42 40.63 46.58 40.24 46.88 39.53 46.84 39.51 43.25 38.02 42.8 39.12 46.4 40.62"/>
    <polygon points="47.48 37.2 47.5 37.2 47.56 36.78 47.66 36.02 47.62 36.02 43.77 35.51 43.61 36.69 47.48 37.2"/>
    <polygon points="47.64 33.62 47.67 33.62 47.61 33.2 47.51 32.44 47.47 32.44 43.62 32.95 43.77 34.13 47.64 33.62"/>
    <polygon points="46.87 30.12 46.89 30.11 46.73 29.72 46.44 29.01 46.4 29.03 42.81 30.51 43.27 31.61 46.87 30.12"/>
    <polygon points="45.22 26.94 45.24 26.93 44.98 26.59 44.52 25.98 44.48 26.01 41.4 28.37 42.12 29.31 45.22 26.94"/>
    <polygon points="42.8 24.3 42.82 24.28 42.48 24.02 41.87 23.55 41.85 23.59 39.48 26.66 40.42 27.39 42.8 24.3"/>
    <polygon points="39.78 22.37 39.79 22.34 39.4 22.18 38.69 21.89 38.68 21.93 37.19 25.51 38.29 25.97 39.78 22.37"/>
  </g>
</svg>