<?xml version="1.0" encoding="UTF-8"?>
<svg id="Layer_2" data-name="Layer 2" xmlns="http://www.w3.org/2000/svg" viewBox="0 0 562.12 410.5">
  <defs>
    <style>
      .cls-1 {
        fill: #1a1a1a;
      }
    </style>
  </defs>
  <g id="Livello_1" data-name="Livello 1">
    <g>
      <g>
        <path class="cls-1" d="M163.27,23.29h-43.23V2.47h72.53v19.23l-47.11,85.94h47.82v20.82h-76.41v-18.53l46.41-86.64Z"/>
        <path class="cls-1" d="M276.74,23.29h-45v29.65h42.35v20.82h-42.35v33.88h46.76v20.82h-72.17V2.47h70.41v20.82Z"/>
        <path class="cls-1" d="M338.14,2.47c10.59,0,18.82,2.68,24.7,8.03,5.88,5.35,8.82,13.5,8.82,24.44,0,8.47-1.71,15.38-5.12,20.73-3.41,5.35-8.71,8.8-15.88,10.32v.35c6.35.94,11,3,13.94,6.18,2.94,3.18,4.76,8.29,5.47,15.35.23,2.35.41,4.91.53,7.68.12,2.77.23,5.85.35,9.26.23,6.71.59,11.82,1.06,15.35.71,3.53,2.23,5.94,4.59,7.24v1.06h-27.53c-1.3-1.76-2.12-3.79-2.47-6.09-.35-2.29-.59-4.68-.71-7.15l-.71-24.18c-.24-4.94-1.47-8.82-3.71-11.65-2.24-2.82-6-4.24-11.29-4.24h-13.59v53.29h-25.41V2.47h46.94ZM327.2,57.53c6.12,0,10.82-1.44,14.12-4.32,3.29-2.88,4.94-7.73,4.94-14.56,0-11.65-5.88-17.47-17.65-17.47h-12v36.35h10.59Z"/>
        <path class="cls-1" d="M387.99,39.09c.88-8.06,2.82-14.97,5.82-20.73,3-5.76,7.32-10.26,12.97-13.5,5.65-3.23,13.23-4.85,22.76-4.85s17.12,1.62,22.76,4.85c5.65,3.24,9.97,7.74,12.97,13.5,3,5.77,4.94,12.68,5.82,20.73.88,8.06,1.32,16.85,1.32,26.38s-.44,18.47-1.32,26.47c-.88,8-2.82,14.88-5.82,20.65-3,5.77-7.32,10.18-12.97,13.23-5.65,3.06-13.23,4.59-22.76,4.59s-17.12-1.53-22.76-4.59c-5.65-3.06-9.97-7.47-12.97-13.23-3-5.76-4.94-12.64-5.82-20.65-.88-8-1.32-16.82-1.32-26.47s.44-18.32,1.32-26.38ZM412.7,87.08c.41,5.94,1.23,10.76,2.47,14.47,1.23,3.71,3,6.41,5.29,8.12,2.29,1.71,5.32,2.56,9.09,2.56s6.79-.85,9.09-2.56c2.29-1.7,4.06-4.41,5.29-8.12,1.23-3.71,2.06-8.53,2.47-14.47.41-5.94.62-13.15.62-21.62s-.21-15.64-.62-21.53c-.41-5.88-1.24-10.7-2.47-14.47-1.24-3.76-3-6.5-5.29-8.21-2.29-1.7-5.32-2.56-9.09-2.56s-6.79.85-9.09,2.56c-2.29,1.71-4.06,4.44-5.29,8.21-1.24,3.77-2.06,8.59-2.47,14.47-.41,5.88-.62,13.06-.62,21.53s.2,15.68.62,21.62Z"/>
      </g>
      <g>
        <path class="cls-1" d="M25.41,143.48v48.17h29.65v-48.17h25.41v125.99h-25.41v-55.94h-29.65v55.94H0v-125.99h25.41Z"/>
        <path class="cls-1" d="M96.79,180.09c.88-8.06,2.82-14.97,5.82-20.73,3-5.76,7.32-10.26,12.97-13.5,5.65-3.23,13.23-4.85,22.76-4.85s17.12,1.62,22.76,4.85c5.65,3.24,9.97,7.74,12.97,13.5,3,5.77,4.94,12.68,5.82,20.73.88,8.06,1.32,16.85,1.32,26.38s-.44,18.47-1.32,26.47c-.88,8-2.82,14.88-5.82,20.65-3,5.77-7.32,10.18-12.97,13.23-5.65,3.06-13.23,4.59-22.76,4.59s-17.12-1.53-22.76-4.59c-5.65-3.06-9.97-7.47-12.97-13.23-3-5.76-4.94-12.64-5.82-20.65-.88-8-1.32-16.82-1.32-26.47s.44-18.32,1.32-26.38ZM121.49,228.09c.41,5.94,1.23,10.76,2.47,14.47,1.24,3.71,3,6.41,5.29,8.12,2.29,1.71,5.32,2.56,9.09,2.56s6.79-.85,9.09-2.56c2.29-1.7,4.06-4.41,5.29-8.12,1.24-3.71,2.06-8.53,2.47-14.47.41-5.94.62-13.15.62-21.62s-.21-15.64-.62-21.53c-.41-5.88-1.23-10.7-2.47-14.47-1.24-3.76-3-6.5-5.29-8.21-2.29-1.7-5.32-2.56-9.09-2.56s-6.79.85-9.09,2.56c-2.29,1.71-4.06,4.44-5.29,8.21-1.24,3.77-2.06,8.59-2.47,14.47-.41,5.88-.62,13.06-.62,21.53s.2,15.68.62,21.62Z"/>
        <path class="cls-1" d="M220.05,231.35c0,3.18.2,6.09.62,8.73.41,2.65,1.17,4.94,2.29,6.88,1.12,1.94,2.65,3.47,4.59,4.59,1.94,1.12,4.38,1.68,7.32,1.68s5.53-.56,7.41-1.68c1.88-1.12,3.38-2.65,4.5-4.59,1.12-1.94,1.88-4.24,2.29-6.88.41-2.65.62-5.56.62-8.73v-87.88h25.41v87.88c0,8-1.12,14.62-3.35,19.85-2.24,5.24-5.24,9.38-9,12.44-3.77,3.06-8.06,5.12-12.88,6.18-4.83,1.06-9.82,1.59-15,1.59s-10.18-.47-15-1.41c-4.83-.94-9.12-2.85-12.88-5.73-3.77-2.88-6.77-6.97-9-12.26-2.24-5.29-3.35-12.18-3.35-20.65v-87.88h25.41v87.88Z"/>
        <path class="cls-1" d="M338.1,143.48c10.59,0,18.82,2.68,24.7,8.03,5.88,5.35,8.82,13.5,8.82,24.44,0,8.47-1.71,15.38-5.12,20.73-3.41,5.35-8.71,8.8-15.88,10.32v.35c6.35.94,11,3,13.94,6.18,2.94,3.18,4.76,8.29,5.47,15.35.23,2.35.41,4.91.53,7.68.12,2.77.23,5.85.35,9.26.23,6.71.59,11.82,1.06,15.35.71,3.53,2.23,5.94,4.59,7.24v1.06h-27.53c-1.3-1.76-2.12-3.79-2.47-6.09-.35-2.29-.59-4.68-.71-7.15l-.71-24.18c-.24-4.94-1.47-8.82-3.71-11.65-2.24-2.82-6-4.24-11.29-4.24h-13.59v53.29h-25.41v-125.99h46.94ZM327.16,198.53c6.12,0,10.82-1.44,14.12-4.32,3.29-2.88,4.94-7.73,4.94-14.56,0-11.65-5.88-17.47-17.65-17.47h-12v36.35h10.59Z"/>
      </g>
      <g>
        <path class="cls-1" d="M332.9,284.5c8.82,0,15.94,1.44,21.35,4.32,5.41,2.88,9.62,7,12.62,12.35,3,5.35,5.03,11.8,6.09,19.32,1.06,7.53,1.59,15.94,1.59,25.23,0,11.06-.68,20.68-2.03,28.85-1.35,8.18-3.68,14.91-6.97,20.2-3.29,5.29-7.71,9.24-13.23,11.82-5.53,2.59-12.53,3.88-21,3.88h-40.06v-125.99h41.64ZM327.96,391.79c4.47,0,8.06-.76,10.76-2.29,2.71-1.53,4.85-4.06,6.44-7.59,1.59-3.53,2.65-8.18,3.18-13.94.53-5.76.79-12.94.79-21.53,0-7.17-.24-13.47-.71-18.88-.47-5.41-1.44-9.91-2.91-13.5-1.47-3.59-3.65-6.29-6.53-8.12-2.88-1.82-6.74-2.74-11.56-2.74h-10.76v88.58h11.29Z"/>
        <path class="cls-1" d="M447.24,284.5l33.35,125.99h-26.47l-5.82-26.65h-33.53l-5.82,26.65h-26.47l33.35-125.99h31.41ZM443.89,363.03l-12.18-56.64h-.35l-12.18,56.64h24.7Z"/>
        <path class="cls-1" d="M516.59,333.21h.35l17.65-48.7h27.53l-32.64,76.41v49.59h-25.41v-49.59l-32.64-76.41h28.59l16.59,48.7Z"/>
      </g>
    </g>
  </g>
</svg>