<?xml version="1.0" encoding="UTF-8"?>
<svg id="Livello_1" xmlns="http://www.w3.org/2000/svg" version="1.1" viewBox="0 0 235.85 69.13">
  <!-- Generator: Adobe Illustrator 30.1.0, SVG Export Plug-In . SVG Version: 2.1.1 Build 136)  -->
  <defs>
    <style>
      .st0 {
        fill: #fff;
      }
    </style>
  </defs>
  <rect y="0" width="235.85" height="69.13"/>
  <g>
    <g>
      <g>
        <path class="st0" d="M66.88,48.83c-2.05,0-3.72-.37-5.03-1.11-1.31-.74-2.27-1.73-2.89-2.98s-.91-2.62-.89-4.12h.81c-.02,1.33.23,2.57.76,3.7s1.38,2.05,2.55,2.74c1.17.69,2.72,1.04,4.64,1.04,1.75,0,3.18-.28,4.27-.85,1.1-.57,1.91-1.33,2.42-2.29s.78-2.02.78-3.18c0-1.43-.33-2.57-.98-3.42s-1.49-1.53-2.52-2.04c-1.02-.5-2.13-.94-3.31-1.29-1.18-.36-2.29-.75-3.33-1.17-1.43-.57-2.6-1.29-3.5-2.18s-1.35-2.1-1.35-3.62c0-1.08.27-2.08.8-2.98s1.34-1.63,2.42-2.18c1.08-.56,2.43-.83,4.03-.83,1.38,0,2.63.23,3.74.7,1.11.47,2,1.2,2.66,2.2.67,1,1,2.3,1,3.9h-.81c0-1.5-.29-2.7-.87-3.59s-1.37-1.52-2.37-1.91c-1-.38-2.12-.57-3.35-.57-1.55,0-2.81.25-3.76.76-.95.51-1.63,1.15-2.05,1.94s-.63,1.64-.63,2.55c0,1.23.33,2.22.98,2.96.65.74,1.5,1.33,2.53,1.78,1.04.44,2.15.85,3.35,1.22,1.2.37,2.35.8,3.46,1.29.86.4,1.65.87,2.35,1.42s1.26,1.24,1.68,2.05c.42.81.63,1.81.63,3,0,1.33-.3,2.53-.91,3.59-.6,1.06-1.51,1.91-2.72,2.54s-2.75.94-4.62.94h.03Z"/>
        <path class="st0" d="M66.88,49.18c-2.1,0-3.85-.39-5.2-1.16-1.36-.77-2.38-1.82-3.03-3.13-.64-1.29-.95-2.73-.92-4.28v-.34h1.51v.35c-.03,1.27.21,2.47.72,3.55.5,1.06,1.31,1.93,2.42,2.59,1.11.66,2.61.99,4.47.99,1.69,0,3.07-.27,4.11-.81,1.03-.53,1.8-1.26,2.28-2.15.49-.91.74-1.92.74-3.02,0-1.35-.31-2.43-.91-3.21-.62-.8-1.42-1.46-2.39-1.94-1-.5-2.1-.92-3.26-1.27-1.19-.36-2.33-.76-3.36-1.18-1.47-.58-2.68-1.34-3.61-2.26-.96-.95-1.45-2.25-1.45-3.87,0-1.14.28-2.2.84-3.15.56-.95,1.42-1.73,2.56-2.32,1.13-.58,2.54-.87,4.19-.87,1.42,0,2.72.25,3.87.73,1.17.49,2.12,1.28,2.82,2.33s1.06,2.43,1.06,4.1v.35h-1.51v-.35c0-1.43-.27-2.57-.81-3.4-.54-.82-1.28-1.42-2.2-1.77-.96-.37-2.04-.55-3.22-.55-1.49,0-2.7.24-3.59.72-.88.47-1.53,1.08-1.91,1.8-.39.73-.59,1.54-.59,2.39,0,1.14.3,2.06.89,2.73.62.7,1.43,1.26,2.41,1.69,1.02.44,2.13.84,3.31,1.21,1.2.37,2.38.81,3.5,1.31.89.41,1.7.9,2.42,1.47.74.58,1.34,1.31,1.78,2.17s.67,1.92.67,3.15c0,1.39-.32,2.65-.95,3.76-.63,1.11-1.6,2.01-2.86,2.67-1.25.65-2.86.98-4.79.98h0ZM58.42,40.97c.02,1.31.31,2.53.85,3.63.58,1.18,1.51,2.13,2.75,2.83,1.25.71,2.88,1.07,4.86,1.07,1.81,0,3.31-.3,4.47-.9,1.14-.6,2.01-1.4,2.58-2.4s.86-2.15.86-3.42c0-1.12-.2-2.08-.59-2.84-.39-.77-.93-1.42-1.59-1.94-.68-.53-1.44-1-2.28-1.38-1.09-.48-2.24-.91-3.42-1.28-1.21-.37-2.35-.79-3.38-1.23-1.08-.46-1.97-1.09-2.66-1.86-.71-.8-1.07-1.88-1.07-3.19,0-.97.23-1.88.67-2.72.45-.85,1.19-1.55,2.2-2.08,1-.53,2.31-.8,3.92-.8,1.27,0,2.44.2,3.47.6,1.06.41,1.92,1.09,2.53,2.04.57.87.88,2.02.92,3.43h.12c-.04-1.37-.36-2.5-.94-3.37-.62-.94-1.47-1.63-2.51-2.07-1.06-.45-2.27-.68-3.6-.68-1.54,0-2.84.27-3.88.79-1.02.52-1.79,1.21-2.28,2.05-.5.84-.75,1.79-.75,2.8,0,1.45.41,2.55,1.25,3.38.86.85,2,1.56,3.38,2.11,1.02.41,2.13.8,3.3,1.16,1.2.36,2.33.8,3.36,1.32,1.07.53,1.95,1.25,2.64,2.13.7.91,1.05,2.13,1.05,3.63,0,1.21-.28,2.34-.82,3.35-.55,1.02-1.41,1.84-2.57,2.44-1.14.59-2.63.89-4.43.89-1.98,0-3.6-.36-4.82-1.08-1.23-.72-2.13-1.7-2.69-2.89-.5-1.08-.77-2.25-.79-3.5h-.12v-.02Z"/>
      </g>
      <g>
        <path class="st0" d="M85.75,48.39v-11.54l-8.07-14.36h.81l7.66,13.54,7.33-13.54h.93l-7.92,14.36v11.54h-.74Z"/>
        <path class="st0" d="M86.84,48.74h-1.43v-11.8l-8.31-14.79h1.61l7.45,13.17,7.13-13.17h1.72l-8.16,14.79v11.8h0ZM86.1,48.04h.05v-11.31l-7.87-13.9,7.82,13.92v11.29ZM93.69,22.84l-6.81,12.6,6.95-12.6h-.14Z"/>
      </g>
      <g>
        <path class="st0" d="M99.29,48.39v-25.9h.96l15.95,24.71v-24.71h.74v25.9h-.89l-16.02-24.9v24.9h-.74Z"/>
        <path class="st0" d="M117.29,48.74h-1.42l-15.48-24.07v24.07h-1.43v-26.59h1.5l15.41,23.89v-23.89h1.43v26.59h0ZM116.55,48.04h.05v-25.21h-.05v25.21ZM116.24,48.04h.09l-16.31-25.21,16.22,25.21ZM99.64,48.04h.05v-25.21h-.05v25.21Z"/>
      </g>
      <g>
        <path class="st0" d="M134.63,48.83c-2.39,0-4.49-.56-6.29-1.68-1.8-1.12-3.19-2.69-4.16-4.7-.97-2.01-1.46-4.35-1.46-7.01s.49-5.03,1.46-7.03,2.36-3.56,4.16-4.68,3.9-1.68,6.29-1.68c2.74,0,4.93.62,6.59,1.85,1.65,1.23,2.76,2.96,3.33,5.18h-.81c-.49-1.9-1.47-3.42-2.94-4.57s-3.52-1.72-6.16-1.72c-2.17,0-4.09.5-5.77,1.5-1.68,1-2.98,2.44-3.92,4.33-.94,1.89-1.41,4.16-1.41,6.83s.47,4.9,1.41,6.79,2.24,3.34,3.92,4.35c1.68,1.01,3.6,1.52,5.77,1.52,2.59,0,4.64-.6,6.14-1.79,1.5-1.2,2.49-2.73,2.96-4.61h.81c-.57,2.27-1.68,4.03-3.33,5.27-1.65,1.25-3.85,1.87-6.59,1.87v-.02Z"/>
        <path class="st0" d="M134.63,49.18c-2.45,0-4.62-.58-6.47-1.74-1.85-1.15-3.29-2.78-4.29-4.84-.99-2.05-1.5-4.46-1.5-7.16s.5-5.15,1.5-7.18c1-2.05,2.44-3.67,4.29-4.82,1.85-1.15,4.03-1.74,6.47-1.74,2.8,0,5.09.65,6.79,1.92,1.71,1.28,2.87,3.08,3.46,5.37l.11.43h-1.53l-.07-.26c-.47-1.81-1.42-3.29-2.82-4.38-1.4-1.09-3.4-1.65-5.95-1.65-2.1,0-3.98.49-5.59,1.45-1.61.96-2.89,2.37-3.79,4.19-.91,1.83-1.37,4.07-1.37,6.67s.46,4.81,1.37,6.63c.9,1.82,2.18,3.23,3.79,4.21,1.61.97,3.5,1.47,5.59,1.47,2.5,0,4.49-.58,5.93-1.72,1.44-1.14,2.39-2.63,2.84-4.42l.07-.26h1.53l-.11.43c-.58,2.34-1.75,4.17-3.46,5.46-1.71,1.29-3.99,1.94-6.79,1.94h0ZM134.63,22.39c-2.32,0-4.37.55-6.11,1.63-1.74,1.08-3.09,2.61-4.03,4.54-.95,1.94-1.43,4.25-1.43,6.88s.48,4.91,1.43,6.86c.94,1.94,2.3,3.48,4.03,4.56,1.74,1.08,3.79,1.63,6.11,1.63,2.65,0,4.79-.61,6.38-1.8,1.47-1.11,2.51-2.67,3.08-4.65h-.09c-.51,1.83-1.52,3.35-3.01,4.53-1.56,1.24-3.7,1.87-6.36,1.87-2.23,0-4.23-.53-5.95-1.57-1.73-1.04-3.09-2.55-4.05-4.49-.96-1.93-1.44-4.26-1.44-6.94s.49-5.05,1.44-6.98c.96-1.94,2.33-3.44,4.06-4.47,1.72-1.03,3.73-1.55,5.95-1.55,2.71,0,4.85.6,6.37,1.79,1.45,1.14,2.46,2.65,2.99,4.5h.09c-.57-1.93-1.61-3.46-3.08-4.56-1.58-1.18-3.73-1.78-6.38-1.78Z"/>
      </g>
      <g>
        <path class="st0" d="M150.35,48.39v-25.9h.74v25.9h-.74ZM150.57,35.51v-.67h17.24v.67h-17.24ZM167.22,48.39v-25.9h.74v25.9h-.74Z"/>
        <path class="st0" d="M168.31,48.74h-1.43v-12.88h-15.44v12.88h-1.43v-26.59h1.43v12.36h15.44v-12.36h1.43v26.59ZM167.57,48.04h.05v-12.18h-.05v12.18ZM150.7,48.04h.05v-12.18h-.05v12.18ZM167.57,34.5h.05v-11.67h-.05v11.67ZM150.7,34.5h.05v-11.67h-.05v11.67Z"/>
      </g>
      <g>
        <path class="st0" d="M174.81,48.39v-25.9h6.47c2.02,0,3.64.31,4.87.93,1.22.62,2.11,1.47,2.66,2.55.55,1.09.83,2.32.83,3.7,0,1.5-.28,2.8-.83,3.88s-1.44,1.92-2.66,2.52c-1.22.59-2.84.89-4.87.89h-5.73v11.43h-.74ZM175.55,36.29h5.77c2.39,0,4.25-.52,5.57-1.57s1.98-2.73,1.98-5.05c0-2.15-.66-3.77-1.98-4.87-1.32-1.1-3.18-1.65-5.57-1.65h-5.77v13.13h0ZM189.09,48.39l-6.18-11.91h.81l6.18,11.91h-.81Z"/>
        <path class="st0" d="M190.47,48.74h-1.59l-.1-.19-5.87-11.32c-.51.05-1.06.07-1.63.07h-5.39v11.43h-1.43v-26.59h6.82c2.07,0,3.76.32,5.02.96,1.28.65,2.23,1.56,2.82,2.7.58,1.13.87,2.43.87,3.86,0,1.55-.29,2.91-.87,4.04-.59,1.15-1.54,2.05-2.82,2.67-.55.27-1.19.48-1.91.63l6.08,11.72v.02ZM189.3,48.04h.04l-5.66-10.9h-.03l5.65,10.9h0ZM175.15,48.04h.05v-25.21h-.05v25.21ZM184.05,36.36h0c.74-.13,1.38-.34,1.94-.61,1.15-.55,1.99-1.35,2.51-2.36.53-1.03.79-2.29.79-3.73,0-1.32-.27-2.51-.79-3.54-.52-1.01-1.36-1.82-2.51-2.4-.66-.33-1.46-.58-2.38-.72,1.41.26,2.58.77,3.5,1.53,1.4,1.16,2.1,2.89,2.1,5.13,0,2.42-.71,4.21-2.11,5.32-.82.65-1.84,1.11-3.05,1.38ZM175.89,35.94h5.43c2.3,0,4.1-.5,5.35-1.5,1.23-.97,1.85-2.58,1.85-4.78,0-2.03-.62-3.57-1.86-4.6-1.25-1.04-3.05-1.57-5.35-1.57h-5.43v12.44h0Z"/>
      </g>
      <g>
        <path class="st0" d="M206.99,48.83c-2.44,0-4.58-.56-6.42-1.68s-3.26-2.69-4.27-4.7c-1.01-2.01-1.52-4.35-1.52-7.01s.5-4.96,1.52-6.97c1.01-2.01,2.44-3.58,4.27-4.72,1.84-1.13,3.98-1.7,6.42-1.7s4.66.57,6.51,1.7c1.85,1.13,3.27,2.71,4.27,4.72s1.5,4.33,1.5,6.97-.5,5-1.5,7.01c-1,2.01-2.42,3.58-4.27,4.7s-4.02,1.68-6.51,1.68ZM207.03,48.09c2.15,0,4.08-.49,5.81-1.48,1.73-.99,3.09-2.43,4.11-4.33s1.52-4.18,1.52-6.84-.51-4.98-1.52-6.86c-1.01-1.89-2.38-3.32-4.11-4.31s-3.66-1.48-5.81-1.48-4.09.49-5.83,1.48-3.11,2.42-4.11,4.31-1.5,4.17-1.5,6.86.5,4.95,1.5,6.84,2.36,3.34,4.09,4.33,3.67,1.48,5.85,1.48Z"/>
        <path class="st0" d="M206.99,49.18c-2.5,0-4.72-.58-6.6-1.73-1.89-1.15-3.37-2.78-4.4-4.84-1.03-2.05-1.55-4.46-1.55-7.17s.52-5.08,1.55-7.13c1.03-2.06,2.51-3.69,4.4-4.86,1.88-1.16,4.11-1.75,6.6-1.75s4.8.59,6.69,1.75c1.9,1.16,3.38,2.8,4.4,4.86,1.02,2.05,1.53,4.45,1.53,7.13s-.52,5.12-1.53,7.17c-1.02,2.06-2.5,3.69-4.4,4.84s-4.15,1.73-6.69,1.73ZM206.99,22.39c-2.37,0-4.46.56-6.24,1.65-1.77,1.1-3.17,2.64-4.15,4.58-.98,1.95-1.48,4.24-1.48,6.82s.5,4.9,1.48,6.86c.98,1.94,2.37,3.48,4.15,4.56,1.77,1.08,3.87,1.63,6.24,1.63s4.55-.55,6.33-1.63c1.79-1.08,3.18-2.62,4.14-4.56.97-1.95,1.46-4.26,1.46-6.86s-.49-4.87-1.46-6.82c-.96-1.94-2.36-3.48-4.14-4.58-1.79-1.1-3.92-1.65-6.33-1.65ZM207.03,48.44c-2.22,0-4.25-.51-6.02-1.53-1.78-1.01-3.2-2.52-4.22-4.47-1.02-1.94-1.54-4.3-1.54-7.01s.52-5.1,1.54-7.02c1.03-1.94,2.45-3.43,4.24-4.45,1.78-1.01,3.8-1.53,6-1.53s4.21.51,5.98,1.53c1.77,1.01,3.2,2.51,4.24,4.45,1.03,1.93,1.56,4.29,1.56,7.03s-.52,5.07-1.56,7.01c-1.04,1.95-2.47,3.45-4.24,4.47-1.77,1.01-3.78,1.53-5.98,1.53h0ZM207.03,23.13c-2.08,0-3.98.48-5.66,1.43-1.67.95-3.01,2.35-3.97,4.17-.97,1.83-1.46,4.08-1.46,6.7s.49,4.84,1.46,6.68c.96,1.83,2.29,3.24,3.95,4.19,1.66.95,3.57,1.44,5.67,1.44s3.97-.48,5.64-1.44c1.66-.95,3-2.36,3.97-4.19.98-1.84,1.48-4.09,1.48-6.68s-.5-4.87-1.48-6.7c-.98-1.82-2.31-3.22-3.97-4.17-1.67-.95-3.56-1.43-5.64-1.43h.01Z"/>
      </g>
    </g>
    <polygon class="st0" points="34.76 17.75 34.76 17.73 34.25 17.73 33.33 17.73 33.33 17.77 33.33 21.65 34.76 21.65 34.76 17.75"/>
    <polygon class="st0" points="30.17 18.17 30.17 18.14 29.67 18.27 28.79 18.51 28.8 18.56 29.8 22.3 31.18 21.93 30.17 18.17"/>
    <polygon class="st0" points="25.85 19.75 25.83 19.73 25.39 19.99 24.6 20.45 24.62 20.49 26.56 23.85 27.8 23.13 25.85 19.75"/>
    <polygon class="st0" points="22.08 22.41 22.06 22.39 21.7 22.75 21.05 23.4 21.08 23.43 23.83 26.18 24.84 25.17 22.08 22.41"/>
    <polygon class="st0" points="19.13 25.95 19.1 25.93 18.85 26.37 18.39 27.17 18.43 27.19 21.79 29.13 22.5 27.9 19.13 25.95"/>
    <polygon class="st0" points="17.19 30.13 17.17 30.12 17.03 30.61 16.8 31.5 16.84 31.51 20.59 32.52 20.96 31.14 17.19 30.13"/>
    <polygon class="st0" points="16.4 34.67 16.38 34.67 16.38 35.18 16.38 36.1 16.42 36.1 20.3 36.1 20.3 34.67 16.4 34.67"/>
    <polygon class="st0" points="16.82 39.26 16.79 39.26 16.92 39.76 17.16 40.64 17.21 40.63 20.95 39.63 20.58 38.25 16.82 39.26"/>
    <polygon class="st0" points="18.4 43.58 18.38 43.6 18.64 44.04 19.1 44.83 19.14 44.81 22.5 42.87 21.78 41.63 18.4 43.58"/>
    <polygon class="st0" points="21.06 47.35 21.04 47.37 21.4 47.73 22.05 48.38 22.08 48.35 24.83 45.6 23.82 44.59 21.06 47.35"/>
    <polygon class="st0" points="24.6 50.3 24.58 50.33 25.02 50.58 25.82 51.04 25.84 51 27.78 47.64 26.55 46.93 24.6 50.3"/>
    <polygon class="st0" points="28.78 52.24 28.77 52.26 29.26 52.4 30.15 52.63 30.16 52.59 31.17 48.84 29.79 48.47 28.78 52.24"/>
    <polygon class="st0" points="33.32 53.03 33.32 53.05 33.83 53.05 34.75 53.05 34.75 53.01 34.75 49.13 33.32 49.13 33.32 53.03"/>
    <polygon class="st0" points="37.91 52.61 37.91 52.64 38.41 52.51 39.3 52.27 39.28 52.22 38.28 48.48 36.9 48.85 37.91 52.61"/>
    <polygon class="st0" points="42.23 51.03 42.25 51.05 42.69 50.79 43.48 50.33 43.46 50.29 41.52 46.93 40.28 47.65 42.23 51.03"/>
    <polygon class="st0" points="46 48.37 46.02 48.39 46.38 48.03 47.03 47.38 47 47.35 44.25 44.6 43.24 45.61 46 48.37"/>
    <polygon class="st0" points="48.95 44.83 48.98 44.85 49.23 44.41 49.69 43.61 49.65 43.59 46.29 41.65 45.58 42.88 48.95 44.83"/>
    <polygon class="st0" points="50.89 40.65 50.92 40.66 51.05 40.17 51.28 39.28 51.24 39.27 47.49 38.26 47.12 39.64 50.89 40.65"/>
    <polygon class="st0" points="51.68 36.11 51.7 36.11 51.7 35.6 51.7 34.68 51.66 34.68 47.78 34.68 47.78 36.11 51.68 36.11"/>
    <polygon class="st0" points="51.26 31.52 51.29 31.52 51.16 31.02 50.92 30.13 50.87 30.15 47.13 31.15 47.5 32.53 51.26 31.52"/>
    <polygon class="st0" points="49.68 27.2 49.7 27.18 49.44 26.74 48.98 25.95 48.94 25.97 45.58 27.91 46.3 29.15 49.68 27.2"/>
    <polygon class="st0" points="47.02 23.43 47.04 23.41 46.68 23.05 46.03 22.4 46 22.43 43.25 25.18 44.27 26.19 47.02 23.43"/>
    <polygon class="st0" points="43.48 20.48 43.5 20.45 43.06 20.2 42.26 19.74 42.24 19.78 40.3 23.14 41.53 23.85 43.48 20.48"/>
    <polygon class="st0" points="39.3 18.54 39.31 18.52 38.82 18.38 37.93 18.15 37.92 18.19 36.91 21.94 38.29 22.31 39.3 18.54"/>
    <polygon class="st0" points="36.44 21.88 36.45 21.85 36.02 21.79 35.27 21.69 35.26 21.74 34.75 25.58 35.93 25.74 36.44 21.88"/>
    <polygon class="st0" points="32.86 21.71 32.86 21.69 32.44 21.74 31.68 21.84 31.68 21.89 32.19 25.74 33.37 25.58 32.86 21.71"/>
    <polygon class="st0" points="29.36 22.49 29.35 22.46 28.96 22.62 28.25 22.92 28.27 22.96 29.75 26.54 30.85 26.09 29.36 22.49"/>
    <polygon class="st0" points="26.18 24.14 26.17 24.12 25.83 24.37 25.22 24.84 25.25 24.88 27.61 27.96 28.55 27.23 26.18 24.14"/>
    <polygon class="st0" points="23.54 26.55 23.52 26.54 23.26 26.87 22.79 27.48 22.83 27.51 25.9 29.87 26.63 28.93 23.54 26.55"/>
    <polygon class="st0" points="21.61 29.57 21.58 29.56 21.42 29.95 21.13 30.66 21.17 30.68 24.75 32.17 25.21 31.07 21.61 29.57"/>
    <polygon class="st0" points="20.53 32.99 20.5 32.98 20.45 33.41 20.34 34.17 20.39 34.17 24.24 34.68 24.39 33.5 20.53 32.99"/>
    <polygon class="st0" points="20.36 36.57 20.34 36.57 20.39 36.99 20.49 37.75 20.54 37.75 24.39 37.24 24.23 36.06 20.36 36.57"/>
    <polygon class="st0" points="21.14 40.07 21.11 40.08 21.27 40.47 21.57 41.18 21.61 41.16 25.19 39.68 24.74 38.58 21.14 40.07"/>
    <polygon class="st0" points="22.79 43.25 22.77 43.26 23.02 43.6 23.49 44.21 23.53 44.18 26.61 41.82 25.88 40.88 22.79 43.25"/>
    <polygon class="st0" points="25.2 45.89 25.19 45.91 25.52 46.17 26.13 46.64 26.16 46.6 28.52 43.53 27.58 42.8 25.2 45.89"/>
    <polygon class="st0" points="28.22 47.82 28.21 47.85 28.6 48.01 29.31 48.3 29.33 48.26 30.82 44.68 29.72 44.22 28.22 47.82"/>
    <polygon class="st0" points="31.64 48.9 31.64 48.93 32.06 48.99 32.82 49.09 32.82 49.04 33.33 45.19 32.15 45.04 31.64 48.9"/>
    <polygon class="st0" points="35.22 49.07 35.22 49.09 35.64 49.04 36.4 48.94 36.4 48.89 35.89 45.04 34.71 45.2 35.22 49.07"/>
    <polygon class="st0" points="38.72 48.29 38.73 48.32 39.12 48.16 39.83 47.86 39.81 47.82 38.33 44.24 37.23 44.69 38.72 48.29"/>
    <polygon class="st0" points="41.9 46.64 41.91 46.66 42.25 46.41 42.86 45.94 42.83 45.9 40.47 42.82 39.53 43.55 41.9 46.64"/>
    <polygon class="st0" points="44.54 44.23 44.56 44.24 44.82 43.91 45.29 43.3 45.25 43.27 42.18 40.91 41.45 41.85 44.54 44.23"/>
    <polygon class="st0" points="46.47 41.21 46.5 41.22 46.66 40.83 46.95 40.12 46.91 40.1 43.33 38.61 42.87 39.71 46.47 41.21"/>
    <polygon class="st0" points="47.55 37.79 47.58 37.79 47.64 37.37 47.74 36.61 47.69 36.61 43.85 36.1 43.69 37.28 47.55 37.79"/>
    <polygon class="st0" points="47.72 34.21 47.74 34.21 47.69 33.79 47.59 33.03 47.54 33.03 43.69 33.54 43.85 34.72 47.72 34.21"/>
    <polygon class="st0" points="46.94 30.71 46.97 30.7 46.81 30.31 46.51 29.6 46.47 29.62 42.89 31.1 43.34 32.2 46.94 30.71"/>
    <polygon class="st0" points="45.29 27.53 45.31 27.52 45.06 27.18 44.59 26.57 44.55 26.6 41.47 28.96 42.2 29.9 45.29 27.53"/>
    <polygon class="st0" points="42.88 24.89 42.89 24.87 42.56 24.61 41.95 24.14 41.92 24.18 39.56 27.25 40.5 27.98 42.88 24.89"/>
    <polygon class="st0" points="39.86 22.96 39.87 22.93 39.48 22.77 38.77 22.48 38.75 22.52 37.26 26.1 38.36 26.56 39.86 22.96"/>
  </g>
</svg>