<?xml version="1.0" encoding="UTF-8"?>
<svg id="Livello_2" xmlns="http://www.w3.org/2000/svg" viewBox="0 0 110.81 85.35">
  <defs>
    <style>
      .cls-1 {
        stroke: #fff;
        stroke-miterlimit: 10;
        stroke-width: .25px;
      }

      .cls-1, .cls-2 {
        fill: #fff;
      }
    </style>
  </defs>
  <g id="MICROGRAPH">
    <g>
      <polygon class="cls-2" points="54.48 1.34 55.66 1.34 56.83 1.34 58.01 1.34 59.18 1.34 59.18 0 58.01 0 56.83 0 55.66 0 54.48 0 53.31 0 52.13 0 52.13 1.34 53.31 1.34 54.48 1.34"/>
      <polygon class="cls-2" points="38.03 3.86 39.21 3.86 40.38 3.86 41.56 3.86 42.73 3.86 43.91 3.86 45.08 3.86 46.26 3.86 47.43 3.86 48.61 3.86 49.78 3.86 50.96 3.86 52.13 3.86 53.31 3.86 54.48 3.86 55.66 3.86 56.83 3.86 58.01 3.86 59.18 3.86 60.36 3.86 61.53 3.86 62.71 3.86 63.88 3.86 65.06 3.86 66.23 3.86 67.41 3.86 68.58 3.86 69.76 3.86 70.93 3.86 72.11 3.86 73.28 3.86 74.46 3.86 75.63 3.86 75.63 2.52 74.46 2.52 73.28 2.52 72.11 2.52 70.93 2.52 69.76 2.52 68.58 2.52 67.41 2.52 66.23 2.52 65.06 2.52 63.88 2.52 62.71 2.52 61.53 2.52 60.36 2.52 59.18 2.52 58.01 2.52 56.83 2.52 55.66 2.52 54.48 2.52 53.31 2.52 52.13 2.52 50.96 2.52 49.78 2.52 48.61 2.52 47.43 2.52 46.26 2.52 45.08 2.52 43.91 2.52 42.73 2.52 41.56 2.52 40.38 2.52 39.21 2.52 38.03 2.52 36.86 2.52 35.68 2.52 35.68 3.86 36.86 3.86 38.03 3.86"/>
      <polygon class="cls-2" points="39.21 5.04 38.03 5.04 38.03 6.38 39.21 6.38 40.38 6.38 41.56 6.38 41.56 5.04 40.38 5.04 39.21 5.04"/>
      <polygon class="cls-2" points="59.18 6.38 59.18 5.04 58.01 5.04 56.83 5.04 55.66 5.04 54.48 5.04 53.31 5.04 52.13 5.04 52.13 6.38 53.31 6.38 54.48 6.38 55.66 6.38 56.83 6.38 58.01 6.38 59.18 6.38"/>
      <polygon class="cls-2" points="72.11 6.38 73.28 6.38 74.46 6.38 74.46 5.04 73.28 5.04 72.11 5.04 70.93 5.04 69.76 5.04 69.76 6.38 70.93 6.38 72.11 6.38"/>
      <polygon class="cls-2" points="36.86 7.55 36.86 8.9 38.03 8.9 39.21 8.9 39.21 7.55 38.03 7.55 36.86 7.55"/>
      <polygon class="cls-2" points="40.38 7.55 40.38 8.9 41.56 8.9 42.73 8.9 42.73 7.55 41.56 7.55 40.38 7.55"/>
      <polygon class="cls-2" points="58.01 7.55 56.83 7.55 55.66 7.55 54.48 7.55 53.31 7.55 53.31 8.9 54.48 8.9 55.66 8.9 56.83 8.9 58.01 8.9 58.01 7.55"/>
      <polygon class="cls-2" points="70.93 7.55 69.76 7.55 68.58 7.55 68.58 8.9 69.76 8.9 70.93 8.9 70.93 7.55"/>
      <polygon class="cls-2" points="74.46 8.9 74.46 7.55 73.28 7.55 72.11 7.55 72.11 8.9 73.28 8.9 74.46 8.9"/>
      <polygon class="cls-2" points="38.03 11.41 38.03 10.07 36.86 10.07 35.68 10.07 35.68 11.41 36.86 11.41 38.03 11.41"/>
      <polygon class="cls-2" points="41.56 10.07 40.38 10.07 40.38 11.41 41.56 11.41 42.73 11.41 43.91 11.41 43.91 10.07 42.73 10.07 41.56 10.07"/>
      <polygon class="cls-2" points="58.01 10.07 56.83 10.07 55.66 10.07 54.48 10.07 53.31 10.07 53.31 11.41 54.48 11.41 55.66 11.41 56.83 11.41 58.01 11.41 58.01 10.07"/>
      <polygon class="cls-2" points="70.93 11.41 70.93 10.07 69.76 10.07 68.58 10.07 68.58 11.41 69.76 11.41 70.93 11.41"/>
      <polygon class="cls-2" points="75.63 11.41 75.63 10.07 74.46 10.07 73.28 10.07 73.28 11.41 74.46 11.41 75.63 11.41"/>
      <polygon class="cls-2" points="36.86 13.93 38.03 13.93 38.03 12.59 36.86 12.59 35.68 12.59 34.51 12.59 34.51 13.93 35.68 13.93 36.86 13.93"/>
      <polygon class="cls-2" points="43.91 13.93 43.91 12.59 42.73 12.59 41.56 12.59 41.56 13.93 42.73 13.93 43.91 13.93"/>
      <polygon class="cls-2" points="58.01 12.59 56.83 12.59 55.66 12.59 54.48 12.59 53.31 12.59 53.31 13.93 54.48 13.93 55.66 13.93 56.83 13.93 58.01 13.93 58.01 12.59"/>
      <polygon class="cls-2" points="69.76 13.93 69.76 12.59 68.58 12.59 67.41 12.59 67.41 13.93 68.58 13.93 69.76 13.93"/>
      <polygon class="cls-2" points="74.46 12.59 74.46 13.93 75.63 13.93 76.81 13.93 76.81 12.59 75.63 12.59 74.46 12.59"/>
      <polygon class="cls-2" points="36.86 16.45 36.86 15.11 35.68 15.11 34.51 15.11 34.51 16.45 35.68 16.45 36.86 16.45"/>
      <polygon class="cls-2" points="42.73 15.11 42.73 16.45 43.91 16.45 45.08 16.45 45.08 15.11 43.91 15.11 42.73 15.11"/>
      <polygon class="cls-2" points="58.01 15.11 56.83 15.11 55.66 15.11 54.48 15.11 53.31 15.11 53.31 16.45 54.48 16.45 55.66 16.45 56.83 16.45 58.01 16.45 58.01 15.11"/>
      <polygon class="cls-2" points="68.58 16.45 68.58 15.11 67.41 15.11 66.23 15.11 66.23 16.45 67.41 16.45 68.58 16.45"/>
      <polygon class="cls-2" points="75.63 15.11 74.46 15.11 74.46 16.45 75.63 16.45 76.81 16.45 77.98 16.45 77.98 15.11 76.81 15.11 75.63 15.11"/>
      <polygon class="cls-2" points="35.68 18.97 35.68 17.62 34.51 17.62 33.33 17.62 33.33 18.97 34.51 18.97 35.68 18.97"/>
      <polygon class="cls-2" points="43.91 17.62 43.91 18.97 45.08 18.97 46.26 18.97 46.26 17.62 45.08 17.62 43.91 17.62"/>
      <polygon class="cls-2" points="58.01 17.62 56.83 17.62 55.66 17.62 54.48 17.62 53.31 17.62 53.31 18.97 54.48 18.97 55.66 18.97 56.83 18.97 58.01 18.97 58.01 17.62"/>
      <rect class="cls-2" x="66.23" y="17.62" width="1.17" height="1.34"/>
      <polygon class="cls-2" points="77.98 18.97 77.98 17.62 76.81 17.62 75.63 17.62 75.63 18.97 76.81 18.97 77.98 18.97"/>
      <polygon class="cls-2" points="34.51 21.48 35.68 21.48 35.68 20.14 34.51 20.14 33.33 20.14 32.16 20.14 32.16 21.48 33.33 21.48 34.51 21.48"/>
      <rect class="cls-2" x="45.08" y="20.14" width="1.17" height="1.34"/>
      <polygon class="cls-2" points="58.01 20.14 56.83 20.14 55.66 20.14 54.48 20.14 53.31 20.14 53.31 21.48 54.48 21.48 55.66 21.48 56.83 21.48 58.01 21.48 58.01 20.14"/>
      <polygon class="cls-2" points="67.41 21.48 67.41 20.14 66.23 20.14 65.06 20.14 65.06 21.48 66.23 21.48 67.41 21.48"/>
      <polygon class="cls-2" points="76.81 20.14 76.81 21.48 77.98 21.48 79.16 21.48 79.16 20.14 77.98 20.14 76.81 20.14"/>
      <polygon class="cls-2" points="34.51 24 34.51 22.66 33.33 22.66 32.16 22.66 32.16 24 33.33 24 34.51 24"/>
      <polygon class="cls-2" points="45.08 22.66 45.08 24 46.26 24 47.43 24 47.43 22.66 46.26 22.66 45.08 22.66"/>
      <polygon class="cls-2" points="58.01 22.66 56.83 22.66 55.66 22.66 54.48 22.66 53.31 22.66 53.31 24 54.48 24 55.66 24 56.83 24 58.01 24 58.01 22.66"/>
      <polygon class="cls-2" points="66.23 22.66 65.06 22.66 63.88 22.66 63.88 24 65.06 24 66.23 24 66.23 22.66"/>
      <polygon class="cls-2" points="80.33 22.66 79.16 22.66 77.98 22.66 76.81 22.66 76.81 24 77.98 24 79.16 24 80.33 24 80.33 22.66"/>
      <polygon class="cls-2" points="33.33 26.52 33.33 25.18 32.16 25.18 30.98 25.18 30.98 26.52 32.16 26.52 33.33 26.52"/>
      <polygon class="cls-2" points="46.26 25.18 46.26 26.52 47.43 26.52 48.61 26.52 48.61 25.18 47.43 25.18 46.26 25.18"/>
      <polygon class="cls-2" points="58.01 25.18 56.83 25.18 55.66 25.18 54.48 25.18 53.31 25.18 53.31 26.52 54.48 26.52 55.66 26.52 56.83 26.52 58.01 26.52 58.01 25.18"/>
      <polygon class="cls-2" points="66.23 26.52 66.23 25.18 65.06 25.18 63.88 25.18 63.88 26.52 65.06 26.52 66.23 26.52"/>
      <polygon class="cls-2" points="77.98 25.18 77.98 26.52 79.16 26.52 80.33 26.52 80.33 25.18 79.16 25.18 77.98 25.18"/>
      <polygon class="cls-2" points="32.16 29.04 33.33 29.04 33.33 27.7 32.16 27.7 30.98 27.7 29.81 27.7 29.81 29.04 30.98 29.04 32.16 29.04"/>
      <polygon class="cls-2" points="47.43 27.7 46.26 27.7 46.26 29.04 47.43 29.04 48.61 29.04 49.78 29.04 49.78 27.7 48.61 27.7 47.43 27.7"/>
      <polygon class="cls-2" points="58.01 27.7 56.83 27.7 55.66 27.7 54.48 27.7 53.31 27.7 53.31 29.04 54.48 29.04 55.66 29.04 56.83 29.04 58.01 29.04 58.01 27.7"/>
      <polygon class="cls-2" points="62.71 27.7 62.71 29.04 63.88 29.04 65.06 29.04 65.06 27.7 63.88 27.7 62.71 27.7"/>
      <polygon class="cls-2" points="79.16 27.7 79.16 29.04 80.33 29.04 81.51 29.04 81.51 27.7 80.33 27.7 79.16 27.7"/>
      <polygon class="cls-2" points="34.51 31.56 35.68 31.56 36.86 31.56 38.03 31.56 39.21 31.56 40.38 31.56 41.56 31.56 42.73 31.56 43.91 31.56 45.08 31.56 46.26 31.56 47.43 31.56 48.61 31.56 48.61 30.21 47.43 30.21 46.26 30.21 45.08 30.21 43.91 30.21 42.73 30.21 41.56 30.21 40.38 30.21 39.21 30.21 38.03 30.21 36.86 30.21 35.68 30.21 34.51 30.21 33.33 30.21 32.16 30.21 30.98 30.21 30.98 31.56 32.16 31.56 33.33 31.56 34.51 31.56"/>
      <polygon class="cls-2" points="58.01 30.21 56.83 30.21 55.66 30.21 54.48 30.21 53.31 30.21 53.31 31.56 54.48 31.56 55.66 31.56 56.83 31.56 58.01 31.56 58.01 30.21"/>
      <polygon class="cls-2" points="77.98 30.21 76.81 30.21 75.63 30.21 74.46 30.21 73.28 30.21 72.11 30.21 70.93 30.21 69.76 30.21 68.58 30.21 67.41 30.21 66.23 30.21 65.06 30.21 63.88 30.21 62.71 30.21 62.71 31.56 63.88 31.56 65.06 31.56 66.23 31.56 67.41 31.56 68.58 31.56 69.76 31.56 70.93 31.56 72.11 31.56 73.28 31.56 74.46 31.56 75.63 31.56 76.81 31.56 77.98 31.56 79.16 31.56 80.33 31.56 80.33 30.21 79.16 30.21 77.98 30.21"/>
      <polygon class="cls-2" points="38.03 34.07 39.21 34.07 40.38 34.07 41.56 34.07 42.73 34.07 43.91 34.07 45.08 34.07 46.26 34.07 46.26 32.73 45.08 32.73 43.91 32.73 42.73 32.73 41.56 32.73 40.38 32.73 39.21 32.73 38.03 32.73 36.86 32.73 35.68 32.73 34.51 32.73 33.33 32.73 33.33 34.07 34.51 34.07 35.68 34.07 36.86 34.07 38.03 34.07"/>
      <polygon class="cls-2" points="58.01 32.73 56.83 32.73 55.66 32.73 54.48 32.73 53.31 32.73 53.31 34.07 54.48 34.07 55.66 34.07 56.83 34.07 58.01 34.07 58.01 32.73"/>
      <polygon class="cls-2" points="76.81 32.73 75.63 32.73 74.46 32.73 73.28 32.73 72.11 32.73 70.93 32.73 69.76 32.73 68.58 32.73 67.41 32.73 66.23 32.73 65.06 32.73 65.06 34.07 66.23 34.07 67.41 34.07 68.58 34.07 69.76 34.07 70.93 34.07 72.11 34.07 73.28 34.07 74.46 34.07 75.63 34.07 76.81 34.07 77.98 34.07 79.16 34.07 79.16 32.73 77.98 32.73 76.81 32.73"/>
      <polygon class="cls-2" points="58.01 35.25 56.83 35.25 55.66 35.25 54.48 35.25 53.31 35.25 53.31 36.59 54.48 36.59 55.66 36.59 56.83 36.59 58.01 36.59 58.01 35.25"/>
      <polygon class="cls-2" points="55.66 37.77 54.48 37.77 53.31 37.77 53.31 39.11 54.48 39.11 55.66 39.11 56.83 39.11 58.01 39.11 58.01 37.77 56.83 37.77 55.66 37.77"/>
      <polygon class="cls-2" points="62.71 40.28 61.53 40.28 60.36 40.28 59.18 40.28 58.01 40.28 56.83 40.28 55.66 40.28 54.48 40.28 53.31 40.28 52.13 40.28 50.96 40.28 49.78 40.28 48.61 40.28 47.43 40.28 46.26 40.28 46.26 41.63 47.43 41.63 48.61 41.63 49.78 41.63 50.96 41.63 52.13 41.63 53.31 41.63 54.48 41.63 55.66 41.63 56.83 41.63 58.01 41.63 59.18 41.63 60.36 41.63 61.53 41.63 62.71 41.63 63.88 41.63 65.06 41.63 65.06 40.28 63.88 40.28 62.71 40.28"/>
      <rect class="cls-2" x="47.43" y="42.8" width="1.17" height="1.34"/>
      <rect class="cls-2" x="62.71" y="42.8" width="1.17" height="1.34"/>
      <g>
        <path class="cls-1" d="M1.49,67.48v1.36H.12v-1.36h1.36ZM1.49,70.21v1.36H.12v-1.36h1.36ZM1.49,72.94v1.36H.12v-1.36h1.36ZM1.49,75.67v1.36H.12v-1.36h1.36ZM1.49,78.4v1.36H.12v-1.36h1.36ZM1.49,81.13v1.36H.12v-1.36h1.36ZM11.05,83.86v1.37H1.49v-1.37h9.56ZM12.41,67.48v1.36h-1.36v-1.36h1.36ZM12.41,70.21v1.36h-1.36v-1.36h1.36ZM12.41,72.94v1.36h-1.36v-1.36h1.36ZM12.41,75.67v1.36h-1.36v-1.36h1.36ZM12.41,78.4v1.36h-1.36v-1.36h1.36ZM12.41,81.13v1.36h-1.36v-1.36h1.36Z"/>
        <path class="cls-1" d="M26.06,78.4v1.36h-6.83v-1.36h6.83Z"/>
        <path class="cls-1" d="M34.25,75.67v1.36h-1.36v-1.36h1.36ZM34.25,78.4v1.36h-1.36v-1.36h1.36ZM34.25,81.13v1.36h-1.36v-1.36h1.36ZM43.8,83.86v1.37h-9.56v-1.37h9.56ZM45.17,67.48v1.36h-1.36v-1.36h1.36ZM45.17,70.21v1.36h-1.36v-1.36h1.36ZM45.17,72.94v1.36h-1.36v-1.36h1.36ZM45.17,75.67v1.36h-1.36v-1.36h1.36ZM45.17,78.4v1.36h-1.36v-1.36h1.36ZM45.17,81.13v1.36h-1.36v-1.36h1.36Z"/>
        <path class="cls-1" d="M50.63,67.48v1.36h-1.36v-1.36h1.36ZM50.63,70.21v1.36h-1.36v-1.36h1.36ZM50.63,72.94v1.36h-1.36v-1.36h1.36ZM50.63,75.67v1.36h-1.36v-1.36h1.36ZM50.63,78.4v1.36h-1.36v-1.36h1.36ZM50.63,81.13v1.36h-1.36v-1.36h1.36ZM60.18,83.86v1.37h-9.56v-1.37h9.56ZM61.55,67.48v1.36h-1.36v-1.36h1.36ZM61.55,70.21v1.36h-1.36v-1.36h1.36ZM61.55,72.94v1.36h-1.36v-1.36h1.36ZM61.55,75.67v1.36h-1.36v-1.36h1.36ZM61.55,78.4v1.36h-1.36v-1.36h1.36ZM61.55,81.13v1.36h-1.36v-1.36h1.36Z"/>
        <path class="cls-1" d="M76.56,67.48v1.36h-10.92v-1.36h10.92ZM67.01,70.21v1.36h-1.36v-1.36h1.36ZM67.01,72.94v1.36h-1.36v-1.36h1.36ZM67.01,75.67v1.36h-1.36v-1.36h1.36ZM67.01,78.4v1.36h-1.36v-1.36h1.36ZM67.01,81.13v1.36h-1.36v-1.36h1.36ZM76.56,83.86v1.37h-10.92v-1.37h10.92ZM77.93,70.21v1.36h-1.36v-1.36h1.36ZM77.93,72.94v1.36h-1.36v-1.36h1.36ZM77.93,75.67v1.36h-1.36v-1.36h1.36ZM77.93,78.4v1.36h-1.36v-1.36h1.36ZM77.93,81.13v1.36h-1.36v-1.36h1.36Z"/>
        <path class="cls-1" d="M83.39,70.21v1.36h-1.36v-1.36h1.36ZM83.39,72.94v1.36h-1.36v-1.36h1.36ZM83.39,75.67v1.36h-1.36v-1.36h1.36ZM83.39,78.4v1.36h-1.36v-1.36h1.36ZM83.39,81.13v1.36h-1.36v-1.36h1.36ZM92.94,67.48v1.36h-9.56v-1.36h9.56ZM92.94,83.86v1.37h-9.56v-1.37h9.56ZM94.31,75.67v1.36h-6.83v-1.36h6.83ZM94.31,70.21v1.36h-1.36v-1.36h1.36ZM94.31,78.4v1.36h-1.36v-1.36h1.36ZM94.31,81.13v1.36h-1.36v-1.36h1.36Z"/>
        <path class="cls-1" d="M110.69,67.48v1.36h-12.28v-1.36h12.28ZM99.77,70.21v1.36h-1.36v-1.36h1.36ZM99.77,72.94v1.36h-1.36v-1.36h1.36ZM107.96,75.67v1.36h-9.56v-1.36h9.56ZM99.77,78.4v1.36h-1.36v-1.36h1.36ZM99.77,81.13v1.36h-1.36v-1.36h1.36ZM110.69,83.86v1.37h-12.28v-1.37h12.28Z"/>
      </g>
    </g>
  </g>
</svg>