<?xml version="1.0" encoding="UTF-8"?>
<svg id="Livello_2" xmlns="http://www.w3.org/2000/svg" viewBox="0 0 68.41 8.71">
  <g id="Livello_8">
    <g>
      <path d="M46.82.05h-15.74c-.44,0-1.01.38-1.01.85v6.91h0c0,.47.58.85,1.01.85h15.74c.44,0,1.01-.38,1.01-.85V.9c0-.47-.58-.85-1.01-.85ZM41.91,7.81h-5.92V.9h2.96s2.96,0,2.96,0v6.91Z"/>
      <rect y=".04" width="5.92" height="8.6"/>
      <path d="M26.42.05h-15.74c-.41,0-.95.34-1.01.77h0v6.98c0,.47.58.85,1.01.85h15.74c.4,0,.91-.31,1-.72h.01v-1.75h-5.92v1.63h-5.92V.9h5.92v1.75h5.92V.9h0c0-.47-.58-.85-1.01-.85Z"/>
      <path d="M62.49,0v7.35c-1.9-2.45-3.81-4.9-5.71-7.35h-.21s-5.92,0-5.92,0v8.71h5.92V1.44c1.9,2.42,3.8,4.85,5.7,7.27h6.14V0h-5.92Z"/>
    </g>
  </g>
</svg>