<?xml version="1.0" encoding="UTF-8"?>
<svg id="Livello_2" xmlns="http://www.w3.org/2000/svg" viewBox="0 0 99.03 8.64">
  <g id="Livello_8">
    <g>
      <g>
        <polygon points="0 .05 0 8.58 5.87 8.58 17.61 8.58 17.61 7.75 5.87 7.75 5.87 4.74 17.61 4.74 17.61 3.9 5.87 3.9 5.87 .89 17.61 .89 17.61 .05 5.87 .05 0 .05"/>
        <rect x="19.82" y="3.9" width="17.61" height=".84"/>
      </g>
      <polygon points="60.63 .05 60.63 8.58 66.5 8.58 78.24 8.58 78.24 7.75 66.5 7.75 66.5 4.74 78.24 4.74 78.24 3.9 66.5 3.9 66.5 .89 78.24 .89 78.24 .05 66.5 .05 60.63 .05"/>
      <path d="M56.43.05h-16.61v8.53h16.61c.43,0,1-.38,1-.84V.89c0-.46-.57-.84-1-.84ZM51.57,7.75h-5.87V.89h5.87v6.85Z"/>
      <path d="M93.16,0v7.29c-1.89-2.43-3.77-4.86-5.66-7.29h-.21s-5.87,0-5.87,0v8.64h5.87V1.43c1.88,2.4,3.77,4.81,5.65,7.21h6.08V0h-5.87Z"/>
    </g>
  </g>
</svg>