<?xml version="1.0" encoding="UTF-8"?>
<svg id="Livello_2" xmlns="http://www.w3.org/2000/svg" viewBox="0 0 134.43 8.72">
  <g id="Livello_8">
    <g>
      <path d="M16.81.04H0v8.64h5.94v-3.83h5.94v3.83h5.94v-2.98c-.82-.31-1.63-.62-2.45-.93.82-.26,1.63-.51,2.45-.77V.89c0-.47-.58-.85-1.02-.85ZM11.89,3.99h-5.94V.89h5.94v3.11Z"/>
      <rect x="104.09" y=".04" width="5.94" height="8.64"/>
      <path d="M74.44,7.83h-5.94V.04h-5.94v8.64h16.81c.4,0,.91-.32,1-.73h.02v-1.76h-5.94v1.64Z"/>
      <path d="M100.14.04h-15.8c-.44,0-1.02.38-1.02.85v7.79h5.94v-3.05h5.94v3.05h5.94V.89c0-.47-.58-.85-1.02-.85ZM95.21,4.78h-5.94V.89h5.94v3.89Z"/>
      <path d="M58.76.04h-15.8c-.42,0-.95.34-1.01.78h0v7.01c0,.47.58.85,1.02.85h15.8c.4,0,.91-.32,1-.73h.01v-1.76h-5.94v1.64h-5.94V.89h5.94v1.76h5.94V.89h0c0-.47-.58-.85-1.02-.85Z"/>
      <polygon points="21.28 .04 21.28 8.68 27.22 8.68 39.11 8.68 39.11 7.83 27.22 7.83 27.22 4.78 39.11 4.78 39.11 3.93 27.22 3.93 27.22 .89 39.11 .89 39.11 .04 27.22 .04 21.28 .04"/>
      <path d="M128.08,0c-1.46,1.82-2.92,3.64-4.38,5.47-1.46-1.82-2.92-3.64-4.38-5.47h-6.35v8.72h6.13V1.43c1.3,1.62,2.6,3.24,3.91,4.86h1.38c1.3-1.62,2.6-3.24,3.91-4.86v7.28h6.13V0h-6.35Z"/>
    </g>
  </g>
</svg>