<?xml version="1.0" encoding="UTF-8"?>
<svg id="Livello_2" xmlns="http://www.w3.org/2000/svg" viewBox="0 0 101.16 8.64">
  <g id="Livello_8">
    <g>
      <path d="M16.82,0H0v8.64h5.94v-3.83h5.94v3.83h5.94v-2.98c-.82-.31-1.63-.62-2.45-.93.82-.26,1.63-.52,2.45-.77V.85c0-.47-.58-.85-1.02-.85ZM11.89,3.96h-5.94V.85h5.94v3.11Z"/>
      <polygon points="33.17 3.89 27.23 3.89 27.23 0 21.28 0 21.28 8.64 27.23 8.64 27.23 4.74 33.17 4.74 33.17 8.64 39.11 8.64 39.11 0 33.17 0 33.17 3.89"/>
      <path d="M79.37,0h-15.8c-.44,0-1.02.38-1.02.85v7.79h5.94v-3.05h5.94v3.05h5.94V.85c0-.47-.58-.85-1.02-.85ZM74.45,4.74h-5.94V.85h5.94v3.89Z"/>
      <path d="M95.22,6.15v1.64h-5.94V0h-5.94v8.64h16.82c.4,0,.91-.32,1-.73h.02v-1.76h-5.94Z"/>
      <polygon points="41.95 0 41.95 8.64 47.89 8.64 59.78 8.64 59.78 7.79 47.89 7.79 47.89 4.74 59.78 4.74 59.78 3.89 47.89 3.89 47.89 .85 59.78 .85 59.78 0 47.89 0 41.95 0"/>
    </g>
  </g>
</svg>