<?xml version="1.0" encoding="UTF-8"?>
<svg id="Livello_2" xmlns="http://www.w3.org/2000/svg" viewBox="0 0 141.8 8.75">
  <g id="Livello_8">
    <g>
      <path d="M53.71,0v7.38c-1.91-2.46-3.82-4.92-5.73-7.38h-.21s-5.95,0-5.95,0v8.75h5.95V1.45c1.91,2.43,3.82,4.87,5.72,7.3h6.16V0h-5.95Z"/>
      <path d="M140.79.05h-15.8c-.44,0-1.02.38-1.02.85v6.94h0c0,.47.58.85,1.02.85h15.8c.44,0,1.02-.38,1.02-.85V.9c0-.47-.58-.85-1.02-.85ZM135.86,7.84h-5.94V.9h2.97s2.97,0,2.97,0v6.94Z"/>
      <path d="M120.8.05h-16.82v8.64h5.94v-3.83h5.94v3.83h5.94v-2.98c-.82-.31-1.63-.62-2.45-.93.82-.26,1.63-.52,2.45-.77V.9c0-.47-.58-.85-1.02-.85ZM115.87,4.01h-5.94V.9h5.94v3.11Z"/>
      <path d="M17.83.78c0-.4-.33-.73-.73-.73H1.02C.58.05,0,.43,0,.9h0v3.89c1.98,0,3.96,0,5.94,0h0s5.94,0,5.94,0v3.05h-5.94v-.91H0v.91c0,.47.58.85,1.02.85h16.09c.4,0,.73-.33.73-.73v-3.17c0-.47-.58-.85-1.02-.85H5.94V.9h5.94v1.76h5.94V.78Z"/>
      <path d="M33.05,3.94h-5.94V.05h-5.94v3.88c0,.47.58.85,1.02.85h4.93v3.91h5.94v-3.91h4.93c.44,0,1.02-.38,1.02-.85V.05h-5.94v3.88Z"/>
      <polygon points="95.1 3.95 89.15 3.95 89.15 .05 83.21 .05 83.21 8.69 89.15 8.69 89.15 4.8 95.1 4.8 95.1 8.69 101.04 8.69 101.04 .05 95.1 .05 95.1 3.95"/>
      <path d="M79.25.05h-15.8c-.42,0-.96.34-1.01.78h0v7.01c0,.47.58.85,1.02.85h15.8c.4,0,.91-.32,1-.73h.01v-1.76h-5.94v1.64h-5.94V.9h5.94v1.76h5.94V.9h0c0-.47-.58-.85-1.02-.85Z"/>
    </g>
  </g>
</svg>