<?xml version="1.0" encoding="UTF-8"?>
<svg id="Livello_2" xmlns="http://www.w3.org/2000/svg" viewBox="0 0 104.07 8.64">
  <g id="Livello_8">
    <g>
      <path d="M17.67.76c0-.4-.32-.72-.72-.72H1.01C.57.04,0,.42,0,.88h0v3.86c1.96,0,3.93,0,5.89,0h0s5.89,0,5.89,0v3.02h-5.89v-.9H0v.9c0,.46.57.84,1.01.84h15.94c.4,0,.72-.32.72-.72v-3.14c0-.46-.57-.84-1.01-.84H5.89V.88h5.89v1.74h5.89V.76Z"/>
      <g>
        <path d="M37.63.04h-15.66c-.43,0-1.01.38-1.01.84v6.88h0c0,.46.57.84,1.01.84h15.66c.43,0,1.01-.38,1.01-.84V.88c0-.46-.57-.84-1.01-.84ZM32.75,7.76h-5.89V.88h2.95s2.95,0,2.95,0v6.88Z"/>
        <polygon points="41.45 .04 41.45 8.6 47.34 8.6 59.12 8.6 59.12 7.76 47.34 7.76 47.34 4.74 59.12 4.74 59.12 3.9 47.34 3.9 47.34 .88 59.12 .88 59.12 .04 47.34 .04 41.45 .04"/>
      </g>
      <path d="M76.84,0c-1.45,1.81-2.89,3.61-4.34,5.42-1.45-1.81-2.89-3.61-4.34-5.42h-6.29v8.64h6.07V1.42c1.29,1.61,2.58,3.21,3.87,4.82h1.37c1.29-1.61,2.58-3.21,3.87-4.82v7.22h6.07V0h-6.29Z"/>
      <path d="M103.07.04h-15.66c-.43,0-1.01.38-1.01.84v7.72h5.89v-3.02h5.89v3.02h5.89V.88c0-.46-.57-.84-1.01-.84ZM98.18,4.74h-5.89V.88h5.89v3.86Z"/>
    </g>
  </g>
</svg>