<?xml version="1.0" encoding="UTF-8"?>
<svg id="Livello_2" xmlns="http://www.w3.org/2000/svg" viewBox="0 0 138.99 8.64">
  <g id="Livello_8">
    <g id="MICROGRAPH">
      <path d="M11.89,7.79h-5.94V0H0v7.79c0,.47.58.85,1.01.85h15.8c.44,0,1.01-.38,1.01-.85V0h-5.94v7.79h0Z"/>
      <path d="M72.77,7.79h-5.94V0h-5.94v7.79c0,.47.58.85,1.01.85h15.8c.44,0,1.01-.38,1.01-.85V0h-5.94v7.79h0Z"/>
      <path d="M97.77,0h-16.82v8.64h16.82c.44,0,1.01-.38,1.01-.85V.85h0c0-.47-.58-.85-1.01-.85ZM92.84,7.79h-5.94V.85h5.94v6.94Z"/>
      <polygon points="138.99 .85 138.99 0 127.1 0 121.15 0 121.15 8.64 127.1 8.64 138.99 8.64 138.99 7.79 127.1 7.79 127.1 4.74 138.99 4.74 138.99 3.89 127.1 3.89 127.1 .85 138.99 .85"/>
      <path d="M109.97,4.74h2.98v1.41h0v1.64h-5.94V.85h5.94v1.76h5.94V.85h0c0-.47-.58-.85-1.01-.85h-15.8c-.41,0-.95.34-1.01.78h0v7.01c0,.47.58.85,1.01.85h15.8c.4,0,.91-.31,1-.73h.02v-3.17h0v-.85h-8.92v.85h0Z"/>
      <path d="M52.19,0h-2.97v.85h2.97v6.94h-5.94v-1.64h-5.94v1.76h.02c.09.41.6.73,1,.73h16.82V0h-5.94Z"/>
      <rect x="20.58" y="3.91" width="17.41" height=".83"/>
    </g>
  </g>
</svg>