<?xml version="1.0" encoding="UTF-8"?>
<svg id="Livello_2" xmlns="http://www.w3.org/2000/svg" viewBox="0 0 79.05 8.64">
  <g id="Livello_8">
    <g>
      <path d="M78.05.05h-15.6c-.41,0-.94.34-1,.77h0v6.92c0,.46.57.84,1,.84h15.6c.39,0,.9-.31.99-.72h.01v-1.74h-5.87v1.62h-5.87V.89h5.87v1.74h5.87V.89h0c0-.46-.57-.84-1-.84Z"/>
      <polygon points="41.09 0 41.09 8.54 46.96 8.54 58.7 8.54 58.7 7.7 46.96 7.7 46.96 4.69 58.7 4.69 58.7 3.85 46.96 3.85 46.96 .85 58.7 .85 58.7 0 46.96 0 41.09 0"/>
      <path d="M11.74,7.73h-5.87V.03H0v7.69c0,.46.57.84,1,.84h15.6c.43,0,1-.38,1-.84V.03h-5.87v7.69Z"/>
      <path d="M31.95,0v7.29C30.06,4.86,28.18,2.43,26.29,0h-.21s-5.87,0-5.87,0v8.64h5.87V1.43c1.88,2.4,3.77,4.81,5.65,7.21h6.08V0h-5.87Z"/>
    </g>
  </g>
</svg>