<?xml version="1.0" encoding="UTF-8"?>
<svg id="Livello_2" xmlns="http://www.w3.org/2000/svg" viewBox="0 0 89.3 83.84">
  <defs>
    <style>
      .cls-1 {
        stroke: #fff;
        stroke-miterlimit: 10;
        stroke-width: .25px;
      }

      .cls-1, .cls-2 {
        fill: #fff;
      }
    </style>
  </defs>
  <g id="MICROGRAPH">
    <g>
      <polygon class="cls-2" points="15.27 1.34 16.45 1.34 17.62 1.34 18.8 1.34 19.97 1.34 21.15 1.34 22.32 1.34 23.5 1.34 24.67 1.34 25.85 1.34 27.02 1.34 28.2 1.34 29.37 1.34 30.55 1.34 31.72 1.34 31.72 0 30.55 0 29.37 0 28.2 0 27.02 0 25.85 0 24.67 0 23.5 0 22.32 0 21.15 0 19.97 0 18.8 0 17.62 0 16.45 0 15.27 0 14.1 0 12.92 0 12.92 1.34 14.1 1.34 15.27 1.34"/>
      <polygon class="cls-2" points="62.27 1.34 63.45 1.34 64.62 1.34 65.8 1.34 66.97 1.34 68.15 1.34 69.32 1.34 70.5 1.34 71.67 1.34 72.85 1.34 74.02 1.34 75.2 1.34 75.2 0 74.02 0 72.85 0 71.67 0 70.5 0 69.32 0 68.15 0 66.97 0 65.8 0 64.62 0 63.45 0 62.27 0 61.1 0 59.92 0 59.92 1.34 61.1 1.34 62.27 1.34"/>
      <polygon class="cls-2" points="11.75 3.86 12.92 3.86 14.1 3.86 14.1 2.52 12.92 2.52 11.75 2.52 10.57 2.52 9.4 2.52 9.4 3.86 10.57 3.86 11.75 3.86"/>
      <polygon class="cls-2" points="30.55 2.52 30.55 3.86 31.72 3.86 32.9 3.86 34.07 3.86 35.25 3.86 35.25 2.52 34.07 2.52 32.9 2.52 31.72 2.52 30.55 2.52"/>
      <polygon class="cls-2" points="56.4 3.86 57.57 3.86 58.75 3.86 58.75 2.52 57.57 2.52 56.4 2.52 55.22 2.52 54.05 2.52 54.05 3.86 55.22 3.86 56.4 3.86"/>
      <polygon class="cls-2" points="75.2 3.86 76.37 3.86 77.55 3.86 78.72 3.86 79.9 3.86 79.9 2.52 78.72 2.52 77.55 2.52 76.37 2.52 75.2 2.52 75.2 3.86"/>
      <polygon class="cls-2" points="8.22 6.38 9.4 6.38 9.4 5.04 8.22 5.04 7.05 5.04 5.87 5.04 5.87 6.38 7.05 6.38 8.22 6.38"/>
      <polygon class="cls-2" points="35.25 6.38 36.42 6.38 37.6 6.38 37.6 5.04 36.42 5.04 35.25 5.04 35.25 6.38"/>
      <polygon class="cls-2" points="54.05 6.38 55.22 6.38 55.22 5.04 54.05 5.04 52.87 5.04 51.7 5.04 51.7 6.38 52.87 6.38 54.05 6.38"/>
      <polygon class="cls-2" points="78.72 5.04 78.72 6.38 79.9 6.38 81.07 6.38 82.25 6.38 82.25 5.04 81.07 5.04 79.9 5.04 78.72 5.04"/>
      <polygon class="cls-2" points="7.05 8.9 7.05 7.55 5.87 7.55 4.7 7.55 4.7 8.9 5.87 8.9 7.05 8.9"/>
      <polygon class="cls-2" points="37.6 8.9 38.77 8.9 39.95 8.9 39.95 7.55 38.77 7.55 37.6 7.55 37.6 8.9"/>
      <polygon class="cls-2" points="51.7 8.9 52.87 8.9 52.87 7.55 51.7 7.55 50.52 7.55 49.35 7.55 49.35 8.9 50.52 8.9 51.7 8.9"/>
      <polygon class="cls-2" points="82.25 8.9 83.42 8.9 84.6 8.9 84.6 7.55 83.42 7.55 82.25 7.55 82.25 8.9"/>
      <polygon class="cls-2" points="4.7 11.41 5.87 11.41 5.87 10.07 4.7 10.07 3.52 10.07 2.35 10.07 2.35 11.41 3.52 11.41 4.7 11.41"/>
      <polygon class="cls-2" points="38.77 10.07 38.77 11.41 39.95 11.41 41.12 11.41 42.3 11.41 42.3 10.07 41.12 10.07 39.95 10.07 38.77 10.07"/>
      <polygon class="cls-2" points="49.35 11.41 50.52 11.41 50.52 10.07 49.35 10.07 48.17 10.07 47 10.07 47 11.41 48.17 11.41 49.35 11.41"/>
      <polygon class="cls-2" points="84.6 11.41 85.77 11.41 86.95 11.41 86.95 10.07 85.77 10.07 84.6 10.07 84.6 11.41"/>
      <polygon class="cls-2" points="3.52 13.93 4.7 13.93 4.7 12.59 3.52 12.59 2.35 12.59 1.17 12.59 1.17 13.93 2.35 13.93 3.52 13.93"/>
      <polygon class="cls-2" points="18.8 13.93 18.8 12.59 17.62 12.59 16.45 12.59 16.45 13.93 17.62 13.93 18.8 13.93"/>
      <polygon class="cls-2" points="28.2 13.93 28.2 12.59 27.02 12.59 25.85 12.59 25.85 13.93 27.02 13.93 28.2 13.93"/>
      <polygon class="cls-2" points="42.3 13.93 42.3 12.59 41.12 12.59 39.95 12.59 39.95 13.93 41.12 13.93 42.3 13.93"/>
      <polygon class="cls-2" points="49.35 13.93 49.35 12.59 48.17 12.59 47 12.59 47 13.93 48.17 13.93 49.35 13.93"/>
      <rect class="cls-2" x="85.77" y="12.59" width="1.17" height="1.34"/>
      <polygon class="cls-2" points="3.52 16.45 3.52 15.11 2.35 15.11 1.17 15.11 1.17 16.45 2.35 16.45 3.52 16.45"/>
      <polygon class="cls-2" points="15.27 15.11 14.1 15.11 14.1 16.45 15.27 16.45 16.45 16.45 17.62 16.45 18.8 16.45 19.97 16.45 21.15 16.45 21.15 15.11 19.97 15.11 18.8 15.11 17.62 15.11 16.45 15.11 15.27 15.11"/>
      <polygon class="cls-2" points="24.67 15.11 23.5 15.11 23.5 16.45 24.67 16.45 25.85 16.45 27.02 16.45 28.2 16.45 29.37 16.45 30.55 16.45 30.55 15.11 29.37 15.11 28.2 15.11 27.02 15.11 25.85 15.11 24.67 15.11"/>
      <polygon class="cls-2" points="41.12 15.11 41.12 16.45 42.3 16.45 43.47 16.45 43.47 15.11 42.3 15.11 41.12 15.11"/>
      <polygon class="cls-2" points="48.17 16.45 48.17 15.11 47 15.11 45.82 15.11 45.82 16.45 47 16.45 48.17 16.45"/>
      <polygon class="cls-2" points="88.12 15.11 86.95 15.11 85.77 15.11 85.77 16.45 86.95 16.45 88.12 16.45 88.12 15.11"/>
      <polygon class="cls-2" points="2.35 18.97 2.35 17.62 1.17 17.62 0 17.62 0 18.97 1.17 18.97 2.35 18.97"/>
      <polygon class="cls-2" points="17.62 17.62 16.45 17.62 15.27 17.62 15.27 18.97 16.45 18.97 17.62 18.97 18.8 18.97 19.97 18.97 19.97 17.62 18.8 17.62 17.62 17.62"/>
      <polygon class="cls-2" points="27.02 17.62 25.85 17.62 24.67 17.62 24.67 18.97 25.85 18.97 27.02 18.97 28.2 18.97 29.37 18.97 29.37 17.62 28.2 17.62 27.02 17.62"/>
      <polygon class="cls-2" points="63.45 13.93 63.45 12.59 62.27 12.59 61.1 12.59 61.1 13.93 62.27 13.93 63.45 13.93"/>
      <polygon class="cls-2" points="72.85 13.93 72.85 12.59 71.67 12.59 70.5 12.59 70.5 13.93 71.67 13.93 72.85 13.93"/>
      <polygon class="cls-2" points="59.92 15.11 58.75 15.11 58.75 16.45 59.92 16.45 61.1 16.45 62.27 16.45 63.45 16.45 64.62 16.45 65.8 16.45 65.8 15.11 64.62 15.11 63.45 15.11 62.27 15.11 61.1 15.11 59.92 15.11"/>
      <polygon class="cls-2" points="69.32 15.11 68.15 15.11 68.15 16.45 69.32 16.45 70.5 16.45 71.67 16.45 72.85 16.45 74.02 16.45 75.2 16.45 75.2 15.11 74.02 15.11 72.85 15.11 71.67 15.11 70.5 15.11 69.32 15.11"/>
      <polygon class="cls-2" points="62.27 17.62 61.1 17.62 59.92 17.62 59.92 18.97 61.1 18.97 62.27 18.97 63.45 18.97 64.62 18.97 64.62 17.62 63.45 17.62 62.27 17.62"/>
      <polygon class="cls-2" points="71.67 17.62 70.5 17.62 69.32 17.62 69.32 18.97 70.5 18.97 71.67 18.97 72.85 18.97 74.02 18.97 74.02 17.62 72.85 17.62 71.67 17.62"/>
      <polygon class="cls-2" points="42.3 17.62 41.12 17.62 41.12 18.97 42.3 18.97 43.47 18.97 44.65 18.97 45.82 18.97 47 18.97 48.17 18.97 48.17 17.62 47 17.62 45.82 17.62 44.65 17.62 43.47 17.62 42.3 17.62"/>
      <rect class="cls-2" x="86.95" y="17.62" width="1.17" height="1.34"/>
      <polygon class="cls-2" points="2.35 21.48 2.35 20.14 1.17 20.14 0 20.14 0 21.48 1.17 21.48 2.35 21.48"/>
      <polygon class="cls-2" points="45.82 20.14 44.65 20.14 43.47 20.14 42.3 20.14 42.3 21.48 43.47 21.48 44.65 21.48 45.82 21.48 47 21.48 48.17 21.48 48.17 20.14 47 20.14 45.82 20.14"/>
      <polygon class="cls-2" points="86.95 20.14 86.95 21.48 88.12 21.48 89.3 21.48 89.3 20.14 88.12 20.14 86.95 20.14"/>
      <polygon class="cls-2" points="2.35 24 2.35 22.66 1.17 22.66 0 22.66 0 24 1.17 24 2.35 24"/>
      <polygon class="cls-2" points="12.92 24 12.92 22.66 11.75 22.66 10.57 22.66 10.57 24 11.75 24 12.92 24"/>
      <polygon class="cls-2" points="32.9 22.66 31.72 22.66 31.72 24 32.9 24 34.07 24 35.25 24 35.25 22.66 34.07 22.66 32.9 22.66"/>
      <polygon class="cls-2" points="42.3 24 43.47 24 44.65 24 44.65 22.66 43.47 22.66 42.3 22.66 42.3 24"/>
      <polygon class="cls-2" points="48.17 24 48.17 22.66 47 22.66 45.82 22.66 45.82 24 47 24 48.17 24"/>
      <polygon class="cls-2" points="61.1 24 62.27 24 63.45 24 64.62 24 65.8 24 66.97 24 68.15 24 69.32 24 70.5 24 71.67 24 72.85 24 72.85 22.66 71.67 22.66 70.5 22.66 69.32 22.66 68.15 22.66 66.97 22.66 65.8 22.66 64.62 22.66 63.45 22.66 62.27 22.66 61.1 22.66 61.1 24"/>
      <polygon class="cls-2" points="86.95 22.66 86.95 24 88.12 24 89.3 24 89.3 22.66 88.12 22.66 86.95 22.66"/>
      <polygon class="cls-2" points="2.35 26.52 3.52 26.52 3.52 25.18 2.35 25.18 1.17 25.18 0 25.18 0 26.52 1.17 26.52 2.35 26.52"/>
      <polygon class="cls-2" points="10.57 26.52 11.75 26.52 12.92 26.52 12.92 25.18 11.75 25.18 10.57 25.18 10.57 26.52"/>
      <rect class="cls-2" x="31.72" y="25.18" width="1.17" height="1.34"/>
      <polygon class="cls-2" points="41.12 25.18 41.12 26.52 42.3 26.52 43.47 26.52 43.47 25.18 42.3 25.18 41.12 25.18"/>
      <polygon class="cls-2" points="45.82 26.52 47 26.52 48.17 26.52 48.17 25.18 47 25.18 45.82 25.18 45.82 26.52"/>
      <polygon class="cls-2" points="58.75 26.52 59.92 26.52 61.1 26.52 62.27 26.52 62.27 25.18 61.1 25.18 59.92 25.18 58.75 25.18 58.75 26.52"/>
      <polygon class="cls-2" points="74.02 26.52 75.2 26.52 76.37 26.52 76.37 25.18 75.2 25.18 74.02 25.18 72.85 25.18 71.67 25.18 71.67 26.52 72.85 26.52 74.02 26.52"/>
      <polygon class="cls-2" points="86.95 25.18 85.77 25.18 85.77 26.52 86.95 26.52 88.12 26.52 89.3 26.52 89.3 25.18 88.12 25.18 86.95 25.18"/>
      <polygon class="cls-2" points="3.52 29.04 4.7 29.04 4.7 27.7 3.52 27.7 2.35 27.7 1.17 27.7 1.17 29.04 2.35 29.04 3.52 29.04"/>
      <polygon class="cls-2" points="14.1 29.04 15.27 29.04 15.27 27.7 14.1 27.7 12.92 27.7 11.75 27.7 11.75 29.04 12.92 29.04 14.1 29.04"/>
      <polygon class="cls-2" points="31.72 29.04 32.9 29.04 32.9 27.7 31.72 27.7 30.55 27.7 29.37 27.7 29.37 29.04 30.55 29.04 31.72 29.04"/>
      <polygon class="cls-2" points="39.95 29.04 41.12 29.04 42.3 29.04 43.47 29.04 43.47 27.7 42.3 27.7 41.12 27.7 39.95 27.7 39.95 29.04"/>
      <polygon class="cls-2" points="47 27.7 47 29.04 48.17 29.04 49.35 29.04 49.35 27.7 48.17 27.7 47 27.7"/>
      <polygon class="cls-2" points="58.75 29.04 58.75 27.7 57.57 27.7 56.4 27.7 56.4 29.04 57.57 29.04 58.75 29.04"/>
      <polygon class="cls-2" points="77.55 29.04 77.55 27.7 76.37 27.7 75.2 27.7 75.2 29.04 76.37 29.04 77.55 29.04"/>
      <polygon class="cls-2" points="85.77 27.7 85.77 29.04 86.95 29.04 88.12 29.04 88.12 27.7 86.95 27.7 85.77 27.7"/>
      <polygon class="cls-2" points="4.7 31.56 5.87 31.56 5.87 30.21 4.7 30.21 3.52 30.21 2.35 30.21 2.35 31.56 3.52 31.56 4.7 31.56"/>
      <polygon class="cls-2" points="16.45 31.56 17.62 31.56 18.8 31.56 19.97 31.56 19.97 30.21 18.8 30.21 17.62 30.21 16.45 30.21 15.27 30.21 14.1 30.21 14.1 31.56 15.27 31.56 16.45 31.56"/>
      <polygon class="cls-2" points="27.02 31.56 28.2 31.56 29.37 31.56 30.55 31.56 30.55 30.21 29.37 30.21 28.2 30.21 27.02 30.21 25.85 30.21 24.67 30.21 24.67 31.56 25.85 31.56 27.02 31.56"/>
      <polygon class="cls-2" points="39.95 31.56 41.12 31.56 42.3 31.56 42.3 30.21 41.12 30.21 39.95 30.21 39.95 31.56"/>
      <polygon class="cls-2" points="48.17 30.21 47 30.21 47 31.56 48.17 31.56 49.35 31.56 50.52 31.56 50.52 30.21 49.35 30.21 48.17 30.21"/>
      <polygon class="cls-2" points="57.57 30.21 56.4 30.21 55.22 30.21 55.22 31.56 56.4 31.56 57.57 31.56 57.57 30.21"/>
      <polygon class="cls-2" points="78.72 30.21 77.55 30.21 76.37 30.21 76.37 31.56 77.55 31.56 78.72 31.56 78.72 30.21"/>
      <polygon class="cls-2" points="84.6 30.21 84.6 31.56 85.77 31.56 86.95 31.56 86.95 30.21 85.77 30.21 84.6 30.21"/>
      <polygon class="cls-2" points="7.05 34.07 7.05 32.73 5.87 32.73 4.7 32.73 3.52 32.73 3.52 34.07 4.7 34.07 5.87 34.07 7.05 34.07"/>
      <polygon class="cls-2" points="21.15 34.07 22.32 34.07 23.5 34.07 24.67 34.07 25.85 34.07 25.85 32.73 24.67 32.73 23.5 32.73 22.32 32.73 21.15 32.73 19.97 32.73 18.8 32.73 18.8 34.07 19.97 34.07 21.15 34.07"/>
      <polygon class="cls-2" points="38.77 32.73 37.6 32.73 37.6 34.07 38.77 34.07 39.95 34.07 41.12 34.07 41.12 32.73 39.95 32.73 38.77 32.73"/>
      <polygon class="cls-2" points="49.35 32.73 48.17 32.73 48.17 34.07 49.35 34.07 50.52 34.07 51.7 34.07 51.7 32.73 50.52 32.73 49.35 32.73"/>
      <rect class="cls-2" x="55.22" y="32.73" width="1.17" height="1.34"/>
      <rect class="cls-2" x="77.55" y="32.73" width="1.17" height="1.34"/>
      <polygon class="cls-2" points="83.42 32.73 82.25 32.73 82.25 34.07 83.42 34.07 84.6 34.07 85.77 34.07 85.77 32.73 84.6 32.73 83.42 32.73"/>
      <polygon class="cls-2" points="9.4 36.59 9.4 35.25 8.22 35.25 7.05 35.25 5.87 35.25 5.87 36.59 7.05 36.59 8.22 36.59 9.4 36.59"/>
      <polygon class="cls-2" points="36.42 35.25 35.25 35.25 35.25 36.59 36.42 36.59 37.6 36.59 38.77 36.59 38.77 35.25 37.6 35.25 36.42 35.25"/>
      <polygon class="cls-2" points="52.87 36.59 54.05 36.59 54.05 35.25 52.87 35.25 51.7 35.25 50.52 35.25 50.52 36.59 51.7 36.59 52.87 36.59"/>
      <polygon class="cls-2" points="81.07 35.25 79.9 35.25 79.9 36.59 81.07 36.59 82.25 36.59 83.42 36.59 83.42 35.25 82.25 35.25 81.07 35.25"/>
      <polygon class="cls-2" points="12.92 37.77 11.75 37.77 10.57 37.77 9.4 37.77 8.22 37.77 8.22 39.11 9.4 39.11 10.57 39.11 11.75 39.11 12.92 39.11 12.92 37.77"/>
      <polygon class="cls-2" points="34.07 39.11 35.25 39.11 36.42 39.11 36.42 37.77 35.25 37.77 34.07 37.77 32.9 37.77 31.72 37.77 31.72 39.11 32.9 39.11 34.07 39.11"/>
      <polygon class="cls-2" points="57.57 39.11 57.57 37.77 56.4 37.77 55.22 37.77 54.05 37.77 54.05 39.11 55.22 39.11 56.4 39.11 57.57 39.11"/>
      <polygon class="cls-2" points="78.72 37.77 77.55 37.77 76.37 37.77 76.37 39.11 77.55 39.11 78.72 39.11 79.9 39.11 81.07 39.11 81.07 37.77 79.9 37.77 78.72 37.77"/>
      <polygon class="cls-2" points="19.97 41.63 21.15 41.63 22.32 41.63 23.5 41.63 24.67 41.63 25.85 41.63 27.02 41.63 28.2 41.63 29.37 41.63 30.55 41.63 31.72 41.63 31.72 40.28 30.55 40.28 29.37 40.28 28.2 40.28 27.02 40.28 25.85 40.28 24.67 40.28 23.5 40.28 22.32 40.28 21.15 40.28 19.97 40.28 18.8 40.28 17.62 40.28 16.45 40.28 15.27 40.28 14.1 40.28 12.92 40.28 12.92 41.63 14.1 41.63 15.27 41.63 16.45 41.63 17.62 41.63 18.8 41.63 19.97 41.63"/>
      <polygon class="cls-2" points="75.2 40.28 74.02 40.28 72.85 40.28 71.67 40.28 70.5 40.28 69.32 40.28 66.97 40.28 64.62 40.28 63.45 40.28 62.27 40.28 61.1 40.28 59.92 40.28 58.75 40.28 57.57 40.28 56.4 40.28 56.4 41.63 57.57 41.63 58.75 41.63 59.92 41.63 61.1 41.63 62.27 41.63 63.45 41.63 64.62 41.63 66.97 41.63 69.32 41.63 70.5 41.63 71.67 41.63 72.85 41.63 74.02 41.63 75.2 41.63 76.37 41.63 77.55 41.63 77.55 40.28 76.37 40.28 75.2 40.28"/>
      <g>
        <path class="cls-1" d="M20.54,65.97v1.36h-10.92v-1.36h10.92ZM10.98,68.7v1.36h-1.36v-1.36h1.36ZM10.98,71.43v1.36h-1.36v-1.36h1.36ZM20.54,74.16v1.37h-10.92v-1.37h10.92ZM10.98,76.89v1.37h-1.36v-1.37h1.36ZM10.98,79.62v1.36h-1.36v-1.36h1.36ZM10.98,82.35v1.36h-1.36v-1.36h1.36ZM16.44,76.89v1.37h-1.36v-1.37h1.36ZM19.17,79.62v1.36h-1.36v-1.36h1.36ZM21.9,68.7v1.36h-1.36v-1.36h1.36ZM21.9,71.43v1.36h-1.36v-1.36h1.36ZM21.9,82.35v1.36h-1.36v-1.36h1.36Z"/>
        <path class="cls-1" d="M27.36,65.97v1.36h-1.36v-1.36h1.36ZM27.36,68.7v1.36h-1.36v-1.36h1.36ZM27.36,71.43v1.36h-1.36v-1.36h1.36ZM38.28,74.16v1.37h-12.28v-1.37h12.28ZM27.36,76.89v1.37h-1.36v-1.37h1.36ZM27.36,79.62v1.36h-1.36v-1.36h1.36ZM27.36,82.35v1.36h-1.36v-1.36h1.36ZM38.28,65.97v1.36h-1.36v-1.36h1.36ZM38.28,68.7v1.36h-1.36v-1.36h1.36ZM38.28,71.43v1.36h-1.36v-1.36h1.36ZM38.28,76.89v1.37h-1.36v-1.37h1.36ZM38.28,79.62v1.36h-1.36v-1.36h1.36ZM38.28,82.35v1.36h-1.36v-1.36h1.36Z"/>
        <path class="cls-1" d="M54.66,65.97v1.36h-12.28v-1.36h12.28ZM43.74,68.7v1.36h-1.36v-1.36h1.36ZM43.74,71.43v1.36h-1.36v-1.36h1.36ZM51.93,74.16v1.37h-9.55v-1.37h9.55ZM43.74,76.89v1.37h-1.36v-1.37h1.36ZM43.74,79.62v1.36h-1.36v-1.36h1.36ZM54.66,82.35v1.36h-12.28v-1.36h12.28Z"/>
        <path class="cls-1" d="M60.12,68.7v1.36h-1.36v-1.36h1.36ZM60.12,71.43v1.36h-1.36v-1.36h1.36ZM71.04,74.16v1.37h-12.28v-1.37h12.28ZM60.12,76.89v1.37h-1.36v-1.37h1.36ZM60.12,79.62v1.36h-1.36v-1.36h1.36ZM60.12,82.35v1.36h-1.36v-1.36h1.36ZM69.68,65.97v1.36h-9.56v-1.36h9.56ZM71.04,68.7v1.36h-1.36v-1.36h1.36ZM71.04,71.43v1.36h-1.36v-1.36h1.36ZM71.04,76.89v1.37h-1.36v-1.37h1.36ZM71.04,79.62v1.36h-1.36v-1.36h1.36ZM71.04,82.35v1.36h-1.36v-1.36h1.36Z"/>
        <path class="cls-1" d="M76.5,65.97v1.36h-1.36v-1.36h1.36ZM76.5,68.7v1.36h-1.36v-1.36h1.36ZM76.5,71.43v1.36h-1.36v-1.36h1.36ZM76.5,74.16v1.37h-1.36v-1.37h1.36ZM76.5,76.89v1.37h-1.36v-1.37h1.36ZM76.5,79.62v1.36h-1.36v-1.36h1.36ZM87.42,82.35v1.36h-12.28v-1.36h12.28Z"/>
      </g>
    </g>
  </g>
</svg>