<?xml version="1.0" encoding="UTF-8"?>
<svg id="Livello_2" xmlns="http://www.w3.org/2000/svg" viewBox="0 0 110.81 88.12">
  <defs>
    <style>
      .cls-1 {
        stroke: #fff;
        stroke-miterlimit: 10;
        stroke-width: .25px;
      }

      .cls-1, .cls-2 {
        fill: #fff;
      }
    </style>
  </defs>
  <g id="MICROGRAPH">
    <g>
      <polygon class="cls-2" points="46.22 1.34 47.39 1.34 48.57 1.34 49.74 1.34 50.92 1.34 52.09 1.34 53.27 1.34 54.44 1.34 55.62 1.34 55.62 0 54.44 0 53.27 0 52.09 0 50.92 0 49.74 0 48.57 0 47.39 0 46.22 0 45.04 0 43.87 0 43.87 1.34 45.04 1.34 46.22 1.34"/>
      <polygon class="cls-2" points="59.14 1.34 60.32 1.34 61.49 1.34 62.67 1.34 62.67 0 61.49 0 60.32 0 59.14 0 57.97 0 56.79 0 56.79 1.34 57.97 1.34 59.14 1.34"/>
      <polygon class="cls-2" points="42.69 3.86 43.87 3.86 45.04 3.86 46.22 3.86 47.39 3.86 48.57 3.86 49.74 3.86 50.92 3.86 52.09 3.86 53.27 3.86 54.44 3.86 55.62 3.86 56.79 3.86 57.97 3.86 59.14 3.86 60.32 3.86 61.49 3.86 62.67 3.86 63.84 3.86 65.02 3.86 66.19 3.86 66.19 2.52 65.02 2.52 63.84 2.52 62.67 2.52 61.49 2.52 60.32 2.52 59.14 2.52 57.97 2.52 56.79 2.52 55.62 2.52 54.44 2.52 53.27 2.52 52.09 2.52 50.92 2.52 49.74 2.52 48.57 2.52 47.39 2.52 46.22 2.52 45.04 2.52 43.87 2.52 42.69 2.52 41.52 2.52 40.34 2.52 40.34 3.86 41.52 3.86 42.69 3.86"/>
      <polygon class="cls-2" points="39.17 6.38 40.34 6.38 41.52 6.38 42.69 6.38 43.87 6.38 45.04 6.38 46.22 6.38 47.39 6.38 48.57 6.38 49.74 6.38 50.92 6.38 50.92 5.04 49.74 5.04 48.57 5.04 47.39 5.04 46.22 5.04 45.04 5.04 43.87 5.04 42.69 5.04 41.52 5.04 40.34 5.04 39.17 5.04 37.99 5.04 36.82 5.04 36.82 6.38 37.99 6.38 39.17 6.38"/>
      <polygon class="cls-2" points="55.62 5.04 54.44 5.04 54.44 6.38 55.62 6.38 56.79 6.38 57.97 6.38 57.97 5.04 56.79 5.04 55.62 5.04"/>
      <polygon class="cls-2" points="59.14 5.04 59.14 6.38 60.32 6.38 61.49 6.38 61.49 5.04 60.32 5.04 59.14 5.04"/>
      <polygon class="cls-2" points="66.19 5.04 65.02 5.04 63.84 5.04 62.67 5.04 62.67 6.38 63.84 6.38 65.02 6.38 66.19 6.38 66.19 5.04"/>
      <polygon class="cls-2" points="69.72 6.38 69.72 5.04 68.54 5.04 67.37 5.04 67.37 6.38 68.54 6.38 69.72 6.38"/>
      <polygon class="cls-2" points="36.82 8.9 37.99 8.9 37.99 7.55 36.82 7.55 35.64 7.55 34.47 7.55 34.47 8.9 35.64 8.9 36.82 8.9"/>
      <polygon class="cls-2" points="39.17 7.55 39.17 8.9 40.34 8.9 41.52 8.9 41.52 7.55 40.34 7.55 39.17 7.55"/>
      <rect class="cls-2" x="42.69" y="7.55" width="1.17" height="1.34"/>
      <rect class="cls-2" x="46.22" y="7.55" width="1.17" height="1.34"/>
      <polygon class="cls-2" points="50.92 7.55 50.92 8.9 52.09 8.9 53.27 8.9 53.27 7.55 52.09 7.55 50.92 7.55"/>
      <polygon class="cls-2" points="57.97 7.55 56.79 7.55 56.79 8.9 57.97 8.9 59.14 8.9 60.32 8.9 61.49 8.9 61.49 7.55 60.32 7.55 59.14 7.55 57.97 7.55"/>
      <polygon class="cls-2" points="69.72 8.9 70.89 8.9 70.89 7.55 69.72 7.55 68.54 7.55 67.37 7.55 67.37 8.9 68.54 8.9 69.72 8.9"/>
      <polygon class="cls-2" points="35.64 11.41 35.64 10.07 34.47 10.07 33.29 10.07 33.29 11.41 34.47 11.41 35.64 11.41"/>
      <polygon class="cls-2" points="36.82 10.07 36.82 11.41 37.99 11.41 39.17 11.41 39.17 10.07 37.99 10.07 36.82 10.07"/>
      <rect class="cls-2" x="41.52" y="10.07" width="1.17" height="1.34"/>
      <polygon class="cls-2" points="46.22 11.41 47.39 11.41 48.57 11.41 48.57 10.07 47.39 10.07 46.22 10.07 46.22 11.41"/>
      <polygon class="cls-2" points="53.27 10.07 53.27 11.41 54.44 11.41 55.62 11.41 56.79 11.41 56.79 10.07 55.62 10.07 54.44 10.07 53.27 10.07"/>
      <polygon class="cls-2" points="61.49 10.07 61.49 11.41 62.67 11.41 63.84 11.41 63.84 10.07 62.67 10.07 61.49 10.07"/>
      <polygon class="cls-2" points="66.19 11.41 67.37 11.41 68.54 11.41 68.54 10.07 67.37 10.07 66.19 10.07 66.19 11.41"/>
      <polygon class="cls-2" points="69.72 10.07 69.72 11.41 70.89 11.41 72.07 11.41 73.24 11.41 73.24 10.07 72.07 10.07 70.89 10.07 69.72 10.07"/>
      <polygon class="cls-2" points="34.47 13.93 34.47 12.59 33.29 12.59 32.12 12.59 32.12 13.93 33.29 13.93 34.47 13.93"/>
      <polygon class="cls-2" points="35.64 12.59 35.64 13.93 36.82 13.93 37.99 13.93 37.99 12.59 36.82 12.59 35.64 12.59"/>
      <polygon class="cls-2" points="39.17 13.93 40.34 13.93 41.52 13.93 42.69 13.93 42.69 12.59 41.52 12.59 40.34 12.59 39.17 12.59 39.17 13.93"/>
      <polygon class="cls-2" points="45.04 12.59 45.04 13.93 46.22 13.93 47.39 13.93 48.57 13.93 49.74 13.93 50.92 13.93 50.92 12.59 49.74 12.59 48.57 12.59 47.39 12.59 46.22 12.59 45.04 12.59"/>
      <polygon class="cls-2" points="54.44 12.59 54.44 13.93 55.62 13.93 56.79 13.93 56.79 12.59 55.62 12.59 54.44 12.59"/>
      <polygon class="cls-2" points="65.02 12.59 63.84 12.59 63.84 13.93 65.02 13.93 66.19 13.93 67.37 13.93 67.37 12.59 66.19 12.59 65.02 12.59"/>
      <polygon class="cls-2" points="74.42 12.59 73.24 12.59 72.07 12.59 72.07 13.93 73.24 13.93 74.42 13.93 74.42 12.59"/>
      <polygon class="cls-2" points="33.29 16.45 33.29 15.11 32.12 15.11 30.94 15.11 30.94 16.45 32.12 16.45 33.29 16.45"/>
      <rect class="cls-2" x="34.47" y="15.11" width="1.17" height="1.34"/>
      <polygon class="cls-2" points="41.52 16.45 41.52 15.11 40.34 15.11 39.17 15.11 39.17 16.45 40.34 16.45 41.52 16.45"/>
      <polygon class="cls-2" points="48.57 15.11 47.39 15.11 46.22 15.11 46.22 16.45 47.39 16.45 48.57 16.45 48.57 15.11"/>
      <polygon class="cls-2" points="55.62 15.11 55.62 16.45 56.79 16.45 57.97 16.45 57.97 15.11 56.79 15.11 55.62 15.11"/>
      <polygon class="cls-2" points="63.84 16.45 65.02 16.45 65.02 15.11 63.84 15.11 62.67 15.11 61.49 15.11 61.49 16.45 62.67 16.45 63.84 16.45"/>
      <polygon class="cls-2" points="66.19 15.11 66.19 16.45 67.37 16.45 68.54 16.45 68.54 15.11 67.37 15.11 66.19 15.11"/>
      <polygon class="cls-2" points="74.42 15.11 73.24 15.11 72.07 15.11 72.07 16.45 73.24 16.45 74.42 16.45 74.42 15.11"/>
      <polygon class="cls-2" points="33.29 18.97 34.47 18.97 35.64 18.97 35.64 17.62 34.47 17.62 33.29 17.62 32.12 17.62 30.94 17.62 30.94 18.97 32.12 18.97 33.29 18.97"/>
      <polygon class="cls-2" points="39.17 18.97 40.34 18.97 41.52 18.97 41.52 17.62 40.34 17.62 39.17 17.62 39.17 18.97"/>
      <rect class="cls-2" x="47.39" y="17.62" width="1.17" height="1.34"/>
      <polygon class="cls-2" points="59.14 17.62 57.97 17.62 56.79 17.62 56.79 18.97 57.97 18.97 59.14 18.97 60.32 18.97 61.49 18.97 61.49 17.62 60.32 17.62 59.14 17.62"/>
      <polygon class="cls-2" points="69.72 18.97 69.72 17.62 68.54 17.62 67.37 17.62 67.37 18.97 68.54 18.97 69.72 18.97"/>
      <polygon class="cls-2" points="73.24 18.97 74.42 18.97 74.42 17.62 73.24 17.62 72.07 17.62 70.89 17.62 70.89 18.97 72.07 18.97 73.24 18.97"/>
      <rect class="cls-2" x="30.94" y="20.14" width="1.17" height="1.34"/>
      <polygon class="cls-2" points="35.64 21.48 35.64 20.14 34.47 20.14 33.29 20.14 33.29 21.48 34.47 21.48 35.64 21.48"/>
      <polygon class="cls-2" points="39.17 21.48 40.34 21.48 41.52 21.48 41.52 20.14 40.34 20.14 39.17 20.14 39.17 21.48"/>
      <polygon class="cls-2" points="49.74 21.48 49.74 20.14 48.57 20.14 47.39 20.14 47.39 21.48 48.57 21.48 49.74 21.48"/>
      <polygon class="cls-2" points="53.27 20.14 52.09 20.14 52.09 21.48 53.27 21.48 54.44 21.48 55.62 21.48 56.79 21.48 56.79 20.14 55.62 20.14 54.44 20.14 53.27 20.14"/>
      <rect class="cls-2" x="59.14" y="20.14" width="1.17" height="1.34"/>
      <polygon class="cls-2" points="72.07 20.14 70.89 20.14 69.72 20.14 69.72 21.48 70.89 21.48 72.07 21.48 72.07 20.14"/>
      <rect class="cls-2" x="74.42" y="20.14" width="1.17" height="1.34"/>
      <rect class="cls-2" x="30.94" y="22.66" width="1.17" height="1.34"/>
      <rect class="cls-2" x="33.29" y="22.66" width="1.17" height="1.34"/>
      <polygon class="cls-2" points="41.52 22.66 40.34 22.66 39.17 22.66 37.99 22.66 36.82 22.66 36.82 24 37.99 24 39.17 24 40.34 24 41.52 24 42.69 24 43.87 24 45.04 24 46.22 24 47.39 24 48.57 24 49.74 24 49.74 22.66 48.57 22.66 47.39 22.66 46.22 22.66 45.04 22.66 43.87 22.66 42.69 22.66 41.52 22.66"/>
      <polygon class="cls-2" points="59.14 24 60.32 24 61.49 24 61.49 22.66 60.32 22.66 59.14 22.66 59.14 24"/>
      <polygon class="cls-2" points="68.54 24 68.54 22.66 67.37 22.66 66.19 22.66 66.19 24 67.37 24 68.54 24"/>
      <rect class="cls-2" x="70.89" y="22.66" width="1.17" height="1.34"/>
      <polygon class="cls-2" points="73.24 22.66 73.24 24 74.42 24 75.59 24 75.59 22.66 74.42 22.66 73.24 22.66"/>
      <polygon class="cls-2" points="33.29 26.52 34.47 26.52 34.47 25.18 33.29 25.18 32.12 25.18 30.94 25.18 30.94 26.52 32.12 26.52 33.29 26.52"/>
      <rect class="cls-2" x="39.17" y="25.18" width="1.17" height="1.34"/>
      <polygon class="cls-2" points="50.92 25.18 49.74 25.18 48.57 25.18 48.57 26.52 49.74 26.52 50.92 26.52 50.92 25.18"/>
      <polygon class="cls-2" points="60.32 25.18 60.32 26.52 61.49 26.52 62.67 26.52 63.84 26.52 65.02 26.52 66.19 26.52 66.19 25.18 65.02 25.18 63.84 25.18 62.67 25.18 61.49 25.18 60.32 25.18"/>
      <polygon class="cls-2" points="73.24 25.18 72.07 25.18 70.89 25.18 70.89 26.52 72.07 26.52 73.24 26.52 74.42 26.52 75.59 26.52 75.59 25.18 74.42 25.18 73.24 25.18"/>
      <polygon class="cls-2" points="34.47 29.04 34.47 27.7 33.29 27.7 32.12 27.7 32.12 29.04 33.29 29.04 34.47 29.04"/>
      <rect class="cls-2" x="40.34" y="27.7" width="1.17" height="1.34"/>
      <rect class="cls-2" x="49.74" y="27.7" width="1.17" height="1.34"/>
      <polygon class="cls-2" points="62.67 27.7 61.49 27.7 60.32 27.7 59.14 27.7 57.97 27.7 56.79 27.7 55.62 27.7 55.62 29.04 56.79 29.04 57.97 29.04 59.14 29.04 60.32 29.04 61.49 29.04 62.67 29.04 62.67 27.7"/>
      <polygon class="cls-2" points="72.07 27.7 70.89 27.7 70.89 29.04 72.07 29.04 73.24 29.04 74.42 29.04 74.42 27.7 73.24 27.7 72.07 27.7"/>
      <polygon class="cls-2" points="35.64 31.56 36.82 31.56 37.99 31.56 39.17 31.56 40.34 31.56 41.52 31.56 42.69 31.56 43.87 31.56 45.04 31.56 46.22 31.56 47.39 31.56 48.57 31.56 49.74 31.56 50.92 31.56 52.09 31.56 53.27 31.56 54.44 31.56 54.44 30.21 53.27 30.21 52.09 30.21 50.92 30.21 49.74 30.21 48.57 30.21 47.39 30.21 46.22 30.21 45.04 30.21 43.87 30.21 42.69 30.21 41.52 30.21 40.34 30.21 39.17 30.21 37.99 30.21 36.82 30.21 35.64 30.21 34.47 30.21 33.29 30.21 33.29 31.56 34.47 31.56 35.64 31.56"/>
      <rect class="cls-2" x="62.67" y="30.21" width="1.17" height="1.34"/>
      <polygon class="cls-2" points="69.72 30.21 68.54 30.21 67.37 30.21 67.37 31.56 68.54 31.56 69.72 31.56 69.72 30.21"/>
      <polygon class="cls-2" points="73.24 31.56 73.24 30.21 72.07 30.21 70.89 30.21 70.89 31.56 72.07 31.56 73.24 31.56"/>
      <polygon class="cls-2" points="36.82 34.07 36.82 32.73 35.64 32.73 34.47 32.73 34.47 34.07 35.64 34.07 36.82 34.07"/>
      <polygon class="cls-2" points="40.34 32.73 40.34 34.07 41.52 34.07 42.69 34.07 42.69 32.73 41.52 32.73 40.34 32.73"/>
      <rect class="cls-2" x="52.09" y="32.73" width="1.17" height="1.34"/>
      <polygon class="cls-2" points="67.37 32.73 66.19 32.73 65.02 32.73 63.84 32.73 62.67 32.73 62.67 34.07 63.84 34.07 65.02 34.07 66.19 34.07 67.37 34.07 67.37 32.73"/>
      <polygon class="cls-2" points="72.07 34.07 72.07 32.73 70.89 32.73 69.72 32.73 69.72 34.07 70.89 34.07 72.07 34.07"/>
      <polygon class="cls-2" points="39.17 36.59 39.17 35.25 37.99 35.25 36.82 35.25 35.64 35.25 35.64 36.59 36.82 36.59 37.99 36.59 39.17 36.59"/>
      <polygon class="cls-2" points="41.52 35.25 41.52 36.59 42.69 36.59 43.87 36.59 43.87 35.25 42.69 35.25 41.52 35.25"/>
      <polygon class="cls-2" points="52.09 36.59 53.27 36.59 54.44 36.59 54.44 35.25 53.27 35.25 52.09 35.25 52.09 36.59"/>
      <polygon class="cls-2" points="60.32 35.25 59.14 35.25 57.97 35.25 57.97 36.59 59.14 36.59 60.32 36.59 61.49 36.59 62.67 36.59 62.67 35.25 61.49 35.25 60.32 35.25"/>
      <rect class="cls-2" x="63.84" y="35.25" width="1.17" height="1.34"/>
      <polygon class="cls-2" points="69.72 35.25 68.54 35.25 67.37 35.25 67.37 36.59 68.54 36.59 69.72 36.59 69.72 35.25"/>
      <polygon class="cls-2" points="41.52 39.11 42.69 39.11 43.87 39.11 45.04 39.11 46.22 39.11 47.39 39.11 48.57 39.11 49.74 39.11 50.92 39.11 52.09 39.11 53.27 39.11 54.44 39.11 55.62 39.11 55.62 37.77 54.44 37.77 53.27 37.77 52.09 37.77 50.92 37.77 49.74 37.77 48.57 37.77 47.39 37.77 46.22 37.77 45.04 37.77 43.87 37.77 42.69 37.77 41.52 37.77 40.34 37.77 39.17 37.77 39.17 39.11 40.34 39.11 41.52 39.11"/>
      <polygon class="cls-2" points="65.02 39.11 66.19 39.11 67.37 39.11 67.37 37.77 66.19 37.77 65.02 37.77 63.84 37.77 62.67 37.77 62.67 39.11 63.84 39.11 65.02 39.11"/>
      <polygon class="cls-2" points="46.22 41.63 47.39 41.63 48.57 41.63 48.57 40.28 47.39 40.28 46.22 40.28 45.04 40.28 43.87 40.28 42.69 40.28 42.69 41.63 43.87 41.63 45.04 41.63 46.22 41.63"/>
      <polygon class="cls-2" points="63.84 40.28 62.67 40.28 61.49 40.28 60.32 40.28 59.14 40.28 57.97 40.28 56.79 40.28 55.62 40.28 54.44 40.28 53.27 40.28 53.27 41.63 54.44 41.63 55.62 41.63 56.79 41.63 57.97 41.63 59.14 41.63 60.32 41.63 61.49 41.63 62.67 41.63 63.84 41.63 63.84 40.28"/>
      <polygon class="cls-2" points="55.62 44.14 56.79 44.14 56.79 42.8 55.62 42.8 54.44 42.8 53.27 42.8 52.09 42.8 50.92 42.8 49.74 42.8 49.74 44.14 50.92 44.14 52.09 44.14 53.27 44.14 54.44 44.14 55.62 44.14"/>
      <g>
        <path class="cls-1" d="M1.49,72.98v1.36H.12v-1.36h1.36ZM1.49,75.71v1.37H.12v-1.37h1.36ZM1.49,83.9v1.36H.12v-1.36h1.36ZM11.04,70.25v1.36H1.49v-1.36h9.55ZM11.04,78.44v1.37H1.49v-1.37h9.55ZM11.04,86.63v1.36H1.49v-1.36h9.55ZM12.41,72.98v1.36h-1.37v-1.36h1.37ZM12.41,81.17v1.36h-1.37v-1.36h1.37ZM12.41,83.9v1.36h-1.37v-1.36h1.37Z"/>
        <path class="cls-1" d="M17.87,70.25v1.36h-1.36v-1.36h1.36ZM17.87,72.98v1.36h-1.36v-1.36h1.36ZM19.24,75.71v1.37h-1.37v-1.37h1.37ZM24.69,78.44v1.37h-4.1v-1.37h4.1ZM23.33,81.17v1.36h-1.36v-1.36h1.36ZM23.33,83.9v1.36h-1.36v-1.36h1.36ZM23.33,86.63v1.36h-1.36v-1.36h1.36ZM27.43,75.71v1.37h-1.36v-1.37h1.36ZM28.79,70.25v1.36h-1.36v-1.36h1.36ZM28.79,72.98v1.36h-1.36v-1.36h1.36Z"/>
        <path class="cls-1" d="M34.25,70.25v1.36h-1.37v-1.36h1.37ZM34.25,72.98v1.36h-1.37v-1.36h1.37ZM34.25,75.71v1.37h-1.37v-1.37h1.37ZM34.25,78.44v1.37h-1.37v-1.37h1.37ZM34.25,81.17v1.36h-1.37v-1.36h1.37ZM34.25,83.9v1.36h-1.37v-1.36h1.37ZM34.25,86.63v1.36h-1.37v-1.36h1.37ZM36.98,72.98v1.36h-1.36v-1.36h1.36ZM38.35,75.71v1.37h-1.37v-1.37h1.37ZM39.71,78.44v1.37h-1.36v-1.37h1.36ZM41.08,81.17v1.36h-1.36v-1.36h1.36ZM42.44,83.9v1.36h-1.36v-1.36h1.36ZM45.17,70.25v1.36h-1.36v-1.36h1.36ZM45.17,72.98v1.36h-1.36v-1.36h1.36ZM45.17,75.71v1.37h-1.36v-1.37h1.36ZM45.17,78.44v1.37h-1.36v-1.37h1.36ZM45.17,81.17v1.36h-1.36v-1.36h1.36ZM45.17,83.9v1.36h-1.36v-1.36h1.36ZM45.17,86.63v1.36h-1.36v-1.36h1.36Z"/>
        <path class="cls-1" d="M50.63,72.98v1.36h-1.36v-1.36h1.36ZM50.63,75.71v1.37h-1.36v-1.37h1.36ZM50.63,78.44v1.37h-1.36v-1.37h1.36ZM50.63,81.17v1.36h-1.36v-1.36h1.36ZM50.63,83.9v1.36h-1.36v-1.36h1.36ZM60.18,70.25v1.36h-9.56v-1.36h9.56ZM60.18,86.63v1.36h-9.56v-1.36h9.56ZM61.55,72.98v1.36h-1.36v-1.36h1.36ZM61.55,83.9v1.36h-1.36v-1.36h1.36Z"/>
        <path class="cls-1" d="M67.01,70.25v1.36h-1.36v-1.36h1.36ZM67.01,72.98v1.36h-1.36v-1.36h1.36ZM67.01,75.71v1.37h-1.36v-1.37h1.36ZM77.93,78.44v1.37h-12.29v-1.37h12.29ZM67.01,81.17v1.36h-1.36v-1.36h1.36ZM67.01,83.9v1.36h-1.36v-1.36h1.36ZM67.01,86.63v1.36h-1.36v-1.36h1.36ZM77.93,70.25v1.36h-1.37v-1.36h1.37ZM77.93,72.98v1.36h-1.37v-1.36h1.37ZM77.93,75.71v1.37h-1.37v-1.37h1.37ZM77.93,81.17v1.36h-1.37v-1.36h1.37ZM77.93,83.9v1.36h-1.37v-1.36h1.37ZM77.93,86.63v1.36h-1.37v-1.36h1.37Z"/>
        <path class="cls-1" d="M92.94,70.25v1.36h-10.92v-1.36h10.92ZM83.39,72.98v1.36h-1.36v-1.36h1.36ZM83.39,75.71v1.37h-1.36v-1.37h1.36ZM92.94,78.44v1.37h-10.92v-1.37h10.92ZM83.39,81.17v1.36h-1.36v-1.36h1.36ZM83.39,83.9v1.36h-1.36v-1.36h1.36ZM83.39,86.63v1.36h-1.36v-1.36h1.36ZM88.85,81.17v1.36h-1.36v-1.36h1.36ZM91.58,83.9v1.36h-1.36v-1.36h1.36ZM94.31,72.98v1.36h-1.36v-1.36h1.36ZM94.31,75.71v1.37h-1.36v-1.37h1.36ZM94.31,86.63v1.36h-1.36v-1.36h1.36Z"/>
        <path class="cls-1" d="M99.77,72.98v1.36h-1.36v-1.36h1.36ZM99.77,75.71v1.37h-1.36v-1.37h1.36ZM99.77,78.44v1.37h-1.36v-1.37h1.36ZM99.77,81.17v1.36h-1.36v-1.36h1.36ZM99.77,83.9v1.36h-1.36v-1.36h1.36ZM109.32,70.25v1.36h-9.56v-1.36h9.56ZM109.32,86.63v1.36h-9.56v-1.36h9.56ZM110.69,72.98v1.36h-1.36v-1.36h1.36ZM110.69,75.71v1.37h-1.36v-1.37h1.36ZM110.69,78.44v1.37h-1.36v-1.37h1.36ZM110.69,81.17v1.36h-1.36v-1.36h1.36ZM110.69,83.9v1.36h-1.36v-1.36h1.36Z"/>
      </g>
    </g>
  </g>
</svg>