<?xml version="1.0" encoding="UTF-8"?>
<svg id="Livello_2" xmlns="http://www.w3.org/2000/svg" viewBox="0 0 76.01 93.86">
  <defs>
    <style>
      .cls-1 {
        stroke: #fff;
        stroke-miterlimit: 10;
        stroke-width: .25px;
      }

      .cls-1, .cls-2, .cls-3 {
        fill: #fff;
      }

      .cls-3 {
        font-family: MyriadPro-Regular, 'Myriad Pro';
        font-size: 24px;
      }
    </style>
  </defs>
  <g id="MICROGRAPH">
    <g>
      <g>
        <rect class="cls-2" x="33.3" y="0" width="4.7" height="1.34"/>
        <polygon class="cls-2" points="29.78 2.52 28.6 2.52 27.43 2.52 27.43 3.86 28.6 3.86 29.78 3.86 30.95 3.86 32.13 3.86 32.13 2.52 30.95 2.52 29.78 2.52"/>
        <polygon class="cls-2" points="25.08 5.04 23.9 5.04 23.9 6.38 25.08 6.38 26.25 6.38 27.43 6.38 27.43 5.04 26.25 5.04 25.08 5.04"/>
        <polygon class="cls-2" points="23.9 7.55 22.73 7.55 21.55 7.55 21.55 8.9 22.73 8.9 23.9 8.9 23.9 7.55"/>
        <polygon class="cls-2" points="32.13 7.55 32.13 8.9 33.3 8.9 34.48 8.9 35.65 8.9 36.83 8.9 38 8.9 39.18 8.9 40.35 8.9 41.53 8.9 42.7 8.9 43.88 8.9 43.88 7.55 42.7 7.55 41.53 7.55 40.35 7.55 39.18 7.55 38 7.55 36.83 7.55 35.65 7.55 34.48 7.55 33.3 7.55 32.13 7.55"/>
        <polygon class="cls-2" points="21.55 11.41 22.73 11.41 22.73 10.07 21.55 10.07 20.38 10.07 19.2 10.07 19.2 11.41 20.38 11.41 21.55 11.41"/>
        <polygon class="cls-2" points="29.78 11.41 30.95 11.41 30.95 10.07 29.78 10.07 28.6 10.07 27.43 10.07 27.43 11.41 28.6 11.41 29.78 11.41"/>
        <polygon class="cls-2" points="47.4 11.41 48.58 11.41 48.58 10.07 47.4 10.07 46.23 10.07 45.05 10.07 45.05 11.41 46.23 11.41 47.4 11.41"/>
        <polygon class="cls-2" points="20.38 13.93 20.38 12.59 19.2 12.59 18.03 12.59 18.03 13.93 19.2 13.93 20.38 13.93"/>
        <polygon class="cls-2" points="27.43 13.93 28.6 13.93 28.6 12.59 27.43 12.59 26.25 12.59 25.08 12.59 25.08 13.93 26.25 13.93 27.43 13.93"/>
        <polygon class="cls-2" points="49.75 13.93 50.93 13.93 50.93 12.59 49.75 12.59 48.58 12.59 47.4 12.59 47.4 13.93 48.58 13.93 49.75 13.93"/>
        <polygon class="cls-2" points="19.2 16.45 19.2 15.11 18.03 15.11 16.85 15.11 16.85 16.45 18.03 16.45 19.2 16.45"/>
        <polygon class="cls-2" points="26.25 16.45 26.25 15.11 25.08 15.11 23.9 15.11 23.9 16.45 25.08 16.45 26.25 16.45"/>
        <polygon class="cls-2" points="49.75 15.11 49.75 16.45 50.93 16.45 52.1 16.45 52.1 15.11 50.93 15.11 49.75 15.11"/>
        <polygon class="cls-2" points="18.03 17.62 16.85 17.62 15.68 17.62 15.68 18.97 16.85 18.97 18.03 18.97 18.03 17.62"/>
        <polygon class="cls-2" points="25.08 17.62 23.9 17.62 22.73 17.62 22.73 18.97 23.9 18.97 25.08 18.97 25.08 17.62"/>
        <polygon class="cls-2" points="18.03 20.14 16.85 20.14 15.68 20.14 15.68 21.48 16.85 21.48 18.03 21.48 18.03 20.14"/>
        <polygon class="cls-2" points="25.08 20.14 23.9 20.14 22.73 20.14 22.73 21.48 23.9 21.48 25.08 21.48 25.08 20.14"/>
        <polygon class="cls-2" points="15.68 22.66 15.68 24 16.85 24 18.03 24 18.03 22.66 16.85 22.66 15.68 22.66"/>
        <polygon class="cls-2" points="22.73 22.66 22.73 24 23.9 24 25.08 24 25.08 22.66 23.9 22.66 22.73 22.66"/>
        <polygon class="cls-2" points="17.25 26.52 18.03 26.52 18.03 25.18 17.25 25.18 16.46 25.18 15.68 25.18 15.68 26.52 16.46 26.52 17.25 26.52"/>
        <polygon class="cls-2" points="25.08 26.52 25.08 25.18 23.9 25.18 22.73 25.18 22.73 26.52 23.9 26.52 25.08 26.52"/>
        <polygon class="cls-2" points="53.87 17.62 52.69 17.62 51.52 17.62 51.52 18.97 52.69 18.97 53.87 18.97 53.87 17.62"/>
        <polygon class="cls-2" points="53.87 20.14 52.69 20.14 51.52 20.14 51.52 21.48 52.69 21.48 53.87 21.48 53.87 20.14"/>
        <polygon class="cls-2" points="51.52 22.66 51.52 24 52.69 24 53.87 24 53.87 22.66 52.69 22.66 51.52 22.66"/>
        <polygon class="cls-2" points="53.87 26.52 53.87 25.18 52.69 25.18 51.52 25.18 51.52 26.52 52.69 26.52 53.87 26.52"/>
        <polygon class="cls-2" points="19.2 29.04 19.2 27.7 18.03 27.7 16.85 27.7 16.85 29.04 18.03 29.04 19.2 29.04"/>
        <polygon class="cls-2" points="26.25 29.04 26.25 27.7 25.08 27.7 23.9 27.7 23.9 29.04 25.08 29.04 26.25 29.04"/>
        <polygon class="cls-2" points="52.1 29.04 52.1 27.7 50.93 27.7 49.75 27.7 49.75 29.04 50.93 29.04 52.1 29.04"/>
        <polygon class="cls-2" points="20.38 31.56 20.38 30.21 19.2 30.21 18.03 30.21 18.03 31.56 19.2 31.56 20.38 31.56"/>
        <polygon class="cls-2" points="27.43 31.56 27.43 30.21 26.25 30.21 25.08 30.21 25.08 31.56 26.25 31.56 27.43 31.56"/>
        <polygon class="cls-2" points="50.93 31.56 50.93 30.21 49.75 30.21 48.58 30.21 48.58 31.56 49.75 31.56 50.93 31.56"/>
        <polygon class="cls-2" points="21.55 34.07 21.55 32.73 20.38 32.73 19.2 32.73 19.2 34.07 20.38 34.07 21.55 34.07"/>
        <polygon class="cls-2" points="29.78 34.07 30.95 34.07 30.95 32.73 29.78 32.73 28.6 32.73 27.43 32.73 27.43 34.07 28.6 34.07 29.78 34.07"/>
        <polygon class="cls-2" points="47.4 34.07 48.58 34.07 49.75 34.07 49.75 32.73 48.58 32.73 47.4 32.73 46.23 32.73 45.05 32.73 45.05 34.07 46.23 34.07 47.4 34.07"/>
        <polygon class="cls-2" points="23.9 36.59 23.9 35.25 22.73 35.25 21.55 35.25 20.38 35.25 20.38 36.59 21.55 36.59 22.73 36.59 23.9 36.59"/>
        <polygon class="cls-2" points="34.48 36.59 35.65 36.59 36.83 36.59 38 36.59 39.18 36.59 40.35 36.59 41.53 36.59 42.7 36.59 43.88 36.59 45.05 36.59 46.23 36.59 46.23 35.25 45.05 35.25 43.88 35.25 42.7 35.25 41.53 35.25 40.35 35.25 39.18 35.25 38 35.25 36.83 35.25 35.65 35.25 34.48 35.25 33.3 35.25 32.13 35.25 30.95 35.25 29.78 35.25 29.78 36.59 30.95 36.59 32.13 36.59 33.3 36.59 34.48 36.59"/>
        <polygon class="cls-2" points="26.25 37.77 25.08 37.77 23.9 37.77 22.73 37.77 22.73 39.11 23.9 39.11 25.08 39.11 26.25 39.11 26.25 37.77"/>
        <polygon class="cls-2" points="29.78 40.28 28.6 40.28 27.43 40.28 26.25 40.28 26.25 41.63 27.43 41.63 28.6 41.63 29.78 41.63 30.95 41.63 32.13 41.63 32.13 40.28 30.95 40.28 29.78 40.28"/>
        <polygon class="cls-2" points="36.83 42.8 36.24 42.8 35.65 42.8 35.07 42.8 34.48 42.8 33.89 42.8 33.3 42.8 32.72 42.8 32.13 42.8 32.13 44.14 32.72 44.14 33.3 44.14 33.89 44.14 34.48 44.14 35.07 44.14 35.65 44.14 36.24 44.14 36.83 44.14 37.42 44.14 38 44.14 38 42.8 37.42 42.8 36.83 42.8"/>
        <g>
          <rect class="cls-2" x="38" y="0" width="4.7" height="1.34"/>
          <polygon class="cls-2" points="46.23 2.52 47.4 2.52 48.58 2.52 48.58 3.86 47.4 3.86 46.23 3.86 45.05 3.86 43.88 3.86 43.88 2.52 45.05 2.52 46.23 2.52"/>
          <polygon class="cls-2" points="50.93 5.04 52.1 5.04 52.1 6.38 50.93 6.38 49.75 6.38 48.58 6.38 48.58 5.04 49.75 5.04 50.93 5.04"/>
          <polygon class="cls-2" points="52.1 7.55 53.28 7.55 54.45 7.55 54.45 8.9 53.28 8.9 52.1 8.9 52.1 7.55"/>
          <polygon class="cls-2" points="54.45 11.41 53.28 11.41 53.28 10.07 54.45 10.07 55.63 10.07 56.8 10.07 56.8 11.41 55.63 11.41 54.45 11.41"/>
          <polygon class="cls-2" points="55.63 13.93 55.63 12.59 56.8 12.59 57.98 12.59 57.98 13.93 56.8 13.93 55.63 13.93"/>
          <polygon class="cls-2" points="56.8 16.45 56.8 15.11 57.98 15.11 59.15 15.11 59.15 16.45 57.98 16.45 56.8 16.45"/>
          <polygon class="cls-2" points="57.98 17.62 59.15 17.62 60.33 17.62 60.33 18.97 59.15 18.97 57.98 18.97 57.98 17.62"/>
          <polygon class="cls-2" points="57.98 20.14 59.15 20.14 60.33 20.14 60.33 21.48 59.15 21.48 57.98 21.48 57.98 20.14"/>
          <polygon class="cls-2" points="60.33 22.66 60.33 24 59.15 24 57.98 24 57.98 22.66 59.15 22.66 60.33 22.66"/>
          <polygon class="cls-2" points="58.76 26.52 57.98 26.52 57.98 25.18 58.76 25.18 59.54 25.18 60.33 25.18 60.33 26.52 59.54 26.52 58.76 26.52"/>
          <polygon class="cls-2" points="56.8 29.04 56.8 27.7 57.98 27.7 59.15 27.7 59.15 29.04 57.98 29.04 56.8 29.04"/>
          <polygon class="cls-2" points="55.63 31.56 55.63 30.21 56.8 30.21 57.98 30.21 57.98 31.56 56.8 31.56 55.63 31.56"/>
          <polygon class="cls-2" points="54.45 34.07 54.45 32.73 55.63 32.73 56.8 32.73 56.8 34.07 55.63 34.07 54.45 34.07"/>
          <polygon class="cls-2" points="52.1 36.59 52.1 35.25 53.28 35.25 54.45 35.25 55.63 35.25 55.63 36.59 54.45 36.59 53.28 36.59 52.1 36.59"/>
          <polygon class="cls-2" points="49.75 37.77 50.93 37.77 52.1 37.77 53.28 37.77 53.28 39.11 52.1 39.11 50.93 39.11 49.75 39.11 49.75 37.77"/>
          <polygon class="cls-2" points="46.23 40.28 47.4 40.28 48.58 40.28 49.75 40.28 49.75 41.63 48.58 41.63 47.4 41.63 46.23 41.63 45.05 41.63 43.88 41.63 43.88 40.28 45.05 40.28 46.23 40.28"/>
          <polygon class="cls-2" points="39.18 42.8 39.77 42.8 40.35 42.8 40.94 42.8 41.53 42.8 42.12 42.8 42.7 42.8 43.29 42.8 43.88 42.8 43.88 44.14 43.29 44.14 42.7 44.14 42.12 44.14 41.53 44.14 40.94 44.14 40.35 44.14 39.77 44.14 39.18 44.14 38.59 44.14 38 44.14 38 42.8 38.59 42.8 39.18 42.8"/>
        </g>
        <g>
          <polygon class="cls-2" points="34.61 13.4 34.14 13.4 33.67 13.4 33.67 14.28 34.14 14.28 34.61 14.28 35.08 14.28 35.55 14.28 36.02 14.28 36.48 14.28 36.95 14.28 37.42 14.28 37.89 14.28 38.36 14.28 38.82 14.28 39.29 14.28 39.76 14.28 40.23 14.28 40.7 14.28 41.17 14.28 41.63 14.28 42.1 14.28 42.57 14.28 42.57 13.4 42.1 13.4 41.63 13.4 41.17 13.4 40.7 13.4 40.23 13.4 39.76 13.4 39.29 13.4 38.82 13.4 38.36 13.4 37.89 13.4 37.42 13.4 36.95 13.4 36.48 13.4 36.02 13.4 35.55 13.4 35.08 13.4 34.61 13.4"/>
          <polygon class="cls-2" points="32.08 15.67 32.6 15.67 33.13 15.67 33.66 15.67 34.18 15.67 34.71 15.67 35.24 15.67 35.76 15.67 36.29 15.67 36.82 15.67 37.34 15.67 37.87 15.67 38.4 15.67 38.92 15.67 39.45 15.67 39.98 15.67 40.5 15.67 41.03 15.67 41.56 15.67 42.08 15.67 42.61 15.67 43.14 15.67 43.66 15.67 44.19 15.67 44.19 14.8 43.66 14.8 43.14 14.8 42.61 14.8 42.08 14.8 41.56 14.8 41.03 14.8 40.5 14.8 39.98 14.8 39.45 14.8 38.92 14.8 38.4 14.8 37.87 14.8 37.34 14.8 36.82 14.8 36.29 14.8 35.76 14.8 35.24 14.8 34.71 14.8 34.18 14.8 33.66 14.8 33.13 14.8 32.6 14.8 32.08 14.8 32.08 15.67"/>
          <polygon class="cls-2" points="45.29 16.2 44.7 16.2 44.11 16.2 43.52 16.2 42.93 16.2 42.34 16.2 41.75 16.2 41.16 16.2 40.57 16.2 39.98 16.2 39.39 16.2 38.8 16.2 38.2 16.2 37.61 16.2 37.02 16.2 36.43 16.2 35.84 16.2 35.25 16.2 34.66 16.2 34.07 16.2 33.48 16.2 32.89 16.2 32.3 16.2 31.71 16.2 31.12 16.2 31.12 17.07 31.71 17.07 32.3 17.07 32.89 17.07 33.48 17.07 34.07 17.07 34.66 17.07 35.25 17.07 35.84 17.07 36.43 17.07 37.02 17.07 37.61 17.07 38.2 17.07 38.8 17.07 39.39 17.07 39.98 17.07 40.57 17.07 41.16 17.07 41.75 17.07 42.34 17.07 42.93 17.07 43.52 17.07 44.11 17.07 44.7 17.07 45.29 17.07 45.29 16.2"/>
          <polygon class="cls-2" points="45.29 17.6 44.71 17.6 44.14 17.6 43.57 17.6 42.99 17.6 42.42 17.6 41.85 17.6 41.27 17.6 40.7 17.6 40.12 17.6 39.55 17.6 38.98 17.6 38.4 17.6 37.83 17.6 37.26 17.6 36.68 17.6 36.11 17.6 35.53 17.6 34.96 17.6 34.39 17.6 33.81 17.6 33.24 17.6 32.67 17.6 32.09 17.6 31.52 17.6 30.95 17.6 30.95 18.47 31.52 18.47 32.09 18.47 32.67 18.47 33.24 18.47 33.81 18.47 34.39 18.47 34.96 18.47 35.53 18.47 36.11 18.47 36.68 18.47 37.26 18.47 37.83 18.47 38.4 18.47 38.98 18.47 39.55 18.47 40.12 18.47 40.7 18.47 41.27 18.47 41.85 18.47 42.42 18.47 42.99 18.47 43.57 18.47 44.14 18.47 44.71 18.47 45.29 18.47 45.29 17.6"/>
          <polygon class="cls-2" points="45.29 18.99 44.71 18.99 44.14 18.99 43.57 18.99 42.99 18.99 42.42 18.99 41.85 18.99 41.27 18.99 40.7 18.99 40.12 18.99 39.55 18.99 38.98 18.99 38.4 18.99 37.83 18.99 37.26 18.99 36.68 18.99 36.11 18.99 35.53 18.99 34.96 18.99 34.39 18.99 33.81 18.99 33.24 18.99 32.67 18.99 32.09 18.99 31.52 18.99 30.95 18.99 30.95 19.87 31.52 19.87 32.09 19.87 32.67 19.87 33.24 19.87 33.81 19.87 34.39 19.87 34.96 19.87 35.53 19.87 36.11 19.87 36.68 19.87 37.26 19.87 37.83 19.87 38.4 19.87 38.98 19.87 39.55 19.87 40.12 19.87 40.7 19.87 41.27 19.87 41.85 19.87 42.42 19.87 42.99 19.87 43.57 19.87 44.14 19.87 44.71 19.87 45.29 19.87 45.29 18.99"/>
          <polygon class="cls-2" points="31.18 21.26 31.77 21.26 32.36 21.26 32.95 21.26 33.53 21.26 34.12 21.26 34.71 21.26 35.3 21.26 35.88 21.26 36.47 21.26 37.06 21.26 37.65 21.26 38.24 21.26 38.82 21.26 39.41 21.26 40 21.26 40.59 21.26 41.17 21.26 41.76 21.26 42.35 21.26 42.94 21.26 43.52 21.26 44.11 21.26 44.7 21.26 45.29 21.26 45.29 20.39 44.7 20.39 44.11 20.39 43.52 20.39 42.94 20.39 42.35 20.39 41.76 20.39 41.17 20.39 40.59 20.39 40 20.39 39.41 20.39 38.82 20.39 38.24 20.39 37.65 20.39 37.06 20.39 36.47 20.39 35.88 20.39 35.3 20.39 34.71 20.39 34.12 20.39 33.53 20.39 32.95 20.39 32.36 20.39 31.77 20.39 31.18 20.39 30.6 20.39 30.01 20.39 30.01 21.26 30.6 21.26 31.18 21.26"/>
          <polygon class="cls-2" points="44.68 22.66 44.68 21.79 44.07 21.79 43.45 21.79 42.84 21.79 42.23 21.79 41.62 21.79 41.01 21.79 40.4 21.79 39.79 21.79 39.18 21.79 38.56 21.79 37.95 21.79 37.34 21.79 36.73 21.79 36.12 21.79 35.51 21.79 34.9 21.79 34.29 21.79 33.67 21.79 33.06 21.79 32.45 21.79 31.84 21.79 31.23 21.79 30.62 21.79 30.01 21.79 29.4 21.79 28.79 21.79 28.79 22.66 29.4 22.66 30.01 22.66 30.62 22.66 31.23 22.66 31.84 22.66 32.45 22.66 33.06 22.66 33.67 22.66 34.29 22.66 34.9 22.66 35.51 22.66 36.12 22.66 36.73 22.66 37.34 22.66 37.95 22.66 38.56 22.66 39.18 22.66 39.79 22.66 40.4 22.66 41.01 22.66 41.62 22.66 42.23 22.66 42.84 22.66 43.45 22.66 44.07 22.66 44.68 22.66"/>
          <polygon class="cls-2" points="44.07 23.18 43.47 23.18 42.88 23.18 42.29 23.18 41.7 23.18 41.11 23.18 40.51 23.18 39.92 23.18 39.33 23.18 38.74 23.18 38.15 23.18 37.55 23.18 36.96 23.18 36.37 23.18 35.78 23.18 35.19 23.18 34.59 23.18 34 23.18 33.41 23.18 32.82 23.18 32.23 23.18 31.63 23.18 31.04 23.18 30.45 23.18 29.86 23.18 29.86 24.06 30.45 24.06 31.04 24.06 31.63 24.06 32.23 24.06 32.82 24.06 33.41 24.06 34 24.06 34.59 24.06 35.19 24.06 35.78 24.06 36.37 24.06 36.96 24.06 37.55 24.06 38.15 24.06 38.74 24.06 39.33 24.06 39.92 24.06 40.51 24.06 41.11 24.06 41.7 24.06 42.29 24.06 42.88 24.06 43.47 24.06 44.07 24.06 44.07 23.18"/>
          <polygon class="cls-2" points="31.46 25.45 32.06 25.45 32.66 25.45 33.26 25.45 33.86 25.45 34.46 25.45 35.06 25.45 35.66 25.45 36.26 25.45 36.86 25.45 37.46 25.45 38.06 25.45 38.65 25.45 39.25 25.45 39.85 25.45 40.45 25.45 41.05 25.45 41.65 25.45 42.25 25.45 42.85 25.45 43.45 25.45 43.45 24.58 42.85 24.58 42.25 24.58 41.65 24.58 41.05 24.58 40.45 24.58 39.85 24.58 39.25 24.58 38.65 24.58 38.06 24.58 37.46 24.58 36.86 24.58 36.26 24.58 35.66 24.58 35.06 24.58 34.46 24.58 33.86 24.58 33.26 24.58 32.66 24.58 32.06 24.58 31.46 24.58 30.86 24.58 30.26 24.58 30.26 25.45 30.86 25.45 31.46 25.45"/>
          <polygon class="cls-2" points="30.61 26.85 31.19 26.85 31.78 26.85 32.36 26.85 32.95 26.85 33.53 26.85 34.11 26.85 34.7 26.85 35.28 26.85 35.86 26.85 36.45 26.85 37.03 26.85 37.62 26.85 38.2 26.85 38.78 26.85 39.37 26.85 39.95 26.85 40.54 26.85 41.12 26.85 41.7 26.85 42.29 26.85 42.87 26.85 43.45 26.85 43.45 25.98 42.87 25.98 42.29 25.98 41.7 25.98 41.12 25.98 40.54 25.98 39.95 25.98 39.37 25.98 38.78 25.98 38.2 25.98 37.62 25.98 37.03 25.98 36.45 25.98 35.86 25.98 35.28 25.98 34.7 25.98 34.11 25.98 33.53 25.98 32.95 25.98 32.36 25.98 31.78 25.98 31.19 25.98 30.61 25.98 30.61 26.85"/>
          <polygon class="cls-2" points="32.36 28.25 32.95 28.25 33.53 28.25 34.11 28.25 34.7 28.25 35.28 28.25 35.86 28.25 36.45 28.25 37.03 28.25 37.62 28.25 38.2 28.25 38.78 28.25 39.37 28.25 39.95 28.25 40.54 28.25 41.12 28.25 41.7 28.25 42.29 28.25 42.87 28.25 43.45 28.25 43.45 27.37 42.87 27.37 42.29 27.37 41.7 27.37 41.12 27.37 40.54 27.37 39.95 27.37 39.37 27.37 38.78 27.37 38.2 27.37 37.62 27.37 37.03 27.37 36.45 27.37 35.86 27.37 35.28 27.37 34.7 27.37 34.11 27.37 33.53 27.37 32.95 27.37 32.36 27.37 31.78 27.37 31.19 27.37 30.61 27.37 30.61 28.25 31.19 28.25 31.78 28.25 32.36 28.25"/>
          <polygon class="cls-2" points="34.9 29.65 35.51 29.65 36.12 29.65 36.73 29.65 37.34 29.65 37.95 29.65 38.56 29.65 39.18 29.65 39.79 29.65 40.4 29.65 41.01 29.65 41.62 29.65 42.23 29.65 42.84 29.65 43.45 29.65 43.45 28.77 42.84 28.77 42.23 28.77 41.62 28.77 41.01 28.77 40.4 28.77 39.79 28.77 39.18 28.77 38.56 28.77 37.95 28.77 37.34 28.77 36.73 28.77 36.12 28.77 35.51 28.77 34.9 28.77 34.29 28.77 33.67 28.77 33.67 29.65 34.29 29.65 34.9 29.65"/>
          <polygon class="cls-2" points="43.85 30.17 43.32 30.17 42.79 30.17 42.27 30.17 41.74 30.17 41.21 30.17 40.69 30.17 40.16 30.17 39.63 30.17 39.11 30.17 38.58 30.17 38.05 30.17 37.53 30.17 37 30.17 36.48 30.17 35.95 30.17 35.95 31.04 36.48 31.04 37 31.04 37.53 31.04 38.05 31.04 38.58 31.04 39.11 31.04 39.63 31.04 40.16 31.04 40.69 31.04 41.21 31.04 41.74 31.04 42.27 31.04 42.79 31.04 43.32 31.04 43.85 31.04 43.85 30.17"/>
        </g>
      </g>
      <g>
        <text class="cls-3" transform="translate(15.83 87.86)"><tspan x="0" y="0">–</tspan></text>
        <g>
          <rect class="cls-1" x=".12" y="84.44" width="1.36" height="1.36"/>
          <rect class="cls-1" x=".12" y="81.71" width="1.36" height="1.36"/>
          <rect class="cls-1" x=".12" y="70.79" width="12.28" height="1.36"/>
          <rect class="cls-1" x=".12" y="73.52" width="1.36" height="1.36"/>
          <rect class="cls-1" x=".12" y="78.98" width="9.55" height="1.36"/>
          <rect class="cls-1" x=".12" y="76.25" width="1.36" height="1.36"/>
          <rect class="cls-1" x=".12" y="87.17" width="12.28" height="1.36"/>
          <rect class="cls-1" x="30.84" y="84.44" width="1.36" height="1.36"/>
          <rect class="cls-1" x="41.76" y="73.52" width="1.36" height="1.36"/>
          <rect class="cls-1" x="30.84" y="78.98" width="1.36" height="1.36"/>
          <rect class="cls-1" x="30.84" y="81.71" width="1.36" height="1.36"/>
          <rect class="cls-1" x="41.76" y="76.25" width="1.36" height="1.36"/>
          <rect class="cls-1" x="41.76" y="81.71" width="1.36" height="1.36"/>
          <rect class="cls-1" x="30.84" y="87.17" width="10.92" height="1.36"/>
          <rect class="cls-1" x="41.76" y="84.44" width="1.36" height="1.36"/>
          <rect class="cls-1" x="41.76" y="78.98" width="1.36" height="1.36"/>
          <rect class="cls-1" x="30.84" y="70.79" width="10.92" height="1.36"/>
          <rect class="cls-1" x="30.84" y="76.25" width="1.36" height="1.36"/>
          <rect class="cls-1" x="30.84" y="73.52" width="1.36" height="1.36"/>
          <rect class="cls-1" x="47.22" y="81.71" width="1.36" height="1.36"/>
          <rect class="cls-1" x="47.22" y="78.98" width="9.55" height="1.36"/>
          <rect class="cls-1" x="47.22" y="76.25" width="1.36" height="1.36"/>
          <rect class="cls-1" x="47.22" y="73.52" width="1.36" height="1.36"/>
          <rect class="cls-1" x="47.22" y="87.17" width="12.28" height="1.36"/>
          <rect class="cls-1" x="47.22" y="70.79" width="12.28" height="1.36"/>
          <rect class="cls-1" x="47.22" y="84.44" width="1.36" height="1.36"/>
          <rect class="cls-1" x="74.52" y="76.25" width="1.36" height="1.36"/>
          <rect class="cls-1" x="74.52" y="73.52" width="1.36" height="1.36"/>
          <rect class="cls-1" x="74.52" y="70.79" width="1.36" height="1.36"/>
          <rect class="cls-1" x="74.52" y="78.98" width="1.36" height="1.36"/>
          <rect class="cls-1" x="63.6" y="73.52" width="1.36" height="1.36"/>
          <rect class="cls-1" x="63.6" y="70.79" width="1.36" height="1.36"/>
          <rect class="cls-1" x="63.6" y="76.25" width="1.36" height="1.36"/>
          <rect class="cls-1" x="66.33" y="73.52" width="1.36" height="1.36"/>
          <rect class="cls-1" x="71.79" y="84.44" width="1.36" height="1.36"/>
          <rect class="cls-1" x="67.69" y="76.25" width="1.36" height="1.36"/>
          <rect class="cls-1" x="70.42" y="81.71" width="1.37" height="1.36"/>
          <rect class="cls-1" x="69.06" y="78.98" width="1.36" height="1.36"/>
          <rect class="cls-1" x="63.6" y="78.98" width="1.36" height="1.36"/>
          <rect class="cls-1" x="74.52" y="81.71" width="1.36" height="1.36"/>
          <rect class="cls-1" x="63.6" y="87.17" width="1.36" height="1.36"/>
          <rect class="cls-1" x="74.52" y="84.44" width="1.36" height="1.36"/>
          <rect class="cls-1" x="74.52" y="87.17" width="1.36" height="1.36"/>
          <rect class="cls-1" x="63.6" y="81.71" width="1.36" height="1.36"/>
          <rect class="cls-1" x="63.6" y="84.44" width="1.36" height="1.36"/>
        </g>
      </g>
    </g>
  </g>
</svg>