<?xml version="1.0" encoding="UTF-8"?>
<svg id="Livello_2" xmlns="http://www.w3.org/2000/svg" viewBox="0 0 76.37 88.12">
  <defs>
    <style>
      .cls-1 {
        stroke: #fff;
        stroke-miterlimit: 10;
        stroke-width: .25px;
      }

      .cls-1, .cls-2 {
        fill: #fff;
      }
    </style>
  </defs>
  <g id="MICROGRAPH">
    <g>
      <polygon class="cls-2" points="21.15 1.34 21.15 0 19.97 0 18.8 0 18.8 1.34 19.97 1.34 21.15 1.34"/>
      <polygon class="cls-2" points="27.02 1.34 27.02 0 25.85 0 24.67 0 24.67 1.34 25.85 1.34 27.02 1.34"/>
      <polygon class="cls-2" points="35.25 0 31.72 0 30.55 0 30.55 1.34 31.72 1.34 35.25 1.34 36.42 1.34 39.95 1.34 41.12 1.34 45.82 1.34 45.82 0 41.12 0 39.95 0 36.42 0 35.25 0"/>
      <rect class="cls-2" x="50.52" width="1.17" height="1.34"/>
      <polygon class="cls-2" points="55.22 0 55.22 1.34 56.4 1.34 57.57 1.34 57.57 0 56.4 0 55.22 0"/>
      <polygon class="cls-2" points="49.35 2.52 48.17 2.52 47 2.52 45.82 2.52 44.65 2.52 43.47 2.52 42.3 2.52 41.12 2.52 39.95 2.52 38.77 2.52 37.6 2.52 36.42 2.52 35.25 2.52 34.07 2.52 32.9 2.52 31.72 2.52 30.55 2.52 29.37 2.52 28.2 2.52 27.02 2.52 25.85 2.52 24.67 2.52 23.5 2.52 22.32 2.52 21.15 2.52 19.97 2.52 18.8 2.52 17.62 2.52 16.45 2.52 15.27 2.52 14.1 2.52 12.92 2.52 11.75 2.52 10.57 2.52 10.57 3.86 11.75 3.86 12.92 3.86 14.1 3.86 15.27 3.86 16.45 3.86 17.62 3.86 18.8 3.86 19.97 3.86 21.15 3.86 22.32 3.86 23.5 3.86 24.67 3.86 25.85 3.86 27.02 3.86 28.2 3.86 29.37 3.86 30.55 3.86 31.72 3.86 32.9 3.86 34.07 3.86 35.25 3.86 36.42 3.86 37.6 3.86 38.77 3.86 39.95 3.86 41.12 3.86 42.3 3.86 43.47 3.86 44.65 3.86 45.82 3.86 47 3.86 48.17 3.86 49.35 3.86 50.52 3.86 51.7 3.86 52.87 3.86 54.05 3.86 55.22 3.86 56.4 3.86 57.57 3.86 57.57 2.52 56.4 2.52 55.22 2.52 54.05 2.52 52.87 2.52 51.7 2.52 50.52 2.52 49.35 2.52"/>
      <polygon class="cls-2" points="63.45 2.52 62.27 2.52 61.1 2.52 59.92 2.52 58.75 2.52 58.75 3.86 59.92 3.86 61.1 3.86 62.27 3.86 63.45 3.86 64.62 3.86 65.8 3.86 65.8 2.52 64.62 2.52 63.45 2.52"/>
      <polygon class="cls-2" points="9.4 5.04 8.22 5.04 8.22 6.38 9.4 6.38 10.57 6.38 11.75 6.38 11.75 5.04 10.57 5.04 9.4 5.04"/>
      <polygon class="cls-2" points="18.8 6.38 19.97 6.38 19.97 5.04 18.8 5.04 17.62 5.04 16.45 5.04 16.45 6.38 17.62 6.38 18.8 6.38"/>
      <polygon class="cls-2" points="28.2 6.38 28.2 5.04 27.02 5.04 25.85 5.04 25.85 6.38 27.02 6.38 28.2 6.38"/>
      <polygon class="cls-2" points="45.82 6.38 45.82 5.04 44.65 5.04 43.47 5.04 42.3 5.04 41.12 5.04 39.95 5.04 38.77 5.04 37.6 5.04 36.42 5.04 35.25 5.04 34.07 5.04 32.9 5.04 31.72 5.04 31.72 6.38 32.9 6.38 34.07 6.38 35.25 6.38 36.42 6.38 37.6 6.38 38.77 6.38 39.95 6.38 41.12 6.38 42.3 6.38 43.47 6.38 44.65 6.38 45.82 6.38"/>
      <polygon class="cls-2" points="49.35 5.04 48.17 5.04 48.17 6.38 49.35 6.38 50.52 6.38 51.7 6.38 51.7 5.04 50.52 5.04 49.35 5.04"/>
      <polygon class="cls-2" points="57.57 5.04 56.4 5.04 56.4 6.38 57.57 6.38 58.75 6.38 59.92 6.38 59.92 5.04 58.75 5.04 57.57 5.04"/>
      <polygon class="cls-2" points="66.97 5.04 65.8 5.04 65.8 6.38 66.97 6.38 68.15 6.38 69.32 6.38 69.32 5.04 68.15 5.04 66.97 5.04"/>
      <polygon class="cls-2" points="8.22 7.55 7.05 7.55 5.87 7.55 5.87 8.9 7.05 8.9 8.22 8.9 8.22 7.55"/>
      <polygon class="cls-2" points="17.62 8.9 17.62 7.55 16.45 7.55 15.27 7.55 15.27 8.9 16.45 8.9 17.62 8.9"/>
      <polygon class="cls-2" points="24.67 7.55 24.67 8.9 25.85 8.9 27.02 8.9 27.02 7.55 25.85 7.55 24.67 7.55"/>
      <polygon class="cls-2" points="35.25 8.9 36.42 8.9 37.6 8.9 38.77 8.9 39.95 8.9 41.12 8.9 42.3 8.9 43.47 8.9 43.47 7.55 42.3 7.55 41.12 7.55 39.95 7.55 38.77 7.55 37.6 7.55 36.42 7.55 35.25 7.55 34.07 7.55 32.9 7.55 32.9 8.9 34.07 8.9 35.25 8.9"/>
      <polygon class="cls-2" points="51.7 8.9 51.7 7.55 50.52 7.55 49.35 7.55 49.35 8.9 50.52 8.9 51.7 8.9"/>
      <polygon class="cls-2" points="58.75 7.55 58.75 8.9 59.92 8.9 61.1 8.9 61.1 7.55 59.92 7.55 58.75 7.55"/>
      <polygon class="cls-2" points="69.32 7.55 68.15 7.55 68.15 8.9 69.32 8.9 70.5 8.9 71.67 8.9 71.67 7.55 70.5 7.55 69.32 7.55"/>
      <polygon class="cls-2" points="4.7 10.07 4.7 11.41 5.87 11.41 7.05 11.41 7.05 10.07 5.87 10.07 4.7 10.07"/>
      <rect class="cls-2" x="15.27" y="10.07" width="1.17" height="1.34"/>
      <polygon class="cls-2" points="27.02 11.41 27.02 10.07 25.85 10.07 24.67 10.07 24.67 11.41 25.85 11.41 27.02 11.41"/>
      <polygon class="cls-2" points="32.9 11.41 34.07 11.41 35.25 11.41 36.42 11.41 37.6 11.41 38.77 11.41 39.95 11.41 41.12 11.41 42.3 11.41 43.47 11.41 43.47 10.07 42.3 10.07 41.12 10.07 39.95 10.07 38.77 10.07 37.6 10.07 36.42 10.07 35.25 10.07 34.07 10.07 32.9 10.07 32.9 11.41"/>
      <polygon class="cls-2" points="50.52 10.07 50.52 11.41 51.7 11.41 52.87 11.41 52.87 10.07 51.7 10.07 50.52 10.07"/>
      <polygon class="cls-2" points="59.92 10.07 59.92 11.41 61.1 11.41 62.27 11.41 62.27 10.07 61.1 10.07 59.92 10.07"/>
      <polygon class="cls-2" points="70.5 10.07 69.32 10.07 69.32 11.41 70.5 11.41 71.67 11.41 72.85 11.41 72.85 10.07 71.67 10.07 70.5 10.07"/>
      <polygon class="cls-2" points="5.87 12.59 4.7 12.59 3.52 12.59 3.52 13.93 4.7 13.93 5.87 13.93 5.87 12.59"/>
      <polygon class="cls-2" points="16.45 12.59 15.27 12.59 14.1 12.59 14.1 13.93 15.27 13.93 16.45 13.93 16.45 12.59"/>
      <polygon class="cls-2" points="25.85 12.59 24.67 12.59 23.5 12.59 23.5 13.93 24.67 13.93 25.85 13.93 25.85 12.59"/>
      <polygon class="cls-2" points="32.9 13.93 34.07 13.93 35.25 13.93 35.25 12.59 34.07 12.59 32.9 12.59 32.9 13.93"/>
      <polygon class="cls-2" points="39.95 12.59 38.77 12.59 37.6 12.59 36.42 12.59 36.42 13.93 37.6 13.93 38.77 13.93 39.95 13.93 39.95 12.59"/>
      <polygon class="cls-2" points="43.47 12.59 42.3 12.59 41.12 12.59 41.12 13.93 42.3 13.93 43.47 13.93 43.47 12.59"/>
      <polygon class="cls-2" points="52.87 12.59 51.7 12.59 50.52 12.59 50.52 13.93 51.7 13.93 52.87 13.93 52.87 12.59"/>
      <polygon class="cls-2" points="62.27 12.59 61.1 12.59 59.92 12.59 59.92 13.93 61.1 13.93 62.27 13.93 62.27 12.59"/>
      <polygon class="cls-2" points="72.85 13.93 72.85 12.59 71.67 12.59 70.5 12.59 70.5 13.93 71.67 13.93 72.85 13.93"/>
      <polygon class="cls-2" points="5.87 15.11 4.7 15.11 3.52 15.11 3.52 16.45 4.7 16.45 5.87 16.45 5.87 15.11"/>
      <polygon class="cls-2" points="16.45 15.11 15.27 15.11 14.1 15.11 14.1 16.45 15.27 16.45 16.45 16.45 16.45 15.11"/>
      <polygon class="cls-2" points="25.85 15.11 24.67 15.11 23.5 15.11 23.5 16.45 24.67 16.45 25.85 16.45 25.85 15.11"/>
      <polygon class="cls-2" points="32.9 16.45 34.07 16.45 35.25 16.45 35.25 15.11 34.07 15.11 32.9 15.11 32.9 16.45"/>
      <polygon class="cls-2" points="39.95 15.11 38.77 15.11 37.6 15.11 36.42 15.11 36.42 16.45 37.6 16.45 38.77 16.45 39.95 16.45 39.95 15.11"/>
      <polygon class="cls-2" points="43.47 15.11 42.3 15.11 41.12 15.11 41.12 16.45 42.3 16.45 43.47 16.45 43.47 15.11"/>
      <polygon class="cls-2" points="50.52 15.11 50.52 16.45 51.7 16.45 52.87 16.45 52.87 15.11 51.7 15.11 50.52 15.11"/>
      <rect class="cls-2" x="61.1" y="15.11" width="1.17" height="1.34"/>
      <polygon class="cls-2" points="70.5 16.45 71.67 16.45 72.85 16.45 72.85 15.11 71.67 15.11 70.5 15.11 70.5 16.45"/>
      <polygon class="cls-2" points="5.87 17.62 4.7 17.62 3.52 17.62 3.52 18.97 4.7 18.97 5.87 18.97 5.87 17.62"/>
      <polygon class="cls-2" points="16.45 17.62 15.27 17.62 14.1 17.62 14.1 18.97 15.27 18.97 16.45 18.97 16.45 17.62"/>
      <polygon class="cls-2" points="25.85 17.62 24.67 17.62 23.5 17.62 23.5 18.97 24.67 18.97 25.85 18.97 25.85 17.62"/>
      <polygon class="cls-2" points="32.9 18.97 34.07 18.97 35.25 18.97 35.25 17.62 34.07 17.62 32.9 17.62 32.9 18.97"/>
      <polygon class="cls-2" points="39.95 17.62 38.77 17.62 37.6 17.62 36.42 17.62 36.42 18.97 37.6 18.97 38.77 18.97 39.95 18.97 39.95 17.62"/>
      <polygon class="cls-2" points="43.47 17.62 42.3 17.62 41.12 17.62 41.12 18.97 42.3 18.97 43.47 18.97 43.47 17.62"/>
      <polygon class="cls-2" points="52.87 18.97 52.87 17.62 51.7 17.62 50.52 17.62 50.52 18.97 51.7 18.97 52.87 18.97"/>
      <rect class="cls-2" x="61.1" y="17.62" width="1.17" height="1.34"/>
      <polygon class="cls-2" points="70.5 18.97 71.67 18.97 72.85 18.97 72.85 17.62 71.67 17.62 70.5 17.62 70.5 18.97"/>
      <polygon class="cls-2" points="4.7 21.48 4.7 20.14 3.52 20.14 2.35 20.14 2.35 21.48 3.52 21.48 4.7 21.48"/>
      <polygon class="cls-2" points="15.27 21.48 15.27 20.14 14.1 20.14 12.92 20.14 12.92 21.48 14.1 21.48 15.27 21.48"/>
      <polygon class="cls-2" points="25.85 20.14 24.67 20.14 23.5 20.14 23.5 21.48 24.67 21.48 25.85 21.48 25.85 20.14"/>
      <polygon class="cls-2" points="32.9 21.48 34.07 21.48 35.25 21.48 35.25 20.14 34.07 20.14 32.9 20.14 32.9 21.48"/>
      <polygon class="cls-2" points="37.6 20.14 36.42 20.14 36.42 21.48 37.6 21.48 38.77 21.48 39.95 21.48 39.95 20.14 38.77 20.14 37.6 20.14"/>
      <polygon class="cls-2" points="41.12 20.14 41.12 21.48 42.3 21.48 43.47 21.48 43.47 20.14 42.3 20.14 41.12 20.14"/>
      <rect class="cls-2" x="51.7" y="20.14" width="1.17" height="1.34"/>
      <polygon class="cls-2" points="63.45 21.48 63.45 20.14 62.27 20.14 61.1 20.14 61.1 21.48 62.27 21.48 63.45 21.48"/>
      <polygon class="cls-2" points="74.02 21.48 74.02 20.14 72.85 20.14 71.67 20.14 71.67 21.48 72.85 21.48 74.02 21.48"/>
      <polygon class="cls-2" points="2.35 24 2.35 22.66 1.17 22.66 0 22.66 0 24 1.17 24 2.35 24"/>
      <polygon class="cls-2" points="11.75 22.66 11.75 24 12.92 24 14.1 24 14.1 22.66 12.92 22.66 11.75 22.66"/>
      <polygon class="cls-2" points="24.67 24 24.67 22.66 23.5 22.66 22.32 22.66 22.32 24 23.5 24 24.67 24"/>
      <polygon class="cls-2" points="32.9 24 34.07 24 35.25 24 36.42 24 37.6 24 38.77 24 39.95 24 41.12 24 42.3 24 43.47 24 43.47 22.66 42.3 22.66 41.12 22.66 39.95 22.66 38.77 22.66 37.6 22.66 36.42 22.66 35.25 22.66 34.07 22.66 32.9 22.66 32.9 24"/>
      <polygon class="cls-2" points="54.05 22.66 52.87 22.66 51.7 22.66 51.7 24 52.87 24 54.05 24 54.05 22.66"/>
      <polygon class="cls-2" points="65.8 22.66 64.62 22.66 63.45 22.66 63.45 24 64.62 24 65.8 24 65.8 22.66"/>
      <polygon class="cls-2" points="74.02 22.66 74.02 24 75.2 24 76.37 24 76.37 22.66 75.2 22.66 74.02 22.66"/>
      <polygon class="cls-2" points="3.52 26.52 3.52 25.18 2.35 25.18 1.17 25.18 0 25.18 0 26.52 1.17 26.52 2.35 26.52 3.52 26.52"/>
      <polygon class="cls-2" points="14.1 26.52 14.1 25.18 12.92 25.18 11.75 25.18 11.75 26.52 12.92 26.52 14.1 26.52"/>
      <polygon class="cls-2" points="22.32 26.52 23.5 26.52 24.67 26.52 24.67 25.18 23.5 25.18 22.32 25.18 22.32 26.52"/>
      <polygon class="cls-2" points="32.9 26.52 34.07 26.52 35.25 26.52 36.42 26.52 37.6 26.52 38.77 26.52 39.95 26.52 41.12 26.52 42.3 26.52 43.47 26.52 43.47 25.18 42.3 25.18 41.12 25.18 39.95 25.18 38.77 25.18 37.6 25.18 36.42 25.18 35.25 25.18 34.07 25.18 32.9 25.18 32.9 26.52"/>
      <polygon class="cls-2" points="54.05 26.52 54.05 25.18 52.87 25.18 51.7 25.18 51.7 26.52 52.87 26.52 54.05 26.52"/>
      <polygon class="cls-2" points="64.62 26.52 65.8 26.52 65.8 25.18 64.62 25.18 63.45 25.18 62.27 25.18 62.27 26.52 63.45 26.52 64.62 26.52"/>
      <polygon class="cls-2" points="74.02 25.18 74.02 26.52 75.2 26.52 76.37 26.52 76.37 25.18 75.2 25.18 74.02 25.18"/>
      <polygon class="cls-2" points="2.35 27.7 2.35 29.04 3.52 29.04 4.7 29.04 4.7 27.7 3.52 27.7 2.35 27.7"/>
      <polygon class="cls-2" points="15.27 29.04 15.27 27.7 14.1 27.7 12.92 27.7 12.92 29.04 14.1 29.04 15.27 29.04"/>
      <rect class="cls-2" x="23.5" y="27.7" width="1.17" height="1.34"/>
      <polygon class="cls-2" points="32.9 29.04 34.07 29.04 35.25 29.04 36.42 29.04 37.6 29.04 38.77 29.04 39.95 29.04 41.12 29.04 42.3 29.04 43.47 29.04 43.47 27.7 42.3 27.7 41.12 27.7 39.95 27.7 38.77 27.7 37.6 27.7 36.42 27.7 35.25 27.7 34.07 27.7 32.9 27.7 32.9 29.04"/>
      <polygon class="cls-2" points="54.05 29.04 54.05 27.7 52.87 27.7 51.7 27.7 50.52 27.7 50.52 29.04 51.7 29.04 52.87 29.04 54.05 29.04"/>
      <polygon class="cls-2" points="63.45 27.7 62.27 27.7 61.1 27.7 61.1 29.04 62.27 29.04 63.45 29.04 63.45 27.7"/>
      <polygon class="cls-2" points="71.67 27.7 71.67 29.04 72.85 29.04 74.02 29.04 74.02 27.7 72.85 27.7 71.67 27.7"/>
      <polygon class="cls-2" points="4.7 31.56 4.7 30.21 3.52 30.21 2.35 30.21 2.35 31.56 3.52 31.56 4.7 31.56"/>
      <rect class="cls-2" x="14.1" y="30.21" width="1.17" height="1.34"/>
      <polygon class="cls-2" points="25.85 30.21 24.67 30.21 23.5 30.21 23.5 31.56 24.67 31.56 25.85 31.56 25.85 30.21"/>
      <polygon class="cls-2" points="32.9 31.56 34.07 31.56 35.25 31.56 36.42 31.56 37.6 31.56 38.77 31.56 39.95 31.56 41.12 31.56 42.3 31.56 43.47 31.56 43.47 30.21 42.3 30.21 41.12 30.21 39.95 30.21 38.77 30.21 37.6 30.21 36.42 30.21 35.25 30.21 34.07 30.21 32.9 30.21 32.9 31.56"/>
      <rect class="cls-2" x="51.7" y="30.21" width="1.17" height="1.34"/>
      <polygon class="cls-2" points="63.45 31.56 63.45 30.21 62.27 30.21 61.1 30.21 61.1 31.56 62.27 31.56 63.45 31.56"/>
      <polygon class="cls-2" points="71.67 30.21 71.67 31.56 72.85 31.56 74.02 31.56 74.02 30.21 72.85 30.21 71.67 30.21"/>
      <polygon class="cls-2" points="3.52 32.73 3.52 34.07 4.7 34.07 5.87 34.07 5.87 32.73 4.7 32.73 3.52 32.73"/>
      <polygon class="cls-2" points="16.45 32.73 15.27 32.73 14.1 32.73 14.1 34.07 15.27 34.07 16.45 34.07 16.45 32.73"/>
      <polygon class="cls-2" points="25.85 32.73 24.67 32.73 23.5 32.73 23.5 34.07 24.67 34.07 25.85 34.07 25.85 32.73"/>
      <polygon class="cls-2" points="44.65 32.73 43.47 32.73 42.3 32.73 41.12 32.73 39.95 32.73 38.77 32.73 37.6 32.73 36.42 32.73 35.25 32.73 34.07 32.73 32.9 32.73 31.72 32.73 31.72 34.07 32.9 34.07 34.07 34.07 35.25 34.07 36.42 34.07 37.6 34.07 38.77 34.07 39.95 34.07 41.12 34.07 42.3 34.07 43.47 34.07 44.65 34.07 44.65 32.73"/>
      <polygon class="cls-2" points="52.87 32.73 51.7 32.73 50.52 32.73 50.52 34.07 51.7 34.07 52.87 34.07 52.87 32.73"/>
      <polygon class="cls-2" points="62.27 32.73 61.1 32.73 59.92 32.73 59.92 34.07 61.1 34.07 62.27 34.07 62.27 32.73"/>
      <polygon class="cls-2" points="70.5 32.73 70.5 34.07 71.67 34.07 72.85 34.07 72.85 32.73 71.67 32.73 70.5 32.73"/>
      <polygon class="cls-2" points="5.87 35.25 4.7 35.25 3.52 35.25 3.52 36.59 4.7 36.59 5.87 36.59 5.87 35.25"/>
      <polygon class="cls-2" points="16.45 36.59 16.45 35.25 15.27 35.25 14.1 35.25 14.1 36.59 15.27 36.59 16.45 36.59"/>
      <polygon class="cls-2" points="25.85 36.59 25.85 35.25 24.67 35.25 23.5 35.25 23.5 36.59 24.67 36.59 25.85 36.59"/>
      <polygon class="cls-2" points="44.65 36.59 44.65 35.25 43.47 35.25 42.3 35.25 41.12 35.25 39.95 35.25 38.77 35.25 37.6 35.25 36.42 35.25 35.25 35.25 34.07 35.25 32.9 35.25 32.9 36.59 34.07 36.59 35.25 36.59 36.42 36.59 37.6 36.59 38.77 36.59 39.95 36.59 41.12 36.59 42.3 36.59 43.47 36.59 44.65 36.59"/>
      <polygon class="cls-2" points="52.87 36.59 52.87 35.25 51.7 35.25 50.52 35.25 50.52 36.59 51.7 36.59 52.87 36.59"/>
      <polygon class="cls-2" points="62.27 36.59 62.27 35.25 61.1 35.25 59.92 35.25 59.92 36.59 61.1 36.59 62.27 36.59"/>
      <polygon class="cls-2" points="70.5 35.25 70.5 36.59 71.67 36.59 72.85 36.59 72.85 35.25 71.67 35.25 70.5 35.25"/>
      <rect class="cls-2" x="5.87" y="37.77" width="1.17" height="1.34"/>
      <polygon class="cls-2" points="14.1 39.11 14.1 37.77 12.92 37.77 11.75 37.77 10.57 37.77 9.4 37.77 8.22 37.77 8.22 39.11 9.4 39.11 10.57 39.11 11.75 39.11 12.92 39.11 14.1 39.11"/>
      <polygon class="cls-2" points="22.32 37.77 21.15 37.77 19.97 37.77 18.8 37.77 17.62 37.77 17.62 39.11 18.8 39.11 19.97 39.11 21.15 39.11 22.32 39.11 22.32 37.77"/>
      <polygon class="cls-2" points="29.37 37.77 28.2 37.77 27.02 37.77 27.02 39.11 28.2 39.11 29.37 39.11 29.37 37.77"/>
      <polygon class="cls-2" points="43.47 37.77 42.3 37.77 41.12 37.77 39.95 37.77 38.77 37.77 37.6 37.77 36.42 37.77 35.25 37.77 34.07 37.77 32.9 37.77 32.9 39.11 34.07 39.11 35.25 39.11 36.42 39.11 37.6 39.11 38.77 39.11 39.95 39.11 41.12 39.11 42.3 39.11 43.47 39.11 43.47 37.77"/>
      <polygon class="cls-2" points="50.52 39.11 51.7 39.11 51.7 37.77 50.52 37.77 49.35 37.77 48.17 37.77 47 37.77 47 39.11 48.17 39.11 49.35 39.11 50.52 39.11"/>
      <polygon class="cls-2" points="57.57 39.11 58.75 39.11 58.75 37.77 57.57 37.77 56.4 37.77 55.22 37.77 55.22 39.11 56.4 39.11 57.57 39.11"/>
      <rect class="cls-2" x="59.92" y="37.77" width="1.17" height="1.34"/>
      <polygon class="cls-2" points="68.15 37.77 66.97 37.77 65.8 37.77 64.62 37.77 63.45 37.77 62.27 37.77 62.27 39.11 63.45 39.11 64.62 39.11 65.8 39.11 66.97 39.11 68.15 39.11 69.32 39.11 70.5 39.11 70.5 37.77 69.32 37.77 68.15 37.77"/>
      <polygon class="cls-2" points="15.27 41.63 15.27 40.28 14.1 40.28 12.92 40.28 12.92 41.63 14.1 41.63 15.27 41.63"/>
      <polygon class="cls-2" points="19.97 40.28 19.97 41.63 21.15 41.63 22.32 41.63 22.32 40.28 21.15 40.28 19.97 40.28"/>
      <rect class="cls-2" x="28.2" y="40.28" width="1.17" height="1.34"/>
      <polygon class="cls-2" points="41.12 40.28 39.95 40.28 38.77 40.28 37.6 40.28 36.42 40.28 35.25 40.28 34.07 40.28 32.9 40.28 32.9 41.63 34.07 41.63 35.25 41.63 36.42 41.63 37.6 41.63 38.77 41.63 39.95 41.63 41.12 41.63 42.3 41.63 43.47 41.63 43.47 40.28 42.3 40.28 41.12 40.28"/>
      <polygon class="cls-2" points="47 40.28 47 41.63 48.17 41.63 49.35 41.63 49.35 40.28 48.17 40.28 47 40.28"/>
      <polygon class="cls-2" points="56.4 40.28 55.22 40.28 54.05 40.28 54.05 41.63 55.22 41.63 56.4 41.63 56.4 40.28"/>
      <polygon class="cls-2" points="61.1 40.28 61.1 41.63 62.27 41.63 63.45 41.63 63.45 40.28 62.27 40.28 61.1 40.28"/>
      <polygon class="cls-2" points="17.62 44.14 18.8 44.14 19.97 44.14 21.15 44.14 22.32 44.14 23.5 44.14 24.67 44.14 25.85 44.14 27.02 44.14 28.2 44.14 29.37 44.14 30.55 44.14 31.72 44.14 32.9 44.14 34.07 44.14 35.25 44.14 36.42 44.14 37.6 44.14 38.77 44.14 39.95 44.14 41.12 44.14 42.3 44.14 43.47 44.14 44.65 44.14 45.82 44.14 47 44.14 48.17 44.14 49.35 44.14 50.52 44.14 51.7 44.14 52.87 44.14 54.05 44.14 55.22 44.14 55.22 42.8 54.05 42.8 52.87 42.8 51.7 42.8 50.52 42.8 49.35 42.8 48.17 42.8 47 42.8 45.82 42.8 44.65 42.8 43.47 42.8 42.3 42.8 41.12 42.8 39.95 42.8 38.77 42.8 37.6 42.8 36.42 42.8 35.25 42.8 34.07 42.8 32.9 42.8 31.72 42.8 30.55 42.8 29.37 42.8 28.2 42.8 27.02 42.8 25.85 42.8 24.67 42.8 23.5 42.8 22.32 42.8 21.15 42.8 19.97 42.8 18.8 42.8 17.62 42.8 16.45 42.8 15.27 42.8 14.1 42.8 14.1 44.14 15.27 44.14 16.45 44.14 17.62 44.14"/>
      <polygon class="cls-2" points="61.1 42.8 59.92 42.8 58.75 42.8 57.57 42.8 56.4 42.8 56.4 44.14 57.57 44.14 58.75 44.14 59.92 44.14 61.1 44.14 62.27 44.14 63.45 44.14 63.45 42.8 62.27 42.8 61.1 42.8"/>
      <g>
        <path class="cls-1" d="M8.23,72.98v1.36h-1.37v-1.36h1.37ZM8.23,75.71v1.36h-1.37v-1.36h1.37ZM19.15,78.44v1.36H6.86v-1.36h12.28ZM8.23,81.17v1.36h-1.37v-1.36h1.37ZM8.23,83.9v1.36h-1.37v-1.36h1.37ZM8.23,86.63v1.37h-1.37v-1.37h1.37ZM17.78,70.25v1.36h-9.56v-1.36h9.56ZM19.15,72.98v1.36h-1.36v-1.36h1.36ZM19.15,75.71v1.36h-1.36v-1.36h1.36ZM19.15,81.17v1.36h-1.36v-1.36h1.36ZM19.15,83.9v1.36h-1.36v-1.36h1.36ZM19.15,86.63v1.37h-1.36v-1.37h1.36Z"/>
        <path class="cls-1" d="M24.61,70.25v1.36h-1.36v-1.36h1.36ZM24.61,72.98v1.36h-1.36v-1.36h1.36ZM24.61,75.71v1.36h-1.36v-1.36h1.36ZM24.61,78.44v1.36h-1.36v-1.36h1.36ZM24.61,81.17v1.36h-1.36v-1.36h1.36ZM24.61,83.9v1.36h-1.36v-1.36h1.36ZM35.53,86.63v1.37h-12.28v-1.37h12.28Z"/>
        <path class="cls-1" d="M40.99,70.25v1.36h-1.36v-1.36h1.36ZM40.99,72.98v1.36h-1.36v-1.36h1.36ZM40.99,75.71v1.36h-1.36v-1.36h1.36ZM40.99,78.44v1.36h-1.36v-1.36h1.36ZM40.99,81.17v1.36h-1.36v-1.36h1.36ZM40.99,83.9v1.36h-1.36v-1.36h1.36ZM50.54,86.63v1.37h-9.55v-1.37h9.55ZM51.91,70.25v1.36h-1.37v-1.36h1.37ZM51.91,72.98v1.36h-1.37v-1.36h1.37ZM51.91,75.71v1.36h-1.37v-1.36h1.37ZM51.91,78.44v1.36h-1.37v-1.36h1.37ZM51.91,81.17v1.36h-1.37v-1.36h1.37ZM51.91,83.9v1.36h-1.37v-1.36h1.37Z"/>
        <path class="cls-1" d="M57.37,72.98v1.36h-1.36v-1.36h1.36ZM57.37,75.71v1.36h-1.36v-1.36h1.36ZM68.29,78.44v1.36h-12.28v-1.36h12.28ZM57.37,81.17v1.36h-1.36v-1.36h1.36ZM57.37,83.9v1.36h-1.36v-1.36h1.36ZM57.37,86.63v1.37h-1.36v-1.37h1.36ZM66.92,70.25v1.36h-9.56v-1.36h9.56ZM68.29,72.98v1.36h-1.36v-1.36h1.36ZM68.29,75.71v1.36h-1.36v-1.36h1.36ZM68.29,81.17v1.36h-1.36v-1.36h1.36ZM68.29,83.9v1.36h-1.36v-1.36h1.36ZM68.29,86.63v1.37h-1.36v-1.37h1.36Z"/>
      </g>
    </g>
  </g>
</svg>