<?xml version="1.0" encoding="UTF-8"?>
<svg id="Livello_2" data-name="Livello 2" xmlns="http://www.w3.org/2000/svg" viewBox="0 0 126.3 16.24">
  <g id="Livello_1-2" data-name="Livello 1">
    <g>
      <g>
        <path d="M27.41,15.99V.25h10.93v2.54h-8.12v4.12h7.58v2.5h-7.58v6.59h-2.81Z"/>
        <path d="M41.08,15.99V.25h7.65c.97,0,1.84.22,2.61.66.76.44,1.36,1.05,1.8,1.82.43.77.65,1.66.65,2.66s-.21,1.82-.63,2.59-.99,1.36-1.72,1.78c-.73.42-1.51.63-2.35.63h-1.53l.11-.67,6.54,6.27h-3.6l-5.64-5.53h-1.08v5.53h-2.81ZM48.63,7.89c.43,0,.83-.1,1.2-.31.37-.21.65-.51.85-.9.2-.39.3-.83.3-1.33s-.1-.91-.3-1.29-.49-.68-.85-.89c-.37-.21-.77-.31-1.2-.31h-4.75v5.04h4.75Z"/>
        <path d="M54.68,15.99L60.75.25h4.05l6.07,15.74h-3.04l-4.81-12.79h-.5l-4.81,12.79h-3.04ZM58.42,12.48v-2.54h8.75v2.54h-8.75Z"/>
        <path d="M79.4,16.24c-1.47,0-2.82-.34-4.05-1.03-1.23-.69-2.2-1.65-2.91-2.88-.71-1.23-1.07-2.63-1.07-4.21s.36-2.98,1.08-4.21c.72-1.23,1.69-2.19,2.92-2.88,1.23-.69,2.59-1.03,4.07-1.03,1.24,0,2.38.24,3.41.72,1.03.48,1.89,1.12,2.6,1.93.7.81,1.21,1.7,1.51,2.68h-2.97c-.42-.81-1.03-1.46-1.83-1.95s-1.71-.73-2.71-.73-1.86.22-2.67.67c-.8.45-1.44,1.09-1.91,1.92-.47.83-.71,1.79-.71,2.87s.24,2.04.71,2.87c.47.83,1.11,1.47,1.9,1.92.79.45,1.67.67,2.63.67s1.73-.18,2.44-.55,1.28-.84,1.7-1.43c.42-.59.64-1.2.65-1.84l.07-.74.85.83h-5.26v-2.09h7.22v8.23h-2.16l-.22-1.91h-.13c-.32.38-.72.72-1.23,1.05-.5.32-1.09.59-1.75.8-.67.21-1.39.32-2.17.32Z"/>
        <path d="M90.19,15.99V.25h4.5l4.38,11.63h.5L103.95.25h4.47v15.74h-2.81V4.56h-.49l-4.32,11.42h-2.99l-4.32-11.42h-.5v11.42h-2.81Z"/>
        <path d="M110.11,15.99L116.18.25h4.05l6.07,15.74h-3.04l-4.81-12.79h-.5l-4.81,12.79h-3.04ZM113.84,12.48v-2.54h8.75v2.54h-8.75Z"/>
      </g>
      <g>
        <rect y="10.83" width="5.16" height="5.16"/>
        <polygon points="5.33 10.83 10.33 15.99 15.8 15.99 15.8 10.83 5.33 10.83"/>
        <polygon points="15.8 .19 0 .19 0 5.5 5.16 10.66 5.16 5.35 15.8 5.35 15.8 .19"/>
      </g>
    </g>
  </g>
</svg>