<?xml version="1.0" encoding="UTF-8"?>
<svg id="Livello_2" xmlns="http://www.w3.org/2000/svg" viewBox="0 0 120.92 8.64">
  <g id="Livello_8">
    <g>
      <path d="M37.08,0h-16.82v8.64h5.94v-3.83h5.94v3.83h5.94v-2.98c-.82-.31-1.63-.62-2.45-.93.82-.26,1.63-.52,2.45-.77V.85c0-.47-.58-.85-1.02-.85ZM32.15,3.96h-5.94V.85h5.94v3.11Z"/>
      <polygon points="0 .85 5.94 .85 5.94 8.64 11.89 8.64 11.89 .85 17.83 .85 17.83 0 0 0 0 .85"/>
      <path d="M99.13,0h-15.8c-.44,0-1.02.38-1.02.85v7.79h5.94v-3.05h5.94v3.05h5.94V.85c0-.47-.58-.85-1.02-.85ZM94.2,4.74h-5.94V.85h5.94v3.89Z"/>
      <path d="M114.97,6.15v1.64h-5.94V0h-5.94v8.64h16.82c.4,0,.91-.32,1-.73h.02v-1.76h-5.94Z"/>
      <polygon points="40.93 0 40.93 8.64 46.87 8.64 58.76 8.64 58.76 7.79 46.87 7.79 46.87 4.74 58.76 4.74 58.76 3.89 46.87 3.89 46.87 .85 58.76 .85 58.76 0 46.87 0 40.93 0"/>
      <polygon points="61.54 0 61.54 8.64 67.48 8.64 79.37 8.64 79.37 7.79 67.48 7.79 67.48 4.74 79.37 4.74 79.37 3.89 67.48 3.89 67.48 .85 79.37 .85 79.37 0 67.48 0 61.54 0"/>
    </g>
  </g>
</svg>