<?xml version="1.0" encoding="UTF-8"?>
<svg id="Livello_2" xmlns="http://www.w3.org/2000/svg" viewBox="0 0 110.81 93.16">
  <defs>
    <style>
      .cls-1 {
        stroke: #fff;
        stroke-miterlimit: 10;
        stroke-width: .25px;
      }

      .cls-1, .cls-2 {
        fill: #fff;
      }
    </style>
  </defs>
  <g id="MICROGRAPH">
    <g>
      <polygon class="cls-2" points="56.8 2.52 55.63 2.52 54.45 2.52 54.45 3.86 55.63 3.86 56.8 3.86 56.8 2.52"/>
      <polygon class="cls-2" points="56.8 0 55.63 0 54.45 0 54.45 1.34 55.63 1.34 56.8 1.34 56.8 0"/>
      <polygon class="cls-2" points="54.45 5.04 54.45 6.38 55.63 6.38 56.8 6.38 56.8 5.04 55.63 5.04 54.45 5.04"/>
      <polygon class="cls-2" points="52.1 7.55 52.1 8.9 53.28 8.9 54.45 8.9 55.63 8.9 56.8 8.9 57.98 8.9 59.15 8.9 59.15 7.55 57.98 7.55 56.8 7.55 55.63 7.55 54.45 7.55 53.28 7.55 52.1 7.55"/>
      <polygon class="cls-2" points="49.75 10.07 48.58 10.07 47.4 10.07 46.23 10.07 46.23 11.41 47.4 11.41 48.58 11.41 49.75 11.41 50.93 11.41 52.1 11.41 52.1 10.07 50.93 10.07 49.75 10.07"/>
      <polygon class="cls-2" points="56.8 11.41 56.8 10.07 55.63 10.07 54.45 10.07 54.45 11.41 55.63 11.41 56.8 11.41"/>
      <polygon class="cls-2" points="62.68 10.07 61.5 10.07 60.33 10.07 59.15 10.07 59.15 11.41 60.33 11.41 61.5 11.41 62.68 11.41 63.85 11.41 65.03 11.41 65.03 10.07 63.85 10.07 62.68 10.07"/>
      <polygon class="cls-2" points="45.05 13.93 46.23 13.93 46.23 12.59 45.05 12.59 43.88 12.59 42.7 12.59 42.7 13.93 43.88 13.93 45.05 13.93"/>
      <polygon class="cls-2" points="54.45 13.93 55.63 13.93 56.8 13.93 56.8 12.59 55.63 12.59 54.45 12.59 54.45 13.93"/>
      <polygon class="cls-2" points="67.38 13.93 68.55 13.93 68.55 12.59 67.38 12.59 66.2 12.59 65.03 12.59 65.03 13.93 66.2 13.93 67.38 13.93"/>
      <polygon class="cls-2" points="42.7 16.45 42.7 15.11 41.53 15.11 40.35 15.11 40.35 16.45 41.53 16.45 42.7 16.45"/>
      <polygon class="cls-2" points="54.45 16.45 55.63 16.45 56.8 16.45 56.8 15.11 55.63 15.11 54.45 15.11 54.45 16.45"/>
      <polygon class="cls-2" points="69.73 16.45 70.9 16.45 70.9 15.11 69.73 15.11 68.55 15.11 67.38 15.11 67.38 16.45 68.55 16.45 69.73 16.45"/>
      <polygon class="cls-2" points="41.53 18.97 41.53 17.62 40.35 17.62 39.18 17.62 39.18 18.97 40.35 18.97 41.53 18.97"/>
      <polygon class="cls-2" points="53.28 17.62 52.1 17.62 50.93 17.62 50.93 18.97 52.1 18.97 53.28 18.97 54.45 18.97 55.63 18.97 56.8 18.97 57.98 18.97 59.15 18.97 60.33 18.97 60.33 17.62 59.15 17.62 57.98 17.62 56.8 17.62 55.63 17.62 54.45 17.62 53.28 17.62"/>
      <polygon class="cls-2" points="70.9 17.62 69.73 17.62 69.73 18.97 70.9 18.97 72.08 18.97 73.25 18.97 73.25 17.62 72.08 17.62 70.9 17.62"/>
      <rect class="cls-2" x="38" y="20.14" width="1.17" height="1.34"/>
      <polygon class="cls-2" points="48.58 20.14 47.4 20.14 47.4 21.48 48.58 21.48 49.75 21.48 50.93 21.48 50.93 20.14 49.75 20.14 48.58 20.14"/>
      <polygon class="cls-2" points="60.33 20.14 59.15 20.14 57.98 20.14 56.8 20.14 55.63 20.14 54.45 20.14 54.45 21.48 55.63 21.48 56.8 21.48 57.98 21.48 59.15 21.48 60.33 21.48 61.5 21.48 62.68 21.48 62.68 20.14 61.5 20.14 60.33 20.14"/>
      <polygon class="cls-2" points="72.08 20.14 70.9 20.14 70.9 21.48 72.08 21.48 73.25 21.48 74.43 21.48 74.43 20.14 73.25 20.14 72.08 20.14"/>
      <polygon class="cls-2" points="36.83 22.66 36.83 24 38 24 39.18 24 39.18 22.66 38 22.66 36.83 22.66"/>
      <polygon class="cls-2" points="46.23 24 47.4 24 48.58 24 48.58 22.66 47.4 22.66 46.23 22.66 46.23 24"/>
      <polygon class="cls-2" points="56.8 22.66 55.63 22.66 54.45 22.66 54.45 24 55.63 24 56.8 24 56.8 22.66"/>
      <polygon class="cls-2" points="61.5 22.66 61.5 24 62.68 24 63.85 24 65.03 24 65.03 22.66 63.85 22.66 62.68 22.66 61.5 22.66"/>
      <polygon class="cls-2" points="74.43 24 74.43 22.66 73.25 22.66 72.08 22.66 72.08 24 73.25 24 74.43 24"/>
      <polygon class="cls-2" points="38 26.52 38 25.18 36.83 25.18 35.65 25.18 35.65 26.52 36.83 26.52 38 26.52"/>
      <polygon class="cls-2" points="45.05 25.18 45.05 26.52 46.23 26.52 47.4 26.52 47.4 25.18 46.23 25.18 45.05 25.18"/>
      <polygon class="cls-2" points="54.45 25.18 54.45 26.52 55.63 26.52 56.8 26.52 56.8 25.18 55.63 25.18 54.45 25.18"/>
      <polygon class="cls-2" points="66.2 25.18 65.03 25.18 63.85 25.18 62.68 25.18 62.68 26.52 63.85 26.52 65.03 26.52 66.2 26.52 66.2 25.18"/>
      <polygon class="cls-2" points="72.08 26.52 73.25 26.52 74.43 26.52 75.6 26.52 75.6 25.18 74.43 25.18 73.25 25.18 72.08 25.18 72.08 26.52"/>
      <polygon class="cls-2" points="66.2 27.7 65.03 27.7 63.85 27.7 62.68 27.7 61.5 27.7 60.33 27.7 59.15 27.7 57.98 27.7 56.8 27.7 55.63 27.7 54.45 27.7 53.28 27.7 52.1 27.7 50.93 27.7 49.75 27.7 48.58 27.7 47.4 27.7 46.23 27.7 45.05 27.7 45.05 29.04 46.23 29.04 47.4 29.04 48.58 29.04 49.75 29.04 50.93 29.04 52.1 29.04 53.28 29.04 54.45 29.04 55.63 29.04 56.8 29.04 57.98 29.04 59.15 29.04 60.33 29.04 61.5 29.04 62.68 29.04 63.85 29.04 65.03 29.04 66.2 29.04 66.2 27.7"/>
      <polygon class="cls-2" points="73.25 27.7 67.97 27.7 67.97 29.04 73.25 29.04 74.43 29.04 83.38 29.04 83.38 27.7 74.43 27.7 73.25 27.7"/>
      <polygon class="cls-2" points="36.83 29.04 38 29.04 42.85 29.04 42.85 27.7 38 27.7 36.83 27.7 35.65 27.7 27.44 27.7 27.44 29.04 35.65 29.04 36.83 29.04"/>
      <polygon class="cls-2" points="35.65 30.21 35.65 31.56 36.83 31.56 38 31.56 38 30.21 36.83 30.21 35.65 30.21"/>
      <polygon class="cls-2" points="45.05 30.21 45.05 31.56 46.23 31.56 47.4 31.56 47.4 30.21 46.23 30.21 45.05 30.21"/>
      <polygon class="cls-2" points="54.45 30.21 54.45 31.56 55.63 31.56 56.8 31.56 56.8 30.21 55.63 30.21 54.45 30.21"/>
      <rect class="cls-2" x="63.85" y="30.21" width="1.17" height="1.34"/>
      <polygon class="cls-2" points="72.08 30.21 72.08 31.56 73.25 31.56 74.43 31.56 74.43 30.21 73.25 30.21 72.08 30.21"/>
      <polygon class="cls-2" points="36.83 32.73 36.83 34.07 38 34.07 39.18 34.07 39.18 32.73 38 32.73 36.83 32.73"/>
      <polygon class="cls-2" points="53.28 32.73 52.1 32.73 50.93 32.73 49.75 32.73 48.58 32.73 47.4 32.73 47.4 34.07 48.58 34.07 49.75 34.07 50.93 34.07 52.1 34.07 53.28 34.07 54.45 34.07 55.63 34.07 56.8 34.07 56.8 32.73 55.63 32.73 54.45 32.73 53.28 32.73"/>
      <polygon class="cls-2" points="63.85 34.07 63.85 32.73 62.68 32.73 61.5 32.73 61.5 34.07 62.68 34.07 63.85 34.07"/>
      <polygon class="cls-2" points="72.08 34.07 73.25 34.07 74.43 34.07 74.43 32.73 73.25 32.73 72.08 32.73 72.08 34.07"/>
      <polygon class="cls-2" points="38 35.25 38 36.59 39.18 36.59 40.35 36.59 40.35 35.25 39.18 35.25 38 35.25"/>
      <polygon class="cls-2" points="59.15 35.25 57.98 35.25 56.8 35.25 55.63 35.25 54.45 35.25 53.28 35.25 52.1 35.25 50.93 35.25 49.75 35.25 49.75 36.59 50.93 36.59 52.1 36.59 53.28 36.59 54.45 36.59 55.63 36.59 56.8 36.59 57.98 36.59 59.15 36.59 60.33 36.59 61.5 36.59 61.5 35.25 60.33 35.25 59.15 35.25"/>
      <polygon class="cls-2" points="70.9 35.25 70.9 36.59 72.08 36.59 73.25 36.59 73.25 35.25 72.08 35.25 70.9 35.25"/>
      <polygon class="cls-2" points="39.18 37.77 39.18 39.11 40.35 39.11 41.53 39.11 41.53 37.77 40.35 37.77 39.18 37.77"/>
      <polygon class="cls-2" points="56.8 39.11 56.8 37.77 55.63 37.77 54.45 37.77 54.45 39.11 55.63 39.11 56.8 39.11"/>
      <polygon class="cls-2" points="69.73 37.77 69.73 39.11 70.9 39.11 72.08 39.11 72.08 37.77 70.9 37.77 69.73 37.77"/>
      <polygon class="cls-2" points="41.53 40.28 41.53 41.63 42.7 41.63 43.88 41.63 43.88 40.28 42.7 40.28 41.53 40.28"/>
      <polygon class="cls-2" points="54.45 41.63 55.63 41.63 56.8 41.63 56.8 40.28 55.63 40.28 54.45 40.28 54.45 41.63"/>
      <polygon class="cls-2" points="67.38 40.28 66.2 40.28 66.2 41.63 67.38 41.63 68.55 41.63 69.73 41.63 69.73 40.28 68.55 40.28 67.38 40.28"/>
      <polygon class="cls-2" points="43.88 42.8 43.88 44.14 45.05 44.14 46.23 44.14 47.4 44.14 48.58 44.14 48.58 42.8 47.4 42.8 46.23 42.8 45.05 42.8 43.88 42.8"/>
      <polygon class="cls-2" points="54.45 44.14 55.63 44.14 56.8 44.14 56.8 42.8 55.63 42.8 54.45 42.8 54.45 44.14"/>
      <polygon class="cls-2" points="65.03 42.8 63.85 42.8 62.68 42.8 62.68 44.14 63.85 44.14 65.03 44.14 66.2 44.14 67.38 44.14 67.38 42.8 66.2 42.8 65.03 42.8"/>
      <polygon class="cls-2" points="60.33 45.32 59.15 45.32 57.98 45.32 56.8 45.32 55.63 45.32 54.45 45.32 53.28 45.32 52.1 45.32 50.93 45.32 49.75 45.32 48.58 45.32 48.58 46.66 49.75 46.66 50.93 46.66 52.1 46.66 53.28 46.66 54.45 46.66 55.63 46.66 56.8 46.66 57.98 46.66 59.15 46.66 60.33 46.66 61.5 46.66 62.68 46.66 62.68 45.32 61.5 45.32 60.33 45.32"/>
      <polygon class="cls-2" points="56.8 49.18 56.8 47.84 55.63 47.84 54.45 47.84 54.45 49.18 55.63 49.18 56.8 49.18"/>
      <polygon class="cls-2" points="54.45 51.7 55.63 51.7 56.8 51.7 56.8 50.36 55.63 50.36 54.45 50.36 54.45 51.7"/>
      <polygon class="cls-2" points="54.45 54.22 55.63 54.22 56.8 54.22 56.8 52.87 55.63 52.87 54.45 52.87 54.45 54.22"/>
      <g>
        <path class="cls-1" d="M11.05,75.29v1.36H.12v-1.36h10.92ZM1.49,78.02v1.36H.12v-1.36h1.37ZM1.49,80.75v1.36H.12v-1.36h1.37ZM11.05,83.48v1.37H.12v-1.37h10.92ZM1.49,86.21v1.37H.12v-1.37h1.37ZM1.49,88.94v1.36H.12v-1.36h1.37ZM1.49,91.67v1.36H.12v-1.36h1.37ZM6.95,86.21v1.37h-1.36v-1.37h1.36ZM9.68,88.94v1.36h-1.36v-1.36h1.36ZM12.41,78.02v1.36h-1.36v-1.36h1.36ZM12.41,80.75v1.36h-1.36v-1.36h1.36ZM12.41,91.67v1.36h-1.36v-1.36h1.36Z"/>
        <path class="cls-1" d="M28.79,75.29v1.36h-12.28v-1.36h12.28ZM17.87,78.02v1.36h-1.36v-1.36h1.36ZM17.87,80.75v1.36h-1.36v-1.36h1.36ZM26.06,83.48v1.37h-9.56v-1.37h9.56ZM17.87,86.21v1.37h-1.36v-1.37h1.36ZM17.87,88.94v1.36h-1.36v-1.36h1.36ZM28.79,91.67v1.36h-12.28v-1.36h12.28Z"/>
        <path class="cls-1" d="M34.25,78.02v1.36h-1.36v-1.36h1.36ZM34.25,80.75v1.36h-1.36v-1.36h1.36ZM34.25,83.48v1.37h-1.36v-1.37h1.36ZM34.25,86.21v1.37h-1.36v-1.37h1.36ZM34.25,88.94v1.36h-1.36v-1.36h1.36ZM43.8,75.29v1.36h-9.55v-1.36h9.55ZM43.8,91.67v1.36h-9.55v-1.36h9.55ZM45.17,78.02v1.36h-1.37v-1.36h1.37ZM45.17,88.94v1.36h-1.37v-1.36h1.37Z"/>
        <path class="cls-1" d="M50.63,75.29v1.36h-1.36v-1.36h1.36ZM50.63,78.02v1.36h-1.36v-1.36h1.36ZM50.63,80.75v1.36h-1.36v-1.36h1.36ZM50.63,83.48v1.37h-1.36v-1.37h1.36ZM50.63,86.21v1.37h-1.36v-1.37h1.36ZM50.63,88.94v1.36h-1.36v-1.36h1.36ZM61.55,91.67v1.36h-12.28v-1.36h12.28Z"/>
        <path class="cls-1" d="M67.01,78.02v1.36h-1.36v-1.36h1.36ZM67.01,80.75v1.36h-1.36v-1.36h1.36ZM77.93,83.48v1.37h-12.28v-1.37h12.28ZM67.01,86.21v1.37h-1.36v-1.37h1.36ZM67.01,88.94v1.36h-1.36v-1.36h1.36ZM67.01,91.67v1.36h-1.36v-1.36h1.36ZM76.56,75.29v1.36h-9.56v-1.36h9.56ZM77.93,78.02v1.36h-1.36v-1.36h1.36ZM77.93,80.75v1.36h-1.36v-1.36h1.36ZM77.93,86.21v1.37h-1.36v-1.37h1.36ZM77.93,88.94v1.36h-1.36v-1.36h1.36ZM77.93,91.67v1.36h-1.36v-1.36h1.36Z"/>
        <path class="cls-1" d="M94.31,75.29v1.36h-12.28v-1.36h12.28ZM94.31,91.67v1.36h-12.28v-1.36h12.28ZM88.85,78.02v1.36h-1.36v-1.36h1.36ZM88.85,80.75v1.36h-1.36v-1.36h1.36ZM88.85,83.48v1.37h-1.36v-1.37h1.36ZM88.85,86.21v1.37h-1.36v-1.37h1.36ZM88.85,88.94v1.36h-1.36v-1.36h1.36Z"/>
        <path class="cls-1" d="M99.77,75.29v1.36h-1.36v-1.36h1.36ZM99.77,78.02v1.36h-1.36v-1.36h1.36ZM99.77,80.75v1.36h-1.36v-1.36h1.36ZM99.77,83.48v1.37h-1.36v-1.37h1.36ZM99.77,86.21v1.37h-1.36v-1.37h1.36ZM99.77,88.94v1.36h-1.36v-1.36h1.36ZM99.77,91.67v1.36h-1.36v-1.36h1.36ZM102.5,78.02v1.36h-1.36v-1.36h1.36ZM103.86,80.75v1.36h-1.36v-1.36h1.36ZM105.23,83.48v1.37h-1.36v-1.37h1.36ZM106.59,80.75v1.36h-1.36v-1.36h1.36ZM107.96,78.02v1.36h-1.36v-1.36h1.36ZM110.69,75.29v1.36h-1.36v-1.36h1.36ZM110.69,78.02v1.36h-1.36v-1.36h1.36ZM110.69,80.75v1.36h-1.36v-1.36h1.36ZM110.69,83.48v1.37h-1.36v-1.37h1.36ZM110.69,86.21v1.37h-1.36v-1.37h1.36ZM110.69,88.94v1.36h-1.36v-1.36h1.36ZM110.69,91.67v1.36h-1.36v-1.36h1.36Z"/>
      </g>
    </g>
  </g>
</svg>