<?xml version="1.0" encoding="UTF-8"?>
<svg id="Livello_2" data-name="Livello 2" xmlns="http://www.w3.org/2000/svg" viewBox="0 0 44.65 44.14">
  <defs>
    <style>
      .cls-1 {
        fill: #fff;
      }
    </style>
  </defs>
  <g id="Livello_1-2" data-name="Livello 1">
    <g>
      <rect class="cls-1" x="17.62" y="0" width="4.7" height="1.34"/>
      <polygon class="cls-1" points="14.1 2.52 12.92 2.52 11.75 2.52 11.75 3.86 12.92 3.86 14.1 3.86 15.27 3.86 16.45 3.86 16.45 2.52 15.27 2.52 14.1 2.52"/>
      <polygon class="cls-1" points="9.4 5.04 8.22 5.04 8.22 6.38 9.4 6.38 10.57 6.38 11.75 6.38 11.75 5.04 10.57 5.04 9.4 5.04"/>
      <polygon class="cls-1" points="8.22 7.55 7.05 7.55 5.87 7.55 5.87 8.9 7.05 8.9 8.22 8.9 8.22 7.55"/>
      <polygon class="cls-1" points="16.45 7.55 16.45 8.9 17.62 8.9 18.8 8.9 19.97 8.9 21.15 8.9 22.32 8.9 23.5 8.9 24.67 8.9 25.85 8.9 27.02 8.9 28.2 8.9 28.2 7.55 27.02 7.55 25.85 7.55 24.67 7.55 23.5 7.55 22.32 7.55 21.15 7.55 19.97 7.55 18.8 7.55 17.62 7.55 16.45 7.55"/>
      <polygon class="cls-1" points="5.87 11.41 7.05 11.41 7.05 10.07 5.87 10.07 4.7 10.07 3.52 10.07 3.52 11.41 4.7 11.41 5.87 11.41"/>
      <polygon class="cls-1" points="14.1 11.41 15.27 11.41 15.27 10.07 14.1 10.07 12.92 10.07 11.75 10.07 11.75 11.41 12.92 11.41 14.1 11.41"/>
      <polygon class="cls-1" points="31.72 11.41 32.9 11.41 32.9 10.07 31.72 10.07 30.55 10.07 29.37 10.07 29.37 11.41 30.55 11.41 31.72 11.41"/>
      <polygon class="cls-1" points="4.7 13.93 4.7 12.59 3.52 12.59 2.35 12.59 2.35 13.93 3.52 13.93 4.7 13.93"/>
      <polygon class="cls-1" points="11.75 13.93 12.92 13.93 12.92 12.59 11.75 12.59 10.57 12.59 9.4 12.59 9.4 13.93 10.57 13.93 11.75 13.93"/>
      <polygon class="cls-1" points="34.07 13.93 35.25 13.93 35.25 12.59 34.07 12.59 32.9 12.59 31.72 12.59 31.72 13.93 32.9 13.93 34.07 13.93"/>
      <polygon class="cls-1" points="3.52 16.45 3.52 15.11 2.35 15.11 1.17 15.11 1.17 16.45 2.35 16.45 3.52 16.45"/>
      <polygon class="cls-1" points="10.57 16.45 10.57 15.11 9.4 15.11 8.22 15.11 8.22 16.45 9.4 16.45 10.57 16.45"/>
      <polygon class="cls-1" points="34.07 15.11 34.07 16.45 35.25 16.45 36.42 16.45 36.42 15.11 35.25 15.11 34.07 15.11"/>
      <polygon class="cls-1" points="2.35 17.62 1.17 17.62 0 17.62 0 18.97 1.17 18.97 2.35 18.97 2.35 17.62"/>
      <polygon class="cls-1" points="9.4 17.62 8.22 17.62 7.05 17.62 7.05 18.97 8.22 18.97 9.4 18.97 9.4 17.62"/>
      <polygon class="cls-1" points="2.35 20.14 1.17 20.14 0 20.14 0 21.48 1.17 21.48 2.35 21.48 2.35 20.14"/>
      <polygon class="cls-1" points="9.4 20.14 8.22 20.14 7.05 20.14 7.05 21.48 8.22 21.48 9.4 21.48 9.4 20.14"/>
      <polygon class="cls-1" points="0 22.66 0 24 1.17 24 2.35 24 2.35 22.66 1.17 22.66 0 22.66"/>
      <polygon class="cls-1" points="7.05 22.66 7.05 24 8.22 24 9.4 24 9.4 22.66 8.22 22.66 7.05 22.66"/>
      <polygon class="cls-1" points="1.57 26.52 2.35 26.52 2.35 25.18 1.57 25.18 .78 25.18 0 25.18 0 26.52 .78 26.52 1.57 26.52"/>
      <polygon class="cls-1" points="9.4 26.52 9.4 25.18 8.22 25.18 7.05 25.18 7.05 26.52 8.22 26.52 9.4 26.52"/>
      <polygon class="cls-1" points="38.19 17.62 37.01 17.62 35.84 17.62 35.84 18.97 37.01 18.97 38.19 18.97 38.19 17.62"/>
      <polygon class="cls-1" points="38.19 20.14 37.01 20.14 35.84 20.14 35.84 21.48 37.01 21.48 38.19 21.48 38.19 20.14"/>
      <polygon class="cls-1" points="35.84 22.66 35.84 24 37.01 24 38.19 24 38.19 22.66 37.01 22.66 35.84 22.66"/>
      <polygon class="cls-1" points="38.19 26.52 38.19 25.18 37.01 25.18 35.84 25.18 35.84 26.52 37.01 26.52 38.19 26.52"/>
      <polygon class="cls-1" points="3.52 29.04 3.52 27.7 2.35 27.7 1.17 27.7 1.17 29.04 2.35 29.04 3.52 29.04"/>
      <polygon class="cls-1" points="10.57 29.04 10.57 27.7 9.4 27.7 8.22 27.7 8.22 29.04 9.4 29.04 10.57 29.04"/>
      <polygon class="cls-1" points="36.42 29.04 36.42 27.7 35.25 27.7 34.07 27.7 34.07 29.04 35.25 29.04 36.42 29.04"/>
      <polygon class="cls-1" points="4.7 31.56 4.7 30.21 3.52 30.21 2.35 30.21 2.35 31.56 3.52 31.56 4.7 31.56"/>
      <polygon class="cls-1" points="11.75 31.56 11.75 30.21 10.57 30.21 9.4 30.21 9.4 31.56 10.57 31.56 11.75 31.56"/>
      <polygon class="cls-1" points="35.25 31.56 35.25 30.21 34.07 30.21 32.9 30.21 32.9 31.56 34.07 31.56 35.25 31.56"/>
      <polygon class="cls-1" points="5.87 34.07 5.87 32.73 4.7 32.73 3.52 32.73 3.52 34.07 4.7 34.07 5.87 34.07"/>
      <polygon class="cls-1" points="14.1 34.07 15.27 34.07 15.27 32.73 14.1 32.73 12.92 32.73 11.75 32.73 11.75 34.07 12.92 34.07 14.1 34.07"/>
      <polygon class="cls-1" points="31.72 34.07 32.9 34.07 34.07 34.07 34.07 32.73 32.9 32.73 31.72 32.73 30.55 32.73 29.37 32.73 29.37 34.07 30.55 34.07 31.72 34.07"/>
      <polygon class="cls-1" points="8.22 36.59 8.22 35.25 7.05 35.25 5.87 35.25 4.7 35.25 4.7 36.59 5.87 36.59 7.05 36.59 8.22 36.59"/>
      <polygon class="cls-1" points="18.8 36.59 19.97 36.59 21.15 36.59 22.32 36.59 23.5 36.59 24.67 36.59 25.85 36.59 27.02 36.59 28.2 36.59 29.37 36.59 30.55 36.59 30.55 35.25 29.37 35.25 28.2 35.25 27.02 35.25 25.85 35.25 24.67 35.25 23.5 35.25 22.32 35.25 21.15 35.25 19.97 35.25 18.8 35.25 17.62 35.25 16.45 35.25 15.27 35.25 14.1 35.25 14.1 36.59 15.27 36.59 16.45 36.59 17.62 36.59 18.8 36.59"/>
      <polygon class="cls-1" points="10.57 37.77 9.4 37.77 8.22 37.77 7.05 37.77 7.05 39.11 8.22 39.11 9.4 39.11 10.57 39.11 10.57 37.77"/>
      <polygon class="cls-1" points="14.1 40.28 12.92 40.28 11.75 40.28 10.57 40.28 10.57 41.63 11.75 41.63 12.92 41.63 14.1 41.63 15.27 41.63 16.45 41.63 16.45 40.28 15.27 40.28 14.1 40.28"/>
      <polygon class="cls-1" points="21.15 42.8 20.56 42.8 19.97 42.8 19.39 42.8 18.8 42.8 18.21 42.8 17.62 42.8 17.04 42.8 16.45 42.8 16.45 44.14 17.04 44.14 17.62 44.14 18.21 44.14 18.8 44.14 19.39 44.14 19.97 44.14 20.56 44.14 21.15 44.14 21.74 44.14 22.32 44.14 22.32 42.8 21.74 42.8 21.15 42.8"/>
      <g>
        <rect class="cls-1" x="22.32" y="0" width="4.7" height="1.34"/>
        <polygon class="cls-1" points="30.55 2.52 31.72 2.52 32.9 2.52 32.9 3.86 31.72 3.86 30.55 3.86 29.37 3.86 28.2 3.86 28.2 2.52 29.37 2.52 30.55 2.52"/>
        <polygon class="cls-1" points="35.25 5.04 36.42 5.04 36.42 6.38 35.25 6.38 34.07 6.38 32.9 6.38 32.9 5.04 34.07 5.04 35.25 5.04"/>
        <polygon class="cls-1" points="36.42 7.55 37.6 7.55 38.77 7.55 38.77 8.9 37.6 8.9 36.42 8.9 36.42 7.55"/>
        <polygon class="cls-1" points="38.77 11.41 37.6 11.41 37.6 10.07 38.77 10.07 39.95 10.07 41.12 10.07 41.12 11.41 39.95 11.41 38.77 11.41"/>
        <polygon class="cls-1" points="39.95 13.93 39.95 12.59 41.12 12.59 42.3 12.59 42.3 13.93 41.12 13.93 39.95 13.93"/>
        <polygon class="cls-1" points="41.12 16.45 41.12 15.11 42.3 15.11 43.47 15.11 43.47 16.45 42.3 16.45 41.12 16.45"/>
        <polygon class="cls-1" points="42.3 17.62 43.47 17.62 44.65 17.62 44.65 18.97 43.47 18.97 42.3 18.97 42.3 17.62"/>
        <polygon class="cls-1" points="42.3 20.14 43.47 20.14 44.65 20.14 44.65 21.48 43.47 21.48 42.3 21.48 42.3 20.14"/>
        <polygon class="cls-1" points="44.65 22.66 44.65 24 43.47 24 42.3 24 42.3 22.66 43.47 22.66 44.65 22.66"/>
        <polygon class="cls-1" points="43.08 26.52 42.3 26.52 42.3 25.18 43.08 25.18 43.86 25.18 44.65 25.18 44.65 26.52 43.86 26.52 43.08 26.52"/>
        <polygon class="cls-1" points="41.12 29.04 41.12 27.7 42.3 27.7 43.47 27.7 43.47 29.04 42.3 29.04 41.12 29.04"/>
        <polygon class="cls-1" points="39.95 31.56 39.95 30.21 41.12 30.21 42.3 30.21 42.3 31.56 41.12 31.56 39.95 31.56"/>
        <polygon class="cls-1" points="38.77 34.07 38.77 32.73 39.95 32.73 41.12 32.73 41.12 34.07 39.95 34.07 38.77 34.07"/>
        <polygon class="cls-1" points="36.42 36.59 36.42 35.25 37.6 35.25 38.77 35.25 39.95 35.25 39.95 36.59 38.77 36.59 37.6 36.59 36.42 36.59"/>
        <polygon class="cls-1" points="34.07 37.77 35.25 37.77 36.42 37.77 37.6 37.77 37.6 39.11 36.42 39.11 35.25 39.11 34.07 39.11 34.07 37.77"/>
        <polygon class="cls-1" points="30.55 40.28 31.72 40.28 32.9 40.28 34.07 40.28 34.07 41.63 32.9 41.63 31.72 41.63 30.55 41.63 29.37 41.63 28.2 41.63 28.2 40.28 29.37 40.28 30.55 40.28"/>
        <polygon class="cls-1" points="23.5 42.8 24.09 42.8 24.67 42.8 25.26 42.8 25.85 42.8 26.44 42.8 27.02 42.8 27.61 42.8 28.2 42.8 28.2 44.14 27.61 44.14 27.02 44.14 26.44 44.14 25.85 44.14 25.26 44.14 24.67 44.14 24.09 44.14 23.5 44.14 22.91 44.14 22.32 44.14 22.32 42.8 22.91 42.8 23.5 42.8"/>
      </g>
      <g>
        <polygon class="cls-1" points="18.93 13.4 18.46 13.4 18 13.4 18 14.28 18.46 14.28 18.93 14.28 19.4 14.28 19.87 14.28 20.34 14.28 20.8 14.28 21.27 14.28 21.74 14.28 22.21 14.28 22.68 14.28 23.15 14.28 23.61 14.28 24.08 14.28 24.55 14.28 25.02 14.28 25.49 14.28 25.95 14.28 26.42 14.28 26.89 14.28 26.89 13.4 26.42 13.4 25.95 13.4 25.49 13.4 25.02 13.4 24.55 13.4 24.08 13.4 23.61 13.4 23.15 13.4 22.68 13.4 22.21 13.4 21.74 13.4 21.27 13.4 20.8 13.4 20.34 13.4 19.87 13.4 19.4 13.4 18.93 13.4"/>
        <polygon class="cls-1" points="16.4 15.67 16.92 15.67 17.45 15.67 17.98 15.67 18.5 15.67 19.03 15.67 19.56 15.67 20.08 15.67 20.61 15.67 21.14 15.67 21.66 15.67 22.19 15.67 22.72 15.67 23.25 15.67 23.77 15.67 24.3 15.67 24.83 15.67 25.35 15.67 25.88 15.67 26.41 15.67 26.93 15.67 27.46 15.67 27.99 15.67 28.51 15.67 28.51 14.8 27.99 14.8 27.46 14.8 26.93 14.8 26.41 14.8 25.88 14.8 25.35 14.8 24.83 14.8 24.3 14.8 23.77 14.8 23.25 14.8 22.72 14.8 22.19 14.8 21.66 14.8 21.14 14.8 20.61 14.8 20.08 14.8 19.56 14.8 19.03 14.8 18.5 14.8 17.98 14.8 17.45 14.8 16.92 14.8 16.4 14.8 16.4 15.67"/>
        <polygon class="cls-1" points="29.61 16.2 29.02 16.2 28.43 16.2 27.84 16.2 27.25 16.2 26.66 16.2 26.07 16.2 25.48 16.2 24.89 16.2 24.3 16.2 23.71 16.2 23.12 16.2 22.53 16.2 21.94 16.2 21.35 16.2 20.75 16.2 20.16 16.2 19.57 16.2 18.98 16.2 18.39 16.2 17.8 16.2 17.21 16.2 16.62 16.2 16.03 16.2 15.44 16.2 15.44 17.07 16.03 17.07 16.62 17.07 17.21 17.07 17.8 17.07 18.39 17.07 18.98 17.07 19.57 17.07 20.16 17.07 20.75 17.07 21.35 17.07 21.94 17.07 22.53 17.07 23.12 17.07 23.71 17.07 24.3 17.07 24.89 17.07 25.48 17.07 26.07 17.07 26.66 17.07 27.25 17.07 27.84 17.07 28.43 17.07 29.02 17.07 29.61 17.07 29.61 16.2"/>
        <polygon class="cls-1" points="29.61 17.6 29.03 17.6 28.46 17.6 27.89 17.6 27.31 17.6 26.74 17.6 26.17 17.6 25.59 17.6 25.02 17.6 24.45 17.6 23.87 17.6 23.3 17.6 22.72 17.6 22.15 17.6 21.58 17.6 21 17.6 20.43 17.6 19.86 17.6 19.28 17.6 18.71 17.6 18.13 17.6 17.56 17.6 16.99 17.6 16.41 17.6 15.84 17.6 15.27 17.6 15.27 18.47 15.84 18.47 16.41 18.47 16.99 18.47 17.56 18.47 18.13 18.47 18.71 18.47 19.28 18.47 19.86 18.47 20.43 18.47 21 18.47 21.58 18.47 22.15 18.47 22.72 18.47 23.3 18.47 23.87 18.47 24.45 18.47 25.02 18.47 25.59 18.47 26.17 18.47 26.74 18.47 27.31 18.47 27.89 18.47 28.46 18.47 29.03 18.47 29.61 18.47 29.61 17.6"/>
        <polygon class="cls-1" points="29.61 18.99 29.03 18.99 28.46 18.99 27.89 18.99 27.31 18.99 26.74 18.99 26.17 18.99 25.59 18.99 25.02 18.99 24.45 18.99 23.87 18.99 23.3 18.99 22.72 18.99 22.15 18.99 21.58 18.99 21 18.99 20.43 18.99 19.86 18.99 19.28 18.99 18.71 18.99 18.13 18.99 17.56 18.99 16.99 18.99 16.41 18.99 15.84 18.99 15.27 18.99 15.27 19.87 15.84 19.87 16.41 19.87 16.99 19.87 17.56 19.87 18.13 19.87 18.71 19.87 19.28 19.87 19.86 19.87 20.43 19.87 21 19.87 21.58 19.87 22.15 19.87 22.72 19.87 23.3 19.87 23.87 19.87 24.45 19.87 25.02 19.87 25.59 19.87 26.17 19.87 26.74 19.87 27.31 19.87 27.89 19.87 28.46 19.87 29.03 19.87 29.61 19.87 29.61 18.99"/>
        <polygon class="cls-1" points="15.5 21.26 16.09 21.26 16.68 21.26 17.27 21.26 17.85 21.26 18.44 21.26 19.03 21.26 19.62 21.26 20.21 21.26 20.79 21.26 21.38 21.26 21.97 21.26 22.56 21.26 23.14 21.26 23.73 21.26 24.32 21.26 24.91 21.26 25.49 21.26 26.08 21.26 26.67 21.26 27.26 21.26 27.85 21.26 28.43 21.26 29.02 21.26 29.61 21.26 29.61 20.39 29.02 20.39 28.43 20.39 27.85 20.39 27.26 20.39 26.67 20.39 26.08 20.39 25.49 20.39 24.91 20.39 24.32 20.39 23.73 20.39 23.14 20.39 22.56 20.39 21.97 20.39 21.38 20.39 20.79 20.39 20.21 20.39 19.62 20.39 19.03 20.39 18.44 20.39 17.85 20.39 17.27 20.39 16.68 20.39 16.09 20.39 15.5 20.39 14.92 20.39 14.33 20.39 14.33 21.26 14.92 21.26 15.5 21.26"/>
        <polygon class="cls-1" points="29 22.66 29 21.79 28.39 21.79 27.78 21.79 27.16 21.79 26.55 21.79 25.94 21.79 25.33 21.79 24.72 21.79 24.11 21.79 23.5 21.79 22.89 21.79 22.27 21.79 21.66 21.79 21.05 21.79 20.44 21.79 19.83 21.79 19.22 21.79 18.61 21.79 18 21.79 17.38 21.79 16.77 21.79 16.16 21.79 15.55 21.79 14.94 21.79 14.33 21.79 13.72 21.79 13.11 21.79 13.11 22.66 13.72 22.66 14.33 22.66 14.94 22.66 15.55 22.66 16.16 22.66 16.77 22.66 17.38 22.66 18 22.66 18.61 22.66 19.22 22.66 19.83 22.66 20.44 22.66 21.05 22.66 21.66 22.66 22.27 22.66 22.89 22.66 23.5 22.66 24.11 22.66 24.72 22.66 25.33 22.66 25.94 22.66 26.55 22.66 27.16 22.66 27.78 22.66 28.39 22.66 29 22.66"/>
        <polygon class="cls-1" points="28.39 23.18 27.79 23.18 27.2 23.18 26.61 23.18 26.02 23.18 25.43 23.18 24.83 23.18 24.24 23.18 23.65 23.18 23.06 23.18 22.47 23.18 21.87 23.18 21.28 23.18 20.69 23.18 20.1 23.18 19.51 23.18 18.91 23.18 18.32 23.18 17.73 23.18 17.14 23.18 16.55 23.18 15.95 23.18 15.36 23.18 14.77 23.18 14.18 23.18 14.18 24.06 14.77 24.06 15.36 24.06 15.95 24.06 16.55 24.06 17.14 24.06 17.73 24.06 18.32 24.06 18.91 24.06 19.51 24.06 20.1 24.06 20.69 24.06 21.28 24.06 21.87 24.06 22.47 24.06 23.06 24.06 23.65 24.06 24.24 24.06 24.83 24.06 25.43 24.06 26.02 24.06 26.61 24.06 27.2 24.06 27.79 24.06 28.39 24.06 28.39 23.18"/>
        <polygon class="cls-1" points="15.78 25.45 16.38 25.45 16.98 25.45 17.58 25.45 18.18 25.45 18.78 25.45 19.38 25.45 19.98 25.45 20.58 25.45 21.18 25.45 21.78 25.45 22.38 25.45 22.98 25.45 23.58 25.45 24.18 25.45 24.78 25.45 25.38 25.45 25.98 25.45 26.58 25.45 27.18 25.45 27.78 25.45 27.78 24.58 27.18 24.58 26.58 24.58 25.98 24.58 25.38 24.58 24.78 24.58 24.18 24.58 23.58 24.58 22.98 24.58 22.38 24.58 21.78 24.58 21.18 24.58 20.58 24.58 19.98 24.58 19.38 24.58 18.78 24.58 18.18 24.58 17.58 24.58 16.98 24.58 16.38 24.58 15.78 24.58 15.18 24.58 14.58 24.58 14.58 25.45 15.18 25.45 15.78 25.45"/>
        <polygon class="cls-1" points="14.93 26.85 15.52 26.85 16.1 26.85 16.68 26.85 17.27 26.85 17.85 26.85 18.43 26.85 19.02 26.85 19.6 26.85 20.19 26.85 20.77 26.85 21.35 26.85 21.94 26.85 22.52 26.85 23.1 26.85 23.69 26.85 24.27 26.85 24.86 26.85 25.44 26.85 26.02 26.85 26.61 26.85 27.19 26.85 27.78 26.85 27.78 25.98 27.19 25.98 26.61 25.98 26.02 25.98 25.44 25.98 24.86 25.98 24.27 25.98 23.69 25.98 23.1 25.98 22.52 25.98 21.94 25.98 21.35 25.98 20.77 25.98 20.19 25.98 19.6 25.98 19.02 25.98 18.43 25.98 17.85 25.98 17.27 25.98 16.68 25.98 16.1 25.98 15.52 25.98 14.93 25.98 14.93 26.85"/>
        <polygon class="cls-1" points="16.68 28.25 17.27 28.25 17.85 28.25 18.43 28.25 19.02 28.25 19.6 28.25 20.19 28.25 20.77 28.25 21.35 28.25 21.94 28.25 22.52 28.25 23.1 28.25 23.69 28.25 24.27 28.25 24.86 28.25 25.44 28.25 26.02 28.25 26.61 28.25 27.19 28.25 27.78 28.25 27.78 27.37 27.19 27.37 26.61 27.37 26.02 27.37 25.44 27.37 24.86 27.37 24.27 27.37 23.69 27.37 23.1 27.37 22.52 27.37 21.94 27.37 21.35 27.37 20.77 27.37 20.19 27.37 19.6 27.37 19.02 27.37 18.43 27.37 17.85 27.37 17.27 27.37 16.68 27.37 16.1 27.37 15.52 27.37 14.93 27.37 14.93 28.25 15.52 28.25 16.1 28.25 16.68 28.25"/>
        <polygon class="cls-1" points="19.22 29.65 19.83 29.65 20.44 29.65 21.05 29.65 21.66 29.65 22.27 29.65 22.89 29.65 23.5 29.65 24.11 29.65 24.72 29.65 25.33 29.65 25.94 29.65 26.55 29.65 27.16 29.65 27.78 29.65 27.78 28.77 27.16 28.77 26.55 28.77 25.94 28.77 25.33 28.77 24.72 28.77 24.11 28.77 23.5 28.77 22.89 28.77 22.27 28.77 21.66 28.77 21.05 28.77 20.44 28.77 19.83 28.77 19.22 28.77 18.61 28.77 18 28.77 18 29.65 18.61 29.65 19.22 29.65"/>
        <polygon class="cls-1" points="28.17 30.17 27.64 30.17 27.11 30.17 26.59 30.17 26.06 30.17 25.53 30.17 25.01 30.17 24.48 30.17 23.95 30.17 23.43 30.17 22.9 30.17 22.38 30.17 21.85 30.17 21.32 30.17 20.8 30.17 20.27 30.17 20.27 31.04 20.8 31.04 21.32 31.04 21.85 31.04 22.38 31.04 22.9 31.04 23.43 31.04 23.95 31.04 24.48 31.04 25.01 31.04 25.53 31.04 26.06 31.04 26.59 31.04 27.11 31.04 27.64 31.04 28.17 31.04 28.17 30.17"/>
      </g>
    </g>
  </g>
</svg>