<?xml version="1.0" encoding="UTF-8"?>
<svg id="Livello_2" xmlns="http://www.w3.org/2000/svg" viewBox="0 0 78.05 89.04">
  <defs>
    <style>
      .cls-1 {
        stroke: #fff;
        stroke-miterlimit: 10;
        stroke-width: .25px;
      }

      .cls-1, .cls-2 {
        fill: #fff;
      }
    </style>
  </defs>
  <g id="MICROGRAPH">
    <g>
      <polygon class="cls-2" points="41.38 0 40.2 0 39.03 0 37.85 0 36.68 0 35.5 0 34.33 0 34.33 1.34 35.5 1.34 36.68 1.34 37.85 1.34 39.03 1.34 40.2 1.34 41.38 1.34 42.55 1.34 43.73 1.34 44.9 1.34 44.9 0 43.73 0 42.55 0 41.38 0"/>
      <polygon class="cls-2" points="33.15 2.52 31.98 2.52 30.8 2.52 29.63 2.52 29.63 3.86 30.8 3.86 31.98 3.86 33.15 3.86 34.33 3.86 35.5 3.86 36.68 3.86 37.85 3.86 39.03 3.86 40.2 3.86 41.38 3.86 42.55 3.86 43.73 3.86 44.9 3.86 46.08 3.86 47.25 3.86 48.43 3.86 48.43 2.52 47.25 2.52 46.08 2.52 44.9 2.52 43.73 2.52 42.55 2.52 41.38 2.52 40.2 2.52 39.03 2.52 37.85 2.52 36.68 2.52 35.5 2.52 34.33 2.52 33.15 2.52"/>
      <polygon class="cls-2" points="27.28 5.04 27.28 6.38 28.45 6.38 29.63 6.38 30.8 6.38 31.98 6.38 33.15 6.38 34.33 6.38 35.5 6.38 36.68 6.38 37.85 6.38 39.03 6.38 40.2 6.38 41.38 6.38 42.55 6.38 43.73 6.38 44.9 6.38 46.08 6.38 47.25 6.38 48.43 6.38 49.6 6.38 50.78 6.38 51.95 6.38 51.95 5.04 50.78 5.04 49.6 5.04 48.43 5.04 47.25 5.04 46.08 5.04 44.9 5.04 43.73 5.04 42.55 5.04 41.38 5.04 40.2 5.04 39.03 5.04 37.85 5.04 36.68 5.04 35.5 5.04 34.33 5.04 33.15 5.04 31.98 5.04 30.8 5.04 29.63 5.04 28.45 5.04 27.28 5.04"/>
      <polygon class="cls-2" points="27.28 8.9 28.45 8.9 29.63 8.9 30.8 8.9 31.98 8.9 33.15 8.9 34.33 8.9 35.5 8.9 36.68 8.9 37.85 8.9 39.03 8.9 40.2 8.9 41.38 8.9 42.55 8.9 43.73 8.9 44.9 8.9 46.08 8.9 47.25 8.9 48.43 8.9 48.43 7.55 47.25 7.55 46.08 7.55 44.9 7.55 43.73 7.55 42.55 7.55 41.38 7.55 40.2 7.55 39.03 7.55 37.85 7.55 36.68 7.55 35.5 7.55 34.33 7.55 33.15 7.55 31.98 7.55 30.8 7.55 29.63 7.55 28.45 7.55 27.28 7.55 27.28 8.9"/>
      <polygon class="cls-2" points="51.95 7.55 50.78 7.55 49.6 7.55 49.6 8.9 50.78 8.9 51.95 8.9 51.95 7.55"/>
      <polygon class="cls-2" points="27.28 11.41 28.45 11.41 29.63 11.41 29.63 10.07 28.45 10.07 27.28 10.07 27.28 11.41"/>
      <polygon class="cls-2" points="44.9 11.41 44.9 10.07 43.73 10.07 42.55 10.07 41.38 10.07 40.2 10.07 39.03 10.07 37.85 10.07 36.68 10.07 35.5 10.07 34.33 10.07 34.33 11.41 35.5 11.41 36.68 11.41 37.85 11.41 39.03 11.41 40.2 11.41 41.38 11.41 42.55 11.41 43.73 11.41 44.9 11.41"/>
      <polygon class="cls-2" points="51.95 10.07 50.78 10.07 49.6 10.07 49.6 11.41 50.78 11.41 51.95 11.41 51.95 10.07"/>
      <polygon class="cls-2" points="27.28 13.93 28.45 13.93 29.63 13.93 29.63 12.59 28.45 12.59 27.28 12.59 27.28 13.93"/>
      <polygon class="cls-2" points="42.55 13.93 43.73 13.93 43.73 12.59 42.55 12.59 41.38 12.59 40.2 12.59 39.03 12.59 37.85 12.59 36.68 12.59 35.5 12.59 35.5 13.93 36.68 13.93 37.85 13.93 39.03 13.93 40.2 13.93 41.38 13.93 42.55 13.93"/>
      <polygon class="cls-2" points="51.95 12.59 50.78 12.59 49.6 12.59 49.6 13.93 50.78 13.93 51.95 13.93 51.95 12.59"/>
      <polygon class="cls-2" points="27.28 16.45 28.45 16.45 29.63 16.45 29.63 15.11 28.45 15.11 27.28 15.11 27.28 16.45"/>
      <polygon class="cls-2" points="41.38 15.11 40.2 15.11 39.03 15.11 37.85 15.11 37.85 16.45 39.03 16.45 40.2 16.45 41.38 16.45 41.38 15.11"/>
      <polygon class="cls-2" points="49.6 15.11 49.6 16.45 50.78 16.45 51.95 16.45 51.95 15.11 50.78 15.11 49.6 15.11"/>
      <polygon class="cls-2" points="26.1 17.62 26.1 18.97 27.28 18.97 28.45 18.97 29.63 18.97 30.8 18.97 31.98 18.97 31.98 17.62 30.8 17.62 29.63 17.62 28.45 17.62 27.28 17.62 26.1 17.62"/>
      <polygon class="cls-2" points="41.38 17.62 40.2 17.62 39.03 17.62 37.85 17.62 37.85 18.97 39.03 18.97 40.2 18.97 41.38 18.97 41.38 17.62"/>
      <polygon class="cls-2" points="50.78 17.62 49.6 17.62 48.43 17.62 47.25 17.62 47.25 18.97 48.43 18.97 49.6 18.97 50.78 18.97 51.95 18.97 53.13 18.97 53.13 17.62 51.95 17.62 50.78 17.62"/>
      <polygon class="cls-2" points="24.93 20.14 23.75 20.14 22.58 20.14 22.58 21.48 23.75 21.48 24.93 21.48 26.1 21.48 27.28 21.48 28.45 21.48 29.63 21.48 30.8 21.48 31.98 21.48 33.15 21.48 34.33 21.48 34.33 20.14 33.15 20.14 31.98 20.14 30.8 20.14 29.63 20.14 28.45 20.14 27.28 20.14 26.1 20.14 24.93 20.14"/>
      <polygon class="cls-2" points="39.03 20.14 37.85 20.14 37.85 21.48 39.03 21.48 40.2 21.48 41.38 21.48 41.38 20.14 40.2 20.14 39.03 20.14"/>
      <polygon class="cls-2" points="48.43 21.48 49.6 21.48 49.6 20.14 48.43 20.14 47.25 20.14 46.08 20.14 44.9 20.14 44.9 21.48 46.08 21.48 47.25 21.48 48.43 21.48"/>
      <polygon class="cls-2" points="54.3 20.14 53.13 20.14 51.95 20.14 50.78 20.14 50.78 21.48 51.95 21.48 53.13 21.48 54.3 21.48 55.48 21.48 56.65 21.48 56.65 20.14 55.48 20.14 54.3 20.14"/>
      <polygon class="cls-2" points="21.4 22.66 20.23 22.66 19.05 22.66 17.88 22.66 17.88 24 19.05 24 20.23 24 21.4 24 22.58 24 23.75 24 24.93 24 26.1 24 27.28 24 28.45 24 29.63 24 30.8 24 31.98 24 33.15 24 34.33 24 35.5 24 36.68 24 37.85 24 39.03 24 40.2 24 41.38 24 42.55 24 43.73 24 44.9 24 44.9 22.66 43.73 22.66 42.55 22.66 41.38 22.66 40.2 22.66 39.03 22.66 37.85 22.66 36.68 22.66 35.5 22.66 34.33 22.66 33.15 22.66 31.98 22.66 30.8 22.66 29.63 22.66 28.45 22.66 27.28 22.66 26.1 22.66 24.93 22.66 23.75 22.66 22.58 22.66 21.4 22.66"/>
      <polygon class="cls-2" points="59 24 60.18 24 61.35 24 61.35 22.66 60.18 22.66 59 22.66 57.83 22.66 56.65 22.66 56.65 24 57.83 24 59 24"/>
      <polygon class="cls-2" points="19.05 26.52 20.23 26.52 21.4 26.52 22.58 26.52 23.75 26.52 24.93 26.52 26.1 26.52 27.28 26.52 28.45 26.52 29.63 26.52 30.8 26.52 31.98 26.52 33.15 26.52 34.33 26.52 35.5 26.52 36.68 26.52 37.85 26.52 39.03 26.52 40.2 26.52 41.38 26.52 42.55 26.52 43.73 26.52 43.73 25.18 42.55 25.18 41.38 25.18 40.2 25.18 39.03 25.18 37.85 25.18 36.68 25.18 35.5 25.18 34.33 25.18 33.15 25.18 31.98 25.18 30.8 25.18 29.63 25.18 28.45 25.18 27.28 25.18 26.1 25.18 24.93 25.18 23.75 25.18 22.58 25.18 21.4 25.18 20.23 25.18 19.05 25.18 17.88 25.18 16.7 25.18 15.53 25.18 15.53 26.52 16.7 26.52 17.88 26.52 19.05 26.52"/>
      <polygon class="cls-2" points="60.18 25.18 59 25.18 57.83 25.18 57.83 26.52 59 26.52 60.18 26.52 61.35 26.52 62.53 26.52 62.53 25.18 61.35 25.18 60.18 25.18"/>
      <polygon class="cls-2" points="17.88 27.7 16.7 27.7 15.53 27.7 15.53 29.04 16.7 29.04 17.88 29.04 17.88 27.7"/>
      <polygon class="cls-2" points="21.4 29.04 22.58 29.04 23.75 29.04 24.93 29.04 26.1 29.04 27.28 29.04 28.45 29.04 29.63 29.04 30.8 29.04 31.98 29.04 33.15 29.04 34.33 29.04 35.5 29.04 36.68 29.04 36.68 27.7 35.5 27.7 34.33 27.7 33.15 27.7 31.98 27.7 30.8 27.7 29.63 27.7 28.45 27.7 27.28 27.7 26.1 27.7 24.93 27.7 23.75 27.7 22.58 27.7 21.4 27.7 20.23 27.7 19.05 27.7 19.05 29.04 20.23 29.04 21.4 29.04"/>
      <polygon class="cls-2" points="44.9 27.7 43.73 27.7 42.55 27.7 41.38 27.7 40.2 27.7 39.03 27.7 37.85 27.7 37.85 29.04 39.03 29.04 40.2 29.04 41.38 29.04 42.55 29.04 43.73 29.04 44.9 29.04 46.08 29.04 47.25 29.04 47.25 27.7 46.08 27.7 44.9 27.7"/>
      <polygon class="cls-2" points="56.65 29.04 57.83 29.04 59 29.04 59 27.7 57.83 27.7 56.65 27.7 55.48 27.7 54.3 27.7 54.3 29.04 55.48 29.04 56.65 29.04"/>
      <polygon class="cls-2" points="60.18 27.7 60.18 29.04 61.35 29.04 62.53 29.04 62.53 27.7 61.35 27.7 60.18 27.7"/>
      <polygon class="cls-2" points="17.88 30.21 16.7 30.21 15.53 30.21 15.53 31.56 16.7 31.56 17.88 31.56 17.88 30.21"/>
      <polygon class="cls-2" points="26.1 31.56 27.28 31.56 28.45 31.56 29.63 31.56 30.8 31.56 31.98 31.56 31.98 30.21 30.8 30.21 29.63 30.21 28.45 30.21 27.28 30.21 26.1 30.21 24.93 30.21 23.75 30.21 23.75 31.56 24.93 31.56 26.1 31.56"/>
      <polygon class="cls-2" points="55.48 31.56 55.48 30.21 54.3 30.21 53.13 30.21 51.95 30.21 50.78 30.21 49.6 30.21 48.43 30.21 47.25 30.21 46.08 30.21 44.9 30.21 43.73 30.21 42.55 30.21 41.38 30.21 40.2 30.21 39.03 30.21 37.85 30.21 37.85 31.56 39.03 31.56 40.2 31.56 41.38 31.56 42.55 31.56 43.73 31.56 44.9 31.56 46.08 31.56 47.25 31.56 48.43 31.56 49.6 31.56 50.78 31.56 51.95 31.56 53.13 31.56 54.3 31.56 55.48 31.56"/>
      <polygon class="cls-2" points="60.18 30.21 60.18 31.56 61.35 31.56 62.53 31.56 62.53 30.21 61.35 30.21 60.18 30.21"/>
      <polygon class="cls-2" points="17.88 32.73 16.7 32.73 15.53 32.73 15.53 34.07 16.7 34.07 17.88 34.07 17.88 32.73"/>
      <polygon class="cls-2" points="28.36 34.07 28.75 34.07 29.15 34.07 29.54 34.07 29.54 32.73 29.15 32.73 28.75 32.73 28.36 32.73 27.97 32.73 27.58 32.73 27.19 32.73 27.19 34.07 27.58 34.07 27.97 34.07 28.36 34.07"/>
      <polygon class="cls-2" points="51.95 32.73 50.78 32.73 49.6 32.73 48.43 32.73 47.25 32.73 46.08 32.73 44.9 32.73 43.73 32.73 42.55 32.73 41.38 32.73 40.2 32.73 39.03 32.73 37.85 32.73 37.85 34.07 39.03 34.07 40.2 34.07 41.38 34.07 42.55 34.07 43.73 34.07 44.9 34.07 46.08 34.07 47.25 34.07 48.43 34.07 49.6 34.07 50.78 34.07 51.95 34.07 51.95 32.73"/>
      <polygon class="cls-2" points="60.18 32.73 60.18 34.07 61.35 34.07 62.53 34.07 62.53 32.73 61.35 32.73 60.18 32.73"/>
      <polygon class="cls-2" points="15.53 35.25 15.53 36.59 16.7 36.59 17.88 36.59 17.88 35.25 16.7 35.25 15.53 35.25"/>
      <polygon class="cls-2" points="29.63 35.25 28.45 35.25 27.28 35.25 27.28 36.59 28.45 36.59 29.63 36.59 29.63 35.25"/>
      <polygon class="cls-2" points="51.95 35.25 51.07 35.25 50.19 35.25 49.31 35.25 48.43 35.25 47.55 35.25 46.66 35.25 45.78 35.25 44.9 35.25 44.02 35.25 43.14 35.25 42.26 35.25 41.38 35.25 40.5 35.25 39.61 35.25 38.73 35.25 37.85 35.25 37.85 36.59 38.73 36.59 39.61 36.59 40.5 36.59 41.38 36.59 42.26 36.59 43.14 36.59 44.02 36.59 44.9 36.59 45.78 36.59 46.66 36.59 47.55 36.59 48.43 36.59 49.31 36.59 50.19 36.59 51.07 36.59 51.95 36.59 51.95 35.25"/>
      <polygon class="cls-2" points="60.18 35.25 60.18 36.59 61.35 36.59 62.53 36.59 62.53 35.25 61.35 35.25 60.18 35.25"/>
      <polygon class="cls-2" points="20.23 39.11 20.23 37.77 19.05 37.77 17.88 37.77 16.7 37.77 15.53 37.77 15.53 39.11 16.7 39.11 17.88 39.11 19.05 39.11 20.23 39.11"/>
      <polygon class="cls-2" points="29.63 37.77 28.45 37.77 27.28 37.77 27.28 39.11 28.45 39.11 29.63 39.11 29.63 37.77"/>
      <polygon class="cls-2" points="51.95 37.77 50.78 37.77 49.6 37.77 48.43 37.77 47.25 37.77 46.08 37.77 44.9 37.77 43.73 37.77 42.55 37.77 41.38 37.77 40.2 37.77 39.03 37.77 37.85 37.77 36.68 37.77 36.68 39.11 37.85 39.11 39.03 39.11 40.2 39.11 41.38 39.11 42.55 39.11 43.73 39.11 44.9 39.11 46.08 39.11 47.25 39.11 48.43 39.11 49.6 39.11 50.78 39.11 51.95 39.11 51.95 37.77"/>
      <polygon class="cls-2" points="60.18 37.77 59 37.77 59 39.11 60.18 39.11 61.35 39.11 62.53 39.11 62.53 37.77 61.35 37.77 60.18 37.77"/>
      <polygon class="cls-2" points="22.58 41.63 23.75 41.63 24.93 41.63 24.93 40.28 23.75 40.28 22.58 40.28 21.4 40.28 20.23 40.28 19.05 40.28 19.05 41.63 20.23 41.63 21.4 41.63 22.58 41.63"/>
      <polygon class="cls-2" points="27.28 40.28 27.28 41.63 28.45 41.63 29.63 41.63 29.63 40.28 28.45 40.28 27.28 40.28"/>
      <polygon class="cls-2" points="34.33 41.63 35.5 41.63 36.68 41.63 37.85 41.63 37.85 40.28 36.68 40.28 35.5 40.28 34.33 40.28 33.15 40.28 31.98 40.28 31.98 41.63 33.15 41.63 34.33 41.63"/>
      <polygon class="cls-2" points="47.25 41.63 48.43 41.63 49.6 41.63 50.78 41.63 51.95 41.63 51.95 40.28 50.78 40.28 49.6 40.28 48.43 40.28 47.25 40.28 46.08 40.28 44.9 40.28 43.73 40.28 42.55 40.28 41.38 40.28 41.38 41.63 42.55 41.63 43.73 41.63 44.9 41.63 46.08 41.63 47.25 41.63"/>
      <polygon class="cls-2" points="57.83 40.28 56.65 40.28 55.48 40.28 54.3 40.28 54.3 41.63 55.48 41.63 56.65 41.63 57.83 41.63 59 41.63 60.18 41.63 60.18 40.28 59 40.28 57.83 40.28"/>
      <polygon class="cls-2" points="23.75 42.8 23.75 44.14 24.93 44.14 26.1 44.14 27.28 44.14 28.45 44.14 29.63 44.14 30.8 44.14 31.98 44.14 33.15 44.14 33.15 42.8 31.98 42.8 30.8 42.8 29.63 42.8 28.45 42.8 27.28 42.8 26.1 42.8 24.93 42.8 23.75 42.8"/>
      <polygon class="cls-2" points="53.13 42.8 51.95 42.8 50.78 42.8 49.6 42.8 48.43 42.8 47.25 42.8 46.08 42.8 46.08 44.14 47.25 44.14 48.43 44.14 49.6 44.14 50.78 44.14 51.95 44.14 53.13 44.14 54.3 44.14 55.48 44.14 55.48 42.8 54.3 42.8 53.13 42.8"/>
      <rect class="cls-2" x="27.28" y="45.32" width="1.17" height="1.34"/>
      <rect class="cls-2" x="49.6" y="45.32" width="1.17" height="1.34"/>
      <g>
        <path class="cls-1" d="M1.49,73.9v1.37H.12v-1.37h1.36ZM1.49,76.63v1.36H.12v-1.36h1.36ZM1.49,84.82v1.37H.12v-1.37h1.36ZM11.05,71.17v1.36H1.49v-1.36h9.56ZM11.05,79.36v1.37H1.49v-1.37h9.56ZM11.05,87.55v1.36H1.49v-1.36h9.56ZM12.41,73.9v1.37h-1.37v-1.37h1.37ZM12.41,82.09v1.37h-1.37v-1.37h1.37ZM12.41,84.82v1.37h-1.37v-1.37h1.37Z"/>
        <path class="cls-1" d="M17.87,73.9v1.37h-1.37v-1.37h1.37ZM17.87,76.63v1.36h-1.37v-1.36h1.37ZM17.87,79.36v1.37h-1.37v-1.37h1.37ZM17.87,82.09v1.37h-1.37v-1.37h1.37ZM17.87,84.82v1.37h-1.37v-1.37h1.37ZM27.42,71.17v1.36h-9.56v-1.36h9.56ZM27.42,87.55v1.36h-9.56v-1.36h9.56ZM28.79,73.9v1.37h-1.36v-1.37h1.36ZM28.79,76.63v1.36h-1.36v-1.36h1.36ZM28.79,79.36v1.37h-1.36v-1.37h1.36ZM28.79,82.09v1.37h-1.36v-1.37h1.36ZM28.79,84.82v1.37h-1.36v-1.37h1.36Z"/>
        <path class="cls-1" d="M45.17,71.17v1.36h-12.28v-1.36h12.28ZM34.25,73.9v1.37h-1.36v-1.37h1.36ZM34.25,76.63v1.36h-1.36v-1.36h1.36ZM42.44,79.36v1.37h-9.56v-1.37h9.56ZM34.25,82.09v1.37h-1.36v-1.37h1.36ZM34.25,84.82v1.37h-1.36v-1.37h1.36ZM45.17,87.55v1.36h-12.28v-1.36h12.28Z"/>
        <path class="cls-1" d="M50.63,71.17v1.36h-1.36v-1.36h1.36ZM50.63,73.9v1.37h-1.36v-1.37h1.36ZM50.63,76.63v1.36h-1.36v-1.36h1.36ZM50.63,79.36v1.37h-1.36v-1.37h1.36ZM50.63,82.09v1.37h-1.36v-1.37h1.36ZM50.63,84.82v1.37h-1.36v-1.37h1.36ZM50.63,87.55v1.36h-1.36v-1.36h1.36ZM53.36,73.9v1.37h-1.36v-1.37h1.36ZM54.72,76.63v1.36h-1.36v-1.36h1.36ZM56.09,79.36v1.37h-1.37v-1.37h1.37ZM57.45,76.63v1.36h-1.36v-1.36h1.36ZM58.82,73.9v1.37h-1.37v-1.37h1.37ZM61.55,71.17v1.36h-1.37v-1.36h1.37ZM61.55,73.9v1.37h-1.37v-1.37h1.37ZM61.55,76.63v1.36h-1.37v-1.36h1.37ZM61.55,79.36v1.37h-1.37v-1.37h1.37ZM61.55,82.09v1.37h-1.37v-1.37h1.37ZM61.55,84.82v1.37h-1.37v-1.37h1.37ZM61.55,87.55v1.36h-1.37v-1.36h1.37Z"/>
        <path class="cls-1" d="M67.01,73.9v1.37h-1.36v-1.37h1.36ZM67.01,76.63v1.36h-1.36v-1.36h1.36ZM77.93,79.36v1.37h-12.28v-1.37h12.28ZM67.01,82.09v1.37h-1.36v-1.37h1.36ZM67.01,84.82v1.37h-1.36v-1.37h1.36ZM67.01,87.55v1.36h-1.36v-1.36h1.36ZM76.56,71.17v1.36h-9.56v-1.36h9.56ZM77.93,73.9v1.37h-1.37v-1.37h1.37ZM77.93,76.63v1.36h-1.37v-1.36h1.37ZM77.93,82.09v1.37h-1.37v-1.37h1.37ZM77.93,84.82v1.37h-1.37v-1.37h1.37ZM77.93,87.55v1.36h-1.37v-1.36h1.37Z"/>
      </g>
    </g>
  </g>
</svg>