<?xml version="1.0" encoding="UTF-8"?>
<svg id="Livello_2" xmlns="http://www.w3.org/2000/svg" viewBox="0 0 94.43 88.12">
  <defs>
    <style>
      .cls-1 {
        stroke: #fff;
        stroke-miterlimit: 10;
        stroke-width: .25px;
      }

      .cls-1, .cls-2 {
        fill: #fff;
      }
    </style>
  </defs>
  <g id="MICROGRAPH">
    <g>
      <polygon class="cls-2" points="34.86 1.34 36.04 1.34 37.21 1.34 38.39 1.34 38.39 0 37.21 0 36.04 0 34.86 0 33.69 0 32.51 0 31.34 0 30.16 0 28.99 0 27.81 0 26.64 0 25.46 0 24.29 0 24.29 1.34 25.46 1.34 26.64 1.34 27.81 1.34 28.99 1.34 30.16 1.34 31.34 1.34 32.51 1.34 33.69 1.34 34.86 1.34"/>
      <polygon class="cls-2" points="63.7 1.34 64.98 1.34 66.26 1.34 67.55 1.34 68.83 1.34 70.11 1.34 70.11 0 68.83 0 67.55 0 66.26 0 64.98 0 63.7 0 62.42 0 61.14 0 59.85 0 58.57 0 57.29 0 56.01 0 56.01 1.34 57.29 1.34 58.57 1.34 59.85 1.34 61.14 1.34 62.42 1.34 63.7 1.34"/>
      <polygon class="cls-2" points="26.64 2.52 25.46 2.52 24.29 2.52 24.29 3.86 25.46 3.86 26.64 3.86 26.64 2.52"/>
      <polygon class="cls-2" points="67.76 2.52 67.76 3.86 68.93 3.86 70.11 3.86 70.11 2.52 68.93 2.52 67.76 2.52"/>
      <polygon class="cls-2" points="26.64 5.04 25.46 5.04 24.29 5.04 24.29 6.38 25.46 6.38 26.64 6.38 26.64 5.04"/>
      <polygon class="cls-2" points="67.76 5.04 67.76 6.38 68.93 6.38 70.11 6.38 70.11 5.04 68.93 5.04 67.76 5.04"/>
      <polygon class="cls-2" points="26.64 7.55 25.46 7.55 24.29 7.55 24.29 8.9 25.46 8.9 26.64 8.9 26.64 7.55"/>
      <polygon class="cls-2" points="67.76 7.55 67.76 8.9 68.93 8.9 70.11 8.9 70.11 7.55 68.93 7.55 67.76 7.55"/>
      <polygon class="cls-2" points="26.64 10.07 25.46 10.07 24.29 10.07 24.29 11.41 25.46 11.41 26.64 11.41 26.64 10.07"/>
      <polygon class="cls-2" points="38.39 11.41 39.56 11.41 40.74 11.41 41.91 11.41 41.91 10.07 40.74 10.07 39.56 10.07 38.39 10.07 38.39 11.41"/>
      <polygon class="cls-2" points="67.76 10.07 67.76 11.41 68.93 11.41 70.11 11.41 70.11 10.07 68.93 10.07 67.76 10.07"/>
      <polygon class="cls-2" points="26.64 12.59 25.46 12.59 24.29 12.59 24.29 13.93 25.46 13.93 26.64 13.93 26.64 12.59"/>
      <polygon class="cls-2" points="40.74 13.93 41.91 13.93 43.09 13.93 43.09 12.59 41.91 12.59 40.74 12.59 39.56 12.59 38.39 12.59 37.21 12.59 37.21 13.93 38.39 13.93 39.56 13.93 40.74 13.93"/>
      <polygon class="cls-2" points="67.76 12.59 67.76 13.93 68.93 13.93 70.11 13.93 70.11 12.59 68.93 12.59 67.76 12.59"/>
      <polygon class="cls-2" points="26.64 15.11 25.46 15.11 24.29 15.11 24.29 16.45 25.46 16.45 26.64 16.45 26.64 15.11"/>
      <polygon class="cls-2" points="38.39 16.45 38.39 15.11 37.21 15.11 36.04 15.11 36.04 16.45 37.21 16.45 38.39 16.45"/>
      <polygon class="cls-2" points="43.07 15.11 42.19 15.11 42.19 16.45 43.07 16.45 43.96 16.45 44.85 16.45 44.85 15.11 43.96 15.11 43.07 15.11"/>
      <polygon class="cls-2" points="57.18 16.45 58.36 16.45 59.53 16.45 59.53 15.11 58.36 15.11 57.18 15.11 56.01 15.11 54.83 15.11 53.66 15.11 52.48 15.11 52.48 16.45 53.66 16.45 54.83 16.45 56.01 16.45 57.18 16.45"/>
      <polygon class="cls-2" points="67.76 15.11 67.76 16.45 68.93 16.45 70.11 16.45 70.11 15.11 68.93 15.11 67.76 15.11"/>
      <polygon class="cls-2" points="26.64 17.62 25.46 17.62 24.29 17.62 24.29 18.97 25.46 18.97 26.64 18.97 26.64 17.62"/>
      <polygon class="cls-2" points="38.01 17.62 36.84 17.62 35.66 17.62 35.66 18.97 36.84 18.97 38.01 18.97 38.01 17.62"/>
      <polygon class="cls-2" points="45 17.62 43.82 17.62 42.65 17.62 42.65 18.97 43.82 18.97 45 18.97 45 17.62"/>
      <polygon class="cls-2" points="51.31 17.62 50.13 17.62 50.13 18.97 51.31 18.97 52.48 18.97 53.66 18.97 53.66 17.62 52.48 17.62 51.31 17.62"/>
      <polygon class="cls-2" points="61.88 17.62 60.71 17.62 59.53 17.62 58.36 17.62 57.18 17.62 57.18 18.97 58.36 18.97 59.53 18.97 60.71 18.97 61.88 18.97 61.88 17.62"/>
      <polygon class="cls-2" points="67.76 17.62 67.76 18.97 68.93 18.97 70.11 18.97 70.11 17.62 68.93 17.62 67.76 17.62"/>
      <polygon class="cls-2" points="26.64 20.14 25.46 20.14 24.29 20.14 24.29 21.48 25.46 21.48 26.64 21.48 26.64 20.14"/>
      <polygon class="cls-2" points="36.39 21.48 37.57 21.48 37.57 20.14 36.39 20.14 35.22 20.14 34.04 20.14 34.04 21.48 35.22 21.48 36.39 21.48"/>
      <polygon class="cls-2" points="43.82 20.14 42.65 20.14 42.65 21.48 43.82 21.48 45 21.48 46.17 21.48 46.17 20.14 45 20.14 43.82 20.14"/>
      <polygon class="cls-2" points="61.88 20.14 60.71 20.14 59.53 20.14 58.36 20.14 58.36 21.48 59.53 21.48 60.71 21.48 61.88 21.48 61.88 20.14"/>
      <polygon class="cls-2" points="67.76 20.14 67.76 21.48 68.93 21.48 70.11 21.48 70.11 20.14 68.93 20.14 67.76 20.14"/>
      <polygon class="cls-2" points="26.64 22.66 25.46 22.66 24.29 22.66 24.29 24 25.46 24 26.64 24 26.64 22.66"/>
      <polygon class="cls-2" points="44.26 24 45.44 24 46.61 24 46.61 22.66 45.44 22.66 44.26 22.66 43.09 22.66 41.91 22.66 40.74 22.66 39.56 22.66 38.39 22.66 37.21 22.66 36.04 22.66 34.86 22.66 33.69 22.66 33.69 24 34.86 24 36.04 24 37.21 24 38.39 24 39.56 24 40.74 24 41.91 24 43.09 24 44.26 24"/>
      <polygon class="cls-2" points="61.88 22.66 60.71 22.66 59.53 22.66 58.36 22.66 57.18 22.66 56.01 22.66 54.83 22.66 53.66 22.66 52.48 22.66 52.48 24 53.66 24 54.83 24 56.01 24 57.18 24 58.36 24 59.53 24 60.71 24 61.88 24 61.88 22.66"/>
      <polygon class="cls-2" points="67.76 22.66 67.76 24 68.93 24 70.11 24 70.11 22.66 68.93 22.66 67.76 22.66"/>
      <polygon class="cls-2" points="26.64 25.18 25.46 25.18 24.29 25.18 24.29 26.52 25.46 26.52 26.64 26.52 26.64 25.18"/>
      <polygon class="cls-2" points="37.21 26.52 37.21 25.18 36.04 25.18 34.86 25.18 33.69 25.18 33.69 26.52 34.86 26.52 36.04 26.52 37.21 26.52"/>
      <polygon class="cls-2" points="46.61 26.52 46.61 25.18 45.44 25.18 44.26 25.18 43.09 25.18 43.09 26.52 44.26 26.52 45.44 26.52 46.61 26.52"/>
      <polygon class="cls-2" points="48.96 25.18 48.96 26.52 49.84 26.52 50.72 26.52 51.6 26.52 52.48 26.52 52.48 25.18 51.6 25.18 50.72 25.18 49.84 25.18 48.96 25.18"/>
      <polygon class="cls-2" points="61.88 25.18 60.71 25.18 59.53 25.18 58.36 25.18 58.36 26.52 59.53 26.52 60.71 26.52 61.88 26.52 61.88 25.18"/>
      <polygon class="cls-2" points="67.76 25.18 67.76 26.52 68.93 26.52 70.11 26.52 70.11 25.18 68.93 25.18 67.76 25.18"/>
      <polygon class="cls-2" points="26.64 27.7 25.46 27.7 24.29 27.7 24.29 29.04 25.46 29.04 26.64 29.04 26.64 27.7"/>
      <polygon class="cls-2" points="36.04 27.7 34.86 27.7 33.69 27.7 33.69 29.04 34.86 29.04 36.04 29.04 36.04 27.7"/>
      <polygon class="cls-2" points="46.76 27.7 45.59 27.7 44.41 27.7 44.41 29.04 45.59 29.04 46.76 29.04 46.76 27.7"/>
      <polygon class="cls-2" points="51.31 29.04 52.48 29.04 52.48 27.7 51.31 27.7 50.13 27.7 48.96 27.7 48.96 29.04 50.13 29.04 51.31 29.04"/>
      <polygon class="cls-2" points="59.53 27.7 58.36 27.7 57.18 27.7 57.18 29.04 58.36 29.04 59.53 29.04 60.71 29.04 61.88 29.04 61.88 27.7 60.71 27.7 59.53 27.7"/>
      <polygon class="cls-2" points="67.76 27.7 67.76 29.04 68.93 29.04 70.11 29.04 70.11 27.7 68.93 27.7 67.76 27.7"/>
      <polygon class="cls-2" points="26.64 30.21 25.46 30.21 24.29 30.21 24.29 31.56 25.46 31.56 26.64 31.56 26.64 30.21"/>
      <polygon class="cls-2" points="34.07 30.21 33.09 30.21 33.09 31.56 34.07 31.56 35.05 31.56 36.04 31.56 36.04 30.21 35.05 30.21 34.07 30.21"/>
      <polygon class="cls-2" points="45.43 30.21 44.45 30.21 44.45 31.56 45.43 31.56 46.42 31.56 47.4 31.56 47.4 30.21 46.42 30.21 45.43 30.21"/>
      <polygon class="cls-2" points="53.66 31.56 54.83 31.56 56.01 31.56 57.18 31.56 58.36 31.56 59.53 31.56 60.71 31.56 61.88 31.56 61.88 30.21 60.71 30.21 59.53 30.21 58.36 30.21 57.18 30.21 56.01 30.21 54.83 30.21 53.66 30.21 52.48 30.21 51.31 30.21 50.13 30.21 50.13 31.56 51.31 31.56 52.48 31.56 53.66 31.56"/>
      <polygon class="cls-2" points="67.76 30.21 67.76 31.56 68.93 31.56 70.11 31.56 70.11 30.21 68.93 30.21 67.76 30.21"/>
      <polygon class="cls-2" points="26.64 32.73 25.46 32.73 24.29 32.73 24.29 34.07 25.46 34.07 26.64 34.07 26.64 32.73"/>
      <polygon class="cls-2" points="67.76 32.73 67.76 34.07 68.93 34.07 70.11 34.07 70.11 32.73 68.93 32.73 67.76 32.73"/>
      <polygon class="cls-2" points="26.64 35.25 25.46 35.25 24.29 35.25 24.29 36.59 25.46 36.59 26.64 36.59 26.64 35.25"/>
      <polygon class="cls-2" points="67.76 35.25 67.76 36.59 68.93 36.59 70.11 36.59 70.11 35.25 68.93 35.25 67.76 35.25"/>
      <polygon class="cls-2" points="26.64 37.77 25.46 37.77 24.29 37.77 24.29 39.11 25.46 39.11 26.64 39.11 26.64 37.77"/>
      <polygon class="cls-2" points="67.76 37.77 67.76 39.11 68.93 39.11 70.11 39.11 70.11 37.77 68.93 37.77 67.76 37.77"/>
      <polygon class="cls-2" points="24.29 40.28 24.29 41.63 25.46 41.63 26.64 41.63 26.64 40.28 25.46 40.28 24.29 40.28"/>
      <polygon class="cls-2" points="67.76 40.28 67.76 41.63 68.93 41.63 70.11 41.63 70.11 40.28 68.93 40.28 67.76 40.28"/>
      <polygon class="cls-2" points="36.04 42.8 34.86 42.8 33.69 42.8 32.51 42.8 31.34 42.8 30.16 42.8 28.99 42.8 27.81 42.8 26.64 42.8 25.46 42.8 24.29 42.8 24.29 44.14 25.46 44.14 26.64 44.14 27.81 44.14 28.99 44.14 30.16 44.14 31.34 44.14 32.51 44.14 33.69 44.14 34.86 44.14 36.04 44.14 37.21 44.14 38.39 44.14 38.39 42.8 37.21 42.8 36.04 42.8"/>
      <polygon class="cls-2" points="67.55 42.8 66.26 42.8 64.98 42.8 63.7 42.8 62.42 42.8 61.14 42.8 59.85 42.8 58.57 42.8 57.29 42.8 56.01 42.8 56.01 44.14 57.29 44.14 58.57 44.14 59.85 44.14 61.14 44.14 62.42 44.14 63.7 44.14 64.98 44.14 66.26 44.14 67.55 44.14 68.83 44.14 70.11 44.14 70.11 42.8 68.83 42.8 67.55 42.8"/>
      <g>
        <path class="cls-1" d="M12.41,70.25v1.36H.12v-1.36h12.28ZM1.49,72.98v1.37H.12v-1.37h1.36ZM1.49,75.71v1.37H.12v-1.37h1.36ZM9.68,78.44v1.37H.12v-1.37h9.56ZM1.49,81.17v1.37H.12v-1.37h1.36ZM1.49,83.9v1.36H.12v-1.36h1.36ZM1.49,86.63v1.36H.12v-1.36h1.36Z"/>
        <path class="cls-1" d="M27.42,70.25v1.36h-10.92v-1.36h10.92ZM17.87,72.98v1.37h-1.36v-1.37h1.36ZM17.87,75.71v1.37h-1.36v-1.37h1.36ZM27.42,78.44v1.37h-10.92v-1.37h10.92ZM17.87,81.17v1.37h-1.36v-1.37h1.36ZM17.87,83.9v1.36h-1.36v-1.36h1.36ZM17.87,86.63v1.36h-1.36v-1.36h1.36ZM23.33,81.17v1.37h-1.36v-1.37h1.36ZM26.06,83.9v1.36h-1.36v-1.36h1.36ZM28.79,72.98v1.37h-1.36v-1.37h1.36ZM28.79,75.71v1.37h-1.36v-1.37h1.36ZM28.79,86.63v1.36h-1.36v-1.36h1.36Z"/>
        <path class="cls-1" d="M34.25,72.98v1.37h-1.36v-1.37h1.36ZM34.25,75.71v1.37h-1.36v-1.37h1.36ZM45.17,78.44v1.37h-12.28v-1.37h12.28ZM34.25,81.17v1.37h-1.36v-1.37h1.36ZM34.25,83.9v1.36h-1.36v-1.36h1.36ZM34.25,86.63v1.36h-1.36v-1.36h1.36ZM43.8,70.25v1.36h-9.56v-1.36h9.56ZM45.17,72.98v1.37h-1.36v-1.37h1.36ZM45.17,75.71v1.37h-1.36v-1.37h1.36ZM45.17,81.17v1.37h-1.36v-1.37h1.36ZM45.17,83.9v1.36h-1.36v-1.36h1.36ZM45.17,86.63v1.36h-1.36v-1.36h1.36Z"/>
        <path class="cls-1" d="M50.63,72.98v1.37h-1.36v-1.37h1.36ZM50.63,75.71v1.37h-1.36v-1.37h1.36ZM50.63,78.44v1.37h-1.36v-1.37h1.36ZM50.63,81.17v1.37h-1.36v-1.37h1.36ZM50.63,83.9v1.36h-1.36v-1.36h1.36ZM60.18,70.25v1.36h-9.56v-1.36h9.56ZM60.18,86.63v1.36h-9.56v-1.36h9.56ZM61.55,78.44v1.37h-6.82v-1.37h6.82ZM61.55,72.98v1.37h-1.36v-1.37h1.36ZM61.55,81.17v1.37h-1.36v-1.37h1.36ZM61.55,83.9v1.36h-1.36v-1.36h1.36Z"/>
        <path class="cls-1" d="M67.01,70.25v1.36h-1.36v-1.36h1.36ZM67.01,72.98v1.37h-1.36v-1.37h1.36ZM67.01,75.71v1.37h-1.36v-1.37h1.36ZM67.01,78.44v1.37h-1.36v-1.37h1.36ZM67.01,81.17v1.37h-1.36v-1.37h1.36ZM67.01,83.9v1.36h-1.36v-1.36h1.36ZM67.01,86.63v1.36h-1.36v-1.36h1.36ZM69.74,72.98v1.37h-1.36v-1.37h1.36ZM71.1,75.71v1.37h-1.36v-1.37h1.36ZM72.47,78.44v1.37h-1.36v-1.37h1.36ZM73.83,75.71v1.37h-1.37v-1.37h1.37ZM75.2,72.98v1.37h-1.36v-1.37h1.36ZM77.93,70.25v1.36h-1.36v-1.36h1.36ZM77.93,72.98v1.37h-1.36v-1.37h1.36ZM77.93,75.71v1.37h-1.36v-1.37h1.36ZM77.93,78.44v1.37h-1.36v-1.37h1.36ZM77.93,81.17v1.37h-1.36v-1.37h1.36ZM77.93,83.9v1.36h-1.36v-1.36h1.36ZM77.93,86.63v1.36h-1.36v-1.36h1.36Z"/>
        <path class="cls-1" d="M83.39,72.98v1.37h-1.36v-1.37h1.36ZM83.39,75.71v1.37h-1.36v-1.37h1.36ZM94.31,78.44v1.37h-12.28v-1.37h12.28ZM83.39,81.17v1.37h-1.36v-1.37h1.36ZM83.39,83.9v1.36h-1.36v-1.36h1.36ZM83.39,86.63v1.36h-1.36v-1.36h1.36ZM92.94,70.25v1.36h-9.56v-1.36h9.56ZM94.31,72.98v1.37h-1.36v-1.37h1.36ZM94.31,75.71v1.37h-1.36v-1.37h1.36ZM94.31,81.17v1.37h-1.36v-1.37h1.36ZM94.31,83.9v1.36h-1.36v-1.36h1.36ZM94.31,86.63v1.36h-1.36v-1.36h1.36Z"/>
      </g>
    </g>
  </g>
</svg>