<?xml version="1.0" encoding="UTF-8"?>
<svg id="Livello_2" xmlns="http://www.w3.org/2000/svg" viewBox="0 0 94.43 86.09">
  <defs>
    <style>
      .cls-1 {
        stroke: #fff;
        stroke-miterlimit: 10;
        stroke-width: .25px;
      }

      .cls-1, .cls-2 {
        fill: #fff;
      }
    </style>
  </defs>
  <g id="MICROGRAPH">
    <g>
      <rect class="cls-2" x="39.68" width="1.17" height="1.34"/>
      <polygon class="cls-2" points="50.25 1.34 50.25 0 49.08 0 47.9 0 46.73 0 45.55 0 45.55 1.34 46.73 1.34 47.9 1.34 49.08 1.34 50.25 1.34"/>
      <polygon class="cls-2" points="37.33 2.52 37.33 3.86 38.5 3.86 39.68 3.86 39.68 2.52 38.5 2.52 37.33 2.52"/>
      <polygon class="cls-2" points="45.55 3.86 46.73 3.86 47.9 3.86 49.08 3.86 49.08 2.52 47.9 2.52 46.73 2.52 45.55 2.52 44.38 2.52 43.2 2.52 43.2 3.86 44.38 3.86 45.55 3.86"/>
      <polygon class="cls-2" points="58.48 3.86 59.65 3.86 59.65 2.52 58.48 2.52 57.3 2.52 56.13 2.52 54.95 2.52 53.78 2.52 53.78 3.86 54.95 3.86 56.13 3.86 57.3 3.86 58.48 3.86"/>
      <polygon class="cls-2" points="33.8 5.04 32.63 5.04 31.45 5.04 31.45 6.38 32.63 6.38 33.8 6.38 33.8 5.04"/>
      <polygon class="cls-2" points="38.5 6.38 39.68 6.38 40.85 6.38 42.03 6.38 43.2 6.38 44.38 6.38 45.55 6.38 46.73 6.38 47.9 6.38 49.08 6.38 50.25 6.38 51.43 6.38 52.6 6.38 53.78 6.38 54.95 6.38 56.13 6.38 57.3 6.38 57.3 5.04 56.13 5.04 54.95 5.04 53.78 5.04 52.6 5.04 51.43 5.04 50.25 5.04 49.08 5.04 47.9 5.04 46.73 5.04 45.55 5.04 44.38 5.04 43.2 5.04 42.03 5.04 40.85 5.04 39.68 5.04 38.5 5.04 37.33 5.04 36.15 5.04 36.15 6.38 37.33 6.38 38.5 6.38"/>
      <polygon class="cls-2" points="30.28 8.9 31.45 8.9 32.63 8.9 33.8 8.9 33.8 7.55 32.63 7.55 31.45 7.55 30.28 7.55 30.28 8.9"/>
      <polygon class="cls-2" points="64.35 8.9 64.35 7.55 63.18 7.55 62 7.55 60.83 7.55 59.65 7.55 58.48 7.55 57.3 7.55 56.13 7.55 54.95 7.55 53.78 7.55 52.6 7.55 51.43 7.55 50.25 7.55 49.08 7.55 47.9 7.55 46.73 7.55 45.55 7.55 44.38 7.55 43.2 7.55 42.03 7.55 40.85 7.55 39.68 7.55 38.5 7.55 37.33 7.55 36.15 7.55 34.98 7.55 34.98 8.9 36.15 8.9 37.33 8.9 38.5 8.9 39.68 8.9 40.85 8.9 42.03 8.9 43.2 8.9 44.38 8.9 45.55 8.9 46.73 8.9 47.9 8.9 49.08 8.9 50.25 8.9 51.43 8.9 52.6 8.9 53.78 8.9 54.95 8.9 56.13 8.9 57.3 8.9 58.48 8.9 59.65 8.9 60.83 8.9 62 8.9 63.18 8.9 64.35 8.9"/>
      <polygon class="cls-2" points="63.18 10.07 62 10.07 60.83 10.07 59.65 10.07 58.48 10.07 57.3 10.07 56.13 10.07 54.95 10.07 53.78 10.07 52.6 10.07 51.43 10.07 50.25 10.07 49.08 10.07 47.9 10.07 46.73 10.07 45.55 10.07 44.38 10.07 43.2 10.07 42.03 10.07 40.85 10.07 39.68 10.07 38.5 10.07 37.33 10.07 36.15 10.07 34.98 10.07 33.8 10.07 32.63 10.07 31.45 10.07 30.28 10.07 30.28 11.41 31.45 11.41 32.63 11.41 33.8 11.41 34.98 11.41 36.15 11.41 37.33 11.41 38.5 11.41 39.68 11.41 40.85 11.41 42.03 11.41 43.2 11.41 44.38 11.41 45.55 11.41 46.73 11.41 47.9 11.41 49.08 11.41 50.25 11.41 51.43 11.41 52.6 11.41 53.78 11.41 54.95 11.41 56.13 11.41 57.3 11.41 58.48 11.41 59.65 11.41 60.83 11.41 62 11.41 63.18 11.41 63.18 10.07"/>
      <rect class="cls-2" x="64.35" y="10.07" width="1.17" height="1.34"/>
      <rect class="cls-2" x="26.75" y="12.59" width="1.17" height="1.34"/>
      <polygon class="cls-2" points="32.63 13.93 33.8 13.93 34.98 13.93 36.15 13.93 37.33 13.93 38.5 13.93 39.68 13.93 40.85 13.93 42.03 13.93 43.2 13.93 44.38 13.93 45.55 13.93 46.73 13.93 47.9 13.93 49.08 13.93 50.25 13.93 51.43 13.93 52.6 13.93 53.78 13.93 54.95 13.93 56.13 13.93 57.3 13.93 58.48 13.93 59.65 13.93 60.83 13.93 62 13.93 63.18 13.93 63.18 12.59 62 12.59 60.83 12.59 59.65 12.59 58.48 12.59 57.3 12.59 56.13 12.59 54.95 12.59 53.78 12.59 52.6 12.59 51.43 12.59 50.25 12.59 49.08 12.59 47.9 12.59 46.73 12.59 45.55 12.59 44.38 12.59 43.2 12.59 42.03 12.59 40.85 12.59 39.68 12.59 38.5 12.59 37.33 12.59 36.15 12.59 34.98 12.59 33.8 12.59 32.63 12.59 31.45 12.59 30.28 12.59 30.28 13.93 31.45 13.93 32.63 13.93"/>
      <polygon class="cls-2" points="27.93 16.45 29.1 16.45 30.28 16.45 31.45 16.45 32.63 16.45 33.8 16.45 34.98 16.45 36.15 16.45 37.33 16.45 38.5 16.45 39.68 16.45 40.85 16.45 42.03 16.45 43.2 16.45 44.38 16.45 45.55 16.45 46.73 16.45 47.9 16.45 49.08 16.45 50.25 16.45 51.43 16.45 52.6 16.45 53.78 16.45 54.95 16.45 56.13 16.45 57.3 16.45 58.48 16.45 59.65 16.45 60.83 16.45 62 16.45 63.18 16.45 64.35 16.45 65.53 16.45 66.7 16.45 67.88 16.45 69.05 16.45 69.05 15.11 67.88 15.11 66.7 15.11 65.53 15.11 64.35 15.11 63.18 15.11 62 15.11 60.83 15.11 59.65 15.11 58.48 15.11 57.3 15.11 56.13 15.11 54.95 15.11 53.78 15.11 52.6 15.11 51.43 15.11 50.25 15.11 49.08 15.11 47.9 15.11 46.73 15.11 45.55 15.11 44.38 15.11 43.2 15.11 42.03 15.11 40.85 15.11 39.68 15.11 38.5 15.11 37.33 15.11 36.15 15.11 34.98 15.11 33.8 15.11 32.63 15.11 31.45 15.11 30.28 15.11 29.1 15.11 27.93 15.11 26.75 15.11 25.58 15.11 25.58 16.45 26.75 16.45 27.93 16.45"/>
      <polygon class="cls-2" points="51.43 18.97 52.6 18.97 53.78 18.97 54.95 18.97 56.13 18.97 57.3 18.97 58.48 18.97 59.65 18.97 60.83 18.97 62 18.97 63.18 18.97 64.35 18.97 65.53 18.97 66.7 18.97 66.7 17.62 65.53 17.62 64.35 17.62 63.18 17.62 62 17.62 60.83 17.62 59.65 17.62 58.48 17.62 57.3 17.62 56.13 17.62 54.95 17.62 53.78 17.62 52.6 17.62 51.43 17.62 50.25 17.62 49.08 17.62 47.9 17.62 46.73 17.62 45.55 17.62 44.38 17.62 43.2 17.62 42.03 17.62 40.85 17.62 39.68 17.62 38.5 17.62 37.33 17.62 36.15 17.62 34.98 17.62 33.8 17.62 32.63 17.62 31.45 17.62 30.28 17.62 29.1 17.62 27.93 17.62 26.75 17.62 26.75 18.97 27.93 18.97 29.1 18.97 30.28 18.97 31.45 18.97 32.63 18.97 33.8 18.97 34.98 18.97 36.15 18.97 37.33 18.97 38.5 18.97 39.68 18.97 40.85 18.97 42.03 18.97 43.2 18.97 44.38 18.97 45.55 18.97 46.73 18.97 47.9 18.97 49.08 18.97 50.25 18.97 51.43 18.97"/>
      <polygon class="cls-2" points="67.88 17.62 67.88 18.97 69.05 18.97 70.23 18.97 70.23 17.62 69.05 17.62 67.88 17.62"/>
      <polygon class="cls-2" points="40.85 20.14 39.68 20.14 38.5 20.14 37.33 20.14 36.15 20.14 34.98 20.14 33.8 20.14 32.63 20.14 31.45 20.14 30.28 20.14 29.1 20.14 29.1 21.48 30.28 21.48 31.45 21.48 32.63 21.48 33.8 21.48 34.98 21.48 36.15 21.48 37.33 21.48 38.5 21.48 39.68 21.48 40.85 21.48 42.03 21.48 43.2 21.48 43.2 20.14 42.03 20.14 40.85 20.14"/>
      <polygon class="cls-2" points="63.18 20.14 62 20.14 60.83 20.14 59.65 20.14 58.48 20.14 57.3 20.14 56.13 20.14 54.95 20.14 53.78 20.14 52.6 20.14 51.43 20.14 51.43 21.48 52.6 21.48 53.78 21.48 54.95 21.48 56.13 21.48 57.3 21.48 58.48 21.48 59.65 21.48 60.83 21.48 62 21.48 63.18 21.48 64.35 21.48 65.53 21.48 65.53 20.14 64.35 20.14 63.18 20.14"/>
      <polygon class="cls-2" points="26.75 24 27.93 24 29.1 24 30.28 24 31.45 24 32.63 24 33.8 24 34.98 24 36.15 24 37.33 24 38.5 24 39.68 24 40.85 24 42.03 24 43.2 24 43.2 22.66 42.03 22.66 40.85 22.66 39.68 22.66 38.5 22.66 37.33 22.66 36.15 22.66 34.98 22.66 33.8 22.66 32.63 22.66 31.45 22.66 30.28 22.66 29.1 22.66 27.93 22.66 26.75 22.66 25.58 22.66 24.4 22.66 24.4 24 25.58 24 26.75 24"/>
      <polygon class="cls-2" points="53.78 24 54.95 24 56.13 24 57.3 24 58.48 24 59.65 24 60.83 24 62 24 63.18 24 64.35 24 65.53 24 66.7 24 67.88 24 67.88 22.66 66.7 22.66 65.53 22.66 64.35 22.66 63.18 22.66 62 22.66 60.83 22.66 59.65 22.66 58.48 22.66 57.3 22.66 56.13 22.66 54.95 22.66 53.78 22.66 52.6 22.66 51.43 22.66 51.43 24 52.6 24 53.78 24"/>
      <polygon class="cls-2" points="27.93 26.52 29.1 26.52 30.28 26.52 31.45 26.52 32.63 26.52 33.8 26.52 34.98 26.52 36.15 26.52 37.33 26.52 38.5 26.52 39.68 26.52 40.85 26.52 42.03 26.52 43.2 26.52 44.38 26.52 45.55 26.52 45.55 25.18 44.38 25.18 43.2 25.18 42.03 25.18 40.85 25.18 39.68 25.18 38.5 25.18 37.33 25.18 36.15 25.18 34.98 25.18 33.8 25.18 32.63 25.18 31.45 25.18 30.28 25.18 29.1 25.18 27.93 25.18 26.75 25.18 25.58 25.18 24.4 25.18 24.4 26.52 25.58 26.52 26.75 26.52 27.93 26.52"/>
      <polygon class="cls-2" points="66.7 25.18 65.53 25.18 64.35 25.18 63.18 25.18 62 25.18 60.83 25.18 59.65 25.18 58.48 25.18 57.3 25.18 56.13 25.18 54.95 25.18 53.78 25.18 52.6 25.18 51.43 25.18 50.25 25.18 50.25 26.52 51.43 26.52 52.6 26.52 53.78 26.52 54.95 26.52 56.13 26.52 57.3 26.52 58.48 26.52 59.65 26.52 60.83 26.52 62 26.52 63.18 26.52 64.35 26.52 65.53 26.52 66.7 26.52 67.88 26.52 69.05 26.52 69.05 25.18 67.88 25.18 66.7 25.18"/>
      <polygon class="cls-2" points="62 27.7 60.83 27.7 59.65 27.7 58.48 27.7 57.3 27.7 56.13 27.7 54.95 27.7 53.78 27.7 52.6 27.7 51.43 27.7 50.25 27.7 49.08 27.7 47.9 27.7 46.73 27.7 45.55 27.7 44.38 27.7 43.2 27.7 42.03 27.7 40.85 27.7 39.68 27.7 38.5 27.7 37.33 27.7 36.15 27.7 34.98 27.7 33.8 27.7 32.63 27.7 31.45 27.7 30.28 27.7 29.1 27.7 27.93 27.7 27.93 29.04 29.1 29.04 30.28 29.04 31.45 29.04 32.63 29.04 33.8 29.04 34.98 29.04 36.15 29.04 37.33 29.04 38.5 29.04 39.68 29.04 40.85 29.04 42.03 29.04 43.2 29.04 44.38 29.04 45.55 29.04 46.73 29.04 47.9 29.04 49.08 29.04 50.25 29.04 51.43 29.04 52.6 29.04 53.78 29.04 54.95 29.04 56.13 29.04 57.3 29.04 58.48 29.04 59.65 29.04 60.83 29.04 62 29.04 63.18 29.04 64.35 29.04 64.35 27.7 63.18 27.7 62 27.7"/>
      <rect class="cls-2" x="67.88" y="27.7" width="1.17" height="1.34"/>
      <polygon class="cls-2" points="63.18 30.21 62 30.21 60.83 30.21 59.65 30.21 58.48 30.21 57.3 30.21 56.13 30.21 54.95 30.21 53.78 30.21 52.6 30.21 51.43 30.21 50.25 30.21 49.08 30.21 47.9 30.21 46.73 30.21 45.55 30.21 44.38 30.21 43.2 30.21 42.03 30.21 40.85 30.21 39.68 30.21 38.5 30.21 37.33 30.21 36.15 30.21 34.98 30.21 33.8 30.21 32.63 30.21 31.45 30.21 30.28 30.21 30.28 31.56 31.45 31.56 32.63 31.56 33.8 31.56 34.98 31.56 36.15 31.56 37.33 31.56 38.5 31.56 39.68 31.56 40.85 31.56 42.03 31.56 43.2 31.56 44.38 31.56 45.55 31.56 46.73 31.56 47.9 31.56 49.08 31.56 50.25 31.56 51.43 31.56 52.6 31.56 53.78 31.56 54.95 31.56 56.13 31.56 57.3 31.56 58.48 31.56 59.65 31.56 60.83 31.56 62 31.56 63.18 31.56 64.35 31.56 65.53 31.56 65.53 30.21 64.35 30.21 63.18 30.21"/>
      <polygon class="cls-2" points="64.35 32.73 63.18 32.73 62 32.73 60.83 32.73 59.65 32.73 58.48 32.73 57.3 32.73 56.13 32.73 54.95 32.73 53.78 32.73 52.6 32.73 51.43 32.73 50.25 32.73 49.08 32.73 47.9 32.73 46.73 32.73 45.55 32.73 44.38 32.73 43.2 32.73 42.03 32.73 40.85 32.73 39.68 32.73 38.5 32.73 37.33 32.73 36.15 32.73 34.98 32.73 33.8 32.73 32.63 32.73 31.45 32.73 30.28 32.73 29.1 32.73 27.93 32.73 26.75 32.73 26.75 34.07 27.93 34.07 29.1 34.07 30.28 34.07 31.45 34.07 32.63 34.07 33.8 34.07 34.98 34.07 36.15 34.07 37.33 34.07 38.5 34.07 39.68 34.07 40.85 34.07 42.03 34.07 43.2 34.07 44.38 34.07 45.55 34.07 46.73 34.07 47.9 34.07 49.08 34.07 50.25 34.07 51.43 34.07 52.6 34.07 53.78 34.07 54.95 34.07 56.13 34.07 57.3 34.07 58.48 34.07 59.65 34.07 60.83 34.07 62 34.07 63.18 34.07 64.35 34.07 65.53 34.07 66.7 34.07 66.7 32.73 65.53 32.73 64.35 32.73"/>
      <polygon class="cls-2" points="58.48 35.25 57.3 35.25 56.13 35.25 54.95 35.25 53.78 35.25 52.6 35.25 51.43 35.25 50.25 35.25 49.08 35.25 47.9 35.25 46.73 35.25 45.55 35.25 44.38 35.25 43.2 35.25 42.03 35.25 40.85 35.25 39.68 35.25 38.5 35.25 37.33 35.25 36.15 35.25 34.98 35.25 33.8 35.25 32.63 35.25 31.45 35.25 31.45 36.59 32.63 36.59 33.8 36.59 34.98 36.59 36.15 36.59 37.33 36.59 38.5 36.59 39.68 36.59 40.85 36.59 42.03 36.59 43.2 36.59 44.38 36.59 45.55 36.59 46.73 36.59 47.9 36.59 49.08 36.59 50.25 36.59 51.43 36.59 52.6 36.59 53.78 36.59 54.95 36.59 56.13 36.59 57.3 36.59 58.48 36.59 59.65 36.59 60.83 36.59 60.83 35.25 59.65 35.25 58.48 35.25"/>
      <rect class="cls-2" x="64.35" y="35.25" width="1.17" height="1.34"/>
      <polygon class="cls-2" points="58.48 37.77 57.3 37.77 56.13 37.77 54.95 37.77 53.78 37.77 52.6 37.77 51.43 37.77 50.25 37.77 49.08 37.77 47.9 37.77 46.73 37.77 45.55 37.77 44.38 37.77 43.2 37.77 42.03 37.77 40.85 37.77 39.68 37.77 38.5 37.77 37.33 37.77 36.15 37.77 34.98 37.77 34.98 39.11 36.15 39.11 37.33 39.11 38.5 39.11 39.68 39.11 40.85 39.11 42.03 39.11 43.2 39.11 44.38 39.11 45.55 39.11 46.73 39.11 47.9 39.11 49.08 39.11 50.25 39.11 51.43 39.11 52.6 39.11 53.78 39.11 54.95 39.11 56.13 39.11 57.3 39.11 58.48 39.11 59.65 39.11 60.83 39.11 60.83 37.77 59.65 37.77 58.48 37.77"/>
      <polygon class="cls-2" points="37.33 40.28 36.15 40.28 34.98 40.28 33.8 40.28 32.63 40.28 32.63 41.63 33.8 41.63 34.98 41.63 36.15 41.63 37.33 41.63 38.5 41.63 39.68 41.63 39.68 40.28 38.5 40.28 37.33 40.28"/>
      <polygon class="cls-2" points="52.6 40.28 51.43 40.28 50.25 40.28 49.08 40.28 47.9 40.28 46.73 40.28 45.55 40.28 44.38 40.28 43.2 40.28 42.03 40.28 40.85 40.28 40.85 41.63 42.03 41.63 43.2 41.63 44.38 41.63 45.55 41.63 46.73 41.63 47.9 41.63 49.08 41.63 50.25 41.63 51.43 41.63 52.6 41.63 53.78 41.63 54.95 41.63 54.95 40.28 53.78 40.28 52.6 40.28"/>
      <polygon class="cls-2" points="58.48 40.28 57.3 40.28 57.3 41.63 58.48 41.63 59.65 41.63 60.83 41.63 60.83 40.28 59.65 40.28 58.48 40.28"/>
      <polygon class="cls-2" points="44.38 42.8 43.2 42.8 42.03 42.8 42.03 44.14 43.2 44.14 44.38 44.14 45.55 44.14 46.73 44.14 46.73 42.8 45.55 42.8 44.38 42.8"/>
      <polygon class="cls-2" points="51.43 42.8 50.25 42.8 50.25 44.14 51.43 44.14 52.6 44.14 53.78 44.14 53.78 42.8 52.6 42.8 51.43 42.8"/>
      <g>
        <path class="cls-1" d="M12.41,68.22v1.36H.12v-1.36h12.28ZM6.95,70.95v1.37h-1.36v-1.37h1.36ZM6.95,73.68v1.37h-1.36v-1.37h1.36ZM6.95,76.41v1.36h-1.36v-1.36h1.36ZM6.95,79.14v1.36h-1.36v-1.36h1.36ZM6.95,81.87v1.36h-1.36v-1.36h1.36ZM6.95,84.6v1.36h-1.36v-1.36h1.36Z"/>
        <path class="cls-1" d="M27.42,68.22v1.36h-10.92v-1.36h10.92ZM17.87,70.95v1.37h-1.37v-1.37h1.37ZM17.87,73.68v1.37h-1.37v-1.37h1.37ZM27.42,76.41v1.36h-10.92v-1.36h10.92ZM17.87,79.14v1.36h-1.37v-1.36h1.37ZM17.87,81.87v1.36h-1.37v-1.36h1.37ZM17.87,84.6v1.36h-1.37v-1.36h1.37ZM23.33,79.14v1.36h-1.36v-1.36h1.36ZM26.06,81.87v1.36h-1.36v-1.36h1.36ZM28.79,70.95v1.37h-1.36v-1.37h1.36ZM28.79,73.68v1.37h-1.36v-1.37h1.36ZM28.79,84.6v1.36h-1.36v-1.36h1.36Z"/>
        <path class="cls-1" d="M45.17,68.22v1.36h-12.28v-1.36h12.28ZM34.25,70.95v1.37h-1.37v-1.37h1.37ZM34.25,73.68v1.37h-1.37v-1.37h1.37ZM42.44,76.41v1.36h-9.55v-1.36h9.55ZM34.25,79.14v1.36h-1.37v-1.36h1.37ZM34.25,81.87v1.36h-1.37v-1.36h1.37ZM45.17,84.6v1.36h-12.28v-1.36h12.28Z"/>
        <path class="cls-1" d="M61.55,68.22v1.36h-12.29v-1.36h12.29ZM50.63,70.95v1.37h-1.37v-1.37h1.37ZM50.63,73.68v1.37h-1.37v-1.37h1.37ZM58.82,76.41v1.36h-9.56v-1.36h9.56ZM50.63,79.14v1.36h-1.37v-1.36h1.37ZM50.63,81.87v1.36h-1.37v-1.36h1.37ZM61.55,84.6v1.36h-12.29v-1.36h12.29Z"/>
        <path class="cls-1" d="M67.01,70.95v1.37h-1.36v-1.37h1.36ZM67.01,73.68v1.37h-1.36v-1.37h1.36ZM77.93,76.41v1.36h-12.28v-1.36h12.28ZM67.01,79.14v1.36h-1.36v-1.36h1.36ZM67.01,81.87v1.36h-1.36v-1.36h1.36ZM67.01,84.6v1.36h-1.36v-1.36h1.36ZM76.56,68.22v1.36h-9.56v-1.36h9.56ZM77.93,70.95v1.37h-1.36v-1.37h1.36ZM77.93,73.68v1.37h-1.36v-1.37h1.36ZM77.93,79.14v1.36h-1.36v-1.36h1.36ZM77.93,81.87v1.36h-1.36v-1.36h1.36ZM77.93,84.6v1.36h-1.36v-1.36h1.36Z"/>
        <path class="cls-1" d="M83.39,68.22v1.36h-1.36v-1.36h1.36ZM83.39,70.95v1.37h-1.36v-1.37h1.36ZM83.39,73.68v1.37h-1.36v-1.37h1.36ZM83.39,76.41v1.36h-1.36v-1.36h1.36ZM83.39,79.14v1.36h-1.36v-1.36h1.36ZM83.39,81.87v1.36h-1.36v-1.36h1.36ZM94.31,84.6v1.36h-12.28v-1.36h12.28Z"/>
      </g>
    </g>
  </g>
</svg>