<?xml version="1.0" encoding="UTF-8"?>
<svg id="Livello_2" data-name="Livello 2" xmlns="http://www.w3.org/2000/svg" viewBox="0 0 55.94 54.22">
  <defs>
    <style>
      .cls-1 {
        fill: #fff;
      }
    </style>
  </defs>
  <g id="Livello_1-2" data-name="Livello 1">
    <g>
      <polygon class="cls-1" points="29.37 2.52 28.19 2.52 27.02 2.52 27.02 3.86 28.19 3.86 29.37 3.86 29.37 2.52"/>
      <polygon class="cls-1" points="29.37 0 28.19 0 27.02 0 27.02 1.34 28.19 1.34 29.37 1.34 29.37 0"/>
      <polygon class="cls-1" points="27.02 5.04 27.02 6.38 28.19 6.38 29.37 6.38 29.37 5.04 28.19 5.04 27.02 5.04"/>
      <polygon class="cls-1" points="24.67 7.55 24.67 8.9 25.84 8.9 27.02 8.9 28.19 8.9 29.37 8.9 30.54 8.9 31.72 8.9 31.72 7.55 30.54 7.55 29.37 7.55 28.19 7.55 27.02 7.55 25.84 7.55 24.67 7.55"/>
      <polygon class="cls-1" points="22.32 10.07 21.14 10.07 19.97 10.07 18.79 10.07 18.79 11.41 19.97 11.41 21.14 11.41 22.32 11.41 23.49 11.41 24.67 11.41 24.67 10.07 23.49 10.07 22.32 10.07"/>
      <polygon class="cls-1" points="29.37 11.41 29.37 10.07 28.19 10.07 27.02 10.07 27.02 11.41 28.19 11.41 29.37 11.41"/>
      <polygon class="cls-1" points="35.24 10.07 34.07 10.07 32.89 10.07 31.72 10.07 31.72 11.41 32.89 11.41 34.07 11.41 35.24 11.41 36.42 11.41 37.59 11.41 37.59 10.07 36.42 10.07 35.24 10.07"/>
      <polygon class="cls-1" points="17.62 13.93 18.79 13.93 18.79 12.59 17.62 12.59 16.44 12.59 15.27 12.59 15.27 13.93 16.44 13.93 17.62 13.93"/>
      <polygon class="cls-1" points="27.02 13.93 28.19 13.93 29.37 13.93 29.37 12.59 28.19 12.59 27.02 12.59 27.02 13.93"/>
      <polygon class="cls-1" points="39.94 13.93 41.11 13.93 41.11 12.59 39.94 12.59 38.76 12.59 37.59 12.59 37.59 13.93 38.76 13.93 39.94 13.93"/>
      <polygon class="cls-1" points="15.27 16.45 15.27 15.11 14.09 15.11 12.92 15.11 12.92 16.45 14.09 16.45 15.27 16.45"/>
      <polygon class="cls-1" points="27.02 16.45 28.19 16.45 29.37 16.45 29.37 15.11 28.19 15.11 27.02 15.11 27.02 16.45"/>
      <polygon class="cls-1" points="42.29 16.45 43.46 16.45 43.46 15.11 42.29 15.11 41.11 15.11 39.94 15.11 39.94 16.45 41.11 16.45 42.29 16.45"/>
      <polygon class="cls-1" points="14.09 18.97 14.09 17.62 12.92 17.62 11.74 17.62 11.74 18.97 12.92 18.97 14.09 18.97"/>
      <polygon class="cls-1" points="25.84 17.62 24.67 17.62 23.49 17.62 23.49 18.97 24.67 18.97 25.84 18.97 27.02 18.97 28.19 18.97 29.37 18.97 30.54 18.97 31.72 18.97 32.89 18.97 32.89 17.62 31.72 17.62 30.54 17.62 29.37 17.62 28.19 17.62 27.02 17.62 25.84 17.62"/>
      <polygon class="cls-1" points="43.46 17.62 42.29 17.62 42.29 18.97 43.46 18.97 44.64 18.97 45.81 18.97 45.81 17.62 44.64 17.62 43.46 17.62"/>
      <rect class="cls-1" x="10.57" y="20.14" width="1.17" height="1.34"/>
      <polygon class="cls-1" points="21.14 20.14 19.97 20.14 19.97 21.48 21.14 21.48 22.32 21.48 23.49 21.48 23.49 20.14 22.32 20.14 21.14 20.14"/>
      <polygon class="cls-1" points="32.89 20.14 31.72 20.14 30.54 20.14 29.37 20.14 28.19 20.14 27.02 20.14 27.02 21.48 28.19 21.48 29.37 21.48 30.54 21.48 31.72 21.48 32.89 21.48 34.07 21.48 35.24 21.48 35.24 20.14 34.07 20.14 32.89 20.14"/>
      <polygon class="cls-1" points="44.64 20.14 43.46 20.14 43.46 21.48 44.64 21.48 45.81 21.48 46.99 21.48 46.99 20.14 45.81 20.14 44.64 20.14"/>
      <polygon class="cls-1" points="9.39 22.66 9.39 24 10.57 24 11.74 24 11.74 22.66 10.57 22.66 9.39 22.66"/>
      <polygon class="cls-1" points="18.79 24 19.97 24 21.14 24 21.14 22.66 19.97 22.66 18.79 22.66 18.79 24"/>
      <polygon class="cls-1" points="29.37 22.66 28.19 22.66 27.02 22.66 27.02 24 28.19 24 29.37 24 29.37 22.66"/>
      <polygon class="cls-1" points="34.07 22.66 34.07 24 35.24 24 36.42 24 37.59 24 37.59 22.66 36.42 22.66 35.24 22.66 34.07 22.66"/>
      <polygon class="cls-1" points="46.99 24 46.99 22.66 45.81 22.66 44.64 22.66 44.64 24 45.81 24 46.99 24"/>
      <polygon class="cls-1" points="10.57 26.52 10.57 25.18 9.39 25.18 8.22 25.18 8.22 26.52 9.39 26.52 10.57 26.52"/>
      <polygon class="cls-1" points="17.62 25.18 17.62 26.52 18.79 26.52 19.97 26.52 19.97 25.18 18.79 25.18 17.62 25.18"/>
      <polygon class="cls-1" points="27.02 25.18 27.02 26.52 28.19 26.52 29.37 26.52 29.37 25.18 28.19 25.18 27.02 25.18"/>
      <polygon class="cls-1" points="38.76 25.18 37.59 25.18 36.42 25.18 35.24 25.18 35.24 26.52 36.42 26.52 37.59 26.52 38.76 26.52 38.76 25.18"/>
      <polygon class="cls-1" points="44.64 26.52 45.81 26.52 46.99 26.52 48.16 26.52 48.16 25.18 46.99 25.18 45.81 25.18 44.64 25.18 44.64 26.52"/>
      <polygon class="cls-1" points="38.76 27.7 37.59 27.7 36.42 27.7 35.24 27.7 34.07 27.7 32.89 27.7 31.72 27.7 30.54 27.7 29.37 27.7 28.19 27.7 27.02 27.7 25.84 27.7 24.67 27.7 23.49 27.7 22.32 27.7 21.14 27.7 19.97 27.7 18.79 27.7 17.62 27.7 17.62 29.04 18.79 29.04 19.97 29.04 21.14 29.04 22.32 29.04 23.49 29.04 24.67 29.04 25.84 29.04 27.02 29.04 28.19 29.04 29.37 29.04 30.54 29.04 31.72 29.04 32.89 29.04 34.07 29.04 35.24 29.04 36.42 29.04 37.59 29.04 38.76 29.04 38.76 27.7"/>
      <polygon class="cls-1" points="45.81 27.7 40.53 27.7 40.53 29.04 45.81 29.04 46.99 29.04 55.94 29.04 55.94 27.7 46.99 27.7 45.81 27.7"/>
      <polygon class="cls-1" points="9.39 29.04 10.57 29.04 15.41 29.04 15.41 27.7 10.57 27.7 9.39 27.7 8.22 27.7 0 27.7 0 29.04 8.22 29.04 9.39 29.04"/>
      <polygon class="cls-1" points="8.22 30.21 8.22 31.56 9.39 31.56 10.57 31.56 10.57 30.21 9.39 30.21 8.22 30.21"/>
      <polygon class="cls-1" points="17.62 30.21 17.62 31.56 18.79 31.56 19.97 31.56 19.97 30.21 18.79 30.21 17.62 30.21"/>
      <polygon class="cls-1" points="27.02 30.21 27.02 31.56 28.19 31.56 29.37 31.56 29.37 30.21 28.19 30.21 27.02 30.21"/>
      <rect class="cls-1" x="36.42" y="30.21" width="1.17" height="1.34"/>
      <polygon class="cls-1" points="44.64 30.21 44.64 31.56 45.81 31.56 46.99 31.56 46.99 30.21 45.81 30.21 44.64 30.21"/>
      <polygon class="cls-1" points="9.39 32.73 9.39 34.07 10.57 34.07 11.74 34.07 11.74 32.73 10.57 32.73 9.39 32.73"/>
      <polygon class="cls-1" points="25.84 32.73 24.67 32.73 23.49 32.73 22.32 32.73 21.14 32.73 19.97 32.73 19.97 34.07 21.14 34.07 22.32 34.07 23.49 34.07 24.67 34.07 25.84 34.07 27.02 34.07 28.19 34.07 29.37 34.07 29.37 32.73 28.19 32.73 27.02 32.73 25.84 32.73"/>
      <polygon class="cls-1" points="36.42 34.07 36.42 32.73 35.24 32.73 34.07 32.73 34.07 34.07 35.24 34.07 36.42 34.07"/>
      <polygon class="cls-1" points="44.64 34.07 45.81 34.07 46.99 34.07 46.99 32.73 45.81 32.73 44.64 32.73 44.64 34.07"/>
      <polygon class="cls-1" points="10.57 35.25 10.57 36.59 11.74 36.59 12.92 36.59 12.92 35.25 11.74 35.25 10.57 35.25"/>
      <polygon class="cls-1" points="31.72 35.25 30.54 35.25 29.37 35.25 28.19 35.25 27.02 35.25 25.84 35.25 24.67 35.25 23.49 35.25 22.32 35.25 22.32 36.59 23.49 36.59 24.67 36.59 25.84 36.59 27.02 36.59 28.19 36.59 29.37 36.59 30.54 36.59 31.72 36.59 32.89 36.59 34.07 36.59 34.07 35.25 32.89 35.25 31.72 35.25"/>
      <polygon class="cls-1" points="43.46 35.25 43.46 36.59 44.64 36.59 45.81 36.59 45.81 35.25 44.64 35.25 43.46 35.25"/>
      <polygon class="cls-1" points="11.74 37.77 11.74 39.11 12.92 39.11 14.09 39.11 14.09 37.77 12.92 37.77 11.74 37.77"/>
      <polygon class="cls-1" points="29.37 39.11 29.37 37.77 28.19 37.77 27.02 37.77 27.02 39.11 28.19 39.11 29.37 39.11"/>
      <polygon class="cls-1" points="42.29 37.77 42.29 39.11 43.46 39.11 44.64 39.11 44.64 37.77 43.46 37.77 42.29 37.77"/>
      <polygon class="cls-1" points="14.09 40.28 14.09 41.63 15.27 41.63 16.44 41.63 16.44 40.28 15.27 40.28 14.09 40.28"/>
      <polygon class="cls-1" points="27.02 41.63 28.19 41.63 29.37 41.63 29.37 40.28 28.19 40.28 27.02 40.28 27.02 41.63"/>
      <polygon class="cls-1" points="39.94 40.28 38.76 40.28 38.76 41.63 39.94 41.63 41.11 41.63 42.29 41.63 42.29 40.28 41.11 40.28 39.94 40.28"/>
      <polygon class="cls-1" points="16.44 42.8 16.44 44.14 17.62 44.14 18.79 44.14 19.97 44.14 21.14 44.14 21.14 42.8 19.97 42.8 18.79 42.8 17.62 42.8 16.44 42.8"/>
      <polygon class="cls-1" points="27.02 44.14 28.19 44.14 29.37 44.14 29.37 42.8 28.19 42.8 27.02 42.8 27.02 44.14"/>
      <polygon class="cls-1" points="37.59 42.8 36.42 42.8 35.24 42.8 35.24 44.14 36.42 44.14 37.59 44.14 38.76 44.14 39.94 44.14 39.94 42.8 38.76 42.8 37.59 42.8"/>
      <polygon class="cls-1" points="32.89 45.32 31.72 45.32 30.54 45.32 29.37 45.32 28.19 45.32 27.02 45.32 25.84 45.32 24.67 45.32 23.49 45.32 22.32 45.32 21.14 45.32 21.14 46.66 22.32 46.66 23.49 46.66 24.67 46.66 25.84 46.66 27.02 46.66 28.19 46.66 29.37 46.66 30.54 46.66 31.72 46.66 32.89 46.66 34.07 46.66 35.24 46.66 35.24 45.32 34.07 45.32 32.89 45.32"/>
      <polygon class="cls-1" points="29.37 49.18 29.37 47.84 28.19 47.84 27.02 47.84 27.02 49.18 28.19 49.18 29.37 49.18"/>
      <polygon class="cls-1" points="27.02 51.7 28.19 51.7 29.37 51.7 29.37 50.36 28.19 50.36 27.02 50.36 27.02 51.7"/>
      <polygon class="cls-1" points="27.02 54.22 28.19 54.22 29.37 54.22 29.37 52.87 28.19 52.87 27.02 52.87 27.02 54.22"/>
    </g>
  </g>
</svg>