<?xml version="1.0" encoding="UTF-8"?>
<svg id="Livello_2" data-name="Livello 2" xmlns="http://www.w3.org/2000/svg" viewBox="0 0 45.82 44.14">
  <defs>
    <style>
      .cls-1 {
        fill: #fff;
      }
    </style>
  </defs>
  <g id="Livello_1-2" data-name="Livello 1">
    <g>
      <rect class="cls-1" x="15.27" width="1.17" height="1.34"/>
      <polygon class="cls-1" points="25.85 1.34 25.85 0 24.67 0 23.5 0 22.32 0 21.15 0 21.15 1.34 22.32 1.34 23.5 1.34 24.67 1.34 25.85 1.34"/>
      <polygon class="cls-1" points="12.92 2.52 12.92 3.86 14.1 3.86 15.27 3.86 15.27 2.52 14.1 2.52 12.92 2.52"/>
      <polygon class="cls-1" points="21.15 3.86 22.32 3.86 23.5 3.86 24.67 3.86 24.67 2.52 23.5 2.52 22.32 2.52 21.15 2.52 19.97 2.52 18.8 2.52 18.8 3.86 19.97 3.86 21.15 3.86"/>
      <polygon class="cls-1" points="34.07 3.86 35.25 3.86 35.25 2.52 34.07 2.52 32.9 2.52 31.72 2.52 30.55 2.52 29.37 2.52 29.37 3.86 30.55 3.86 31.72 3.86 32.9 3.86 34.07 3.86"/>
      <polygon class="cls-1" points="9.4 5.04 8.22 5.04 7.05 5.04 7.05 6.38 8.22 6.38 9.4 6.38 9.4 5.04"/>
      <polygon class="cls-1" points="14.1 6.38 15.27 6.38 16.45 6.38 17.62 6.38 18.8 6.38 19.97 6.38 21.15 6.38 22.32 6.38 23.5 6.38 24.67 6.38 25.85 6.38 27.02 6.38 28.2 6.38 29.37 6.38 30.55 6.38 31.72 6.38 32.9 6.38 32.9 5.04 31.72 5.04 30.55 5.04 29.37 5.04 28.2 5.04 27.02 5.04 25.85 5.04 24.67 5.04 23.5 5.04 22.32 5.04 21.15 5.04 19.97 5.04 18.8 5.04 17.62 5.04 16.45 5.04 15.27 5.04 14.1 5.04 12.92 5.04 11.75 5.04 11.75 6.38 12.92 6.38 14.1 6.38"/>
      <polygon class="cls-1" points="5.87 8.9 7.05 8.9 8.22 8.9 9.4 8.9 9.4 7.55 8.22 7.55 7.05 7.55 5.87 7.55 5.87 8.9"/>
      <polygon class="cls-1" points="39.95 8.9 39.95 7.55 38.77 7.55 37.6 7.55 36.42 7.55 35.25 7.55 34.07 7.55 32.9 7.55 31.72 7.55 30.55 7.55 29.37 7.55 28.2 7.55 27.02 7.55 25.85 7.55 24.67 7.55 23.5 7.55 22.32 7.55 21.15 7.55 19.97 7.55 18.8 7.55 17.62 7.55 16.45 7.55 15.27 7.55 14.1 7.55 12.92 7.55 11.75 7.55 10.57 7.55 10.57 8.9 11.75 8.9 12.92 8.9 14.1 8.9 15.27 8.9 16.45 8.9 17.62 8.9 18.8 8.9 19.97 8.9 21.15 8.9 22.32 8.9 23.5 8.9 24.67 8.9 25.85 8.9 27.02 8.9 28.2 8.9 29.37 8.9 30.55 8.9 31.72 8.9 32.9 8.9 34.07 8.9 35.25 8.9 36.42 8.9 37.6 8.9 38.77 8.9 39.95 8.9"/>
      <polygon class="cls-1" points="38.77 10.07 37.6 10.07 36.42 10.07 35.25 10.07 34.07 10.07 32.9 10.07 31.72 10.07 30.55 10.07 29.37 10.07 28.2 10.07 27.02 10.07 25.85 10.07 24.67 10.07 23.5 10.07 22.32 10.07 21.15 10.07 19.97 10.07 18.8 10.07 17.62 10.07 16.45 10.07 15.27 10.07 14.1 10.07 12.92 10.07 11.75 10.07 10.57 10.07 9.4 10.07 8.22 10.07 7.05 10.07 5.87 10.07 5.87 11.41 7.05 11.41 8.22 11.41 9.4 11.41 10.57 11.41 11.75 11.41 12.92 11.41 14.1 11.41 15.27 11.41 16.45 11.41 17.62 11.41 18.8 11.41 19.97 11.41 21.15 11.41 22.32 11.41 23.5 11.41 24.67 11.41 25.85 11.41 27.02 11.41 28.2 11.41 29.37 11.41 30.55 11.41 31.72 11.41 32.9 11.41 34.07 11.41 35.25 11.41 36.42 11.41 37.6 11.41 38.77 11.41 38.77 10.07"/>
      <rect class="cls-1" x="39.95" y="10.07" width="1.17" height="1.34"/>
      <rect class="cls-1" x="2.35" y="12.59" width="1.17" height="1.34"/>
      <polygon class="cls-1" points="8.22 13.93 9.4 13.93 10.57 13.93 11.75 13.93 12.92 13.93 14.1 13.93 15.27 13.93 16.45 13.93 17.62 13.93 18.8 13.93 19.97 13.93 21.15 13.93 22.32 13.93 23.5 13.93 24.67 13.93 25.85 13.93 27.02 13.93 28.2 13.93 29.37 13.93 30.55 13.93 31.72 13.93 32.9 13.93 34.07 13.93 35.25 13.93 36.42 13.93 37.6 13.93 38.77 13.93 38.77 12.59 37.6 12.59 36.42 12.59 35.25 12.59 34.07 12.59 32.9 12.59 31.72 12.59 30.55 12.59 29.37 12.59 28.2 12.59 27.02 12.59 25.85 12.59 24.67 12.59 23.5 12.59 22.32 12.59 21.15 12.59 19.97 12.59 18.8 12.59 17.62 12.59 16.45 12.59 15.27 12.59 14.1 12.59 12.92 12.59 11.75 12.59 10.57 12.59 9.4 12.59 8.22 12.59 7.05 12.59 5.87 12.59 5.87 13.93 7.05 13.93 8.22 13.93"/>
      <polygon class="cls-1" points="3.52 16.45 4.7 16.45 5.87 16.45 7.05 16.45 8.22 16.45 9.4 16.45 10.57 16.45 11.75 16.45 12.92 16.45 14.1 16.45 15.27 16.45 16.45 16.45 17.62 16.45 18.8 16.45 19.97 16.45 21.15 16.45 22.32 16.45 23.5 16.45 24.67 16.45 25.85 16.45 27.02 16.45 28.2 16.45 29.37 16.45 30.55 16.45 31.72 16.45 32.9 16.45 34.07 16.45 35.25 16.45 36.42 16.45 37.6 16.45 38.77 16.45 39.95 16.45 41.12 16.45 42.3 16.45 43.47 16.45 44.65 16.45 44.65 15.11 43.47 15.11 42.3 15.11 41.12 15.11 39.95 15.11 38.77 15.11 37.6 15.11 36.42 15.11 35.25 15.11 34.07 15.11 32.9 15.11 31.72 15.11 30.55 15.11 29.37 15.11 28.2 15.11 27.02 15.11 25.85 15.11 24.67 15.11 23.5 15.11 22.32 15.11 21.15 15.11 19.97 15.11 18.8 15.11 17.62 15.11 16.45 15.11 15.27 15.11 14.1 15.11 12.92 15.11 11.75 15.11 10.57 15.11 9.4 15.11 8.22 15.11 7.05 15.11 5.87 15.11 4.7 15.11 3.52 15.11 2.35 15.11 1.17 15.11 1.17 16.45 2.35 16.45 3.52 16.45"/>
      <polygon class="cls-1" points="27.02 18.97 28.2 18.97 29.37 18.97 30.55 18.97 31.72 18.97 32.9 18.97 34.07 18.97 35.25 18.97 36.42 18.97 37.6 18.97 38.77 18.97 39.95 18.97 41.12 18.97 42.3 18.97 42.3 17.62 41.12 17.62 39.95 17.62 38.77 17.62 37.6 17.62 36.42 17.62 35.25 17.62 34.07 17.62 32.9 17.62 31.72 17.62 30.55 17.62 29.37 17.62 28.2 17.62 27.02 17.62 25.85 17.62 24.67 17.62 23.5 17.62 22.32 17.62 21.15 17.62 19.97 17.62 18.8 17.62 17.62 17.62 16.45 17.62 15.27 17.62 14.1 17.62 12.92 17.62 11.75 17.62 10.57 17.62 9.4 17.62 8.22 17.62 7.05 17.62 5.87 17.62 4.7 17.62 3.52 17.62 2.35 17.62 2.35 18.97 3.52 18.97 4.7 18.97 5.87 18.97 7.05 18.97 8.22 18.97 9.4 18.97 10.57 18.97 11.75 18.97 12.92 18.97 14.1 18.97 15.27 18.97 16.45 18.97 17.62 18.97 18.8 18.97 19.97 18.97 21.15 18.97 22.32 18.97 23.5 18.97 24.67 18.97 25.85 18.97 27.02 18.97"/>
      <polygon class="cls-1" points="43.47 17.62 43.47 18.97 44.65 18.97 45.82 18.97 45.82 17.62 44.65 17.62 43.47 17.62"/>
      <polygon class="cls-1" points="16.45 20.14 15.27 20.14 14.1 20.14 12.92 20.14 11.75 20.14 10.57 20.14 9.4 20.14 8.22 20.14 7.05 20.14 5.87 20.14 4.7 20.14 4.7 21.48 5.87 21.48 7.05 21.48 8.22 21.48 9.4 21.48 10.57 21.48 11.75 21.48 12.92 21.48 14.1 21.48 15.27 21.48 16.45 21.48 17.62 21.48 18.8 21.48 18.8 20.14 17.62 20.14 16.45 20.14"/>
      <polygon class="cls-1" points="38.77 20.14 37.6 20.14 36.42 20.14 35.25 20.14 34.07 20.14 32.9 20.14 31.72 20.14 30.55 20.14 29.37 20.14 28.2 20.14 27.02 20.14 27.02 21.48 28.2 21.48 29.37 21.48 30.55 21.48 31.72 21.48 32.9 21.48 34.07 21.48 35.25 21.48 36.42 21.48 37.6 21.48 38.77 21.48 39.95 21.48 41.12 21.48 41.12 20.14 39.95 20.14 38.77 20.14"/>
      <polygon class="cls-1" points="2.35 24 3.52 24 4.7 24 5.87 24 7.05 24 8.22 24 9.4 24 10.57 24 11.75 24 12.92 24 14.1 24 15.27 24 16.45 24 17.62 24 18.8 24 18.8 22.66 17.62 22.66 16.45 22.66 15.27 22.66 14.1 22.66 12.92 22.66 11.75 22.66 10.57 22.66 9.4 22.66 8.22 22.66 7.05 22.66 5.87 22.66 4.7 22.66 3.52 22.66 2.35 22.66 1.17 22.66 0 22.66 0 24 1.17 24 2.35 24"/>
      <polygon class="cls-1" points="29.37 24 30.55 24 31.72 24 32.9 24 34.07 24 35.25 24 36.42 24 37.6 24 38.77 24 39.95 24 41.12 24 42.3 24 43.47 24 43.47 22.66 42.3 22.66 41.12 22.66 39.95 22.66 38.77 22.66 37.6 22.66 36.42 22.66 35.25 22.66 34.07 22.66 32.9 22.66 31.72 22.66 30.55 22.66 29.37 22.66 28.2 22.66 27.02 22.66 27.02 24 28.2 24 29.37 24"/>
      <polygon class="cls-1" points="3.52 26.52 4.7 26.52 5.87 26.52 7.05 26.52 8.22 26.52 9.4 26.52 10.57 26.52 11.75 26.52 12.92 26.52 14.1 26.52 15.27 26.52 16.45 26.52 17.62 26.52 18.8 26.52 19.97 26.52 21.15 26.52 21.15 25.18 19.97 25.18 18.8 25.18 17.62 25.18 16.45 25.18 15.27 25.18 14.1 25.18 12.92 25.18 11.75 25.18 10.57 25.18 9.4 25.18 8.22 25.18 7.05 25.18 5.87 25.18 4.7 25.18 3.52 25.18 2.35 25.18 1.17 25.18 0 25.18 0 26.52 1.17 26.52 2.35 26.52 3.52 26.52"/>
      <polygon class="cls-1" points="42.3 25.18 41.12 25.18 39.95 25.18 38.77 25.18 37.6 25.18 36.42 25.18 35.25 25.18 34.07 25.18 32.9 25.18 31.72 25.18 30.55 25.18 29.37 25.18 28.2 25.18 27.02 25.18 25.85 25.18 25.85 26.52 27.02 26.52 28.2 26.52 29.37 26.52 30.55 26.52 31.72 26.52 32.9 26.52 34.07 26.52 35.25 26.52 36.42 26.52 37.6 26.52 38.77 26.52 39.95 26.52 41.12 26.52 42.3 26.52 43.47 26.52 44.65 26.52 44.65 25.18 43.47 25.18 42.3 25.18"/>
      <polygon class="cls-1" points="37.6 27.7 36.42 27.7 35.25 27.7 34.07 27.7 32.9 27.7 31.72 27.7 30.55 27.7 29.37 27.7 28.2 27.7 27.02 27.7 25.85 27.7 24.67 27.7 23.5 27.7 22.32 27.7 21.15 27.7 19.97 27.7 18.8 27.7 17.62 27.7 16.45 27.7 15.27 27.7 14.1 27.7 12.92 27.7 11.75 27.7 10.57 27.7 9.4 27.7 8.22 27.7 7.05 27.7 5.87 27.7 4.7 27.7 3.52 27.7 3.52 29.04 4.7 29.04 5.87 29.04 7.05 29.04 8.22 29.04 9.4 29.04 10.57 29.04 11.75 29.04 12.92 29.04 14.1 29.04 15.27 29.04 16.45 29.04 17.62 29.04 18.8 29.04 19.97 29.04 21.15 29.04 22.32 29.04 23.5 29.04 24.67 29.04 25.85 29.04 27.02 29.04 28.2 29.04 29.37 29.04 30.55 29.04 31.72 29.04 32.9 29.04 34.07 29.04 35.25 29.04 36.42 29.04 37.6 29.04 38.77 29.04 39.95 29.04 39.95 27.7 38.77 27.7 37.6 27.7"/>
      <rect class="cls-1" x="43.47" y="27.7" width="1.17" height="1.34"/>
      <polygon class="cls-1" points="38.77 30.21 37.6 30.21 36.42 30.21 35.25 30.21 34.07 30.21 32.9 30.21 31.72 30.21 30.55 30.21 29.37 30.21 28.2 30.21 27.02 30.21 25.85 30.21 24.67 30.21 23.5 30.21 22.32 30.21 21.15 30.21 19.97 30.21 18.8 30.21 17.62 30.21 16.45 30.21 15.27 30.21 14.1 30.21 12.92 30.21 11.75 30.21 10.57 30.21 9.4 30.21 8.22 30.21 7.05 30.21 5.87 30.21 5.87 31.56 7.05 31.56 8.22 31.56 9.4 31.56 10.57 31.56 11.75 31.56 12.92 31.56 14.1 31.56 15.27 31.56 16.45 31.56 17.62 31.56 18.8 31.56 19.97 31.56 21.15 31.56 22.32 31.56 23.5 31.56 24.67 31.56 25.85 31.56 27.02 31.56 28.2 31.56 29.37 31.56 30.55 31.56 31.72 31.56 32.9 31.56 34.07 31.56 35.25 31.56 36.42 31.56 37.6 31.56 38.77 31.56 39.95 31.56 41.12 31.56 41.12 30.21 39.95 30.21 38.77 30.21"/>
      <polygon class="cls-1" points="39.95 32.73 38.77 32.73 37.6 32.73 36.42 32.73 35.25 32.73 34.07 32.73 32.9 32.73 31.72 32.73 30.55 32.73 29.37 32.73 28.2 32.73 27.02 32.73 25.85 32.73 24.67 32.73 23.5 32.73 22.32 32.73 21.15 32.73 19.97 32.73 18.8 32.73 17.62 32.73 16.45 32.73 15.27 32.73 14.1 32.73 12.92 32.73 11.75 32.73 10.57 32.73 9.4 32.73 8.22 32.73 7.05 32.73 5.87 32.73 4.7 32.73 3.52 32.73 2.35 32.73 2.35 34.07 3.52 34.07 4.7 34.07 5.87 34.07 7.05 34.07 8.22 34.07 9.4 34.07 10.57 34.07 11.75 34.07 12.92 34.07 14.1 34.07 15.27 34.07 16.45 34.07 17.62 34.07 18.8 34.07 19.97 34.07 21.15 34.07 22.32 34.07 23.5 34.07 24.67 34.07 25.85 34.07 27.02 34.07 28.2 34.07 29.37 34.07 30.55 34.07 31.72 34.07 32.9 34.07 34.07 34.07 35.25 34.07 36.42 34.07 37.6 34.07 38.77 34.07 39.95 34.07 41.12 34.07 42.3 34.07 42.3 32.73 41.12 32.73 39.95 32.73"/>
      <polygon class="cls-1" points="34.07 35.25 32.9 35.25 31.72 35.25 30.55 35.25 29.37 35.25 28.2 35.25 27.02 35.25 25.85 35.25 24.67 35.25 23.5 35.25 22.32 35.25 21.15 35.25 19.97 35.25 18.8 35.25 17.62 35.25 16.45 35.25 15.27 35.25 14.1 35.25 12.92 35.25 11.75 35.25 10.57 35.25 9.4 35.25 8.22 35.25 7.05 35.25 7.05 36.59 8.22 36.59 9.4 36.59 10.57 36.59 11.75 36.59 12.92 36.59 14.1 36.59 15.27 36.59 16.45 36.59 17.62 36.59 18.8 36.59 19.97 36.59 21.15 36.59 22.32 36.59 23.5 36.59 24.67 36.59 25.85 36.59 27.02 36.59 28.2 36.59 29.37 36.59 30.55 36.59 31.72 36.59 32.9 36.59 34.07 36.59 35.25 36.59 36.42 36.59 36.42 35.25 35.25 35.25 34.07 35.25"/>
      <rect class="cls-1" x="39.95" y="35.25" width="1.17" height="1.34"/>
      <polygon class="cls-1" points="34.07 37.77 32.9 37.77 31.72 37.77 30.55 37.77 29.37 37.77 28.2 37.77 27.02 37.77 25.85 37.77 24.67 37.77 23.5 37.77 22.32 37.77 21.15 37.77 19.97 37.77 18.8 37.77 17.62 37.77 16.45 37.77 15.27 37.77 14.1 37.77 12.92 37.77 11.75 37.77 10.57 37.77 10.57 39.11 11.75 39.11 12.92 39.11 14.1 39.11 15.27 39.11 16.45 39.11 17.62 39.11 18.8 39.11 19.97 39.11 21.15 39.11 22.32 39.11 23.5 39.11 24.67 39.11 25.85 39.11 27.02 39.11 28.2 39.11 29.37 39.11 30.55 39.11 31.72 39.11 32.9 39.11 34.07 39.11 35.25 39.11 36.42 39.11 36.42 37.77 35.25 37.77 34.07 37.77"/>
      <polygon class="cls-1" points="12.92 40.28 11.75 40.28 10.57 40.28 9.4 40.28 8.22 40.28 8.22 41.63 9.4 41.63 10.57 41.63 11.75 41.63 12.92 41.63 14.1 41.63 15.27 41.63 15.27 40.28 14.1 40.28 12.92 40.28"/>
      <polygon class="cls-1" points="28.2 40.28 27.02 40.28 25.85 40.28 24.67 40.28 23.5 40.28 22.32 40.28 21.15 40.28 19.97 40.28 18.8 40.28 17.62 40.28 16.45 40.28 16.45 41.63 17.62 41.63 18.8 41.63 19.97 41.63 21.15 41.63 22.32 41.63 23.5 41.63 24.67 41.63 25.85 41.63 27.02 41.63 28.2 41.63 29.37 41.63 30.55 41.63 30.55 40.28 29.37 40.28 28.2 40.28"/>
      <polygon class="cls-1" points="34.07 40.28 32.9 40.28 32.9 41.63 34.07 41.63 35.25 41.63 36.42 41.63 36.42 40.28 35.25 40.28 34.07 40.28"/>
      <polygon class="cls-1" points="19.97 42.8 18.8 42.8 17.62 42.8 17.62 44.14 18.8 44.14 19.97 44.14 21.15 44.14 22.32 44.14 22.32 42.8 21.15 42.8 19.97 42.8"/>
      <polygon class="cls-1" points="27.02 42.8 25.85 42.8 25.85 44.14 27.02 44.14 28.2 44.14 29.37 44.14 29.37 42.8 28.2 42.8 27.02 42.8"/>
    </g>
  </g>
</svg>