<?xml version="1.0" encoding="UTF-8"?>
<svg id="Livello_2" data-name="Livello 2" xmlns="http://www.w3.org/2000/svg" viewBox="0 0 51.7 44.14">
  <defs>
    <style>
      .cls-1 {
        fill: #fff;
      }
    </style>
  </defs>
  <g id="Livello_1-2" data-name="Livello 1">
    <g>
      <polygon class="cls-1" points="24.67 1.34 25.85 1.34 27.02 1.34 28.2 1.34 29.37 1.34 29.37 0 28.2 0 27.02 0 25.85 0 24.67 0 23.5 0 22.32 0 22.32 1.34 23.5 1.34 24.67 1.34"/>
      <polygon class="cls-1" points="8.22 3.86 9.4 3.86 10.57 3.86 11.75 3.86 12.92 3.86 14.1 3.86 15.27 3.86 16.45 3.86 17.62 3.86 18.8 3.86 19.97 3.86 21.15 3.86 22.32 3.86 23.5 3.86 24.67 3.86 25.85 3.86 27.02 3.86 28.2 3.86 29.37 3.86 30.55 3.86 31.72 3.86 32.9 3.86 34.07 3.86 35.25 3.86 36.42 3.86 37.6 3.86 38.77 3.86 39.95 3.86 41.12 3.86 42.3 3.86 43.47 3.86 44.65 3.86 45.82 3.86 45.82 2.52 44.65 2.52 43.47 2.52 42.3 2.52 41.12 2.52 39.95 2.52 38.77 2.52 37.6 2.52 36.42 2.52 35.25 2.52 34.07 2.52 32.9 2.52 31.72 2.52 30.55 2.52 29.37 2.52 28.2 2.52 27.02 2.52 25.85 2.52 24.67 2.52 23.5 2.52 22.32 2.52 21.15 2.52 19.97 2.52 18.8 2.52 17.62 2.52 16.45 2.52 15.27 2.52 14.1 2.52 12.92 2.52 11.75 2.52 10.57 2.52 9.4 2.52 8.22 2.52 7.05 2.52 5.87 2.52 5.87 3.86 7.05 3.86 8.22 3.86"/>
      <polygon class="cls-1" points="9.4 5.04 8.22 5.04 8.22 6.38 9.4 6.38 10.57 6.38 11.75 6.38 11.75 5.04 10.57 5.04 9.4 5.04"/>
      <polygon class="cls-1" points="29.37 6.38 29.37 5.04 28.2 5.04 27.02 5.04 25.85 5.04 24.67 5.04 23.5 5.04 22.32 5.04 22.32 6.38 23.5 6.38 24.67 6.38 25.85 6.38 27.02 6.38 28.2 6.38 29.37 6.38"/>
      <polygon class="cls-1" points="42.3 6.38 43.47 6.38 44.65 6.38 44.65 5.04 43.47 5.04 42.3 5.04 41.12 5.04 39.95 5.04 39.95 6.38 41.12 6.38 42.3 6.38"/>
      <polygon class="cls-1" points="7.05 7.55 7.05 8.9 8.22 8.9 9.4 8.9 9.4 7.55 8.22 7.55 7.05 7.55"/>
      <polygon class="cls-1" points="10.57 7.55 10.57 8.9 11.75 8.9 12.92 8.9 12.92 7.55 11.75 7.55 10.57 7.55"/>
      <polygon class="cls-1" points="28.2 7.55 27.02 7.55 25.85 7.55 24.67 7.55 23.5 7.55 23.5 8.9 24.67 8.9 25.85 8.9 27.02 8.9 28.2 8.9 28.2 7.55"/>
      <polygon class="cls-1" points="41.12 7.55 39.95 7.55 38.77 7.55 38.77 8.9 39.95 8.9 41.12 8.9 41.12 7.55"/>
      <polygon class="cls-1" points="44.65 8.9 44.65 7.55 43.47 7.55 42.3 7.55 42.3 8.9 43.47 8.9 44.65 8.9"/>
      <polygon class="cls-1" points="8.22 11.41 8.22 10.07 7.05 10.07 5.87 10.07 5.87 11.41 7.05 11.41 8.22 11.41"/>
      <polygon class="cls-1" points="11.75 10.07 10.57 10.07 10.57 11.41 11.75 11.41 12.92 11.41 14.1 11.41 14.1 10.07 12.92 10.07 11.75 10.07"/>
      <polygon class="cls-1" points="28.2 10.07 27.02 10.07 25.85 10.07 24.67 10.07 23.5 10.07 23.5 11.41 24.67 11.41 25.85 11.41 27.02 11.41 28.2 11.41 28.2 10.07"/>
      <polygon class="cls-1" points="41.12 11.41 41.12 10.07 39.95 10.07 38.77 10.07 38.77 11.41 39.95 11.41 41.12 11.41"/>
      <polygon class="cls-1" points="45.82 11.41 45.82 10.07 44.65 10.07 43.47 10.07 43.47 11.41 44.65 11.41 45.82 11.41"/>
      <polygon class="cls-1" points="7.05 13.93 8.22 13.93 8.22 12.59 7.05 12.59 5.87 12.59 4.7 12.59 4.7 13.93 5.87 13.93 7.05 13.93"/>
      <polygon class="cls-1" points="14.1 13.93 14.1 12.59 12.92 12.59 11.75 12.59 11.75 13.93 12.92 13.93 14.1 13.93"/>
      <polygon class="cls-1" points="28.2 12.59 27.02 12.59 25.85 12.59 24.67 12.59 23.5 12.59 23.5 13.93 24.67 13.93 25.85 13.93 27.02 13.93 28.2 13.93 28.2 12.59"/>
      <polygon class="cls-1" points="39.95 13.93 39.95 12.59 38.77 12.59 37.6 12.59 37.6 13.93 38.77 13.93 39.95 13.93"/>
      <polygon class="cls-1" points="44.65 12.59 44.65 13.93 45.82 13.93 47 13.93 47 12.59 45.82 12.59 44.65 12.59"/>
      <polygon class="cls-1" points="7.05 16.45 7.05 15.11 5.87 15.11 4.7 15.11 4.7 16.45 5.87 16.45 7.05 16.45"/>
      <polygon class="cls-1" points="12.92 15.11 12.92 16.45 14.1 16.45 15.27 16.45 15.27 15.11 14.1 15.11 12.92 15.11"/>
      <polygon class="cls-1" points="28.2 15.11 27.02 15.11 25.85 15.11 24.67 15.11 23.5 15.11 23.5 16.45 24.67 16.45 25.85 16.45 27.02 16.45 28.2 16.45 28.2 15.11"/>
      <polygon class="cls-1" points="38.77 16.45 38.77 15.11 37.6 15.11 36.42 15.11 36.42 16.45 37.6 16.45 38.77 16.45"/>
      <polygon class="cls-1" points="45.82 15.11 44.65 15.11 44.65 16.45 45.82 16.45 47 16.45 48.17 16.45 48.17 15.11 47 15.11 45.82 15.11"/>
      <polygon class="cls-1" points="5.87 18.97 5.87 17.62 4.7 17.62 3.52 17.62 3.52 18.97 4.7 18.97 5.87 18.97"/>
      <polygon class="cls-1" points="14.1 17.62 14.1 18.97 15.27 18.97 16.45 18.97 16.45 17.62 15.27 17.62 14.1 17.62"/>
      <polygon class="cls-1" points="28.2 17.62 27.02 17.62 25.85 17.62 24.67 17.62 23.5 17.62 23.5 18.97 24.67 18.97 25.85 18.97 27.02 18.97 28.2 18.97 28.2 17.62"/>
      <rect class="cls-1" x="36.42" y="17.62" width="1.17" height="1.34"/>
      <polygon class="cls-1" points="48.17 18.97 48.17 17.62 47 17.62 45.82 17.62 45.82 18.97 47 18.97 48.17 18.97"/>
      <polygon class="cls-1" points="4.7 21.48 5.87 21.48 5.87 20.14 4.7 20.14 3.52 20.14 2.35 20.14 2.35 21.48 3.52 21.48 4.7 21.48"/>
      <rect class="cls-1" x="15.27" y="20.14" width="1.17" height="1.34"/>
      <polygon class="cls-1" points="28.2 20.14 27.02 20.14 25.85 20.14 24.67 20.14 23.5 20.14 23.5 21.48 24.67 21.48 25.85 21.48 27.02 21.48 28.2 21.48 28.2 20.14"/>
      <polygon class="cls-1" points="37.6 21.48 37.6 20.14 36.42 20.14 35.25 20.14 35.25 21.48 36.42 21.48 37.6 21.48"/>
      <polygon class="cls-1" points="47 20.14 47 21.48 48.17 21.48 49.35 21.48 49.35 20.14 48.17 20.14 47 20.14"/>
      <polygon class="cls-1" points="4.7 24 4.7 22.66 3.52 22.66 2.35 22.66 2.35 24 3.52 24 4.7 24"/>
      <polygon class="cls-1" points="15.27 22.66 15.27 24 16.45 24 17.62 24 17.62 22.66 16.45 22.66 15.27 22.66"/>
      <polygon class="cls-1" points="28.2 22.66 27.02 22.66 25.85 22.66 24.67 22.66 23.5 22.66 23.5 24 24.67 24 25.85 24 27.02 24 28.2 24 28.2 22.66"/>
      <polygon class="cls-1" points="36.42 22.66 35.25 22.66 34.07 22.66 34.07 24 35.25 24 36.42 24 36.42 22.66"/>
      <polygon class="cls-1" points="50.52 22.66 49.35 22.66 48.17 22.66 47 22.66 47 24 48.17 24 49.35 24 50.52 24 50.52 22.66"/>
      <polygon class="cls-1" points="3.52 26.52 3.52 25.18 2.35 25.18 1.17 25.18 1.17 26.52 2.35 26.52 3.52 26.52"/>
      <polygon class="cls-1" points="16.45 25.18 16.45 26.52 17.62 26.52 18.8 26.52 18.8 25.18 17.62 25.18 16.45 25.18"/>
      <polygon class="cls-1" points="28.2 25.18 27.02 25.18 25.85 25.18 24.67 25.18 23.5 25.18 23.5 26.52 24.67 26.52 25.85 26.52 27.02 26.52 28.2 26.52 28.2 25.18"/>
      <polygon class="cls-1" points="36.42 26.52 36.42 25.18 35.25 25.18 34.07 25.18 34.07 26.52 35.25 26.52 36.42 26.52"/>
      <polygon class="cls-1" points="48.17 25.18 48.17 26.52 49.35 26.52 50.52 26.52 50.52 25.18 49.35 25.18 48.17 25.18"/>
      <polygon class="cls-1" points="2.35 29.04 3.52 29.04 3.52 27.7 2.35 27.7 1.17 27.7 0 27.7 0 29.04 1.17 29.04 2.35 29.04"/>
      <polygon class="cls-1" points="17.62 27.7 16.45 27.7 16.45 29.04 17.62 29.04 18.8 29.04 19.97 29.04 19.97 27.7 18.8 27.7 17.62 27.7"/>
      <polygon class="cls-1" points="28.2 27.7 27.02 27.7 25.85 27.7 24.67 27.7 23.5 27.7 23.5 29.04 24.67 29.04 25.85 29.04 27.02 29.04 28.2 29.04 28.2 27.7"/>
      <polygon class="cls-1" points="32.9 27.7 32.9 29.04 34.07 29.04 35.25 29.04 35.25 27.7 34.07 27.7 32.9 27.7"/>
      <polygon class="cls-1" points="49.35 27.7 49.35 29.04 50.52 29.04 51.7 29.04 51.7 27.7 50.52 27.7 49.35 27.7"/>
      <polygon class="cls-1" points="4.7 31.56 5.87 31.56 7.05 31.56 8.22 31.56 9.4 31.56 10.57 31.56 11.75 31.56 12.92 31.56 14.1 31.56 15.27 31.56 16.45 31.56 17.62 31.56 18.8 31.56 18.8 30.21 17.62 30.21 16.45 30.21 15.27 30.21 14.1 30.21 12.92 30.21 11.75 30.21 10.57 30.21 9.4 30.21 8.22 30.21 7.05 30.21 5.87 30.21 4.7 30.21 3.52 30.21 2.35 30.21 1.17 30.21 1.17 31.56 2.35 31.56 3.52 31.56 4.7 31.56"/>
      <polygon class="cls-1" points="28.2 30.21 27.02 30.21 25.85 30.21 24.67 30.21 23.5 30.21 23.5 31.56 24.67 31.56 25.85 31.56 27.02 31.56 28.2 31.56 28.2 30.21"/>
      <polygon class="cls-1" points="48.17 30.21 47 30.21 45.82 30.21 44.65 30.21 43.47 30.21 42.3 30.21 41.12 30.21 39.95 30.21 38.77 30.21 37.6 30.21 36.42 30.21 35.25 30.21 34.07 30.21 32.9 30.21 32.9 31.56 34.07 31.56 35.25 31.56 36.42 31.56 37.6 31.56 38.77 31.56 39.95 31.56 41.12 31.56 42.3 31.56 43.47 31.56 44.65 31.56 45.82 31.56 47 31.56 48.17 31.56 49.35 31.56 50.52 31.56 50.52 30.21 49.35 30.21 48.17 30.21"/>
      <polygon class="cls-1" points="8.22 34.07 9.4 34.07 10.57 34.07 11.75 34.07 12.92 34.07 14.1 34.07 15.27 34.07 16.45 34.07 16.45 32.73 15.27 32.73 14.1 32.73 12.92 32.73 11.75 32.73 10.57 32.73 9.4 32.73 8.22 32.73 7.05 32.73 5.87 32.73 4.7 32.73 3.52 32.73 3.52 34.07 4.7 34.07 5.87 34.07 7.05 34.07 8.22 34.07"/>
      <polygon class="cls-1" points="28.2 32.73 27.02 32.73 25.85 32.73 24.67 32.73 23.5 32.73 23.5 34.07 24.67 34.07 25.85 34.07 27.02 34.07 28.2 34.07 28.2 32.73"/>
      <polygon class="cls-1" points="47 32.73 45.82 32.73 44.65 32.73 43.47 32.73 42.3 32.73 41.12 32.73 39.95 32.73 38.77 32.73 37.6 32.73 36.42 32.73 35.25 32.73 35.25 34.07 36.42 34.07 37.6 34.07 38.77 34.07 39.95 34.07 41.12 34.07 42.3 34.07 43.47 34.07 44.65 34.07 45.82 34.07 47 34.07 48.17 34.07 49.35 34.07 49.35 32.73 48.17 32.73 47 32.73"/>
      <polygon class="cls-1" points="28.2 35.25 27.02 35.25 25.85 35.25 24.67 35.25 23.5 35.25 23.5 36.59 24.67 36.59 25.85 36.59 27.02 36.59 28.2 36.59 28.2 35.25"/>
      <polygon class="cls-1" points="25.85 37.77 24.67 37.77 23.5 37.77 23.5 39.11 24.67 39.11 25.85 39.11 27.02 39.11 28.2 39.11 28.2 37.77 27.02 37.77 25.85 37.77"/>
      <polygon class="cls-1" points="32.9 40.28 31.72 40.28 30.55 40.28 29.37 40.28 28.2 40.28 27.02 40.28 25.85 40.28 24.67 40.28 23.5 40.28 22.32 40.28 21.15 40.28 19.97 40.28 18.8 40.28 17.62 40.28 16.45 40.28 16.45 41.63 17.62 41.63 18.8 41.63 19.97 41.63 21.15 41.63 22.32 41.63 23.5 41.63 24.67 41.63 25.85 41.63 27.02 41.63 28.2 41.63 29.37 41.63 30.55 41.63 31.72 41.63 32.9 41.63 34.07 41.63 35.25 41.63 35.25 40.28 34.07 40.28 32.9 40.28"/>
      <rect class="cls-1" x="17.62" y="42.8" width="1.17" height="1.34"/>
      <rect class="cls-1" x="32.9" y="42.8" width="1.17" height="1.34"/>
    </g>
  </g>
</svg>