<?xml version="1.0" encoding="UTF-8"?>
<svg id="Livello_2" data-name="Livello 2" xmlns="http://www.w3.org/2000/svg" viewBox="0 0 36.42 41.63">
  <defs>
    <style>
      .cls-1 {
        fill: #fff;
      }
    </style>
  </defs>
  <g id="Livello_1-2" data-name="Livello 1">
    <g>
      <polygon class="cls-1" points="22.32 0 21.15 0 19.97 0 18.8 0 17.62 0 16.45 0 15.27 0 14.1 0 12.92 0 11.75 0 10.57 0 10.57 1.34 11.75 1.34 12.92 1.34 14.1 1.34 15.27 1.34 16.45 1.34 17.62 1.34 18.8 1.34 19.97 1.34 21.15 1.34 22.32 1.34 23.5 1.34 24.67 1.34 24.67 0 23.5 0 22.32 0"/>
      <polygon class="cls-1" points="27.02 2.52 25.85 2.52 24.67 2.52 23.5 2.52 22.32 2.52 21.15 2.52 19.97 2.52 18.8 2.52 17.62 2.52 16.45 2.52 15.27 2.52 14.1 2.52 12.92 2.52 11.75 2.52 10.57 2.52 9.4 2.52 8.22 2.52 7.05 2.52 7.05 3.86 8.22 3.86 9.4 3.86 10.57 3.86 11.75 3.86 12.92 3.86 14.1 3.86 15.27 3.86 16.45 3.86 17.62 3.86 18.8 3.86 19.97 3.86 21.15 3.86 22.32 3.86 23.5 3.86 24.67 3.86 25.85 3.86 27.02 3.86 28.2 3.86 29.37 3.86 29.37 2.52 28.2 2.52 27.02 2.52"/>
      <polygon class="cls-1" points="10.57 6.38 11.75 6.38 12.92 6.38 14.1 6.38 15.27 6.38 16.45 6.38 17.62 6.38 18.8 6.38 19.97 6.38 21.15 6.38 22.32 6.38 23.5 6.38 24.67 6.38 25.85 6.38 27.02 6.38 28.2 6.38 29.37 6.38 30.55 6.38 30.55 5.04 29.37 5.04 28.2 5.04 27.02 5.04 25.85 5.04 24.67 5.04 23.5 5.04 22.32 5.04 21.15 5.04 19.97 5.04 18.8 5.04 17.62 5.04 16.45 5.04 15.27 5.04 14.1 5.04 12.92 5.04 11.75 5.04 10.57 5.04 9.4 5.04 8.22 5.04 7.05 5.04 5.87 5.04 5.87 6.38 7.05 6.38 8.22 6.38 9.4 6.38 10.57 6.38"/>
      <polygon class="cls-1" points="9.4 8.9 9.4 7.55 8.22 7.55 7.05 7.55 5.87 7.55 4.7 7.55 3.52 7.55 3.52 8.9 4.7 8.9 5.87 8.9 7.05 8.9 8.22 8.9 9.4 8.9"/>
      <polygon class="cls-1" points="30.55 7.55 29.37 7.55 28.2 7.55 27.02 7.55 27.02 8.9 28.2 8.9 29.37 8.9 30.55 8.9 31.72 8.9 32.9 8.9 32.9 7.55 31.72 7.55 30.55 7.55"/>
      <polygon class="cls-1" points="8.22 10.07 7.05 10.07 5.87 10.07 4.7 10.07 3.52 10.07 2.35 10.07 2.35 11.41 3.52 11.41 4.7 11.41 5.87 11.41 7.05 11.41 8.22 11.41 8.22 10.07"/>
      <polygon class="cls-1" points="34.07 10.07 32.9 10.07 31.72 10.07 30.55 10.07 29.37 10.07 28.2 10.07 27.02 10.07 27.02 11.41 28.2 11.41 29.37 11.41 30.55 11.41 31.72 11.41 32.9 11.41 34.07 11.41 34.07 10.07"/>
      <polygon class="cls-1" points="8.22 12.59 7.05 12.59 5.87 12.59 4.7 12.59 3.52 12.59 2.35 12.59 1.17 12.59 1.17 13.93 2.35 13.93 3.52 13.93 4.7 13.93 5.87 13.93 7.05 13.93 8.22 13.93 8.22 12.59"/>
      <polygon class="cls-1" points="31.72 12.59 30.55 12.59 29.37 12.59 28.2 12.59 27.02 12.59 27.02 13.93 28.2 13.93 29.37 13.93 30.55 13.93 31.72 13.93 32.9 13.93 34.07 13.93 34.07 12.59 32.9 12.59 31.72 12.59"/>
      <polygon class="cls-1" points="8.22 15.11 7.05 15.11 5.87 15.11 4.7 15.11 3.52 15.11 2.35 15.11 1.17 15.11 1.17 16.45 2.35 16.45 3.52 16.45 4.7 16.45 5.87 16.45 7.05 16.45 8.22 16.45 8.22 15.11"/>
      <polygon class="cls-1" points="35.25 15.11 34.07 15.11 32.9 15.11 31.72 15.11 30.55 15.11 29.37 15.11 28.2 15.11 27.02 15.11 27.02 16.45 28.2 16.45 29.37 16.45 30.55 16.45 31.72 16.45 32.9 16.45 34.07 16.45 35.25 16.45 35.25 15.11"/>
      <polygon class="cls-1" points="8.22 17.62 7.05 17.62 5.87 17.62 4.7 17.62 3.52 17.62 2.35 17.62 1.17 17.62 0 17.62 0 18.97 1.17 18.97 2.35 18.97 3.52 18.97 4.7 18.97 5.87 18.97 7.05 18.97 8.22 18.97 8.22 17.62"/>
      <polygon class="cls-1" points="29.37 18.97 30.55 18.97 31.72 18.97 32.9 18.97 34.07 18.97 35.25 18.97 35.25 17.62 34.07 17.62 32.9 17.62 31.72 17.62 30.55 17.62 29.37 17.62 28.2 17.62 27.02 17.62 27.02 18.97 28.2 18.97 29.37 18.97"/>
      <polygon class="cls-1" points="8.22 20.14 7.05 20.14 5.87 20.14 4.7 20.14 3.52 20.14 2.35 20.14 1.17 20.14 0 20.14 0 21.48 1.17 21.48 2.35 21.48 3.52 21.48 4.7 21.48 5.87 21.48 7.05 21.48 8.22 21.48 8.22 20.14"/>
      <polygon class="cls-1" points="34.07 20.14 32.9 20.14 31.72 20.14 30.55 20.14 29.37 20.14 28.2 20.14 27.02 20.14 27.02 21.48 28.2 21.48 29.37 21.48 30.55 21.48 31.72 21.48 32.9 21.48 34.07 21.48 35.25 21.48 36.42 21.48 36.42 20.14 35.25 20.14 34.07 20.14"/>
      <polygon class="cls-1" points="5.87 22.66 4.7 22.66 3.52 22.66 2.35 22.66 1.17 22.66 0 22.66 0 24 1.17 24 2.35 24 3.52 24 4.7 24 5.87 24 7.05 24 8.22 24 8.22 22.66 7.05 22.66 5.87 22.66"/>
      <polygon class="cls-1" points="34.07 22.66 32.9 22.66 31.72 22.66 30.55 22.66 29.37 22.66 28.2 22.66 27.02 22.66 27.02 24 28.2 24 29.37 24 30.55 24 31.72 24 32.9 24 34.07 24 35.25 24 36.42 24 36.42 22.66 35.25 22.66 34.07 22.66"/>
      <polygon class="cls-1" points="32.9 25.18 31.72 25.18 30.55 25.18 29.37 25.18 28.2 25.18 27.02 25.18 25.85 25.18 24.67 25.18 23.5 25.18 22.32 25.18 21.15 25.18 19.97 25.18 18.8 25.18 17.62 25.18 16.45 25.18 15.27 25.18 14.1 25.18 12.92 25.18 11.75 25.18 10.57 25.18 9.4 25.18 8.22 25.18 7.05 25.18 5.87 25.18 4.7 25.18 3.52 25.18 2.35 25.18 1.17 25.18 0 25.18 0 26.52 1.17 26.52 2.35 26.52 3.52 26.52 4.7 26.52 5.87 26.52 7.05 26.52 8.22 26.52 9.4 26.52 10.57 26.52 11.75 26.52 12.92 26.52 14.1 26.52 15.27 26.52 16.45 26.52 17.62 26.52 18.8 26.52 19.97 26.52 21.15 26.52 22.32 26.52 23.5 26.52 24.67 26.52 25.85 26.52 27.02 26.52 28.2 26.52 29.37 26.52 30.55 26.52 31.72 26.52 32.9 26.52 34.07 26.52 35.25 26.52 35.25 25.18 34.07 25.18 32.9 25.18"/>
      <polygon class="cls-1" points="32.9 27.7 31.72 27.7 30.55 27.7 29.37 27.7 28.2 27.7 27.02 27.7 25.85 27.7 24.67 27.7 23.5 27.7 22.32 27.7 21.15 27.7 19.97 27.7 18.8 27.7 17.62 27.7 16.45 27.7 15.27 27.7 14.1 27.7 12.92 27.7 11.75 27.7 10.57 27.7 9.4 27.7 8.22 27.7 7.05 27.7 5.87 27.7 4.7 27.7 3.52 27.7 2.35 27.7 1.17 27.7 0 27.7 0 29.04 1.17 29.04 2.35 29.04 3.52 29.04 4.7 29.04 5.87 29.04 7.05 29.04 8.22 29.04 9.4 29.04 10.57 29.04 11.75 29.04 12.92 29.04 14.1 29.04 15.27 29.04 16.45 29.04 17.62 29.04 18.8 29.04 19.97 29.04 21.15 29.04 22.32 29.04 23.5 29.04 24.67 29.04 25.85 29.04 27.02 29.04 28.2 29.04 29.37 29.04 30.55 29.04 31.72 29.04 32.9 29.04 34.07 29.04 35.25 29.04 35.25 27.7 34.07 27.7 32.9 27.7"/>
      <polygon class="cls-1" points="3.52 31.56 4.7 31.56 5.87 31.56 7.05 31.56 8.22 31.56 8.22 30.21 7.05 30.21 5.87 30.21 4.7 30.21 3.52 30.21 2.35 30.21 1.17 30.21 1.17 31.56 2.35 31.56 3.52 31.56"/>
      <polygon class="cls-1" points="14.1 31.56 15.27 31.56 16.45 31.56 17.62 31.56 18.8 31.56 19.97 31.56 21.15 31.56 22.32 31.56 23.5 31.56 24.67 31.56 24.67 30.21 23.5 30.21 22.32 30.21 21.15 30.21 19.97 30.21 18.8 30.21 17.62 30.21 16.45 30.21 15.27 30.21 14.1 30.21 12.92 30.21 11.75 30.21 11.75 31.56 12.92 31.56 14.1 31.56"/>
      <polygon class="cls-1" points="32.9 30.21 31.72 30.21 30.55 30.21 29.37 30.21 28.2 30.21 28.2 31.56 29.37 31.56 30.55 31.56 31.72 31.56 32.9 31.56 34.07 31.56 35.25 31.56 35.25 30.21 34.07 30.21 32.9 30.21"/>
      <polygon class="cls-1" points="4.7 34.07 5.87 34.07 7.05 34.07 8.22 34.07 9.4 34.07 10.57 34.07 11.75 34.07 12.92 34.07 14.1 34.07 15.27 34.07 16.45 34.07 16.45 32.73 15.27 32.73 14.1 32.73 12.92 32.73 11.75 32.73 10.57 32.73 9.4 32.73 8.22 32.73 7.05 32.73 5.87 32.73 4.7 32.73 3.52 32.73 2.35 32.73 2.35 34.07 3.52 34.07 4.7 34.07"/>
      <polygon class="cls-1" points="31.72 32.73 30.55 32.73 29.37 32.73 28.2 32.73 27.02 32.73 25.85 32.73 24.67 32.73 23.5 32.73 22.32 32.73 21.15 32.73 19.97 32.73 18.8 32.73 18.8 34.07 19.97 34.07 21.15 34.07 22.32 34.07 23.5 34.07 24.67 34.07 25.85 34.07 27.02 34.07 28.2 34.07 29.37 34.07 30.55 34.07 31.72 34.07 32.9 34.07 34.07 34.07 34.07 32.73 32.9 32.73 31.72 32.73"/>
      <polygon class="cls-1" points="30.55 35.25 29.37 35.25 28.2 35.25 27.02 35.25 25.85 35.25 24.67 35.25 23.5 35.25 22.32 35.25 21.15 35.25 19.97 35.25 18.8 35.25 17.62 35.25 16.45 35.25 15.27 35.25 14.1 35.25 12.92 35.25 11.75 35.25 10.57 35.25 9.4 35.25 8.22 35.25 7.05 35.25 5.87 35.25 4.7 35.25 3.52 35.25 3.52 36.59 4.7 36.59 5.87 36.59 7.05 36.59 8.22 36.59 9.4 36.59 10.57 36.59 11.75 36.59 12.92 36.59 14.1 36.59 15.27 36.59 16.45 36.59 17.62 36.59 18.8 36.59 19.97 36.59 21.15 36.59 22.32 36.59 23.5 36.59 24.67 36.59 25.85 36.59 27.02 36.59 28.2 36.59 29.37 36.59 30.55 36.59 31.72 36.59 32.9 36.59 32.9 35.25 31.72 35.25 30.55 35.25"/>
      <polygon class="cls-1" points="27.02 37.77 25.85 37.77 24.67 37.77 23.5 37.77 22.32 37.77 21.15 37.77 19.97 37.77 18.8 37.77 17.62 37.77 16.45 37.77 15.27 37.77 14.1 37.77 12.92 37.77 11.75 37.77 10.57 37.77 9.4 37.77 8.22 37.77 7.05 37.77 5.87 37.77 5.87 39.11 7.05 39.11 8.22 39.11 9.4 39.11 10.57 39.11 11.75 39.11 12.92 39.11 14.1 39.11 15.27 39.11 16.45 39.11 17.62 39.11 18.8 39.11 19.97 39.11 21.15 39.11 22.32 39.11 23.5 39.11 24.67 39.11 25.85 39.11 27.02 39.11 28.2 39.11 29.37 39.11 29.37 37.77 28.2 37.77 27.02 37.77"/>
      <polygon class="cls-1" points="17.62 40.28 16.45 40.28 16.45 41.63 17.62 41.63 18.8 41.63 19.97 41.63 19.97 40.28 18.8 40.28 17.62 40.28"/>
    </g>
  </g>
</svg>