<?xml version="1.0" encoding="UTF-8"?>
<svg id="Livello_2" data-name="Livello 2" xmlns="http://www.w3.org/2000/svg" viewBox="0 0 44.65 44.14">
  <defs>
    <style>
      .cls-1 {
        fill: #fff;
      }
    </style>
  </defs>
  <g id="Livello_1-2" data-name="Livello 1">
    <g>
      <polygon class="cls-1" points="15.27 1.34 16.45 1.34 17.62 1.34 18.8 1.34 19.97 1.34 21.15 1.34 22.32 1.34 23.5 1.34 24.67 1.34 24.67 0 23.5 0 22.32 0 21.15 0 19.97 0 18.8 0 17.62 0 16.45 0 15.27 0 14.1 0 12.92 0 12.92 1.34 14.1 1.34 15.27 1.34"/>
      <polygon class="cls-1" points="28.2 1.34 29.37 1.34 30.55 1.34 31.72 1.34 31.72 0 30.55 0 29.37 0 28.2 0 27.02 0 25.85 0 25.85 1.34 27.02 1.34 28.2 1.34"/>
      <polygon class="cls-1" points="11.75 3.86 12.92 3.86 14.1 3.86 15.27 3.86 16.45 3.86 17.62 3.86 18.8 3.86 19.97 3.86 21.15 3.86 22.32 3.86 23.5 3.86 24.67 3.86 25.85 3.86 27.02 3.86 28.2 3.86 29.37 3.86 30.55 3.86 31.72 3.86 32.9 3.86 34.07 3.86 35.25 3.86 35.25 2.52 34.07 2.52 32.9 2.52 31.72 2.52 30.55 2.52 29.37 2.52 28.2 2.52 27.02 2.52 25.85 2.52 24.67 2.52 23.5 2.52 22.32 2.52 21.15 2.52 19.97 2.52 18.8 2.52 17.62 2.52 16.45 2.52 15.27 2.52 14.1 2.52 12.92 2.52 11.75 2.52 10.57 2.52 9.4 2.52 9.4 3.86 10.57 3.86 11.75 3.86"/>
      <polygon class="cls-1" points="8.22 6.38 9.4 6.38 10.57 6.38 11.75 6.38 12.92 6.38 14.1 6.38 15.27 6.38 16.45 6.38 17.62 6.38 18.8 6.38 19.97 6.38 19.97 5.04 18.8 5.04 17.62 5.04 16.45 5.04 15.27 5.04 14.1 5.04 12.92 5.04 11.75 5.04 10.57 5.04 9.4 5.04 8.22 5.04 7.05 5.04 5.87 5.04 5.87 6.38 7.05 6.38 8.22 6.38"/>
      <polygon class="cls-1" points="24.67 5.04 23.5 5.04 23.5 6.38 24.67 6.38 25.85 6.38 27.02 6.38 27.02 5.04 25.85 5.04 24.67 5.04"/>
      <polygon class="cls-1" points="28.2 5.04 28.2 6.38 29.37 6.38 30.55 6.38 30.55 5.04 29.37 5.04 28.2 5.04"/>
      <polygon class="cls-1" points="35.25 5.04 34.07 5.04 32.9 5.04 31.72 5.04 31.72 6.38 32.9 6.38 34.07 6.38 35.25 6.38 35.25 5.04"/>
      <polygon class="cls-1" points="38.77 6.38 38.77 5.04 37.6 5.04 36.42 5.04 36.42 6.38 37.6 6.38 38.77 6.38"/>
      <polygon class="cls-1" points="5.87 8.9 7.05 8.9 7.05 7.55 5.87 7.55 4.7 7.55 3.52 7.55 3.52 8.9 4.7 8.9 5.87 8.9"/>
      <polygon class="cls-1" points="8.22 7.55 8.22 8.9 9.4 8.9 10.57 8.9 10.57 7.55 9.4 7.55 8.22 7.55"/>
      <rect class="cls-1" x="11.75" y="7.55" width="1.17" height="1.34"/>
      <rect class="cls-1" x="15.27" y="7.55" width="1.17" height="1.34"/>
      <polygon class="cls-1" points="19.97 7.55 19.97 8.9 21.15 8.9 22.32 8.9 22.32 7.55 21.15 7.55 19.97 7.55"/>
      <polygon class="cls-1" points="27.02 7.55 25.85 7.55 25.85 8.9 27.02 8.9 28.2 8.9 29.37 8.9 30.55 8.9 30.55 7.55 29.37 7.55 28.2 7.55 27.02 7.55"/>
      <polygon class="cls-1" points="38.77 8.9 39.95 8.9 39.95 7.55 38.77 7.55 37.6 7.55 36.42 7.55 36.42 8.9 37.6 8.9 38.77 8.9"/>
      <polygon class="cls-1" points="4.7 11.41 4.7 10.07 3.52 10.07 2.35 10.07 2.35 11.41 3.52 11.41 4.7 11.41"/>
      <polygon class="cls-1" points="5.87 10.07 5.87 11.41 7.05 11.41 8.22 11.41 8.22 10.07 7.05 10.07 5.87 10.07"/>
      <rect class="cls-1" x="10.57" y="10.07" width="1.17" height="1.34"/>
      <polygon class="cls-1" points="15.27 11.41 16.45 11.41 17.62 11.41 17.62 10.07 16.45 10.07 15.27 10.07 15.27 11.41"/>
      <polygon class="cls-1" points="22.32 10.07 22.32 11.41 23.5 11.41 24.67 11.41 25.85 11.41 25.85 10.07 24.67 10.07 23.5 10.07 22.32 10.07"/>
      <polygon class="cls-1" points="30.55 10.07 30.55 11.41 31.72 11.41 32.9 11.41 32.9 10.07 31.72 10.07 30.55 10.07"/>
      <polygon class="cls-1" points="35.25 11.41 36.42 11.41 37.6 11.41 37.6 10.07 36.42 10.07 35.25 10.07 35.25 11.41"/>
      <polygon class="cls-1" points="38.77 10.07 38.77 11.41 39.95 11.41 41.12 11.41 42.3 11.41 42.3 10.07 41.12 10.07 39.95 10.07 38.77 10.07"/>
      <polygon class="cls-1" points="3.52 13.93 3.52 12.59 2.35 12.59 1.17 12.59 1.17 13.93 2.35 13.93 3.52 13.93"/>
      <polygon class="cls-1" points="4.7 12.59 4.7 13.93 5.87 13.93 7.05 13.93 7.05 12.59 5.87 12.59 4.7 12.59"/>
      <polygon class="cls-1" points="8.22 13.93 9.4 13.93 10.57 13.93 11.75 13.93 11.75 12.59 10.57 12.59 9.4 12.59 8.22 12.59 8.22 13.93"/>
      <polygon class="cls-1" points="14.1 12.59 14.1 13.93 15.27 13.93 16.45 13.93 17.62 13.93 18.8 13.93 19.97 13.93 19.97 12.59 18.8 12.59 17.62 12.59 16.45 12.59 15.27 12.59 14.1 12.59"/>
      <polygon class="cls-1" points="23.5 12.59 23.5 13.93 24.67 13.93 25.85 13.93 25.85 12.59 24.67 12.59 23.5 12.59"/>
      <polygon class="cls-1" points="34.07 12.59 32.9 12.59 32.9 13.93 34.07 13.93 35.25 13.93 36.42 13.93 36.42 12.59 35.25 12.59 34.07 12.59"/>
      <polygon class="cls-1" points="43.47 12.59 42.3 12.59 41.12 12.59 41.12 13.93 42.3 13.93 43.47 13.93 43.47 12.59"/>
      <polygon class="cls-1" points="2.35 16.45 2.35 15.11 1.17 15.11 0 15.11 0 16.45 1.17 16.45 2.35 16.45"/>
      <rect class="cls-1" x="3.52" y="15.11" width="1.17" height="1.34"/>
      <polygon class="cls-1" points="10.57 16.45 10.57 15.11 9.4 15.11 8.22 15.11 8.22 16.45 9.4 16.45 10.57 16.45"/>
      <polygon class="cls-1" points="17.62 15.11 16.45 15.11 15.27 15.11 15.27 16.45 16.45 16.45 17.62 16.45 17.62 15.11"/>
      <polygon class="cls-1" points="24.67 15.11 24.67 16.45 25.85 16.45 27.02 16.45 27.02 15.11 25.85 15.11 24.67 15.11"/>
      <polygon class="cls-1" points="32.9 16.45 34.07 16.45 34.07 15.11 32.9 15.11 31.72 15.11 30.55 15.11 30.55 16.45 31.72 16.45 32.9 16.45"/>
      <polygon class="cls-1" points="35.25 15.11 35.25 16.45 36.42 16.45 37.6 16.45 37.6 15.11 36.42 15.11 35.25 15.11"/>
      <polygon class="cls-1" points="43.47 15.11 42.3 15.11 41.12 15.11 41.12 16.45 42.3 16.45 43.47 16.45 43.47 15.11"/>
      <polygon class="cls-1" points="2.35 18.97 3.52 18.97 4.7 18.97 4.7 17.62 3.52 17.62 2.35 17.62 1.17 17.62 0 17.62 0 18.97 1.17 18.97 2.35 18.97"/>
      <polygon class="cls-1" points="8.22 18.97 9.4 18.97 10.57 18.97 10.57 17.62 9.4 17.62 8.22 17.62 8.22 18.97"/>
      <rect class="cls-1" x="16.45" y="17.62" width="1.17" height="1.34"/>
      <polygon class="cls-1" points="28.2 17.62 27.02 17.62 25.85 17.62 25.85 18.97 27.02 18.97 28.2 18.97 29.37 18.97 30.55 18.97 30.55 17.62 29.37 17.62 28.2 17.62"/>
      <polygon class="cls-1" points="38.77 18.97 38.77 17.62 37.6 17.62 36.42 17.62 36.42 18.97 37.6 18.97 38.77 18.97"/>
      <polygon class="cls-1" points="42.3 18.97 43.47 18.97 43.47 17.62 42.3 17.62 41.12 17.62 39.95 17.62 39.95 18.97 41.12 18.97 42.3 18.97"/>
      <rect class="cls-1" y="20.14" width="1.17" height="1.34"/>
      <polygon class="cls-1" points="4.7 21.48 4.7 20.14 3.52 20.14 2.35 20.14 2.35 21.48 3.52 21.48 4.7 21.48"/>
      <polygon class="cls-1" points="8.22 21.48 9.4 21.48 10.57 21.48 10.57 20.14 9.4 20.14 8.22 20.14 8.22 21.48"/>
      <polygon class="cls-1" points="18.8 21.48 18.8 20.14 17.62 20.14 16.45 20.14 16.45 21.48 17.62 21.48 18.8 21.48"/>
      <polygon class="cls-1" points="22.32 20.14 21.15 20.14 21.15 21.48 22.32 21.48 23.5 21.48 24.67 21.48 25.85 21.48 25.85 20.14 24.67 20.14 23.5 20.14 22.32 20.14"/>
      <rect class="cls-1" x="28.2" y="20.14" width="1.17" height="1.34"/>
      <polygon class="cls-1" points="41.12 20.14 39.95 20.14 38.77 20.14 38.77 21.48 39.95 21.48 41.12 21.48 41.12 20.14"/>
      <rect class="cls-1" x="43.47" y="20.14" width="1.17" height="1.34"/>
      <rect class="cls-1" y="22.66" width="1.17" height="1.34"/>
      <rect class="cls-1" x="2.35" y="22.66" width="1.17" height="1.34"/>
      <polygon class="cls-1" points="10.57 22.66 9.4 22.66 8.22 22.66 7.05 22.66 5.87 22.66 5.87 24 7.05 24 8.22 24 9.4 24 10.57 24 11.75 24 12.92 24 14.1 24 15.27 24 16.45 24 17.62 24 18.8 24 18.8 22.66 17.62 22.66 16.45 22.66 15.27 22.66 14.1 22.66 12.92 22.66 11.75 22.66 10.57 22.66"/>
      <polygon class="cls-1" points="28.2 24 29.37 24 30.55 24 30.55 22.66 29.37 22.66 28.2 22.66 28.2 24"/>
      <polygon class="cls-1" points="37.6 24 37.6 22.66 36.42 22.66 35.25 22.66 35.25 24 36.42 24 37.6 24"/>
      <rect class="cls-1" x="39.95" y="22.66" width="1.17" height="1.34"/>
      <polygon class="cls-1" points="42.3 22.66 42.3 24 43.47 24 44.65 24 44.65 22.66 43.47 22.66 42.3 22.66"/>
      <polygon class="cls-1" points="2.35 26.52 3.52 26.52 3.52 25.18 2.35 25.18 1.17 25.18 0 25.18 0 26.52 1.17 26.52 2.35 26.52"/>
      <rect class="cls-1" x="8.22" y="25.18" width="1.17" height="1.34"/>
      <polygon class="cls-1" points="19.97 25.18 18.8 25.18 17.62 25.18 17.62 26.52 18.8 26.52 19.97 26.52 19.97 25.18"/>
      <polygon class="cls-1" points="29.37 25.18 29.37 26.52 30.55 26.52 31.72 26.52 32.9 26.52 34.07 26.52 35.25 26.52 35.25 25.18 34.07 25.18 32.9 25.18 31.72 25.18 30.55 25.18 29.37 25.18"/>
      <polygon class="cls-1" points="42.3 25.18 41.12 25.18 39.95 25.18 39.95 26.52 41.12 26.52 42.3 26.52 43.47 26.52 44.65 26.52 44.65 25.18 43.47 25.18 42.3 25.18"/>
      <polygon class="cls-1" points="3.52 29.04 3.52 27.7 2.35 27.7 1.17 27.7 1.17 29.04 2.35 29.04 3.52 29.04"/>
      <rect class="cls-1" x="9.4" y="27.7" width="1.17" height="1.34"/>
      <rect class="cls-1" x="18.8" y="27.7" width="1.17" height="1.34"/>
      <polygon class="cls-1" points="31.72 27.7 30.55 27.7 29.37 27.7 28.2 27.7 27.02 27.7 25.85 27.7 24.67 27.7 24.67 29.04 25.85 29.04 27.02 29.04 28.2 29.04 29.37 29.04 30.55 29.04 31.72 29.04 31.72 27.7"/>
      <polygon class="cls-1" points="41.12 27.7 39.95 27.7 39.95 29.04 41.12 29.04 42.3 29.04 43.47 29.04 43.47 27.7 42.3 27.7 41.12 27.7"/>
      <polygon class="cls-1" points="4.7 31.56 5.87 31.56 7.05 31.56 8.22 31.56 9.4 31.56 10.57 31.56 11.75 31.56 12.92 31.56 14.1 31.56 15.27 31.56 16.45 31.56 17.62 31.56 18.8 31.56 19.97 31.56 21.15 31.56 22.32 31.56 23.5 31.56 23.5 30.21 22.32 30.21 21.15 30.21 19.97 30.21 18.8 30.21 17.62 30.21 16.45 30.21 15.27 30.21 14.1 30.21 12.92 30.21 11.75 30.21 10.57 30.21 9.4 30.21 8.22 30.21 7.05 30.21 5.87 30.21 4.7 30.21 3.52 30.21 2.35 30.21 2.35 31.56 3.52 31.56 4.7 31.56"/>
      <rect class="cls-1" x="31.72" y="30.21" width="1.17" height="1.34"/>
      <polygon class="cls-1" points="38.77 30.21 37.6 30.21 36.42 30.21 36.42 31.56 37.6 31.56 38.77 31.56 38.77 30.21"/>
      <polygon class="cls-1" points="42.3 31.56 42.3 30.21 41.12 30.21 39.95 30.21 39.95 31.56 41.12 31.56 42.3 31.56"/>
      <polygon class="cls-1" points="5.87 34.07 5.87 32.73 4.7 32.73 3.52 32.73 3.52 34.07 4.7 34.07 5.87 34.07"/>
      <polygon class="cls-1" points="9.4 32.73 9.4 34.07 10.57 34.07 11.75 34.07 11.75 32.73 10.57 32.73 9.4 32.73"/>
      <rect class="cls-1" x="21.15" y="32.73" width="1.17" height="1.34"/>
      <polygon class="cls-1" points="36.42 32.73 35.25 32.73 34.07 32.73 32.9 32.73 31.72 32.73 31.72 34.07 32.9 34.07 34.07 34.07 35.25 34.07 36.42 34.07 36.42 32.73"/>
      <polygon class="cls-1" points="41.12 34.07 41.12 32.73 39.95 32.73 38.77 32.73 38.77 34.07 39.95 34.07 41.12 34.07"/>
      <polygon class="cls-1" points="8.22 36.59 8.22 35.25 7.05 35.25 5.87 35.25 4.7 35.25 4.7 36.59 5.87 36.59 7.05 36.59 8.22 36.59"/>
      <polygon class="cls-1" points="10.57 35.25 10.57 36.59 11.75 36.59 12.92 36.59 12.92 35.25 11.75 35.25 10.57 35.25"/>
      <polygon class="cls-1" points="21.15 36.59 22.32 36.59 23.5 36.59 23.5 35.25 22.32 35.25 21.15 35.25 21.15 36.59"/>
      <polygon class="cls-1" points="29.37 35.25 28.2 35.25 27.02 35.25 27.02 36.59 28.2 36.59 29.37 36.59 30.55 36.59 31.72 36.59 31.72 35.25 30.55 35.25 29.37 35.25"/>
      <rect class="cls-1" x="32.9" y="35.25" width="1.17" height="1.34"/>
      <polygon class="cls-1" points="38.77 35.25 37.6 35.25 36.42 35.25 36.42 36.59 37.6 36.59 38.77 36.59 38.77 35.25"/>
      <polygon class="cls-1" points="10.57 39.11 11.75 39.11 12.92 39.11 14.1 39.11 15.27 39.11 16.45 39.11 17.62 39.11 18.8 39.11 19.97 39.11 21.15 39.11 22.32 39.11 23.5 39.11 24.67 39.11 24.67 37.77 23.5 37.77 22.32 37.77 21.15 37.77 19.97 37.77 18.8 37.77 17.62 37.77 16.45 37.77 15.27 37.77 14.1 37.77 12.92 37.77 11.75 37.77 10.57 37.77 9.4 37.77 8.22 37.77 8.22 39.11 9.4 39.11 10.57 39.11"/>
      <polygon class="cls-1" points="34.07 39.11 35.25 39.11 36.42 39.11 36.42 37.77 35.25 37.77 34.07 37.77 32.9 37.77 31.72 37.77 31.72 39.11 32.9 39.11 34.07 39.11"/>
      <polygon class="cls-1" points="15.27 41.63 16.45 41.63 17.62 41.63 17.62 40.28 16.45 40.28 15.27 40.28 14.1 40.28 12.92 40.28 11.75 40.28 11.75 41.63 12.92 41.63 14.1 41.63 15.27 41.63"/>
      <polygon class="cls-1" points="32.9 40.28 31.72 40.28 30.55 40.28 29.37 40.28 28.2 40.28 27.02 40.28 25.85 40.28 24.67 40.28 23.5 40.28 22.32 40.28 22.32 41.63 23.5 41.63 24.67 41.63 25.85 41.63 27.02 41.63 28.2 41.63 29.37 41.63 30.55 41.63 31.72 41.63 32.9 41.63 32.9 40.28"/>
      <polygon class="cls-1" points="24.67 44.14 25.85 44.14 25.85 42.8 24.67 42.8 23.5 42.8 22.32 42.8 21.15 42.8 19.97 42.8 18.8 42.8 18.8 44.14 19.97 44.14 21.15 44.14 22.32 44.14 23.5 44.14 24.67 44.14"/>
    </g>
  </g>
</svg>