<?xml version="1.0" encoding="UTF-8"?>
<svg id="Livello_2" xmlns="http://www.w3.org/2000/svg" viewBox="0 0 98.7 36.56">
  <g id="Livello_1-2" data-name="Livello_1">
    <path d="M84.73,9.54V.71c.23-.17.47-.34.7-.51.3.54.54,1.13.92,1.61,3.96,5.04,7.97,10.04,11.87,15.12.42.54.65,1.82.32,2.26-4.34,5.67-8.8,11.24-13.65,17.37v-9.71c-23.72,11-47.12,10.88-70.8.21v8.78c-.32.21-.63.42-.95.64-.21-.52-.31-1.12-.64-1.54-4-5.11-8.06-10.18-12.02-15.32-.42-.55-.66-1.83-.33-2.27C4.5,11.69,8.97,6.11,13.82,0v9.7c23.72-10.99,47.12-10.88,70.91-.16ZM48.08,5.87c-2.03.22-5.54.4-8.97,1-4.85.85-9.55,2.26-13.54,5.37-4.6,3.6-4.69,8.3-.17,11.9,1.23.97,2.58,1.86,4,2.5,9.09,4.11,18.63,4.66,28.35,3.32,5.65-.78,11.11-2.23,15.68-5.9,4.22-3.38,4.3-7.99.17-11.43-1.32-1.11-2.86-2.02-4.42-2.77-6.2-2.99-12.88-3.75-21.11-3.98Z"/>
  </g>
</svg>