<?xml version="1.0" encoding="UTF-8"?>
<svg id="Livello_2" data-name="Livello 2" xmlns="http://www.w3.org/2000/svg" viewBox="0 0 51.97 61.22">
  <defs>
    <style>
      .cls-1 {
        fill: #010101;
      }
    </style>
  </defs>
  <g id="Livello_1-2" data-name="Livello 1">
    <g>
      <rect class="cls-1" x=".21" y="57.32" width="50.97" height="3.9"/>
      <rect class="cls-1" x=".02" y="14.33" width="50.97" height="3.9"/>
      <rect class="cls-1" x=".21" y="6.91" width="11.06" height="3.9"/>
      <rect class="cls-1" x="10.27" width="4.87" height="3.9"/>
      <rect class="cls-1" x="36.07" width="4.87" height="3.9"/>
      <rect class="cls-1" x="40.91" y="7.23" width="11.06" height="3.9"/>
      <rect class="cls-1" x="15.19" y="6.91" width="20.83" height="3.9"/>
      <rect class="cls-1" x="15.28" y="28.41" width="20.83" height="3.9"/>
      <rect class="cls-1" x="15.28" y="35.7" width="20.83" height="3.9"/>
      <rect class="cls-1" x="15.28" y="42.87" width="20.83" height="3.9"/>
      <rect class="cls-1" x=".21" y="50.28" width="4.76" height="3.9"/>
      <rect class="cls-1" x="46.44" y="50.28" width="4.76" height="3.9"/>
      <rect class="cls-1" x="0" y="42.99" width="4.76" height="3.9"/>
      <rect class="cls-1" x="46.23" y="42.99" width="4.76" height="3.9"/>
      <rect class="cls-1" x="0" y="35.7" width="4.76" height="3.9"/>
      <rect class="cls-1" x="46.23" y="35.7" width="4.76" height="3.9"/>
      <rect class="cls-1" x="0" y="28.41" width="4.76" height="3.9"/>
      <rect class="cls-1" x="46.23" y="28.41" width="4.76" height="3.9"/>
      <rect class="cls-1" y="21.12" width="4.76" height="3.9"/>
      <rect class="cls-1" x="46.23" y="21.12" width="4.76" height="3.9"/>
    </g>
  </g>
</svg>