<?xml version="1.0" encoding="UTF-8"?>
<svg id="Livello_2" data-name="Livello 2" xmlns="http://www.w3.org/2000/svg" viewBox="0 0 45.82 44.14">
  <defs>
    <style>
      .cls-1 {
        fill: #fff;
      }
    </style>
  </defs>
  <g id="Livello_1-2" data-name="Livello 1">
    <g>
      <polygon class="cls-1" points="10.57 1.34 11.75 1.34 12.92 1.34 14.1 1.34 14.1 0 12.92 0 11.75 0 10.57 0 9.4 0 8.22 0 7.05 0 5.87 0 4.7 0 3.52 0 2.35 0 1.17 0 0 0 0 1.34 1.17 1.34 2.35 1.34 3.52 1.34 4.7 1.34 5.87 1.34 7.05 1.34 8.22 1.34 9.4 1.34 10.57 1.34"/>
      <polygon class="cls-1" points="39.41 1.34 40.7 1.34 41.98 1.34 43.26 1.34 44.54 1.34 45.82 1.34 45.82 0 44.54 0 43.26 0 41.98 0 40.7 0 39.41 0 38.13 0 36.85 0 35.57 0 34.29 0 33.01 0 31.72 0 31.72 1.34 33.01 1.34 34.29 1.34 35.57 1.34 36.85 1.34 38.13 1.34 39.41 1.34"/>
      <polygon class="cls-1" points="2.35 2.52 1.17 2.52 0 2.52 0 3.86 1.17 3.86 2.35 3.86 2.35 2.52"/>
      <polygon class="cls-1" points="43.47 2.52 43.47 3.86 44.65 3.86 45.82 3.86 45.82 2.52 44.65 2.52 43.47 2.52"/>
      <polygon class="cls-1" points="2.35 5.04 1.17 5.04 0 5.04 0 6.38 1.17 6.38 2.35 6.38 2.35 5.04"/>
      <polygon class="cls-1" points="43.47 5.04 43.47 6.38 44.65 6.38 45.82 6.38 45.82 5.04 44.65 5.04 43.47 5.04"/>
      <polygon class="cls-1" points="2.35 7.55 1.17 7.55 0 7.55 0 8.9 1.17 8.9 2.35 8.9 2.35 7.55"/>
      <polygon class="cls-1" points="43.47 7.55 43.47 8.9 44.65 8.9 45.82 8.9 45.82 7.55 44.65 7.55 43.47 7.55"/>
      <polygon class="cls-1" points="2.35 10.07 1.17 10.07 0 10.07 0 11.41 1.17 11.41 2.35 11.41 2.35 10.07"/>
      <polygon class="cls-1" points="14.1 11.41 15.27 11.41 16.45 11.41 17.62 11.41 17.62 10.07 16.45 10.07 15.27 10.07 14.1 10.07 14.1 11.41"/>
      <polygon class="cls-1" points="43.47 10.07 43.47 11.41 44.65 11.41 45.82 11.41 45.82 10.07 44.65 10.07 43.47 10.07"/>
      <polygon class="cls-1" points="2.35 12.59 1.17 12.59 0 12.59 0 13.93 1.17 13.93 2.35 13.93 2.35 12.59"/>
      <polygon class="cls-1" points="16.45 13.93 17.62 13.93 18.8 13.93 18.8 12.59 17.62 12.59 16.45 12.59 15.27 12.59 14.1 12.59 12.92 12.59 12.92 13.93 14.1 13.93 15.27 13.93 16.45 13.93"/>
      <polygon class="cls-1" points="43.47 12.59 43.47 13.93 44.65 13.93 45.82 13.93 45.82 12.59 44.65 12.59 43.47 12.59"/>
      <polygon class="cls-1" points="2.35 15.11 1.17 15.11 0 15.11 0 16.45 1.17 16.45 2.35 16.45 2.35 15.11"/>
      <polygon class="cls-1" points="14.1 16.45 14.1 15.11 12.92 15.11 11.75 15.11 11.75 16.45 12.92 16.45 14.1 16.45"/>
      <polygon class="cls-1" points="18.79 15.11 17.9 15.11 17.9 16.45 18.79 16.45 19.67 16.45 20.56 16.45 20.56 15.11 19.67 15.11 18.79 15.11"/>
      <polygon class="cls-1" points="32.9 16.45 34.07 16.45 35.25 16.45 35.25 15.11 34.07 15.11 32.9 15.11 31.72 15.11 30.55 15.11 29.37 15.11 28.2 15.11 28.2 16.45 29.37 16.45 30.55 16.45 31.72 16.45 32.9 16.45"/>
      <polygon class="cls-1" points="43.47 15.11 43.47 16.45 44.65 16.45 45.82 16.45 45.82 15.11 44.65 15.11 43.47 15.11"/>
      <polygon class="cls-1" points="2.35 17.62 1.17 17.62 0 17.62 0 18.97 1.17 18.97 2.35 18.97 2.35 17.62"/>
      <polygon class="cls-1" points="13.72 17.62 12.55 17.62 11.37 17.62 11.37 18.97 12.55 18.97 13.72 18.97 13.72 17.62"/>
      <polygon class="cls-1" points="20.71 17.62 19.54 17.62 18.36 17.62 18.36 18.97 19.54 18.97 20.71 18.97 20.71 17.62"/>
      <polygon class="cls-1" points="27.02 17.62 25.85 17.62 25.85 18.97 27.02 18.97 28.2 18.97 29.37 18.97 29.37 17.62 28.2 17.62 27.02 17.62"/>
      <polygon class="cls-1" points="37.6 17.62 36.42 17.62 35.25 17.62 34.07 17.62 32.9 17.62 32.9 18.97 34.07 18.97 35.25 18.97 36.42 18.97 37.6 18.97 37.6 17.62"/>
      <polygon class="cls-1" points="43.47 17.62 43.47 18.97 44.65 18.97 45.82 18.97 45.82 17.62 44.65 17.62 43.47 17.62"/>
      <polygon class="cls-1" points="2.35 20.14 1.17 20.14 0 20.14 0 21.48 1.17 21.48 2.35 21.48 2.35 20.14"/>
      <polygon class="cls-1" points="12.11 21.48 13.28 21.48 13.28 20.14 12.11 20.14 10.93 20.14 9.76 20.14 9.76 21.48 10.93 21.48 12.11 21.48"/>
      <polygon class="cls-1" points="19.54 20.14 18.36 20.14 18.36 21.48 19.54 21.48 20.71 21.48 21.89 21.48 21.89 20.14 20.71 20.14 19.54 20.14"/>
      <polygon class="cls-1" points="37.6 20.14 36.42 20.14 35.25 20.14 34.07 20.14 34.07 21.48 35.25 21.48 36.42 21.48 37.6 21.48 37.6 20.14"/>
      <polygon class="cls-1" points="43.47 20.14 43.47 21.48 44.65 21.48 45.82 21.48 45.82 20.14 44.65 20.14 43.47 20.14"/>
      <polygon class="cls-1" points="2.35 22.66 1.17 22.66 0 22.66 0 24 1.17 24 2.35 24 2.35 22.66"/>
      <polygon class="cls-1" points="19.97 24 21.15 24 22.32 24 22.32 22.66 21.15 22.66 19.97 22.66 18.8 22.66 17.62 22.66 16.45 22.66 15.27 22.66 14.1 22.66 12.92 22.66 11.75 22.66 10.57 22.66 9.4 22.66 9.4 24 10.57 24 11.75 24 12.92 24 14.1 24 15.27 24 16.45 24 17.62 24 18.8 24 19.97 24"/>
      <polygon class="cls-1" points="37.6 22.66 36.42 22.66 35.25 22.66 34.07 22.66 32.9 22.66 31.72 22.66 30.55 22.66 29.37 22.66 28.2 22.66 28.2 24 29.37 24 30.55 24 31.72 24 32.9 24 34.07 24 35.25 24 36.42 24 37.6 24 37.6 22.66"/>
      <polygon class="cls-1" points="43.47 22.66 43.47 24 44.65 24 45.82 24 45.82 22.66 44.65 22.66 43.47 22.66"/>
      <polygon class="cls-1" points="2.35 25.18 1.17 25.18 0 25.18 0 26.52 1.17 26.52 2.35 26.52 2.35 25.18"/>
      <polygon class="cls-1" points="12.92 26.52 12.92 25.18 11.75 25.18 10.57 25.18 9.4 25.18 9.4 26.52 10.57 26.52 11.75 26.52 12.92 26.52"/>
      <polygon class="cls-1" points="22.32 26.52 22.32 25.18 21.15 25.18 19.97 25.18 18.8 25.18 18.8 26.52 19.97 26.52 21.15 26.52 22.32 26.52"/>
      <polygon class="cls-1" points="24.67 25.18 24.67 26.52 25.56 26.52 26.44 26.52 27.32 26.52 28.2 26.52 28.2 25.18 27.32 25.18 26.44 25.18 25.56 25.18 24.67 25.18"/>
      <polygon class="cls-1" points="37.6 25.18 36.42 25.18 35.25 25.18 34.07 25.18 34.07 26.52 35.25 26.52 36.42 26.52 37.6 26.52 37.6 25.18"/>
      <polygon class="cls-1" points="43.47 25.18 43.47 26.52 44.65 26.52 45.82 26.52 45.82 25.18 44.65 25.18 43.47 25.18"/>
      <polygon class="cls-1" points="2.35 27.7 1.17 27.7 0 27.7 0 29.04 1.17 29.04 2.35 29.04 2.35 27.7"/>
      <polygon class="cls-1" points="11.75 27.7 10.57 27.7 9.4 27.7 9.4 29.04 10.57 29.04 11.75 29.04 11.75 27.7"/>
      <polygon class="cls-1" points="22.47 27.7 21.3 27.7 20.12 27.7 20.12 29.04 21.3 29.04 22.47 29.04 22.47 27.7"/>
      <polygon class="cls-1" points="27.02 29.04 28.2 29.04 28.2 27.7 27.02 27.7 25.85 27.7 24.67 27.7 24.67 29.04 25.85 29.04 27.02 29.04"/>
      <polygon class="cls-1" points="35.25 27.7 34.07 27.7 32.9 27.7 32.9 29.04 34.07 29.04 35.25 29.04 36.42 29.04 37.6 29.04 37.6 27.7 36.42 27.7 35.25 27.7"/>
      <polygon class="cls-1" points="43.47 27.7 43.47 29.04 44.65 29.04 45.82 29.04 45.82 27.7 44.65 27.7 43.47 27.7"/>
      <polygon class="cls-1" points="2.35 30.21 1.17 30.21 0 30.21 0 31.56 1.17 31.56 2.35 31.56 2.35 30.21"/>
      <polygon class="cls-1" points="9.79 30.21 8.81 30.21 8.81 31.56 9.79 31.56 10.77 31.56 11.75 31.56 11.75 30.21 10.77 30.21 9.79 30.21"/>
      <polygon class="cls-1" points="21.15 30.21 20.17 30.21 20.17 31.56 21.15 31.56 22.13 31.56 23.11 31.56 23.11 30.21 22.13 30.21 21.15 30.21"/>
      <polygon class="cls-1" points="29.37 31.56 30.55 31.56 31.72 31.56 32.9 31.56 34.07 31.56 35.25 31.56 36.42 31.56 37.6 31.56 37.6 30.21 36.42 30.21 35.25 30.21 34.07 30.21 32.9 30.21 31.72 30.21 30.55 30.21 29.37 30.21 28.2 30.21 27.02 30.21 25.85 30.21 25.85 31.56 27.02 31.56 28.2 31.56 29.37 31.56"/>
      <polygon class="cls-1" points="43.47 30.21 43.47 31.56 44.65 31.56 45.82 31.56 45.82 30.21 44.65 30.21 43.47 30.21"/>
      <polygon class="cls-1" points="2.35 32.73 1.17 32.73 0 32.73 0 34.07 1.17 34.07 2.35 34.07 2.35 32.73"/>
      <polygon class="cls-1" points="43.47 32.73 43.47 34.07 44.65 34.07 45.82 34.07 45.82 32.73 44.65 32.73 43.47 32.73"/>
      <polygon class="cls-1" points="2.35 35.25 1.17 35.25 0 35.25 0 36.59 1.17 36.59 2.35 36.59 2.35 35.25"/>
      <polygon class="cls-1" points="43.47 35.25 43.47 36.59 44.65 36.59 45.82 36.59 45.82 35.25 44.65 35.25 43.47 35.25"/>
      <polygon class="cls-1" points="2.35 37.77 1.17 37.77 0 37.77 0 39.11 1.17 39.11 2.35 39.11 2.35 37.77"/>
      <polygon class="cls-1" points="43.47 37.77 43.47 39.11 44.65 39.11 45.82 39.11 45.82 37.77 44.65 37.77 43.47 37.77"/>
      <polygon class="cls-1" points="0 40.28 0 41.63 1.17 41.63 2.35 41.63 2.35 40.28 1.17 40.28 0 40.28"/>
      <polygon class="cls-1" points="43.47 40.28 43.47 41.63 44.65 41.63 45.82 41.63 45.82 40.28 44.65 40.28 43.47 40.28"/>
      <polygon class="cls-1" points="11.75 42.8 10.57 42.8 9.4 42.8 8.22 42.8 7.05 42.8 5.87 42.8 4.7 42.8 3.52 42.8 2.35 42.8 1.17 42.8 0 42.8 0 44.14 1.17 44.14 2.35 44.14 3.52 44.14 4.7 44.14 5.87 44.14 7.05 44.14 8.22 44.14 9.4 44.14 10.57 44.14 11.75 44.14 12.92 44.14 14.1 44.14 14.1 42.8 12.92 42.8 11.75 42.8"/>
      <polygon class="cls-1" points="43.26 42.8 41.98 42.8 40.7 42.8 39.41 42.8 38.13 42.8 36.85 42.8 35.57 42.8 34.29 42.8 33.01 42.8 31.72 42.8 31.72 44.14 33.01 44.14 34.29 44.14 35.57 44.14 36.85 44.14 38.13 44.14 39.41 44.14 40.7 44.14 41.98 44.14 43.26 44.14 44.54 44.14 45.82 44.14 45.82 42.8 44.54 42.8 43.26 42.8"/>
    </g>
  </g>
</svg>