<?xml version="1.0" encoding="UTF-8"?>
<svg id="Livello_2" data-name="Livello 2" xmlns="http://www.w3.org/2000/svg" viewBox="0 0 77.55 41.63">
  <defs>
    <style>
      .cls-1 {
        fill: #fff;
      }
    </style>
  </defs>
  <g id="Livello_1-2" data-name="Livello 1">
    <g>
      <polygon class="cls-1" points="2.35 1.34 3.52 1.34 4.7 1.34 5.87 1.34 7.05 1.34 8.22 1.34 9.4 1.34 10.57 1.34 11.75 1.34 12.92 1.34 14.1 1.34 15.27 1.34 16.45 1.34 17.62 1.34 18.8 1.34 19.97 1.34 21.15 1.34 22.32 1.34 23.5 1.34 24.67 1.34 25.85 1.34 27.02 1.34 28.2 1.34 29.37 1.34 30.55 1.34 31.72 1.34 32.9 1.34 34.07 1.34 35.25 1.34 36.42 1.34 36.42 0 35.25 0 34.07 0 32.9 0 31.72 0 30.55 0 29.37 0 28.2 0 27.02 0 25.85 0 24.67 0 23.5 0 22.32 0 21.15 0 19.97 0 18.8 0 17.62 0 16.45 0 15.27 0 14.1 0 12.92 0 11.75 0 10.57 0 9.4 0 8.22 0 7.05 0 5.87 0 4.7 0 3.52 0 2.35 0 1.17 0 0 0 0 1.34 1.17 1.34 2.35 1.34"/>
      <polygon class="cls-1" points="75.2 0 74.02 0 72.85 0 71.67 0 70.5 0 69.32 0 68.15 0 66.97 0 65.8 0 64.62 0 63.45 0 62.27 0 61.1 0 59.92 0 58.75 0 57.57 0 56.4 0 55.22 0 54.05 0 52.87 0 51.7 0 50.52 0 49.35 0 48.17 0 47 0 45.82 0 44.65 0 43.47 0 42.3 0 41.12 0 41.12 1.34 42.3 1.34 43.47 1.34 44.65 1.34 45.82 1.34 47 1.34 48.17 1.34 49.35 1.34 50.52 1.34 51.7 1.34 52.87 1.34 54.05 1.34 55.22 1.34 56.4 1.34 57.57 1.34 58.75 1.34 59.92 1.34 61.1 1.34 62.27 1.34 63.45 1.34 64.62 1.34 65.8 1.34 66.97 1.34 68.15 1.34 69.32 1.34 70.5 1.34 71.67 1.34 72.85 1.34 74.02 1.34 75.2 1.34 76.37 1.34 77.55 1.34 77.55 0 76.37 0 75.2 0"/>
      <polygon class="cls-1" points="2.35 3.86 2.35 2.52 1.17 2.52 0 2.52 0 3.86 1.17 3.86 2.35 3.86"/>
      <polygon class="cls-1" points="36.42 3.86 36.42 2.52 35.25 2.52 34.07 2.52 34.07 3.86 35.25 3.86 36.42 3.86"/>
      <polygon class="cls-1" points="43.47 3.86 43.47 2.52 42.3 2.52 41.12 2.52 41.12 3.86 42.3 3.86 43.47 3.86"/>
      <polygon class="cls-1" points="75.2 2.52 75.2 3.86 76.37 3.86 77.55 3.86 77.55 2.52 76.37 2.52 75.2 2.52"/>
      <polygon class="cls-1" points="2.35 6.38 2.35 5.04 1.17 5.04 0 5.04 0 6.38 1.17 6.38 2.35 6.38"/>
      <polygon class="cls-1" points="34.07 6.38 35.25 6.38 36.42 6.38 36.42 5.04 35.25 5.04 34.07 5.04 34.07 6.38"/>
      <polygon class="cls-1" points="43.47 6.38 43.47 5.04 42.3 5.04 41.12 5.04 41.12 6.38 42.3 6.38 43.47 6.38"/>
      <polygon class="cls-1" points="75.2 5.04 75.2 6.38 76.37 6.38 77.55 6.38 77.55 5.04 76.37 5.04 75.2 5.04"/>
      <polygon class="cls-1" points="2.35 8.9 2.35 7.55 1.17 7.55 0 7.55 0 8.9 1.17 8.9 2.35 8.9"/>
      <polygon class="cls-1" points="21.15 7.55 19.97 7.55 18.8 7.55 17.62 7.55 16.45 7.55 15.27 7.55 14.1 7.55 14.1 8.9 15.27 8.9 16.45 8.9 17.62 8.9 18.8 8.9 19.97 8.9 21.15 8.9 22.32 8.9 23.5 8.9 23.5 7.55 22.32 7.55 21.15 7.55"/>
      <polygon class="cls-1" points="34.07 8.9 35.25 8.9 36.42 8.9 36.42 7.55 35.25 7.55 34.07 7.55 34.07 8.9"/>
      <polygon class="cls-1" points="43.47 8.9 43.47 7.55 42.3 7.55 41.12 7.55 41.12 8.9 42.3 8.9 43.47 8.9"/>
      <polygon class="cls-1" points="75.2 7.55 75.2 8.9 76.37 8.9 77.55 8.9 77.55 7.55 76.37 7.55 75.2 7.55"/>
      <polygon class="cls-1" points="2.35 11.41 2.35 10.07 1.17 10.07 0 10.07 0 11.41 1.17 11.41 2.35 11.41"/>
      <polygon class="cls-1" points="12.92 10.07 11.75 10.07 11.75 11.41 12.92 11.41 14.1 11.41 15.27 11.41 15.27 10.07 14.1 10.07 12.92 10.07"/>
      <polygon class="cls-1" points="23.5 10.07 22.32 10.07 22.32 11.41 23.5 11.41 24.67 11.41 25.85 11.41 25.85 10.07 24.67 10.07 23.5 10.07"/>
      <polygon class="cls-1" points="34.07 11.41 35.25 11.41 36.42 11.41 36.42 10.07 35.25 10.07 34.07 10.07 34.07 11.41"/>
      <polygon class="cls-1" points="43.47 11.41 43.47 10.07 42.3 10.07 41.12 10.07 41.12 11.41 42.3 11.41 43.47 11.41"/>
      <polygon class="cls-1" points="75.2 10.07 75.2 11.41 76.37 11.41 77.55 11.41 77.55 10.07 76.37 10.07 75.2 10.07"/>
      <polygon class="cls-1" points="2.35 13.93 2.35 12.59 1.17 12.59 0 12.59 0 13.93 1.17 13.93 2.35 13.93"/>
      <polygon class="cls-1" points="10.57 12.59 9.4 12.59 9.4 13.93 10.57 13.93 11.75 13.93 12.92 13.93 12.92 12.59 11.75 12.59 10.57 12.59"/>
      <polygon class="cls-1" points="28.2 12.59 27.02 12.59 25.85 12.59 24.67 12.59 24.67 13.93 25.85 13.93 27.02 13.93 28.2 13.93 28.2 12.59"/>
      <polygon class="cls-1" points="34.07 13.93 35.25 13.93 36.42 13.93 36.42 12.59 35.25 12.59 34.07 12.59 34.07 13.93"/>
      <polygon class="cls-1" points="43.47 13.93 43.47 12.59 42.3 12.59 41.12 12.59 41.12 13.93 42.3 13.93 43.47 13.93"/>
      <polygon class="cls-1" points="75.2 12.59 75.2 13.93 76.37 13.93 77.55 13.93 77.55 12.59 76.37 12.59 75.2 12.59"/>
      <polygon class="cls-1" points="2.35 16.45 2.35 15.11 1.17 15.11 0 15.11 0 16.45 1.17 16.45 2.35 16.45"/>
      <polygon class="cls-1" points="8.22 15.11 8.22 16.45 9.4 16.45 10.57 16.45 11.75 16.45 11.75 15.11 10.57 15.11 9.4 15.11 8.22 15.11"/>
      <polygon class="cls-1" points="17.62 16.45 18.8 16.45 19.97 16.45 21.15 16.45 22.32 16.45 22.32 15.11 21.15 15.11 19.97 15.11 18.8 15.11 17.62 15.11 16.45 15.11 15.27 15.11 15.27 16.45 16.45 16.45 17.62 16.45"/>
      <polygon class="cls-1" points="25.85 15.11 25.85 16.45 27.02 16.45 28.2 16.45 28.2 15.11 27.02 15.11 25.85 15.11"/>
      <polygon class="cls-1" points="34.07 16.45 35.25 16.45 36.42 16.45 36.42 15.11 35.25 15.11 34.07 15.11 34.07 16.45"/>
      <polygon class="cls-1" points="43.47 16.45 43.47 15.11 42.3 15.11 41.12 15.11 41.12 16.45 42.3 16.45 43.47 16.45"/>
      <polygon class="cls-1" points="61.1 15.11 59.92 15.11 58.75 15.11 57.57 15.11 56.4 15.11 55.22 15.11 54.05 15.11 54.05 16.45 55.22 16.45 56.4 16.45 57.57 16.45 58.75 16.45 59.92 16.45 61.1 16.45 62.27 16.45 63.45 16.45 63.45 15.11 62.27 15.11 61.1 15.11"/>
      <polygon class="cls-1" points="75.2 15.11 75.2 16.45 76.37 16.45 77.55 16.45 77.55 15.11 76.37 15.11 75.2 15.11"/>
      <polygon class="cls-1" points="2.35 18.97 2.35 17.62 1.17 17.62 0 17.62 0 18.97 1.17 18.97 2.35 18.97"/>
      <polygon class="cls-1" points="8.22 18.97 9.4 18.97 10.57 18.97 10.57 17.62 9.4 17.62 8.22 17.62 8.22 18.97"/>
      <polygon class="cls-1" points="14.1 17.62 14.1 18.97 15.27 18.97 16.45 18.97 17.62 18.97 17.62 17.62 16.45 17.62 15.27 17.62 14.1 17.62"/>
      <polygon class="cls-1" points="23.5 17.62 22.32 17.62 21.15 17.62 19.97 17.62 19.97 18.97 21.15 18.97 22.32 18.97 23.5 18.97 23.5 17.62"/>
      <polygon class="cls-1" points="29.37 17.62 28.2 17.62 27.02 17.62 27.02 18.97 28.2 18.97 29.37 18.97 29.37 17.62"/>
      <polygon class="cls-1" points="34.07 18.97 35.25 18.97 36.42 18.97 36.42 17.62 35.25 17.62 34.07 17.62 34.07 18.97"/>
      <polygon class="cls-1" points="43.47 18.97 43.47 17.62 42.3 17.62 41.12 17.62 41.12 18.97 42.3 18.97 43.47 18.97"/>
      <polygon class="cls-1" points="54.05 18.97 55.22 18.97 56.4 18.97 57.57 18.97 57.57 17.62 56.4 17.62 55.22 17.62 54.05 17.62 54.05 18.97"/>
      <polygon class="cls-1" points="62.27 17.62 61.1 17.62 61.1 18.97 62.27 18.97 63.45 18.97 64.62 18.97 64.62 17.62 63.45 17.62 62.27 17.62"/>
      <polygon class="cls-1" points="75.2 17.62 75.2 18.97 76.37 18.97 77.55 18.97 77.55 17.62 76.37 17.62 75.2 17.62"/>
      <polygon class="cls-1" points="2.35 21.48 2.35 20.14 1.17 20.14 0 20.14 0 21.48 1.17 21.48 2.35 21.48"/>
      <rect class="cls-1" x="8.22" y="20.14" width="1.17" height="1.34"/>
      <polygon class="cls-1" points="12.92 20.14 12.92 21.48 14.1 21.48 15.27 21.48 16.45 21.48 16.45 20.14 15.27 20.14 14.1 20.14 12.92 20.14"/>
      <polygon class="cls-1" points="29.37 20.14 28.2 20.14 27.02 20.14 27.02 21.48 28.2 21.48 29.37 21.48 29.37 20.14"/>
      <polygon class="cls-1" points="34.07 21.48 35.25 21.48 36.42 21.48 36.42 20.14 35.25 20.14 34.07 20.14 34.07 21.48"/>
      <polygon class="cls-1" points="43.47 21.48 43.47 20.14 42.3 20.14 41.12 20.14 41.12 21.48 42.3 21.48 43.47 21.48"/>
      <polygon class="cls-1" points="54.05 21.48 54.44 21.48 54.83 21.48 55.22 21.48 55.61 21.48 56.01 21.48 56.4 21.48 56.79 21.48 57.18 21.48 57.57 21.48 57.57 20.14 57.18 20.14 56.79 20.14 56.4 20.14 56.01 20.14 55.61 20.14 55.22 20.14 54.83 20.14 54.44 20.14 54.05 20.14 54.05 21.48"/>
      <polygon class="cls-1" points="75.2 20.14 75.2 21.48 76.37 21.48 77.55 21.48 77.55 20.14 76.37 20.14 75.2 20.14"/>
      <polygon class="cls-1" points="2.35 24 2.35 22.66 1.17 22.66 0 22.66 0 24 1.17 24 2.35 24"/>
      <rect class="cls-1" x="8.22" y="22.66" width="1.17" height="1.34"/>
      <polygon class="cls-1" points="15.27 22.66 14.1 22.66 14.1 24 15.27 24 16.45 24 17.62 24 17.62 22.66 16.45 22.66 15.27 22.66"/>
      <polygon class="cls-1" points="23.5 24 23.5 22.66 22.32 22.66 21.15 22.66 19.97 22.66 19.97 24 21.15 24 22.32 24 23.5 24"/>
      <polygon class="cls-1" points="29.37 24 29.37 22.66 28.2 22.66 27.02 22.66 27.02 24 28.2 24 29.37 24"/>
      <polygon class="cls-1" points="34.07 24 35.25 24 36.42 24 36.42 22.66 35.25 22.66 34.07 22.66 34.07 24"/>
      <polygon class="cls-1" points="43.47 24 43.47 22.66 42.3 22.66 41.12 22.66 41.12 24 42.3 24 43.47 24"/>
      <polygon class="cls-1" points="61.1 24 62.27 24 62.27 22.66 61.1 22.66 59.92 22.66 58.75 22.66 57.57 22.66 56.4 22.66 55.22 22.66 54.05 22.66 54.05 24 55.22 24 56.4 24 57.57 24 58.75 24 59.92 24 61.1 24"/>
      <polygon class="cls-1" points="75.2 22.66 75.2 24 76.37 24 77.55 24 77.55 22.66 76.37 22.66 75.2 22.66"/>
      <polygon class="cls-1" points="2.35 26.52 2.35 25.18 1.17 25.18 0 25.18 0 26.52 1.17 26.52 2.35 26.52"/>
      <polygon class="cls-1" points="8.22 26.52 9.4 26.52 10.57 26.52 10.57 25.18 9.4 25.18 8.22 25.18 8.22 26.52"/>
      <polygon class="cls-1" points="17.29 26.52 18.3 26.52 19.3 26.52 20.31 26.52 21.32 26.52 22.32 26.52 22.32 25.18 21.32 25.18 20.31 25.18 19.3 25.18 18.3 25.18 17.29 25.18 16.28 25.18 15.27 25.18 15.27 26.52 16.28 26.52 17.29 26.52"/>
      <rect class="cls-1" x="27.02" y="25.18" width="1.17" height="1.34"/>
      <polygon class="cls-1" points="34.07 26.52 35.25 26.52 36.42 26.52 36.42 25.18 35.25 25.18 34.07 25.18 34.07 26.52"/>
      <polygon class="cls-1" points="43.47 26.52 43.47 25.18 42.3 25.18 41.12 25.18 41.12 26.52 42.3 26.52 43.47 26.52"/>
      <polygon class="cls-1" points="57.57 25.18 56.4 25.18 55.22 25.18 54.05 25.18 54.05 26.52 55.22 26.52 56.4 26.52 57.57 26.52 57.57 25.18"/>
      <polygon class="cls-1" points="62.27 25.18 61.1 25.18 59.92 25.18 59.92 26.52 61.1 26.52 62.27 26.52 63.45 26.52 64.62 26.52 64.62 25.18 63.45 25.18 62.27 25.18"/>
      <polygon class="cls-1" points="75.2 25.18 75.2 26.52 76.37 26.52 77.55 26.52 77.55 25.18 76.37 25.18 75.2 25.18"/>
      <polygon class="cls-1" points="2.35 29.04 2.35 27.7 1.17 27.7 0 27.7 0 29.04 1.17 29.04 2.35 29.04"/>
      <polygon class="cls-1" points="11.75 29.04 11.75 27.7 10.57 27.7 9.4 27.7 9.4 29.04 10.57 29.04 11.75 29.04"/>
      <polygon class="cls-1" points="28.2 29.04 28.2 27.7 27.02 27.7 25.85 27.7 25.85 29.04 27.02 29.04 28.2 29.04"/>
      <polygon class="cls-1" points="34.07 29.04 35.25 29.04 36.42 29.04 36.42 27.7 35.25 27.7 34.07 27.7 34.07 29.04"/>
      <polygon class="cls-1" points="43.47 29.04 43.47 27.7 42.3 27.7 41.12 27.7 41.12 29.04 42.3 29.04 43.47 29.04"/>
      <polygon class="cls-1" points="75.2 27.7 75.2 29.04 76.37 29.04 77.55 29.04 77.55 27.7 76.37 27.7 75.2 27.7"/>
      <polygon class="cls-1" points="2.35 31.56 2.35 30.21 1.17 30.21 0 30.21 0 31.56 1.17 31.56 2.35 31.56"/>
      <polygon class="cls-1" points="12.92 31.56 12.92 30.21 11.75 30.21 10.57 30.21 10.57 31.56 11.75 31.56 12.92 31.56"/>
      <polygon class="cls-1" points="25.85 31.56 27.02 31.56 27.02 30.21 25.85 30.21 24.67 30.21 23.5 30.21 23.5 31.56 24.67 31.56 25.85 31.56"/>
      <polygon class="cls-1" points="34.07 31.56 35.25 31.56 36.42 31.56 36.42 30.21 35.25 30.21 34.07 30.21 34.07 31.56"/>
      <polygon class="cls-1" points="43.47 31.56 43.47 30.21 42.3 30.21 41.12 30.21 41.12 31.56 42.3 31.56 43.47 31.56"/>
      <polygon class="cls-1" points="75.2 30.21 75.2 31.56 76.37 31.56 77.55 31.56 77.55 30.21 76.37 30.21 75.2 30.21"/>
      <polygon class="cls-1" points="2.35 34.07 2.35 32.73 1.17 32.73 0 32.73 0 34.07 1.17 34.07 2.35 34.07"/>
      <polygon class="cls-1" points="15.27 34.07 16.45 34.07 17.62 34.07 17.62 32.73 16.45 32.73 15.27 32.73 14.1 32.73 12.92 32.73 12.92 34.07 14.1 34.07 15.27 34.07"/>
      <polygon class="cls-1" points="18.8 34.07 21.74 34.07 24.67 34.07 24.67 32.73 21.74 32.73 18.8 32.73 15.86 32.73 12.92 32.73 12.92 34.07 15.86 34.07 18.8 34.07"/>
      <polygon class="cls-1" points="34.07 34.07 35.25 34.07 36.42 34.07 36.42 32.73 35.25 32.73 34.07 32.73 34.07 34.07"/>
      <polygon class="cls-1" points="43.47 34.07 43.47 32.73 42.3 32.73 41.12 32.73 41.12 34.07 42.3 34.07 43.47 34.07"/>
      <polygon class="cls-1" points="75.2 32.73 75.2 34.07 76.37 34.07 77.55 34.07 77.55 32.73 76.37 32.73 75.2 32.73"/>
      <polygon class="cls-1" points="2.35 36.59 2.35 35.25 1.17 35.25 0 35.25 0 36.59 1.17 36.59 2.35 36.59"/>
      <polygon class="cls-1" points="34.07 36.59 35.25 36.59 36.42 36.59 36.42 35.25 35.25 35.25 34.07 35.25 34.07 36.59"/>
      <polygon class="cls-1" points="43.47 36.59 43.47 35.25 42.3 35.25 41.12 35.25 41.12 36.59 42.3 36.59 43.47 36.59"/>
      <polygon class="cls-1" points="75.2 35.25 75.2 36.59 76.37 36.59 77.55 36.59 77.55 35.25 76.37 35.25 75.2 35.25"/>
      <polygon class="cls-1" points="2.35 39.11 2.35 37.77 1.17 37.77 0 37.77 0 39.11 1.17 39.11 2.35 39.11"/>
      <polygon class="cls-1" points="34.07 39.11 35.25 39.11 36.42 39.11 36.42 37.77 35.25 37.77 34.07 37.77 34.07 39.11"/>
      <polygon class="cls-1" points="43.47 39.11 43.47 37.77 42.3 37.77 41.12 37.77 41.12 39.11 42.3 39.11 43.47 39.11"/>
      <polygon class="cls-1" points="75.2 37.77 75.2 39.11 76.37 39.11 77.55 39.11 77.55 37.77 76.37 37.77 75.2 37.77"/>
      <polygon class="cls-1" points="2.35 41.63 3.52 41.63 4.7 41.63 5.87 41.63 7.05 41.63 8.22 41.63 9.4 41.63 10.57 41.63 11.75 41.63 12.92 41.63 14.1 41.63 15.27 41.63 16.45 41.63 17.62 41.63 18.8 41.63 19.97 41.63 21.15 41.63 22.32 41.63 23.5 41.63 24.67 41.63 25.85 41.63 27.02 41.63 28.2 41.63 29.37 41.63 30.55 41.63 31.72 41.63 32.9 41.63 34.07 41.63 35.25 41.63 36.42 41.63 36.42 40.28 35.25 40.28 34.07 40.28 32.9 40.28 31.72 40.28 30.55 40.28 29.37 40.28 28.2 40.28 27.02 40.28 25.85 40.28 24.67 40.28 23.5 40.28 22.32 40.28 21.15 40.28 19.97 40.28 18.8 40.28 17.62 40.28 16.45 40.28 15.27 40.28 14.1 40.28 12.92 40.28 11.75 40.28 10.57 40.28 9.4 40.28 8.22 40.28 7.05 40.28 5.87 40.28 4.7 40.28 3.52 40.28 2.35 40.28 1.17 40.28 0 40.28 0 41.63 1.17 41.63 2.35 41.63"/>
      <polygon class="cls-1" points="75.2 40.28 74.02 40.28 72.85 40.28 71.67 40.28 70.5 40.28 69.32 40.28 68.15 40.28 66.97 40.28 65.8 40.28 64.62 40.28 63.45 40.28 62.27 40.28 61.1 40.28 59.92 40.28 58.75 40.28 57.57 40.28 56.4 40.28 55.22 40.28 54.05 40.28 52.87 40.28 51.7 40.28 50.52 40.28 49.35 40.28 48.17 40.28 47 40.28 45.82 40.28 44.65 40.28 43.47 40.28 42.3 40.28 41.12 40.28 41.12 41.63 42.3 41.63 43.47 41.63 44.65 41.63 45.82 41.63 47 41.63 48.17 41.63 49.35 41.63 50.52 41.63 51.7 41.63 52.87 41.63 54.05 41.63 55.22 41.63 56.4 41.63 57.57 41.63 58.75 41.63 59.92 41.63 61.1 41.63 62.27 41.63 63.45 41.63 64.62 41.63 65.8 41.63 66.97 41.63 68.15 41.63 69.32 41.63 70.5 41.63 71.67 41.63 72.85 41.63 74.02 41.63 75.2 41.63 76.37 41.63 77.55 41.63 77.55 40.28 76.37 40.28 75.2 40.28"/>
      <polygon class="cls-1" points="61.1 21.4 61.49 21.4 61.88 21.4 62.27 21.4 62.66 21.4 63.06 21.4 63.45 21.4 63.84 21.4 64.23 21.4 64.62 21.4 64.62 20.06 64.23 20.06 63.84 20.06 63.45 20.06 63.06 20.06 62.66 20.06 62.27 20.06 61.88 20.06 61.49 20.06 61.1 20.06 61.1 21.4"/>
      <polygon class="cls-1" points="61.69 7.55 60.51 7.55 59.34 7.55 58.16 7.55 56.99 7.55 55.81 7.55 54.64 7.55 54.64 8.9 55.81 8.9 56.99 8.9 58.16 8.9 59.34 8.9 60.51 8.9 61.69 8.9 62.86 8.9 64.03 8.9 64.03 7.55 62.86 7.55 61.69 7.55"/>
      <polygon class="cls-1" points="53.46 10.07 52.29 10.07 52.29 11.41 53.46 11.41 54.64 11.41 55.81 11.41 55.81 10.07 54.64 10.07 53.46 10.07"/>
      <polygon class="cls-1" points="64.03 10.07 62.86 10.07 62.86 11.41 64.03 11.41 65.21 11.41 66.38 11.41 66.38 10.07 65.21 10.07 64.03 10.07"/>
      <polygon class="cls-1" points="51.11 12.59 49.94 12.59 49.94 13.93 51.11 13.93 52.29 13.93 53.46 13.93 53.46 12.59 52.29 12.59 51.11 12.59"/>
      <polygon class="cls-1" points="68.73 12.59 67.56 12.59 66.38 12.59 65.21 12.59 65.21 13.93 66.38 13.93 67.56 13.93 68.73 13.93 68.73 12.59"/>
      <polygon class="cls-1" points="48.76 15.11 48.76 16.45 49.94 16.45 51.11 16.45 52.29 16.45 52.29 15.11 51.11 15.11 49.94 15.11 48.76 15.11"/>
      <polygon class="cls-1" points="66.38 15.11 66.38 16.45 67.56 16.45 68.73 16.45 68.73 15.11 67.56 15.11 66.38 15.11"/>
      <polygon class="cls-1" points="48.76 18.97 49.94 18.97 51.11 18.97 51.11 17.62 49.94 17.62 48.76 17.62 48.76 18.97"/>
      <polygon class="cls-1" points="69.91 17.62 68.73 17.62 67.56 17.62 67.56 18.97 68.73 18.97 69.91 18.97 69.91 17.62"/>
      <rect class="cls-1" x="48.76" y="20.14" width="1.17" height="1.34"/>
      <polygon class="cls-1" points="69.91 20.14 68.73 20.14 67.56 20.14 67.56 21.48 68.73 21.48 69.91 21.48 69.91 20.14"/>
      <rect class="cls-1" x="48.76" y="22.66" width="1.17" height="1.34"/>
      <polygon class="cls-1" points="69.91 24 69.91 22.66 68.73 22.66 67.56 22.66 67.56 24 68.73 24 69.91 24"/>
      <polygon class="cls-1" points="48.76 26.52 49.94 26.52 51.11 26.52 51.11 25.18 49.94 25.18 48.76 25.18 48.76 26.52"/>
      <rect class="cls-1" x="67.56" y="25.18" width="1.17" height="1.34"/>
      <polygon class="cls-1" points="52.29 29.04 52.29 27.7 51.11 27.7 49.94 27.7 49.94 29.04 51.11 29.04 52.29 29.04"/>
      <polygon class="cls-1" points="68.73 29.04 68.73 27.7 67.56 27.7 66.38 27.7 66.38 29.04 67.56 29.04 68.73 29.04"/>
      <polygon class="cls-1" points="53.46 31.56 53.46 30.21 52.29 30.21 51.11 30.21 51.11 31.56 52.29 31.56 53.46 31.56"/>
      <polygon class="cls-1" points="66.38 31.56 67.56 31.56 67.56 30.21 66.38 30.21 65.21 30.21 64.03 30.21 64.03 31.56 65.21 31.56 66.38 31.56"/>
      <polygon class="cls-1" points="58.75 34.07 61.98 34.07 65.21 34.07 65.21 32.73 61.98 32.73 58.75 32.73 55.52 32.73 52.29 32.73 52.29 34.07 55.52 34.07 58.75 34.07"/>
    </g>
  </g>
</svg>