<?xml version="1.0" encoding="UTF-8"?>
<svg id="Livello_2" data-name="Livello 2" xmlns="http://www.w3.org/2000/svg" viewBox="0 0 47 46.66">
  <defs>
    <style>
      .cls-1 {
        fill: #fff;
      }
    </style>
  </defs>
  <g id="Livello_1-2" data-name="Livello 1">
    <g>
      <polygon class="cls-1" points="25.85 0 24.67 0 23.5 0 22.32 0 21.15 0 19.97 0 18.8 0 18.8 1.34 19.97 1.34 21.15 1.34 22.32 1.34 23.5 1.34 24.67 1.34 25.85 1.34 27.02 1.34 28.2 1.34 29.37 1.34 29.37 0 28.2 0 27.02 0 25.85 0"/>
      <polygon class="cls-1" points="17.62 2.52 16.45 2.52 15.27 2.52 14.1 2.52 14.1 3.86 15.27 3.86 16.45 3.86 17.62 3.86 18.8 3.86 19.97 3.86 21.15 3.86 22.32 3.86 23.5 3.86 24.67 3.86 25.85 3.86 27.02 3.86 28.2 3.86 29.37 3.86 30.55 3.86 31.72 3.86 32.9 3.86 32.9 2.52 31.72 2.52 30.55 2.52 29.37 2.52 28.2 2.52 27.02 2.52 25.85 2.52 24.67 2.52 23.5 2.52 22.32 2.52 21.15 2.52 19.97 2.52 18.8 2.52 17.62 2.52"/>
      <polygon class="cls-1" points="11.75 5.04 11.75 6.38 12.92 6.38 14.1 6.38 15.27 6.38 16.45 6.38 17.62 6.38 18.8 6.38 19.97 6.38 21.15 6.38 22.32 6.38 23.5 6.38 24.67 6.38 25.85 6.38 27.02 6.38 28.2 6.38 29.37 6.38 30.55 6.38 31.72 6.38 32.9 6.38 34.07 6.38 35.25 6.38 36.42 6.38 36.42 5.04 35.25 5.04 34.07 5.04 32.9 5.04 31.72 5.04 30.55 5.04 29.37 5.04 28.2 5.04 27.02 5.04 25.85 5.04 24.67 5.04 23.5 5.04 22.32 5.04 21.15 5.04 19.97 5.04 18.8 5.04 17.62 5.04 16.45 5.04 15.27 5.04 14.1 5.04 12.92 5.04 11.75 5.04"/>
      <polygon class="cls-1" points="11.75 8.9 12.92 8.9 14.1 8.9 15.27 8.9 16.45 8.9 17.62 8.9 18.8 8.9 19.97 8.9 21.15 8.9 22.32 8.9 23.5 8.9 24.67 8.9 25.85 8.9 27.02 8.9 28.2 8.9 29.37 8.9 30.55 8.9 31.72 8.9 32.9 8.9 32.9 7.55 31.72 7.55 30.55 7.55 29.37 7.55 28.2 7.55 27.02 7.55 25.85 7.55 24.67 7.55 23.5 7.55 22.32 7.55 21.15 7.55 19.97 7.55 18.8 7.55 17.62 7.55 16.45 7.55 15.27 7.55 14.1 7.55 12.92 7.55 11.75 7.55 11.75 8.9"/>
      <polygon class="cls-1" points="36.42 7.55 35.25 7.55 34.07 7.55 34.07 8.9 35.25 8.9 36.42 8.9 36.42 7.55"/>
      <polygon class="cls-1" points="11.75 11.41 12.92 11.41 14.1 11.41 14.1 10.07 12.92 10.07 11.75 10.07 11.75 11.41"/>
      <polygon class="cls-1" points="29.37 11.41 29.37 10.07 28.2 10.07 27.02 10.07 25.85 10.07 24.67 10.07 23.5 10.07 22.32 10.07 21.15 10.07 19.97 10.07 18.8 10.07 18.8 11.41 19.97 11.41 21.15 11.41 22.32 11.41 23.5 11.41 24.67 11.41 25.85 11.41 27.02 11.41 28.2 11.41 29.37 11.41"/>
      <polygon class="cls-1" points="36.42 10.07 35.25 10.07 34.07 10.07 34.07 11.41 35.25 11.41 36.42 11.41 36.42 10.07"/>
      <polygon class="cls-1" points="11.75 13.93 12.92 13.93 14.1 13.93 14.1 12.59 12.92 12.59 11.75 12.59 11.75 13.93"/>
      <polygon class="cls-1" points="27.02 13.93 28.2 13.93 28.2 12.59 27.02 12.59 25.85 12.59 24.67 12.59 23.5 12.59 22.32 12.59 21.15 12.59 19.97 12.59 19.97 13.93 21.15 13.93 22.32 13.93 23.5 13.93 24.67 13.93 25.85 13.93 27.02 13.93"/>
      <polygon class="cls-1" points="36.42 12.59 35.25 12.59 34.07 12.59 34.07 13.93 35.25 13.93 36.42 13.93 36.42 12.59"/>
      <polygon class="cls-1" points="11.75 16.45 12.92 16.45 14.1 16.45 14.1 15.11 12.92 15.11 11.75 15.11 11.75 16.45"/>
      <polygon class="cls-1" points="25.85 15.11 24.67 15.11 23.5 15.11 22.32 15.11 22.32 16.45 23.5 16.45 24.67 16.45 25.85 16.45 25.85 15.11"/>
      <polygon class="cls-1" points="34.07 15.11 34.07 16.45 35.25 16.45 36.42 16.45 36.42 15.11 35.25 15.11 34.07 15.11"/>
      <polygon class="cls-1" points="10.57 17.62 10.57 18.97 11.75 18.97 12.92 18.97 14.1 18.97 15.27 18.97 16.45 18.97 16.45 17.62 15.27 17.62 14.1 17.62 12.92 17.62 11.75 17.62 10.57 17.62"/>
      <polygon class="cls-1" points="25.85 17.62 24.67 17.62 23.5 17.62 22.32 17.62 22.32 18.97 23.5 18.97 24.67 18.97 25.85 18.97 25.85 17.62"/>
      <polygon class="cls-1" points="35.25 17.62 34.07 17.62 32.9 17.62 31.72 17.62 31.72 18.97 32.9 18.97 34.07 18.97 35.25 18.97 36.42 18.97 37.6 18.97 37.6 17.62 36.42 17.62 35.25 17.62"/>
      <polygon class="cls-1" points="9.4 20.14 8.22 20.14 7.05 20.14 7.05 21.48 8.22 21.48 9.4 21.48 10.57 21.48 11.75 21.48 12.92 21.48 14.1 21.48 15.27 21.48 16.45 21.48 17.62 21.48 18.8 21.48 18.8 20.14 17.62 20.14 16.45 20.14 15.27 20.14 14.1 20.14 12.92 20.14 11.75 20.14 10.57 20.14 9.4 20.14"/>
      <polygon class="cls-1" points="23.5 20.14 22.32 20.14 22.32 21.48 23.5 21.48 24.67 21.48 25.85 21.48 25.85 20.14 24.67 20.14 23.5 20.14"/>
      <polygon class="cls-1" points="32.9 21.48 34.07 21.48 34.07 20.14 32.9 20.14 31.72 20.14 30.55 20.14 29.37 20.14 29.37 21.48 30.55 21.48 31.72 21.48 32.9 21.48"/>
      <polygon class="cls-1" points="38.77 20.14 37.6 20.14 36.42 20.14 35.25 20.14 35.25 21.48 36.42 21.48 37.6 21.48 38.77 21.48 39.95 21.48 41.12 21.48 41.12 20.14 39.95 20.14 38.77 20.14"/>
      <polygon class="cls-1" points="5.87 22.66 4.7 22.66 3.52 22.66 2.35 22.66 2.35 24 3.52 24 4.7 24 5.87 24 7.05 24 8.22 24 9.4 24 10.57 24 11.75 24 12.92 24 14.1 24 15.27 24 16.45 24 17.62 24 18.8 24 19.97 24 21.15 24 22.32 24 23.5 24 24.67 24 25.85 24 27.02 24 28.2 24 29.37 24 29.37 22.66 28.2 22.66 27.02 22.66 25.85 22.66 24.67 22.66 23.5 22.66 22.32 22.66 21.15 22.66 19.97 22.66 18.8 22.66 17.62 22.66 16.45 22.66 15.27 22.66 14.1 22.66 12.92 22.66 11.75 22.66 10.57 22.66 9.4 22.66 8.22 22.66 7.05 22.66 5.87 22.66"/>
      <polygon class="cls-1" points="43.47 24 44.65 24 45.82 24 45.82 22.66 44.65 22.66 43.47 22.66 42.3 22.66 41.12 22.66 41.12 24 42.3 24 43.47 24"/>
      <polygon class="cls-1" points="3.52 26.52 4.7 26.52 5.87 26.52 7.05 26.52 8.22 26.52 9.4 26.52 10.57 26.52 11.75 26.52 12.92 26.52 14.1 26.52 15.27 26.52 16.45 26.52 17.62 26.52 18.8 26.52 19.97 26.52 21.15 26.52 22.32 26.52 23.5 26.52 24.67 26.52 25.85 26.52 27.02 26.52 28.2 26.52 28.2 25.18 27.02 25.18 25.85 25.18 24.67 25.18 23.5 25.18 22.32 25.18 21.15 25.18 19.97 25.18 18.8 25.18 17.62 25.18 16.45 25.18 15.27 25.18 14.1 25.18 12.92 25.18 11.75 25.18 10.57 25.18 9.4 25.18 8.22 25.18 7.05 25.18 5.87 25.18 4.7 25.18 3.52 25.18 2.35 25.18 1.17 25.18 0 25.18 0 26.52 1.17 26.52 2.35 26.52 3.52 26.52"/>
      <polygon class="cls-1" points="44.65 25.18 43.47 25.18 42.3 25.18 42.3 26.52 43.47 26.52 44.65 26.52 45.82 26.52 47 26.52 47 25.18 45.82 25.18 44.65 25.18"/>
      <polygon class="cls-1" points="2.35 27.7 1.17 27.7 0 27.7 0 29.04 1.17 29.04 2.35 29.04 2.35 27.7"/>
      <polygon class="cls-1" points="5.87 29.04 7.05 29.04 8.22 29.04 9.4 29.04 10.57 29.04 11.75 29.04 12.92 29.04 14.1 29.04 15.27 29.04 16.45 29.04 17.62 29.04 18.8 29.04 19.97 29.04 21.15 29.04 21.15 27.7 19.97 27.7 18.8 27.7 17.62 27.7 16.45 27.7 15.27 27.7 14.1 27.7 12.92 27.7 11.75 27.7 10.57 27.7 9.4 27.7 8.22 27.7 7.05 27.7 5.87 27.7 4.7 27.7 3.52 27.7 3.52 29.04 4.7 29.04 5.87 29.04"/>
      <polygon class="cls-1" points="29.37 27.7 28.2 27.7 27.02 27.7 25.85 27.7 24.67 27.7 23.5 27.7 22.32 27.7 22.32 29.04 23.5 29.04 24.67 29.04 25.85 29.04 27.02 29.04 28.2 29.04 29.37 29.04 30.55 29.04 31.72 29.04 31.72 27.7 30.55 27.7 29.37 27.7"/>
      <polygon class="cls-1" points="41.12 29.04 42.3 29.04 43.47 29.04 43.47 27.7 42.3 27.7 41.12 27.7 39.95 27.7 38.77 27.7 38.77 29.04 39.95 29.04 41.12 29.04"/>
      <polygon class="cls-1" points="44.65 27.7 44.65 29.04 45.82 29.04 47 29.04 47 27.7 45.82 27.7 44.65 27.7"/>
      <polygon class="cls-1" points="2.35 30.21 1.17 30.21 0 30.21 0 31.56 1.17 31.56 2.35 31.56 2.35 30.21"/>
      <polygon class="cls-1" points="10.57 31.56 11.75 31.56 12.92 31.56 14.1 31.56 15.27 31.56 16.45 31.56 16.45 30.21 15.27 30.21 14.1 30.21 12.92 30.21 11.75 30.21 10.57 30.21 9.4 30.21 8.22 30.21 8.22 31.56 9.4 31.56 10.57 31.56"/>
      <polygon class="cls-1" points="39.95 31.56 39.95 30.21 38.77 30.21 37.6 30.21 36.42 30.21 35.25 30.21 34.07 30.21 32.9 30.21 31.72 30.21 30.55 30.21 29.37 30.21 28.2 30.21 27.02 30.21 25.85 30.21 24.67 30.21 23.5 30.21 22.32 30.21 22.32 31.56 23.5 31.56 24.67 31.56 25.85 31.56 27.02 31.56 28.2 31.56 29.37 31.56 30.55 31.56 31.72 31.56 32.9 31.56 34.07 31.56 35.25 31.56 36.42 31.56 37.6 31.56 38.77 31.56 39.95 31.56"/>
      <polygon class="cls-1" points="44.65 30.21 44.65 31.56 45.82 31.56 47 31.56 47 30.21 45.82 30.21 44.65 30.21"/>
      <polygon class="cls-1" points="2.35 32.73 1.17 32.73 0 32.73 0 34.07 1.17 34.07 2.35 34.07 2.35 32.73"/>
      <polygon class="cls-1" points="12.83 34.07 13.23 34.07 13.62 34.07 14.01 34.07 14.01 32.73 13.62 32.73 13.23 32.73 12.83 32.73 12.44 32.73 12.05 32.73 11.66 32.73 11.66 34.07 12.05 34.07 12.44 34.07 12.83 34.07"/>
      <polygon class="cls-1" points="36.42 32.73 35.25 32.73 34.07 32.73 32.9 32.73 31.72 32.73 30.55 32.73 29.37 32.73 28.2 32.73 27.02 32.73 25.85 32.73 24.67 32.73 23.5 32.73 22.32 32.73 22.32 34.07 23.5 34.07 24.67 34.07 25.85 34.07 27.02 34.07 28.2 34.07 29.37 34.07 30.55 34.07 31.72 34.07 32.9 34.07 34.07 34.07 35.25 34.07 36.42 34.07 36.42 32.73"/>
      <polygon class="cls-1" points="44.65 32.73 44.65 34.07 45.82 34.07 47 34.07 47 32.73 45.82 32.73 44.65 32.73"/>
      <polygon class="cls-1" points="0 35.25 0 36.59 1.17 36.59 2.35 36.59 2.35 35.25 1.17 35.25 0 35.25"/>
      <polygon class="cls-1" points="14.1 35.25 12.92 35.25 11.75 35.25 11.75 36.59 12.92 36.59 14.1 36.59 14.1 35.25"/>
      <polygon class="cls-1" points="36.42 35.25 35.54 35.25 34.66 35.25 33.78 35.25 32.9 35.25 32.02 35.25 31.14 35.25 30.26 35.25 29.37 35.25 28.49 35.25 27.61 35.25 26.73 35.25 25.85 35.25 24.97 35.25 24.09 35.25 23.21 35.25 22.32 35.25 22.32 36.59 23.21 36.59 24.09 36.59 24.97 36.59 25.85 36.59 26.73 36.59 27.61 36.59 28.49 36.59 29.37 36.59 30.26 36.59 31.14 36.59 32.02 36.59 32.9 36.59 33.78 36.59 34.66 36.59 35.54 36.59 36.42 36.59 36.42 35.25"/>
      <polygon class="cls-1" points="44.65 35.25 44.65 36.59 45.82 36.59 47 36.59 47 35.25 45.82 35.25 44.65 35.25"/>
      <polygon class="cls-1" points="4.7 39.11 4.7 37.77 3.52 37.77 2.35 37.77 1.17 37.77 0 37.77 0 39.11 1.17 39.11 2.35 39.11 3.52 39.11 4.7 39.11"/>
      <polygon class="cls-1" points="14.1 37.77 12.92 37.77 11.75 37.77 11.75 39.11 12.92 39.11 14.1 39.11 14.1 37.77"/>
      <polygon class="cls-1" points="36.42 37.77 35.25 37.77 34.07 37.77 32.9 37.77 31.72 37.77 30.55 37.77 29.37 37.77 28.2 37.77 27.02 37.77 25.85 37.77 24.67 37.77 23.5 37.77 22.32 37.77 21.15 37.77 21.15 39.11 22.32 39.11 23.5 39.11 24.67 39.11 25.85 39.11 27.02 39.11 28.2 39.11 29.37 39.11 30.55 39.11 31.72 39.11 32.9 39.11 34.07 39.11 35.25 39.11 36.42 39.11 36.42 37.77"/>
      <polygon class="cls-1" points="44.65 37.77 43.47 37.77 43.47 39.11 44.65 39.11 45.82 39.11 47 39.11 47 37.77 45.82 37.77 44.65 37.77"/>
      <polygon class="cls-1" points="7.05 41.63 8.22 41.63 9.4 41.63 9.4 40.28 8.22 40.28 7.05 40.28 5.87 40.28 4.7 40.28 3.52 40.28 3.52 41.63 4.7 41.63 5.87 41.63 7.05 41.63"/>
      <polygon class="cls-1" points="11.75 40.28 11.75 41.63 12.92 41.63 14.1 41.63 14.1 40.28 12.92 40.28 11.75 40.28"/>
      <polygon class="cls-1" points="18.8 41.63 19.97 41.63 21.15 41.63 22.32 41.63 22.32 40.28 21.15 40.28 19.97 40.28 18.8 40.28 17.62 40.28 16.45 40.28 16.45 41.63 17.62 41.63 18.8 41.63"/>
      <polygon class="cls-1" points="31.72 41.63 32.9 41.63 34.07 41.63 35.25 41.63 36.42 41.63 36.42 40.28 35.25 40.28 34.07 40.28 32.9 40.28 31.72 40.28 30.55 40.28 29.37 40.28 28.2 40.28 27.02 40.28 25.85 40.28 25.85 41.63 27.02 41.63 28.2 41.63 29.37 41.63 30.55 41.63 31.72 41.63"/>
      <polygon class="cls-1" points="42.3 40.28 41.12 40.28 39.95 40.28 38.77 40.28 38.77 41.63 39.95 41.63 41.12 41.63 42.3 41.63 43.47 41.63 44.65 41.63 44.65 40.28 43.47 40.28 42.3 40.28"/>
      <polygon class="cls-1" points="8.22 42.8 8.22 44.14 9.4 44.14 10.57 44.14 11.75 44.14 12.92 44.14 14.1 44.14 15.27 44.14 16.45 44.14 17.62 44.14 17.62 42.8 16.45 42.8 15.27 42.8 14.1 42.8 12.92 42.8 11.75 42.8 10.57 42.8 9.4 42.8 8.22 42.8"/>
      <polygon class="cls-1" points="37.6 42.8 36.42 42.8 35.25 42.8 34.07 42.8 32.9 42.8 31.72 42.8 30.55 42.8 30.55 44.14 31.72 44.14 32.9 44.14 34.07 44.14 35.25 44.14 36.42 44.14 37.6 44.14 38.77 44.14 39.95 44.14 39.95 42.8 38.77 42.8 37.6 42.8"/>
      <rect class="cls-1" x="11.75" y="45.32" width="1.17" height="1.34"/>
      <rect class="cls-1" x="34.07" y="45.32" width="1.17" height="1.34"/>
    </g>
  </g>
</svg>